<svg width="1080" height="1080" viewBox="0 0 1080 1080" fill="none" xmlns="http://www.w3.org/2000/svg">
<rect width="1080" height="1080" fill="#B3B3B3"/>
<path d="M540.484 610.97C517.046 610.97 493.608 610.97 470.169 610.97C469.025 610.97 467.865 610.97 466.715 610.852C460.847 610.304 458.488 606.351 460.99 601.006C463.162 596.392 465.531 591.896 467.83 587.331C478.687 565.838 489.544 544.347 500.402 522.86C500.737 522.204 501.088 521.547 501.477 520.92C504.211 516.538 508.653 515.921 512.152 519.701C514.619 522.347 516.707 525.318 518.908 528.185C530.094 542.802 541.28 557.427 552.466 572.057C557.352 578.424 563.506 578.769 569.246 573.044C572.093 570.202 574.876 567.285 577.758 564.467C582.955 559.384 588.852 559.69 593.097 565.617C601.615 577.511 609.92 589.562 618.265 601.574C618.918 602.516 619.417 603.556 619.746 604.653C620.555 607.412 619.41 609.633 616.612 610.368C614.858 610.788 613.056 610.982 611.253 610.946C587.676 610.985 564.087 610.993 540.484 610.97Z" fill="#333333"/>
<path d="M593.047 493.195C593.041 497.783 591.673 502.266 589.116 506.075C586.56 509.884 582.93 512.848 578.686 514.592C574.443 516.336 569.777 516.78 565.281 515.869C560.784 514.957 556.66 512.732 553.43 509.473C550.201 506.215 548.011 502.071 547.139 497.567C546.267 493.063 546.752 488.402 548.533 484.174C550.314 479.946 553.31 476.342 557.141 473.818C560.973 471.295 565.467 469.966 570.055 470.001C576.164 470.078 581.997 472.553 586.298 476.892C590.599 481.231 593.023 487.086 593.047 493.195Z" fill="#333333"/>
</svg>
