<svg xmlns="http://www.w3.org/2000/svg" version="1.1" xmlns:xlink="http://www.w3.org/1999/xlink" width="512" height="604.54"><svg id="SvgjsSvg1167" data-name="Layer 2" xmlns="http://www.w3.org/2000/svg" viewBox="0 0 512 604.54">
  <defs>
    <style>
      .cls-1 {
        fill: #14116c;
      }

      .cls-2 {
        fill: #101110;
      }

      .cls-3 {
        fill: #fdfdfd;
      }
    </style>
  </defs>
  <g id="SvgjsG1166" data-name="Layer 3">
    <g>
      <path class="cls-1" d="M371.93,520.44c-27.38,27.48-63.55,58.72-98.05,76.53-3.21,1.66-15.51,7.71-18.35,7.56-1.45-.07-7.98-3.02-9.84-3.84-29.88-13.17-60.73-38.71-84.94-60.5C66.87,455.72,15.72,339.67,6.16,213.94,3.36,177.16,2.01,139.41.93,102.55c-.18-6.32-1.53-13.17-.62-19.57.73-5.16,4.06-5.79,8.34-6.73,27.75-6.07,57.24-8.79,85.41-14.83,48.68-10.43,92.34-28.37,137.03-49.68C236.6,9.13,251.04,0,256.08,0c1.89,0,3.48.72,5.16,1.44,6.04,2.6,12.45,6.75,18.52,9.65,47.89,22.88,92.64,40.84,144.99,51.54,25.78,5.27,53.5,7.86,78.77,13.6,11.74,2.67,7.97,9.9,7.7,19.1-2.03,71-3.04,144.46-21.12,213.41-20.87,79.55-60.01,153.33-118.16,211.69ZM4.99,81.44c-2.07,2.08-.24,15.09-.13,18.49,1.13,34.29,2.25,68.6,4.57,102.87,9.6,142.17,63.16,258.84,172.28,350.5,17.44,14.65,48.88,38.78,70.12,45.84,2.43.81,3.2,1.27,5.92.71,10.66-2.19,38.3-20.39,48-27.34,111.72-80.05,182.33-206.29,195-343.5,4.11-44.49,5.63-92.31,6.53-136.94.09-4.24,2.91-10.23-3.22-11.8-33.86-5.73-68.04-10.47-101.46-18.43-40.26-9.59-79.61-25.98-116.96-43.54-8.32-3.91-17.83-10.06-25.97-13.34-1.34-.54-2.77-1.1-4.25-1.03-45.56,22.33-91.94,44.72-141.57,56.99-17.74,4.39-35.88,7.76-53.87,10.98-16.44,2.95-35.46,4.47-51.36,8.25-.85.2-3.14.79-3.63,1.28Z"></path>
      <path class="cls-3" d="M4.99,81.44c.49-.49,2.78-1.08,3.63-1.28,15.9-3.78,34.92-5.3,51.36-8.25,17.99-3.22,36.14-6.6,53.87-10.98,49.62-12.27,96-34.66,141.57-56.99,1.48-.07,2.91.49,4.25,1.03,8.15,3.28,17.65,9.42,25.97,13.34,37.35,17.56,76.7,33.95,116.96,43.54,33.41,7.96,67.6,12.69,101.46,18.43,6.13,1.57,3.3,7.56,3.22,11.8-.9,44.63-2.42,92.46-6.53,136.94-12.68,137.21-83.28,263.45-195,343.5-9.71,6.96-37.35,25.15-48,27.34-2.72.56-3.49.1-5.92-.71-21.24-7.06-52.68-31.19-70.12-45.84C72.59,461.64,19.04,344.97,9.43,202.8c-2.32-34.28-3.44-68.58-4.57-102.87-.11-3.4-1.95-16.41.13-18.49ZM22.02,97.16c-1.31,1.27-.89,15.59-.83,18.55.51,27.52,2.27,56.87,3.96,84.48,8.6,140.38,56.93,253.13,166.74,342.29,15.53,12.61,40.53,30.84,59.04,37.92,2.73,1.04,3.68,1.76,6.82,1.12,9.34-1.91,31.94-16.5,40.52-22.37,73.61-50.39,132.99-128.37,161.88-212.84,26.7-78.07,29.22-155.4,30.75-237.19.07-3.8,2.22-8.69-1-12.04-28.33-5.81-57.28-9.17-85.57-15.32-41.96-9.12-80.65-25.06-119.34-43.13-4.64-2.17-25.9-13.85-28.88-13.65-48.05,23.15-95.81,45.33-148.3,56.77-26.76,5.84-55.3,8.08-81.49,14.15-1.05.24-3.7.68-4.31,1.27Z"></path>
      <path class="cls-1" d="M22.02,97.16c.61-.59,3.26-1.02,4.31-1.27,26.19-6.08,54.73-8.32,81.49-14.15,52.49-11.45,100.25-33.62,148.3-56.77,2.98-.2,24.23,11.48,28.88,13.65,38.69,18.07,77.38,34,119.34,43.13,28.29,6.15,57.24,9.51,85.57,15.32,3.23,3.35,1.08,8.24,1,12.04-1.53,81.79-4.05,159.12-30.75,237.19-28.89,84.47-88.27,162.46-161.88,212.84-8.58,5.87-31.18,20.46-40.52,22.37-3.14.64-4.09-.08-6.82-1.12-18.51-7.08-43.51-25.3-59.04-37.92C82.08,453.32,33.75,340.57,25.15,200.18c-1.69-27.61-3.46-56.95-3.96-84.48-.05-2.96-.48-17.28.83-18.55ZM39.68,110.22c-1.3,1.81-.12,3.55-.09,5.43,1.55,89.29,3.74,174.36,39.82,257.6,30.37,70.08,88.92,141.56,155.18,180.24,4.03,2.35,18.26,10.97,21.96,10.5,2.6-.33,12.63-5.81,15.59-7.41,13.5-7.27,27.01-16.96,38.95-26.56,78.37-63.04,125.79-141.98,147.43-240.4,11.18-50.85,10.67-102.54,13.45-154.26l.31-24.6-2.14-1.13c-30.68-5.64-61.8-9.54-92.02-17.39-42.75-11.11-82.99-30.06-122.04-50.21-34.31,17.43-69.7,34.63-106.61,45.98-35.73,10.99-73.1,15.45-109.79,22.21Z"></path>
      <g>
        <path class="cls-2" d="M394.63,195.28l3.87.07,3.99,12.38v-12.45h3.93v24.57c0,.85-3.03,1.41-3.85.89l-4.02-13.01v12.12c0,1.3-3.93,1.3-3.93,0v-24.57Z"></path>
        <path class="cls-2" d="M233.47,161.21l3.84.09,4.02,12.36v-12.45h3.28c1.32,8.35-.02,16.53,0,24.9l-3.62-.64-3.59-10.5v11.14h-3.93v-24.89Z"></path>
        <path class="cls-2" d="M316.67,127.14l3.87.07,3.99,12.38v-12.45h3.28v24.89c-5.5.35-3.25.09-4.09-3.44l-3.12-9v11.46c0,1-3,1.16-3.93.98v-24.89Z"></path>
        <path class="cls-2" d="M256.4,161.21v20.96h1.97v-20.96h3.93v21.95c0,.52-1.71,2.49-2.36,2.87-3.64,2.11-8.12-1.15-8.12-4.84v-19.98h4.59Z"></path>
        <path class="cls-2" d="M270.16,161.21c4.47-.19,8.93-.79,10.2,4.54,1.16,4.85-1.63,6.27-1.7,9.52-.04,1.76,2.58,10.25,1.98,10.83-6,1.52-4.38-4.4-5.43-8.66-.17-.67-.18-1.97-1.12-1.82v10.48h-3.93v-24.89ZM276,165.19c-.22-.13-1.84-.11-1.91-.05-.24.23-.24,6.33,0,6.56,2.4,2.3,3.47-5.55,1.91-6.51Z"></path>
        <path class="cls-2" d="M385.93,196.12c.73.72,1.39,2.98,1.51,4.06.34,3.06.45,14.2-.16,16.91-1.19,5.34-9.41,5.1-10.3-1.21-.48-3.43-.52-16.49,1.26-18.97s5.48-2.99,7.69-.79ZM380.88,199.54c-.69,2.38,0,12.94,0,16.38,0,1.13,2.62,1.13,2.62,0v-16.38c0-.85-2.2-1.47-2.62,0Z"></path>
        <path class="cls-2" d="M338.77,126.62c3.18-.69,6.17.86,6.69,4.17.48,3.07.48,14.54,0,17.61-.72,4.61-7.72,5.18-9.63,1.2-1.21-2.52-1.21-15.56-.65-18.69.37-2.05,1.44-3.82,3.6-4.28ZM341.57,130.42c-.76-.26-2.62.29-2.62.98v16.38c0,1.13,2.62,1.13,2.62,0v-17.36Z"></path>
        <path class="cls-2" d="M286.72,219.33c-.73-.72-1.39-2.98-1.51-4.06-.33-2.96-.43-13.63.16-16.25,1.26-5.6,8.96-5.57,10.21,0,.51,2.3.51,15.76,0,18.06-.84,3.8-6.3,4.78-8.85,2.25ZM289.16,199.54c-.69,2.38,0,12.94,0,16.38,0,1.13,2.62,1.13,2.62,0v-16.38c0-.85-2.2-1.47-2.62,0Z"></path>
        <path class="cls-2" d="M339.61,195.27l3.93,24.89h-4.59s0-4.58,0-4.58c-6.37-.95-2.75,1.85-4.22,3.98-.65.94-2.61.58-3.65.61l3.28-24.89h5.24ZM338.29,211c-.57-2.19-.46-4.51-.82-6.72-.09-.59-.28-1.97-1.14-1.79l-.66,8.51h2.61Z"></path>
        <path class="cls-2" d="M241.3,195.31c.9.88,2.88,21.82,3.96,24.86-.92-.17-3.39.33-3.86-.07-1.32-1.12,1.35-6.1-4.66-4.52v4.59s-3.93,0-3.93,0l3.28-24.9c1.03.19,4.87-.3,5.21.04ZM240.02,211.65c.18-.18,0-3.95-.08-4.83s-.37-4.03-1.22-4.34c-.01,1.89-1.97,7.98-.68,8.86.52.35,1.81.48,1.98.3Z"></path>
        <path class="cls-2" d="M261.65,201.83c-.93-.17-3.38.33-3.86-.08-.21-.18-1.21-6.48-2.6-2.1-1.14,3.58,5.18,8.34,6.15,11.98,3.1,11.61-11.16,12.64-10.83,1.34,5.07-.84,3.17.91,5.57,3.92,4.82-2.79-3.02-9.16-4.3-12.74-3.81-10.67,9.93-13.38,9.86-2.33Z"></path>
        <path class="cls-2" d="M277.18,196.12c.8.8,2.1,5.1,1.5,5.71-.85-.15-3.62.26-3.91-.03-.18-.18.22-2.99-1.02-3.24-1.55-.32-1.71,1.86-1.67,2.93.15,3.73,5.37,6.68,6.28,10.15,3.09,11.64-11.4,12.44-10.83,1.33.92.16,3.4-.33,3.86.07.24.21.64,6.66,3.03,3.22,2.92-4.18-11.15-12.51-4.63-19.7,2-2.2,5.23-2.59,7.38-.44Z"></path>
        <path class="cls-2" d="M306.85,215.91c.15.52,1.55,1.34,1.96.98.2-.18.74-4.4.66-5.24,1.56-.04,3.81-.43,3.94,1.63.55,8.51-9.61,10.41-10.51,2.64-.32-2.75-.32-17.28.74-18.95,1.26-1.99,5.7-2.38,7.51-1.1,2.14,1.51,1.55,5.6,1.59,7.91-.72-.11-3.11.18-3.28,0-.42-.43,1.2-5.55-2.62-4.59.79,4.32-1.07,12.98,0,16.71Z"></path>
        <path class="cls-2" d="M297.68,167.76c-.85-.15-3.63.25-3.91-.03-.29-.31.47-3.73-1.99-3.24-2.32,4.83,4.48,8.67,5.59,12.42,3.56,11.96-11.13,13.33-10.18,1.99.98.07,2.54-.27,3.32.29.23.16,1.58,6.03,3.23,3.22,2.65-4.51-6.36-10.14-6.59-14.98-.42-8.91,11.96-8.74,10.53.34Z"></path>
        <path class="cls-2" d="M330.43,167.76c-2.94.3-4.3-.04-3.93-3.28-7.16,1.04,1.97,8.87,3.21,12.19,4.49,12.04-10.47,13.63-9.76,2.22.81.13,3.74-.2,3.94,0,.22.23.45,7.79,2.8,2.43,1.6-3.65-6.55-9.43-6.68-14.61-.19-8.01,12.27-7.68,10.43,1.05Z"></path>
        <path class="cls-2" d="M291.78,142.21v9.83h-3.93v-24.89c3.71.2,6.73-1.16,9.17,2.3,3.24,4.6,1.36,12.81-5.24,12.77ZM291.13,138.28c4.54,1.13,4.27-5.85,1.63-7.86-2.56-.54-1.41,6.56-1.63,7.86Z"></path>
        <path class="cls-2" d="M304.88,161.21h8.52s0,3.93,0,3.93c-.9.16-4.37-.23-4.59,0s-.24,6.33,0,6.56c.33.32,2.87-.56,3.29.37.87,5.93-2.39,2.68-3.29,3.55-.24.23-.23,6.33,0,6.56.68.67,6.67-1.89,5.24,3.93h-9.17v-24.89Z"></path>
        <path class="cls-2" d="M233.47,127.47c.56-1.81,7.4-.68,9.18-.99v4.59c-.97.17-5.01-.24-5.25,0-.21.21-.21,5.7,0,5.9.26.25,3.68-.26,3.94,0,.16.16.16,4.43,0,4.59-.21.21-3.12-.15-3.93,0v10.48h-3.93v-24.57Z"></path>
        <path class="cls-2" d="M359.91,195.28v3.93s-3.93,0-3.93,0v20.96h-3.93v-20.96c-4.16.45-3.33-.18-3.28-3.93h11.14Z"></path>
        <path class="cls-2" d="M264.92,148.76c.22.22,3.7-.16,4.59,0v3.28s-8.52,0-8.52,0v-24.89c.94-.17,3.93-.02,3.93.98,0,2.77-.73,19.91,0,20.64Z"></path>
        <path class="cls-1" d="M271.01,521.05c.35-.44,1.48-.59,1.76-1.17.19-.38-1.63-.24-1.98-1.95-1.91-9.37,12.66-7.55,10.37-.15-.29.94-1.82,1.84-1.82,2.1,0,.52,5.53,4.38.87,8.1-5.37,4.28-13.45-1.58-9.21-6.93ZM274.55,513.8c-2.59.78-2.39,4.61.55,5.1,5.47.92,5.01-6.78-.55-5.1ZM279.31,524.23c0-1.86-1.51-3.36-3.36-3.36s-3.36,1.51-3.36,3.36,1.51,3.36,3.36,3.36,3.36-1.51,3.36-3.36Z"></path>
        <path class="cls-2" d="M323.88,195.28v25.55c-.94.17-3.93.02-3.93-.98v-24.57h3.93Z"></path>
        <path class="cls-2" d="M369.74,195.28v24.57c0,1.3-3.93,1.3-3.93,0v-24.57h3.93Z"></path>
        <path class="cls-2" d="M279.99,152.04h-3.93v-24.57c0-1.3,3.93-1.3,3.93,0v24.57Z"></path>
        <path class="cls-1" d="M252.93,527.87c-9.35,8.64-14.81-13.97-5.86-16,9.23-2.09,10.02,12.15,5.86,16ZM247.69,513.77c-4.75,1.43-2.59,17.73,3.16,12.35,3-2.81,2.64-14.1-3.16-12.35Z"></path>
        <rect class="cls-2" x="249.2" y="127.14" width="3.93" height="24.89"></rect>
        <path class="cls-2" d="M308.81,127.14v24.89c-.94.17-3.93.02-3.93-.98v-23.91h3.93Z"></path>
        <path class="cls-1" d="M264.26,511.7v15.07c0,.16,2.75-.12,3.27,0,.3,4.87-6.16,1.67-9.17,1.96v-1.96c.55-.13,3.28.16,3.28,0v-11.14c-1.05.23-5.3,3.66-4.58.34.17-.8,5.68-5.19,7.2-4.27Z"></path>
        <path class="cls-1" d="M229.54,528.73c-1.55-1.37,10.43-8.01,8.42-14-.51-1.52-3.29-1.36-4.5-.75-.79.39-2.41,4.36-3.92,2.95-1.22-1.14,4.21-8.66,9.51-3.94s-3.79,9.98-6.24,13.77h7.86s0,1.97,0,1.97h-11.14Z"></path>
        <path class="cls-3" d="M276,165.19c1.57.96.49,8.81-1.91,6.51-.24-.23-.24-6.33,0-6.56.07-.07,1.69-.08,1.91.05Z"></path>
        <path class="cls-3" d="M380.88,199.54c.42-1.47,2.62-.85,2.62,0v16.38c0,1.13-2.62,1.13-2.62,0,0-3.44-.69-14,0-16.38Z"></path>
        <path class="cls-3" d="M341.57,130.42v17.36c0,1.13-2.62,1.13-2.62,0v-16.38c0-.69,1.86-1.25,2.62-.98Z"></path>
        <path class="cls-3" d="M289.16,199.54c.42-1.47,2.62-.85,2.62,0v16.38c0,1.13-2.62,1.13-2.62,0,0-3.44-.69-14,0-16.38Z"></path>
        <path class="cls-3" d="M338.29,211h-2.61s.66-8.51.66-8.51c.86-.17,1.04,1.21,1.14,1.79.36,2.21.25,4.53.82,6.72Z"></path>
        <path class="cls-3" d="M240.02,211.65c-.17.17-1.47.05-1.98-.3-1.29-.88.67-6.98.68-8.86.85.31,1.15,3.5,1.22,4.34.07.88.26,4.65.08,4.83Z"></path>
        <path class="cls-3" d="M291.13,138.28c.21-1.3-.94-8.4,1.63-7.86,2.65,2.02,2.91,8.99-1.63,7.86Z"></path>
        <g>
          <path class="cls-2" d="M112.28,152.69v-9.17h3.93v16.38c-1.11-.16-2.89.37-3.79-.14-1.19-.67-5.02-8.65-7.34-9.68v9.83c-.94.17-3.93.02-3.93-.98v-15.4c6.01-1.28,6.97,6.45,11.14,9.17Z"></path>
          <path class="cls-2" d="M162.07,159.9v-16.38h9.5c2.68,0,4.97,5.74,4.97,8.19s-2.29,8.19-4.97,8.19h-9.5ZM166,156.63c8.97,1.88,9.2-11.82,0-9.83v9.83Z"></path>
          <path class="cls-2" d="M129.15,143.03c9.15-.6,12.23,12.78,4.03,16.47-11.81,5.31-17.07-15.61-4.03-16.47ZM127.81,146.94c-3.63,1.08-4.06,8.08.16,9.4,7.96,2.48,8.37-11.95-.16-9.4Z"></path>
          <path class="cls-2" d="M143.07,143.52c5.74.07,13.33-1.73,11.64,6.75-.4,2.01-2.44,2.32-2.46,2.74-.03.71,4.74,4.83,4.58,6.55-4.83,3.02-6.78-6.17-9.5-6.22l-.33,6.56h-3.93v-16.38ZM146.34,150.08c7.18.99,7.16-4.27,0-3.28v3.28Z"></path>
          <path class="cls-2" d="M206.53,144.91c.57.98-.63,2.92-1.65,3.1-.84.15-2.27-1.24-3.83-1.26-6.61-.07-5.33,10.85.48,9.77,1.25-.23,2.91-1.97,4.01-1.76,4.36.82-.9,5.63-4.48,5.68-10.3.16-11.58-16.79-.59-17.55,1.22-.09,5.64,1.27,6.06,2.02Z"></path>
          <path class="cls-2" d="M187.62,143.52c1.04,2.52-1.24,3.25-1.36,4.22-.21,1.59-.21,6.36,0,7.95.13.96,2.41,1.69,1.36,4.22h-6.56c1-4.01,1.92-7.86,1.28-12.09-.2-1.32-1.85-2.54-1.28-4.29h6.56Z"></path>
          <path class="cls-3" d="M166,156.63v-9.83c9.2-1.99,8.97,11.71,0,9.83Z"></path>
          <path class="cls-3" d="M127.81,146.94c8.53-2.55,8.13,11.89.16,9.4-4.22-1.32-3.79-8.32-.16-9.4Z"></path>
          <path class="cls-3" d="M146.34,150.08v-3.28c7.16-.99,7.18,4.27,0,3.28Z"></path>
        </g>
        <circle class="cls-3" cx="275.95" cy="524.23" r="3.36"></circle>
        <path class="cls-3" d="M274.55,513.8c5.56-1.68,6.02,6.03.55,5.1-2.94-.5-3.14-4.32-.55-5.1Z"></path>
        <path class="cls-3" d="M247.69,513.77c5.8-1.75,6.15,9.54,3.16,12.35-5.74,5.38-7.91-10.91-3.16-12.35Z"></path>
        <path class="cls-3" d="M39.68,110.22c36.69-6.76,74.05-11.22,109.79-22.21,36.91-11.36,72.3-28.56,106.61-45.98,39.04,20.15,79.28,39.1,122.04,50.21,30.22,7.85,61.34,11.75,92.02,17.39l2.14,1.13-.31,24.6c-2.77,51.72-2.27,103.41-13.45,154.26-21.63,98.42-69.06,177.36-147.43,240.4-11.94,9.6-25.45,19.29-38.95,26.56-2.96,1.6-12.98,7.08-15.59,7.41-3.7.47-17.93-8.14-21.96-10.5-66.26-38.68-124.81-110.16-155.18-180.24-36.08-83.24-38.27-168.31-39.82-257.6-.03-1.88-1.21-3.62.09-5.43ZM233.47,127.47v24.57h3.93v-10.48c.81-.14,3.73.21,3.93,0,.16-.16.16-4.43,0-4.59-.26-.25-3.68.26-3.94,0-.21-.21-.21-5.69,0-5.9.24-.24,4.28.18,5.25,0v-4.59c-1.78.3-8.62-.82-9.17.99ZM279.99,152.04v-24.57c0-1.3-3.93-1.3-3.93,0v24.57h3.93ZM338.77,126.62c-2.16.47-3.23,2.24-3.6,4.28-.56,3.12-.56,16.16.65,18.69,1.91,3.98,8.91,3.41,9.63-1.2.48-3.07.48-14.54,0-17.61-.52-3.31-3.51-4.85-6.69-4.17ZM253.13,127.14h-3.93v24.89h3.93v-24.89ZM264.92,148.76c-.73-.73,0-17.87,0-20.64,0-1-3-1.16-3.93-.98v24.89h8.52s0-3.28,0-3.28c-.89-.15-4.37.22-4.59,0ZM291.78,142.21c6.6.04,8.48-8.17,5.24-12.77-2.44-3.46-5.46-2.09-9.17-2.3v24.89h3.93v-9.83ZM308.81,127.14h-3.93v23.91c0,1,3,1.16,3.93.98v-24.89ZM316.67,127.14v24.89c.94.17,3.93.02,3.93-.98v-11.46l3.12,9c.84,3.53-1.41,3.79,4.09,3.44v-24.89h-3.28v12.45l-3.99-12.38-3.87-.07ZM129.15,143.03c-13.05.86-7.79,21.78,4.03,16.47,8.2-3.69,5.12-17.07-4.03-16.47ZM206.53,144.91c-.43-.74-4.84-2.1-6.06-2.02-10.99.77-9.71,17.71.59,17.55,3.58-.06,8.83-4.86,4.48-5.68-1.1-.21-2.76,1.53-4.01,1.76-5.81,1.07-7.09-9.85-.48-9.77,1.56.02,2.99,1.41,3.83,1.26,1.02-.19,2.22-2.12,1.65-3.1ZM112.28,152.69c-4.17-2.72-5.13-10.45-11.14-9.17v15.4c0,1,3,1.16,3.93.98v-9.83c2.32,1.03,6.15,9.01,7.34,9.68.91.51,2.68-.01,3.79.14v-16.38h-3.93v9.17ZM143.07,143.52v16.38h3.93s.33-6.56.33-6.56c2.72.05,4.67,9.24,9.5,6.22.16-1.72-4.61-5.84-4.58-6.55.02-.42,2.06-.73,2.46-2.74,1.69-8.48-5.9-6.69-11.64-6.75ZM162.07,159.9h9.5c2.68,0,4.97-5.74,4.97-8.19s-2.29-8.19-4.97-8.19h-9.5v16.38ZM187.62,143.52h-6.56c-.57,1.76,1.08,2.97,1.28,4.29.64,4.23-.28,8.08-1.28,12.08h6.56c1.04-2.52-1.24-3.25-1.36-4.21-.21-1.59-.21-6.36,0-7.95.13-.96,2.41-1.69,1.36-4.22ZM297.68,167.76c1.44-9.07-10.95-9.25-10.53-.34.23,4.83,9.24,10.47,6.59,14.98-1.65,2.82-3-3.05-3.23-3.22-.78-.56-2.34-.22-3.32-.29-.95,11.34,13.75,9.97,10.18-1.99-1.11-3.74-7.91-7.59-5.59-12.42,2.46-.49,1.69,2.94,1.99,3.24.27.28,3.06-.12,3.91.03ZM233.47,161.21v24.89h3.93v-11.14l3.59,10.5,3.62.64c-.02-8.37,1.33-16.55,0-24.9h-3.28v12.45l-4.02-12.36-3.84-.09ZM256.4,161.21h-4.59v19.98c0,3.69,4.48,6.94,8.12,4.84.65-.38,2.36-2.36,2.36-2.87v-21.95h-3.93v20.96h-1.97v-20.96ZM270.16,161.21v24.89h3.93v-10.48c.94-.15.95,1.16,1.12,1.82,1.05,4.26-.56,10.17,5.43,8.66.6-.58-2.02-9.07-1.98-10.83.07-3.25,2.86-4.68,1.7-9.52-1.27-5.33-5.73-4.73-10.2-4.54ZM304.88,161.21v24.89h9.17c1.42-5.82-4.56-3.25-5.24-3.93-.23-.23-.24-6.33,0-6.56.9-.87,4.16,2.38,3.29-3.55-.42-.93-2.96-.05-3.29-.37-.24-.23-.23-6.33,0-6.56s3.7.17,4.59,0v-3.94s-8.52,0-8.52,0ZM330.43,167.76c1.85-8.73-10.62-9.06-10.43-1.05.12,5.18,8.28,10.96,6.68,14.61-2.35,5.36-2.58-2.2-2.8-2.43-.19-.2-3.12.13-3.94,0-.7,11.41,14.25,9.82,9.76-2.22-1.24-3.32-10.37-11.15-3.21-12.19-.36,3.24.99,3.58,3.93,3.28ZM261.65,201.83c.07-11.05-13.68-8.34-9.86,2.33,1.28,3.58,9.11,9.94,4.3,12.74-2.41-3.01-.51-4.76-5.57-3.92-.34,11.31,13.93,10.27,10.83-1.34-.97-3.64-7.29-8.4-6.15-11.98,1.39-4.38,2.4,1.93,2.6,2.1.48.41,2.93-.09,3.86.08ZM277.18,196.12c-2.15-2.14-5.38-1.76-7.38.44-6.52,7.19,7.55,15.52,4.63,19.7-2.4,3.43-2.79-3.02-3.03-3.22-.47-.4-2.94.1-3.86-.07-.57,11.11,13.91,10.31,10.83-1.33-.92-3.46-6.14-6.41-6.28-10.15-.04-1.08.12-3.26,1.67-2.93,1.24.26.84,3.07,1.02,3.24.28.29,3.06-.12,3.91.03.6-.61-.69-4.91-1.5-5.71ZM286.72,219.33c2.54,2.53,8,1.55,8.85-2.25.51-2.31.52-15.77,0-18.06-1.25-5.57-8.95-5.6-10.21,0-.59,2.62-.49,13.29-.16,16.25.12,1.08.79,3.34,1.51,4.06ZM385.93,196.12c-2.21-2.2-5.88-1.74-7.69.79s-1.74,15.53-1.26,18.97c.89,6.32,9.11,6.55,10.3,1.21.6-2.7.5-13.85.16-16.91-.12-1.08-.79-3.34-1.51-4.06ZM241.3,195.31c-.34-.33-4.18.15-5.21-.04l-3.28,24.9h3.94s0-4.59,0-4.59c6.01-1.58,3.34,3.4,4.66,4.52.47.4,2.94-.11,3.86.07-1.08-3.04-3.06-23.98-3.96-24.86ZM306.85,215.91c-1.07-3.73.79-12.38,0-16.71,3.82-.96,2.2,4.16,2.62,4.59.17.17,2.56-.11,3.28,0-.04-2.31.55-6.4-1.59-7.91-1.82-1.28-6.25-.89-7.51,1.1-1.06,1.67-1.06,16.19-.74,18.95.91,7.77,11.07,5.86,10.51-2.64-.13-2.06-2.39-1.67-3.94-1.63.08.84-.47,5.06-.66,5.24-.41.36-1.81-.46-1.96-.98ZM323.88,195.28h-3.93v24.57c0,1,3,1.16,3.93.98v-25.55ZM339.61,195.27h-5.24s-3.28,24.9-3.28,24.9c1.04-.04,3,.33,3.65-.61,1.47-2.12-2.15-4.93,4.22-3.98v4.59s4.58,0,4.58,0l-3.93-24.89ZM359.91,195.28h-11.14c-.06,3.76-.89,4.38,3.28,3.93v20.96h3.93v-20.96h3.93s0-3.93,0-3.93ZM369.74,195.28h-3.93v24.57c0,1.3,3.93,1.3,3.93,0v-24.57ZM394.63,195.28v24.57c0,1.3,3.93,1.3,3.93,0v-12.12l4.02,13.01c.82.52,3.85-.04,3.85-.89v-24.57h-3.93v12.45l-3.99-12.38-3.87-.07ZM183.03,323.68c.61,20.22,29.07,16.4,42.59,13.44,20.08-4.4,34.66-13.99,32.1-36.69-1.27-11.23-18.32-24.2-28.18-28.16-17.33-6.95-63.15-7.97-73.65-22-3.29-4.4-5.42-14.47-9.05-1.77-2.93,10.25-1.89,26.93,6.38,34.58,1.85,1.72,4.42,3.35,6.89,3.92-.6,2.29-2.54,4.07-3,6.51-1.31,6.9,5.88,12.91,12.17,13.8-3.19,10.15,3.42,17.62,13.76,16.36ZM265.66,286.43c20.3-2.64,25.34-31.08,6.71-39.97-24.7-11.79-43.67,24.86-18.84,37.83,1.9.99,5.09.93,5.49,3.02l-2.63,97.29c-8.41-3.33-16.98-6.65-25.13-10.57-1.46-.7-14.23-5.98-10.52-8.49,3.26-2.21,16.8-1.49,22.19-3.24,10.68-3.47,16.1-15.9,3.22-21.49-12.46-5.41-23.62.35-31.29,10.44-13.46,17.71-2.16,27,13.36,35.01,2.96,1.52,14.95,7.29,17.44,7.52,1.95.18,7.43-4.03,9.65-5.35,1.88-1.12,7.3-2.82,7.65-4.8,1.47-8.33.36-18.33.62-26.89.29-9.27,1.12-18.85,1.36-28.12.37-14.08-.25-28.16.71-42.2ZM340.31,327.66c.82-.77,8.67.27,12.41-4.3s1.67-10.76,2.23-11.52c.22-.3,5.35-1.88,6.89-2.95,6.13-4.25,6.12-10.21,2.68-16.3,6.61-3.04,10.73-6.59,13.41-13.48,3.59-9.23,5.07-24.27-1.96-32.08-4.25,6.2-5.81,10.63-13.09,13.76-29.66,12.74-67.4,2.01-90.07,29.16-8.1,9.7-9.8,24.14-1.6,34.32,7.8,9.69,22.36,14.03,34.22,16.23,9.9,1.83,26.98,3.7,33.01-6.54,1.08-1.83,1.64-6.08,1.88-6.31ZM255.75,421.29c-5.35-5.09-5.68-13.02,0-18.02,13.09-11.54,50-13.65,55.51-31.62,3.68-12.01-11.07-30.27-23.07-31.59-10.18-1.13-26.36,4.08-18.18,16.87,6.15,9.63,16.56,6.77,25.74,8.98,7.59,1.83,4.97,4.34-.23,7.03-17.52,9.07-65.11,18.2-54.95,46.84,1,2.83,5.42,9.83,8.82,9.27,1.15-.19,12.92-8.6,12.92-9.4v-16.05c4.46,1.21,5.08,6.93,4.6,10.83-1.49,11.94-27.9,16.99-28.23,33.38-.08,4.02,3.29,11.07,7.62,11.48,1.12.11,15.36-6.68,15.36-7.54v-11.46c1.52-.36,1.08.29,1.5.83,10.84,13.86-14.44,16.35-20.5,23.09-3.52,3.92-5.24,13.78-5.27,18.98,0,.99-.42,1.92,1,1.65l14.81-16.64c9.91-7.44,29.73-7.93,23.83-25.27-.97-2.85-5.71-10.56-8.98-9.73-1.3.33-12.94,8.58-12.94,9.39v11.46c-4.49-1.57-4.84-6.95-2.51-10.7,5.76-9.28,19.39-10.94,24.6-21.26,3.37-6.69,3.08-16.24-1.79-22.07-3.57-4.26-4.28-3.09-8.94-1.11-3.96,1.68-10.7,4.79-10.7,9.61v12.77ZM278.02,485.49c-.83-7.65.12-21.01-9.17-23.31-2.22,1.77-13.03,5.18-14.09,6.92-.8,1.32-.7,14.83.77,15.78,1.34.87,4.29.87,5.02-.85,1.84-4.32-.98-11.1,1.41-15.57,4.46,3.64,7.32,8.99,11.13,13.11.6.66,4.26,4.67,4.92,3.92ZM229.54,528.73h11.14v-1.96s-7.86,0-7.86,0c2.44-3.78,11.75-8.86,6.24-13.77s-10.73,2.8-9.51,3.94c1.51,1.42,3.13-2.56,3.92-2.95,1.22-.61,3.99-.77,4.5.75,2.01,5.99-9.97,12.63-8.42,14ZM252.93,527.87c4.16-3.85,3.37-18.09-5.86-16-8.95,2.03-3.49,24.64,5.86,16ZM264.26,511.7c-1.53-.92-7.03,3.46-7.2,4.27-.72,3.32,3.54-.1,4.58-.34v11.14c0,.16-2.73-.13-3.28,0v1.96c3.02-.29,9.47,2.91,9.17-1.96-.52-.12-3.27.16-3.27,0v-15.07ZM271.01,521.05c-4.25,5.35,3.84,11.21,9.21,6.93,4.65-3.71-.87-7.58-.87-8.1,0-.26,1.53-1.16,1.82-2.1,2.29-7.4-12.28-9.22-10.37.15.35,1.71,2.17,1.57,1.98,1.95-.29.58-1.42.73-1.76,1.17Z"></path>
        <g>
          <path class="cls-1" d="M183.03,323.68c-10.34,1.27-16.94-6.21-13.76-16.36-6.3-.89-13.48-6.9-12.17-13.8.46-2.45,2.4-4.22,3-6.51-2.47-.57-5.04-2.21-6.89-3.92-8.27-7.65-9.31-24.33-6.38-34.58,3.63-12.7,5.76-2.63,9.05,1.77,10.5,14.03,56.32,15.05,73.65,22,9.86,3.95,26.91,16.92,28.18,28.16,2.57,22.7-12.01,32.3-32.1,36.69-13.52,2.96-41.98,6.78-42.59-13.44Z"></path>
          <path class="cls-1" d="M340.31,327.66c-.24.22-.8,4.48-1.88,6.31-6.04,10.24-23.11,8.37-33.01,6.54-11.86-2.19-26.42-6.54-34.22-16.23-8.19-10.18-6.5-24.62,1.6-34.32,22.68-27.15,60.42-16.42,90.07-29.16,7.28-3.13,8.84-7.56,13.09-13.76,7.03,7.81,5.54,22.85,1.96,32.08-2.67,6.88-6.79,10.44-13.41,13.48,3.44,6.08,3.45,12.04-2.68,16.3-1.54,1.07-6.67,2.65-6.89,2.95-.56.75,1.34,7.16-2.23,11.52s-11.58,3.53-12.41,4.3Z"></path>
          <path class="cls-1" d="M255.75,421.29v-12.77c0-4.82,6.73-7.93,10.7-9.61,4.66-1.98,5.37-3.15,8.94,1.11,4.87,5.83,5.17,15.38,1.79,22.07-5.21,10.33-18.84,11.99-24.6,21.26-2.33,3.76-1.98,9.13,2.51,10.7v-11.46c0-.8,11.64-9.06,12.94-9.39,3.28-.83,8.01,6.88,8.98,9.73,5.9,17.33-13.92,17.83-23.83,25.27l-14.81,16.64c-1.42.28-1-.66-1-1.65.03-5.2,1.74-15.06,5.27-18.98,6.06-6.74,31.34-9.23,20.5-23.09-.42-.54.02-1.19-1.5-.83v11.46c0,.86-14.23,7.64-15.36,7.54-4.33-.41-7.7-7.45-7.62-11.48.33-16.39,26.74-21.44,28.23-33.38.49-3.89-.14-9.62-4.6-10.83v16.05c0,.8-11.77,9.21-12.92,9.4-3.4.56-7.82-6.44-8.82-9.27-10.16-28.64,37.43-37.77,54.95-46.84,5.21-2.7,7.83-5.2.23-7.03-9.18-2.22-19.58.65-25.74-8.98-8.18-12.79,7.99-18,18.18-16.87,12,1.33,26.75,19.58,23.07,31.59-5.5,17.97-42.42,20.08-55.51,31.62-5.68,5-5.34,12.93,0,18.02Z"></path>
          <path class="cls-1" d="M265.66,286.43c-.96,14.04-.34,28.11-.71,42.2-.24,9.27-1.08,18.84-1.36,28.12-.26,8.56.84,18.56-.62,26.89-.35,1.98-5.77,3.67-7.65,4.8-2.21,1.32-7.7,5.54-9.65,5.35-2.5-.24-14.49-6-17.44-7.52-15.52-8-26.82-17.29-13.36-35.01,7.67-10.1,18.84-15.85,31.29-10.44,12.88,5.59,7.47,18.02-3.22,21.49-5.39,1.75-18.93,1.03-22.19,3.24-3.7,2.52,9.06,7.79,10.52,8.49,8.15,3.92,16.72,7.24,25.13,10.57l2.63-97.29c-.4-2.09-3.6-2.03-5.49-3.02-24.84-12.98-5.87-49.63,18.84-37.83,18.62,8.89,13.58,37.32-6.71,39.97Z"></path>
          <path class="cls-1" d="M278.02,485.49c-.66.75-4.31-3.26-4.92-3.92-3.81-4.12-6.67-9.47-11.13-13.11-2.39,4.47.43,11.25-1.41,15.57-.73,1.72-3.68,1.72-5.02.85-1.47-.95-1.57-14.46-.77-15.78,1.06-1.74,11.87-5.16,14.09-6.92,9.29,2.3,8.34,15.65,9.17,23.31Z"></path>
        </g>
      </g>
    </g>
  </g>
</svg><style>@media (prefers-color-scheme: light) { :root { filter: none; } }
@media (prefers-color-scheme: dark) { :root { filter: none; } }
</style></svg>