<svg width="512" height="512" viewBox="0 0 512 512" fill="none" xmlns="http://www.w3.org/2000/svg">
<rect width="512" height="512" fill="white"/>
<path d="M343.898 426.83C323.138 448.347 295.713 472.808 269.555 486.753C267.121 488.053 257.795 492.79 255.642 492.672C254.542 492.618 249.591 490.308 248.181 489.666C225.525 479.354 202.135 459.356 183.778 442.294C112.597 376.154 73.8149 285.287 66.5664 186.84C64.4434 158.042 63.4198 128.483 62.6009 99.6221C62.4644 94.6735 61.4408 89.31 62.1308 84.2988C62.6843 80.2585 65.2092 79.7652 68.4543 79.0292C89.4947 74.2764 111.854 72.1466 133.213 67.4173C170.123 59.2506 203.226 45.2036 237.111 28.5178C241.289 26.4742 252.237 19.3254 256.059 19.3254C257.492 19.3254 258.697 19.8892 259.971 20.4529C264.551 22.4887 269.411 25.7382 274.013 28.0089C310.324 45.9239 344.254 59.9866 383.946 68.3647C403.493 72.4911 424.511 74.5191 443.671 79.0135C452.572 81.1041 449.714 86.7652 449.509 93.9688C447.97 149.562 447.204 207.081 433.495 261.069C417.672 323.356 387.995 381.126 343.905 426.822L343.898 426.83ZM65.6792 83.0929C64.1098 84.7216 65.4973 94.9084 65.5807 97.5706C66.4375 124.42 67.2867 151.284 69.0457 178.118C76.3245 289.437 116.934 380.79 199.67 452.559C212.894 464.03 236.732 482.924 252.836 488.452C254.679 489.086 255.263 489.446 257.325 489.008C265.407 487.293 286.364 473.043 293.719 467.601C378.426 404.922 431.964 306.076 441.57 198.64C444.687 163.805 445.839 126.362 446.522 91.4162C446.59 88.0963 448.728 83.4061 444.08 82.1768C418.407 77.6902 392.491 73.9788 367.152 67.7461C336.626 60.2372 306.791 47.4038 278.471 33.6543C272.163 30.5928 264.953 25.7773 258.781 23.2091C257.765 22.7863 256.68 22.3478 255.558 22.4026C221.014 39.887 185.848 57.4184 148.218 67.0258C134.768 70.4631 121.014 73.1019 107.373 75.6231C94.9083 77.933 80.4871 79.1231 68.4316 82.0829C67.7871 82.2395 66.0508 82.7014 65.6792 83.0851V83.0929Z" fill="#14116C"/>
<path d="M65.6792 83.0929C66.0508 82.7093 67.7871 82.2473 68.4316 82.0907C80.4871 79.1309 94.9083 77.9408 107.373 75.6309C121.014 73.1097 134.775 70.4631 148.218 67.0336C185.841 57.4262 221.007 39.8948 255.558 22.4104C256.68 22.3556 257.765 22.7941 258.781 23.2169C264.96 25.7852 272.163 30.5928 278.471 33.6621C306.791 47.4116 336.626 60.245 367.152 67.754C392.484 73.9866 418.407 77.6902 444.08 82.1846C448.728 83.414 446.582 88.1041 446.521 91.424C445.839 126.369 444.687 163.82 441.57 198.648C431.956 306.084 378.426 404.929 293.719 467.609C286.357 473.058 265.4 487.301 257.325 489.016C255.263 489.454 254.679 489.094 252.836 488.46C236.732 482.932 212.894 464.038 199.67 452.567C116.934 380.79 76.3321 289.437 69.0457 178.118C67.2867 151.277 66.4375 124.42 65.5807 97.5706C65.4973 94.9084 64.1022 84.7216 65.6792 83.0929ZM78.5916 95.4017C77.5983 96.3961 77.9168 107.609 77.9623 109.926C78.349 131.474 79.6834 154.456 80.9648 176.074C87.4854 285.992 124.13 374.275 207.389 444.087C219.164 453.961 238.119 468.235 252.154 473.779C254.224 474.593 254.944 475.157 257.325 474.656C264.407 473.16 281.542 461.736 288.048 457.14C343.86 417.685 388.882 356.626 410.787 290.486C431.031 229.357 432.942 168.808 434.102 104.766C434.155 101.791 435.785 97.9621 433.344 95.339C411.864 90.7898 389.913 88.1589 368.464 83.3435C336.649 76.2025 307.314 63.7215 277.979 49.5727C274.46 47.8736 258.341 38.7281 256.081 38.8847C219.649 57.0112 183.437 74.3781 143.639 83.3357C123.349 87.9084 101.709 89.6623 81.8519 94.4151C81.0558 94.603 79.0465 94.9475 78.584 95.4095L78.5916 95.4017Z" fill="#FDFDFD"/>
<path d="M78.5916 95.4017C79.0541 94.9397 81.0634 94.603 81.8595 94.4073C101.717 89.6466 123.356 87.8927 143.646 83.3278C183.445 74.3625 219.657 57.0033 256.089 38.8769C258.349 38.7203 274.461 47.8657 277.986 49.5648C307.321 63.7137 336.657 76.1868 368.471 83.3356C389.921 88.1511 411.871 90.782 433.351 95.3312C435.8 97.9543 434.17 101.783 434.11 104.759C432.95 168.8 431.039 229.349 410.795 290.478C388.89 356.618 343.867 417.684 288.055 457.132C281.55 461.728 264.414 473.152 257.333 474.648C254.952 475.149 254.231 474.585 252.162 473.771C238.127 468.227 219.172 453.961 207.397 444.079C124.13 374.275 87.4855 285.992 80.9648 176.066C79.6835 154.448 78.3414 131.474 77.9623 109.918C77.9244 107.601 77.5984 96.3883 78.5916 95.3938V95.4017ZM91.9817 105.628C90.996 107.045 91.8907 108.407 91.9134 109.879C93.0886 179.793 94.7491 246.403 122.105 311.58C145.132 366.453 189.526 422.422 239.765 452.708C242.82 454.548 253.61 461.298 256.415 460.93C258.386 460.671 265.991 456.38 268.236 455.128C278.471 449.435 288.715 441.848 297.768 434.331C357.189 384.971 393.143 323.161 409.551 246.098C418.028 206.282 417.641 165.809 419.749 125.312L419.984 106.05L418.362 105.166C395.1 100.75 371.504 97.6959 348.591 91.5493C316.177 82.8502 285.667 68.0123 256.059 52.2349C230.044 65.8826 203.211 79.3502 175.226 88.2372C148.135 96.8424 119.8 100.335 91.9817 105.628Z" fill="#14116C"/>
<path d="M361.109 172.23L364.043 172.284L367.069 181.978V172.23H370.048V191.468C370.048 192.134 367.751 192.572 367.129 192.165L364.081 181.978V191.468C364.081 192.486 361.101 192.486 361.101 191.468V172.23H361.109Z" fill="#101110"/>
<path d="M238.916 145.553L241.827 145.623L244.875 155.301V145.553H247.362C248.363 152.091 247.347 158.496 247.362 165.05L244.617 164.548L241.895 156.327V165.05H238.916V145.561V145.553Z" fill="#101110"/>
<path d="M301.999 118.876L304.933 118.931L307.958 128.624V118.876H310.445V138.365C306.275 138.639 307.981 138.435 307.344 135.671L304.979 128.624V137.598C304.979 138.381 302.704 138.506 301.999 138.365V118.876Z" fill="#101110"/>
<path d="M256.301 145.553V161.965H257.795V145.553H260.775V162.74C260.775 163.147 259.478 164.689 258.985 164.987C256.226 166.639 252.829 164.086 252.829 161.197V145.553H256.309H256.301Z" fill="#101110"/>
<path d="M266.734 145.553C270.124 145.404 273.505 144.934 274.468 149.108C275.348 152.905 273.232 154.017 273.179 156.562C273.149 157.94 275.135 164.588 274.68 165.042C270.131 166.232 271.359 161.597 270.563 158.261C270.434 157.736 270.427 156.718 269.714 156.836V165.042H266.734V145.553ZM271.162 148.669C270.995 148.567 269.767 148.583 269.714 148.63C269.532 148.81 269.532 153.586 269.714 153.767C271.534 155.567 272.345 149.421 271.162 148.669Z" fill="#101110"/>
<path d="M354.513 172.887C355.066 173.451 355.566 175.221 355.657 176.066C355.915 178.462 355.999 187.185 355.536 189.307C354.634 193.488 348.401 193.3 347.727 188.359C347.363 185.674 347.332 175.448 348.682 173.506C350.032 171.564 352.837 171.165 354.513 172.887ZM350.684 175.565C350.16 177.429 350.684 185.697 350.684 188.391C350.684 189.276 352.67 189.276 352.67 188.391V175.565C352.67 174.9 351.002 174.414 350.684 175.565Z" fill="#101110"/>
<path d="M318.755 118.469C321.166 117.929 323.433 119.142 323.828 121.734C324.192 124.138 324.192 133.119 323.828 135.523C323.282 139.132 317.974 139.579 316.526 136.462C315.609 134.489 315.609 124.279 316.033 121.828C316.314 120.223 317.125 118.837 318.763 118.477L318.755 118.469ZM320.878 121.444C320.302 121.241 318.892 121.671 318.892 122.212V135.037C318.892 135.922 320.878 135.922 320.878 135.037V121.444Z" fill="#101110"/>
<path d="M279.29 191.061C278.737 190.497 278.236 188.727 278.145 187.882C277.895 185.564 277.819 177.21 278.267 175.158C279.222 170.773 285.06 170.797 286.008 175.158C286.395 176.959 286.395 187.498 286.008 189.299C285.371 192.274 281.231 193.042 279.298 191.061H279.29ZM281.14 175.565C280.617 177.429 281.14 185.697 281.14 188.391C281.14 189.276 283.127 189.276 283.127 188.391V175.565C283.127 174.9 281.459 174.414 281.14 175.565Z" fill="#101110"/>
<path d="M319.392 172.222L322.372 191.711H318.892V188.125C314.062 187.381 316.807 189.573 315.692 191.241C315.199 191.977 313.713 191.695 312.925 191.719L315.412 172.23H319.385L319.392 172.222ZM318.391 184.538C317.959 182.824 318.043 181.007 317.77 179.277C317.701 178.815 317.557 177.734 316.905 177.875L316.405 184.538H318.384H318.391Z" fill="#101110"/>
<path d="M244.852 172.253C245.535 172.942 247.036 189.338 247.855 191.719C247.157 191.585 245.285 191.977 244.928 191.664C243.927 190.787 245.952 186.887 241.395 188.125V191.719H238.415L240.902 172.222C241.683 172.371 244.595 171.987 244.852 172.253ZM243.882 185.047C244.018 184.906 243.882 181.955 243.821 181.265C243.761 180.576 243.541 178.11 242.896 177.867C242.889 179.347 241.402 184.116 242.381 184.805C242.775 185.079 243.753 185.18 243.882 185.04V185.047Z" fill="#101110"/>
<path d="M260.282 177.358C259.577 177.225 257.719 177.617 257.355 177.296C257.196 177.155 256.438 172.222 255.384 175.651C254.52 178.454 259.311 182.182 260.047 185.032C262.397 194.122 251.585 194.929 251.835 186.081C255.68 185.423 254.239 186.793 256.059 189.15C259.713 186.966 253.769 181.978 252.798 179.175C249.91 170.82 260.327 168.698 260.274 177.35L260.282 177.358Z" fill="#101110"/>
<path d="M272.057 172.887C272.664 173.514 273.649 176.881 273.194 177.358C272.55 177.241 270.45 177.562 270.23 177.335C270.093 177.194 270.397 174.994 269.456 174.798C268.281 174.547 268.16 176.254 268.19 177.092C268.304 180.013 272.262 182.323 272.952 185.04C275.295 194.154 264.308 194.78 264.74 186.081C265.438 186.206 267.318 185.823 267.667 186.136C267.849 186.3 268.152 191.351 269.964 188.657C272.178 185.384 261.51 178.862 266.454 173.232C267.97 171.509 270.419 171.204 272.049 172.887H272.057Z" fill="#101110"/>
<path d="M294.553 188.383C294.667 188.79 295.728 189.432 296.039 189.15C296.191 189.009 296.6 185.705 296.54 185.047C297.722 185.016 299.428 184.711 299.527 186.324C299.944 192.987 292.241 194.475 291.558 188.391C291.316 186.238 291.316 174.861 292.119 173.553C293.075 171.995 296.441 171.689 297.813 172.692C299.436 173.874 298.989 177.076 299.019 178.885C298.473 178.799 296.661 179.026 296.532 178.885C296.214 178.548 297.442 174.54 294.546 175.291C295.145 178.674 293.734 185.455 294.546 188.375L294.553 188.383Z" fill="#101110"/>
<path d="M287.6 150.681C286.956 150.564 284.848 150.877 284.636 150.658C284.416 150.415 284.992 147.737 283.127 148.121C281.368 151.903 286.524 154.91 287.365 157.846C290.064 167.211 278.926 168.283 279.647 159.404C280.39 159.459 281.573 159.193 282.164 159.631C282.338 159.756 283.362 164.353 284.613 162.152C286.622 158.621 279.791 154.213 279.616 150.423C279.298 143.447 288.685 143.58 287.6 150.689V150.681Z" fill="#101110"/>
<path d="M312.432 150.681C310.203 150.916 309.171 150.65 309.452 148.113C304.023 148.928 310.946 155.058 311.886 157.658C315.29 167.085 303.947 168.33 304.486 159.396C305.1 159.498 307.321 159.24 307.473 159.396C307.64 159.576 307.814 165.496 309.596 161.299C310.809 158.441 304.63 153.915 304.531 149.859C304.387 143.588 313.834 143.846 312.439 150.681H312.432Z" fill="#101110"/>
<path d="M283.127 130.676V138.373H280.147V118.884C282.96 119.04 285.25 117.976 287.1 120.685C289.557 124.287 288.131 130.715 283.127 130.684V130.676ZM282.634 127.599C286.076 128.483 285.872 123.018 283.87 121.444C281.929 121.021 282.801 126.581 282.634 127.599Z" fill="#101110"/>
<path d="M293.059 145.553H299.519V148.63C298.837 148.755 296.206 148.45 296.039 148.63C295.872 148.81 295.857 153.586 296.039 153.767C296.289 154.017 298.215 153.328 298.534 154.056C299.193 158.699 296.722 156.155 296.039 156.836C295.857 157.016 295.865 161.792 296.039 161.972C296.555 162.497 301.096 160.492 300.012 165.05H293.059V145.561V145.553Z" fill="#101110"/>
<path d="M238.916 119.134C239.34 117.717 244.526 118.602 245.876 118.359V121.953C245.14 122.086 242.077 121.765 241.895 121.953C241.736 122.118 241.736 126.416 241.895 126.573C242.092 126.769 244.686 126.369 244.883 126.573C245.004 126.698 245.004 130.042 244.883 130.167C244.723 130.331 242.517 130.049 241.903 130.167V138.373H238.923V119.134H238.916Z" fill="#101110"/>
<path d="M334.784 172.23V175.307H331.804V191.719H328.824V175.307C325.67 175.659 326.299 175.166 326.337 172.23H334.784Z" fill="#101110"/>
<path d="M262.761 135.804C262.928 135.977 265.567 135.679 266.242 135.804V138.373H259.782V118.884C260.494 118.751 262.761 118.868 262.761 119.651C262.761 121.82 262.208 135.241 262.761 135.812V135.804Z" fill="#101110"/>
<path d="M267.379 427.308C267.644 426.963 268.501 426.846 268.713 426.391C268.857 426.094 267.477 426.204 267.212 424.865C265.764 417.528 276.811 418.953 275.075 424.747C274.855 425.483 273.695 426.188 273.695 426.391C273.695 426.799 277.888 429.821 274.354 432.734C270.283 436.085 264.156 431.497 267.371 427.308H267.379ZM270.063 421.631C268.099 422.242 268.251 425.24 270.48 425.624C274.627 426.345 274.279 420.315 270.063 421.631ZM273.672 429.798C273.672 428.341 272.527 427.167 271.124 427.167C269.722 427.167 268.577 428.349 268.577 429.798C268.577 431.246 269.722 432.428 271.124 432.428C272.527 432.428 273.672 431.246 273.672 429.798Z" fill="#14116C"/>
<path d="M307.465 172.23V192.235C306.753 192.368 304.486 192.251 304.486 191.468V172.23H307.465Z" fill="#101110"/>
<path d="M342.237 172.23V191.468C342.237 192.486 339.257 192.486 339.257 191.468V172.23H342.237Z" fill="#101110"/>
<path d="M274.188 138.373H271.208V119.134C271.208 118.116 274.188 118.116 274.188 119.134V138.373Z" fill="#101110"/>
<path d="M253.67 432.648C246.581 439.413 242.441 421.709 249.227 420.12C256.226 418.483 256.824 429.633 253.67 432.648ZM249.697 421.607C246.096 422.727 247.734 435.49 252.093 431.277C254.368 429.077 254.095 420.237 249.697 421.607Z" fill="#14116C"/>
<path d="M253.822 118.876H250.842V138.365H253.822V118.876Z" fill="#101110"/>
<path d="M296.039 118.876V138.365C295.327 138.498 293.059 138.381 293.059 137.598V118.876H296.039Z" fill="#101110"/>
<path d="M262.261 419.987V431.786C262.261 431.912 264.346 431.692 264.74 431.786C264.968 435.6 260.07 433.094 257.787 433.321V431.786C258.204 431.685 260.274 431.912 260.274 431.786V423.064C259.478 423.244 256.256 425.93 256.802 423.33C256.931 422.704 261.108 419.266 262.261 419.987Z" fill="#14116C"/>
<path d="M235.936 433.321C234.761 432.248 243.844 427.049 242.32 422.359C241.933 421.169 239.825 421.294 238.908 421.772C238.309 422.077 237.081 425.186 235.936 424.082C235.011 423.189 239.128 417.301 243.146 420.997C247.165 424.692 240.273 428.811 238.415 431.779H244.375V433.321H235.928H235.936Z" fill="#14116C"/>
<path d="M271.162 148.669C272.353 149.421 271.534 155.567 269.714 153.767C269.532 153.586 269.532 148.81 269.714 148.63C269.767 148.575 270.995 148.567 271.162 148.669Z" fill="#FDFDFD"/>
<path d="M350.684 175.565C351.002 174.414 352.67 174.9 352.67 175.565V188.391C352.67 189.276 350.684 189.276 350.684 188.391C350.684 185.697 350.16 177.429 350.684 175.565Z" fill="#FDFDFD"/>
<path d="M320.878 121.444V135.037C320.878 135.922 318.892 135.922 318.892 135.037V122.212C318.892 121.671 320.302 121.233 320.878 121.444Z" fill="#FDFDFD"/>
<path d="M281.14 175.565C281.459 174.414 283.127 174.9 283.127 175.565V188.391C283.127 189.276 281.14 189.276 281.14 188.391C281.14 185.697 280.617 177.429 281.14 175.565Z" fill="#FDFDFD"/>
<path d="M318.391 184.538H316.412L316.913 177.875C317.565 177.742 317.701 178.823 317.777 179.277C318.05 181.007 317.967 182.824 318.399 184.538H318.391Z" fill="#FDFDFD"/>
<path d="M243.882 185.047C243.753 185.18 242.767 185.087 242.381 184.812C241.402 184.123 242.889 179.347 242.896 177.875C243.541 178.118 243.768 180.616 243.821 181.273C243.874 181.962 244.018 184.914 243.882 185.055V185.047Z" fill="#FDFDFD"/>
<path d="M282.634 127.599C282.793 126.581 281.921 121.021 283.87 121.444C285.879 123.026 286.076 128.483 282.634 127.599Z" fill="#FDFDFD"/>
<path d="M147.028 138.882V131.702H150.008V144.527C149.166 144.402 147.816 144.817 147.134 144.417C146.232 143.893 143.328 137.645 141.569 136.838V144.535C140.856 144.668 138.589 144.551 138.589 143.768V131.709C143.146 130.707 143.874 136.76 147.035 138.889L147.028 138.882Z" fill="#101110"/>
<path d="M184.779 144.527V131.702H191.982C194.014 131.702 195.751 136.196 195.751 138.114C195.751 140.033 194.014 144.527 191.982 144.527H184.779ZM187.759 141.967C194.56 143.439 194.735 132.712 187.759 134.27V141.967Z" fill="#101110"/>
<path d="M159.819 131.318C166.756 130.848 169.092 141.325 162.874 144.214C153.92 148.372 149.932 131.991 159.819 131.318ZM158.803 134.379C156.051 135.225 155.725 140.706 158.924 141.74C164.96 143.681 165.27 132.383 158.803 134.379Z" fill="#101110"/>
<path d="M170.373 131.702C174.725 131.756 180.48 130.347 179.199 136.987C178.895 138.561 177.349 138.803 177.334 139.132C177.311 139.688 180.927 142.914 180.806 144.261C177.144 146.626 175.665 139.43 173.603 139.391L173.353 144.527H170.373V131.702ZM172.853 136.838C178.296 137.613 178.281 133.495 172.853 134.27V136.838Z" fill="#101110"/>
<path d="M218.489 132.79C218.921 133.557 218.012 135.076 217.238 135.217C216.601 135.335 215.517 134.246 214.334 134.231C209.323 134.176 210.293 142.726 214.698 141.881C215.646 141.7 216.905 140.338 217.739 140.502C221.044 141.145 217.056 144.911 214.342 144.95C206.532 145.075 205.562 131.803 213.895 131.208C214.82 131.138 218.171 132.203 218.489 132.79Z" fill="#101110"/>
<path d="M204.152 131.702C204.94 133.675 203.211 134.246 203.12 135.006C202.961 136.251 202.961 139.986 203.12 141.231C203.219 141.982 204.948 142.554 204.152 144.535H199.178C199.936 141.395 200.633 138.381 200.148 135.069C199.997 134.035 198.745 133.08 199.178 131.709H204.152V131.702Z" fill="#101110"/>
<path d="M187.759 141.967V134.27C194.735 132.712 194.56 143.439 187.759 141.967Z" fill="#FDFDFD"/>
<path d="M158.803 134.379C165.27 132.383 164.967 143.689 158.924 141.74C155.725 140.706 156.051 135.225 158.803 134.379Z" fill="#FDFDFD"/>
<path d="M172.853 136.838V134.27C178.281 133.495 178.296 137.613 172.853 136.838Z" fill="#FDFDFD"/>
<path d="M271.124 432.428C272.531 432.428 273.672 431.251 273.672 429.798C273.672 428.345 272.531 427.167 271.124 427.167C269.717 427.167 268.577 428.345 268.577 429.798C268.577 431.251 269.717 432.428 271.124 432.428Z" fill="#FDFDFD"/>
<path d="M270.063 421.631C274.279 420.315 274.627 426.352 270.48 425.624C268.251 425.233 268.099 422.242 270.063 421.631Z" fill="#FDFDFD"/>
<path d="M249.697 421.607C254.095 420.237 254.36 429.077 252.093 431.277C247.741 435.49 246.096 422.735 249.697 421.607Z" fill="#FDFDFD"/>
<path d="M91.9816 105.628C119.8 100.335 148.127 96.8424 175.226 88.2373C203.211 79.3424 230.044 65.8748 256.059 52.2349C285.659 68.0124 316.17 82.8502 348.591 91.5494C371.504 97.6959 395.1 100.75 418.362 105.166L419.984 106.051L419.749 125.312C417.649 165.809 418.028 206.282 409.551 246.098C393.151 323.161 357.189 384.971 297.768 434.331C288.715 441.848 278.471 449.435 268.236 455.128C265.991 456.38 258.394 460.671 256.415 460.93C253.61 461.298 242.82 454.556 239.765 452.708C189.526 422.422 145.132 366.453 122.105 311.58C94.7491 246.403 93.0886 179.793 91.9134 109.879C91.8906 108.407 90.996 107.045 91.9816 105.628ZM238.916 119.134V138.373H241.895V130.167C242.509 130.057 244.723 130.331 244.875 130.167C244.996 130.042 244.996 126.698 244.875 126.573C244.678 126.377 242.085 126.777 241.888 126.573C241.728 126.409 241.728 122.118 241.888 121.953C242.07 121.765 245.133 122.094 245.868 121.953V118.359C244.519 118.594 239.333 117.717 238.916 119.134ZM274.188 138.373V119.134C274.188 118.117 271.208 118.117 271.208 119.134V138.373H274.188ZM318.755 118.469C317.117 118.837 316.306 120.223 316.026 121.82C315.601 124.263 315.601 134.473 316.519 136.454C317.967 139.571 323.274 139.124 323.82 135.515C324.184 133.111 324.184 124.13 323.82 121.726C323.426 119.134 321.159 117.929 318.748 118.461L318.755 118.469ZM253.822 118.876H250.842V138.365H253.822V118.876ZM262.761 135.805C262.208 135.233 262.761 121.812 262.761 119.643C262.761 118.86 260.487 118.735 259.781 118.876V138.365H266.241V135.797C265.567 135.679 262.928 135.969 262.761 135.797V135.805ZM283.127 130.676C288.131 130.707 289.556 124.279 287.1 120.677C285.25 117.968 282.96 119.04 280.147 118.876V138.365H283.127V130.668V130.676ZM296.039 118.876H293.059V137.598C293.059 138.381 295.334 138.506 296.039 138.365V118.876ZM301.999 118.876V138.365C302.711 138.498 304.979 138.381 304.979 137.598V128.624L307.344 135.671C307.981 138.435 306.275 138.639 310.445 138.365V118.876H307.958V128.624L304.933 118.931L301.999 118.876ZM159.819 131.318C149.924 131.991 153.912 148.372 162.874 144.214C169.092 141.325 166.756 130.848 159.819 131.318ZM218.489 132.79C218.163 132.211 214.82 131.146 213.895 131.208C205.562 131.811 206.532 145.075 214.342 144.95C217.056 144.903 221.037 141.145 217.739 140.503C216.905 140.338 215.646 141.701 214.698 141.881C210.293 142.718 209.323 134.168 214.334 134.231C215.517 134.246 216.601 135.335 217.238 135.217C218.012 135.068 218.921 133.557 218.489 132.79ZM147.028 138.882C143.866 136.752 143.138 130.699 138.581 131.702V143.76C138.581 144.543 140.856 144.668 141.561 144.527V136.83C143.32 137.637 146.224 143.885 147.126 144.41C147.816 144.809 149.158 144.402 150 144.519V131.694H147.02V138.874L147.028 138.882ZM170.373 131.702V144.527H173.353L173.603 139.391C175.665 139.43 177.144 146.626 180.806 144.261C180.927 142.914 177.311 139.688 177.334 139.132C177.349 138.803 178.895 138.561 179.199 136.987C180.48 130.347 174.725 131.749 170.373 131.702ZM184.779 144.527H191.982C194.014 144.527 195.751 140.033 195.751 138.114C195.751 136.196 194.014 131.702 191.982 131.702H184.779V144.527ZM204.151 131.702H199.178C198.745 133.08 199.996 134.027 200.148 135.061C200.633 138.373 199.936 141.387 199.178 144.519H204.151C204.94 142.546 203.211 141.975 203.12 141.223C202.961 139.978 202.961 136.243 203.12 134.998C203.219 134.246 204.948 133.675 204.151 131.694V131.702ZM287.6 150.682C288.692 143.58 279.298 143.439 279.616 150.415C279.791 154.197 286.622 158.613 284.613 162.145C283.362 164.353 282.338 159.756 282.164 159.623C281.573 159.185 280.39 159.451 279.647 159.396C278.926 168.276 290.072 167.203 287.365 157.838C286.524 154.91 281.368 151.895 283.127 148.113C284.992 147.73 284.408 150.415 284.636 150.65C284.84 150.869 286.956 150.556 287.6 150.674V150.682ZM238.916 145.553V165.042H241.895V156.319L244.617 164.541L247.362 165.042C247.347 158.488 248.37 152.083 247.362 145.545H244.875V155.293L241.827 145.616L238.916 145.545V145.553ZM256.301 145.553H252.821V161.197C252.821 164.086 256.218 166.631 258.978 164.987C259.471 164.689 260.767 163.139 260.767 162.74V145.553H257.787V161.965H256.294V145.553H256.301ZM266.734 145.553V165.042H269.714V156.836C270.427 156.718 270.434 157.744 270.563 158.261C271.359 161.597 270.139 166.224 274.68 165.042C275.135 164.588 273.149 157.94 273.179 156.562C273.232 154.017 275.348 152.897 274.468 149.108C273.505 144.934 270.124 145.404 266.734 145.553ZM293.059 145.553V165.042H300.012C301.089 160.485 296.555 162.497 296.039 161.965C295.865 161.784 295.857 157.008 296.039 156.828C296.722 156.147 299.193 158.692 298.534 154.048C298.215 153.32 296.289 154.009 296.039 153.759C295.857 153.579 295.865 148.802 296.039 148.622C296.214 148.442 298.845 148.755 299.519 148.622V145.537H293.059V145.553ZM312.432 150.682C313.834 143.846 304.38 143.588 304.524 149.859C304.615 153.915 310.802 158.441 309.588 161.299C307.807 165.496 307.632 159.576 307.465 159.396C307.321 159.24 305.1 159.498 304.478 159.396C303.947 168.33 315.283 167.085 311.878 157.658C310.938 155.058 304.016 148.928 309.444 148.113C309.171 150.65 310.195 150.916 312.424 150.682H312.432ZM260.282 177.358C260.335 168.706 249.91 170.828 252.806 179.183C253.776 181.986 259.713 186.966 256.066 189.158C254.239 186.801 255.68 185.431 251.843 186.089C251.585 194.945 262.405 194.13 260.054 185.04C259.319 182.189 254.527 178.462 255.391 175.659C256.445 172.23 257.211 177.17 257.363 177.304C257.727 177.625 259.584 177.233 260.29 177.366L260.282 177.358ZM272.057 172.887C270.427 171.212 267.978 171.509 266.461 173.232C261.518 178.862 272.186 185.384 269.972 188.657C268.152 191.343 267.856 186.292 267.674 186.136C267.318 185.823 265.445 186.214 264.748 186.081C264.316 194.78 275.295 194.154 272.959 185.04C272.262 182.33 268.304 180.021 268.198 177.092C268.167 176.246 268.289 174.54 269.464 174.798C270.404 175.002 270.101 177.202 270.237 177.335C270.45 177.562 272.557 177.241 273.202 177.358C273.657 176.881 272.679 173.514 272.065 172.887H272.057ZM279.29 191.061C281.216 193.042 285.356 192.274 286 189.299C286.387 187.49 286.395 176.951 286 175.158C285.053 170.797 279.214 170.773 278.259 175.158C277.812 177.21 277.888 185.564 278.138 187.882C278.229 188.727 278.737 190.497 279.283 191.061H279.29ZM354.513 172.887C352.837 171.165 350.054 171.525 348.682 173.506C347.309 175.487 347.363 185.666 347.727 188.359C348.401 193.308 354.634 193.488 355.536 189.307C355.991 187.193 355.915 178.462 355.657 176.066C355.566 175.221 355.058 173.451 354.513 172.887ZM244.852 172.253C244.595 171.995 241.683 172.371 240.902 172.222L238.415 191.719H241.402V188.125C245.959 186.887 243.935 190.787 244.936 191.664C245.292 191.977 247.165 191.578 247.862 191.719C247.044 189.338 245.542 172.942 244.86 172.253H244.852ZM294.553 188.383C293.742 185.462 295.152 178.689 294.553 175.299C297.449 174.547 296.221 178.556 296.54 178.893C296.669 179.026 298.481 178.807 299.027 178.893C298.996 177.084 299.444 173.882 297.821 172.699C296.441 171.697 293.082 172.003 292.127 173.561C291.323 174.868 291.323 186.238 291.566 188.399C292.256 194.483 299.959 192.987 299.535 186.332C299.436 184.719 297.722 185.024 296.547 185.055C296.608 185.713 296.191 189.017 296.047 189.158C295.736 189.44 294.674 188.798 294.561 188.391L294.553 188.383ZM307.465 172.23H304.486V191.468C304.486 192.251 306.76 192.376 307.465 192.235V172.23ZM319.392 172.222H315.419L312.932 191.719C313.721 191.687 315.207 191.977 315.7 191.241C316.814 189.581 314.069 187.381 318.899 188.125V191.719H322.372L319.392 172.23V172.222ZM334.784 172.23H326.337C326.292 175.174 325.663 175.659 328.824 175.307V191.719H331.804V175.307H334.784V172.23ZM342.237 172.23H339.257V191.468C339.257 192.486 342.237 192.486 342.237 191.468V172.23ZM361.109 172.23V191.468C361.109 192.486 364.089 192.486 364.089 191.468V181.978L367.137 192.165C367.758 192.572 370.056 192.134 370.056 191.468V172.23H367.076V181.978L364.051 172.284L361.117 172.23H361.109ZM200.671 272.767C201.134 288.599 222.713 285.608 232.964 283.29C248.188 279.845 259.243 272.336 257.302 254.562C256.339 245.769 243.412 235.614 235.936 232.513C222.796 227.071 188.055 226.272 180.093 215.287C177.599 211.842 175.984 203.957 173.232 213.901C171.01 221.927 171.799 234.987 178.069 240.977C179.472 242.324 181.42 243.6 183.293 244.046C182.838 245.84 181.367 247.233 181.018 249.144C180.025 254.546 185.477 259.252 190.246 259.949C187.827 267.897 192.839 273.746 200.679 272.759L200.671 272.767ZM263.322 243.6C278.714 241.533 282.535 219.265 268.41 212.304C249.682 203.072 235.299 231.769 254.125 241.925C255.566 242.7 257.985 242.653 258.288 244.289L256.294 320.467C249.917 317.86 243.419 315.26 237.24 312.191C236.133 311.643 226.451 307.509 229.263 305.543C231.735 303.813 242.001 304.377 246.088 303.006C254.186 300.289 258.295 290.557 248.53 286.18C239.082 281.944 230.621 286.454 224.805 294.354C214.6 308.221 223.167 315.495 234.935 321.767C237.179 322.957 246.27 327.475 248.158 327.655C249.637 327.796 253.792 324.5 255.475 323.466C256.9 322.589 261.01 321.258 261.275 319.708C262.39 313.185 261.548 305.355 261.745 298.653C261.965 291.394 262.594 283.893 262.776 276.635C263.057 265.61 262.587 254.586 263.315 243.592L263.322 243.6ZM319.923 275.883C320.545 275.28 326.497 276.095 329.332 272.516C332.168 268.938 330.599 264.091 331.023 263.496C331.19 263.261 335.08 262.024 336.247 261.186C340.895 257.859 340.887 253.192 338.279 248.423C343.291 246.043 346.415 243.263 348.447 237.869C351.169 230.641 352.291 218.865 346.961 212.75C343.738 217.605 342.556 221.073 337.036 223.524C314.547 233.499 285.932 225.098 268.744 246.356C262.602 253.951 261.313 265.258 267.53 273.229C273.444 280.816 284.484 284.214 293.476 285.937C300.983 287.37 313.933 288.834 318.505 280.816C319.324 279.383 319.749 276.055 319.93 275.875L319.923 275.883ZM255.808 349.196C251.752 345.21 251.502 339.001 255.808 335.086C265.733 326.05 293.719 324.398 297.897 310.327C300.687 300.924 289.503 286.626 280.405 285.592C272.686 284.708 260.418 288.787 266.621 298.802C271.284 306.342 279.177 304.103 286.137 305.833C291.892 307.266 289.905 309.231 285.963 311.337C272.679 318.439 236.595 325.588 244.299 348.013C245.057 350.229 248.408 355.71 250.986 355.272C251.858 355.123 260.782 348.538 260.782 347.911V335.344C264.164 336.292 264.634 340.77 264.27 343.824C263.14 353.173 243.116 357.127 242.866 369.961C242.805 373.108 245.36 378.629 248.643 378.95C249.493 379.036 260.29 373.719 260.29 373.046V364.073C261.442 363.791 261.108 364.3 261.427 364.722C269.646 375.575 250.478 377.524 245.883 382.802C243.215 385.871 241.91 393.592 241.888 397.663C241.888 398.438 241.569 399.167 242.646 398.955L253.875 385.926C261.389 380.101 276.417 379.717 271.943 366.14C271.208 363.908 267.614 357.871 265.134 358.521C264.149 358.779 255.323 365.239 255.323 365.873V374.847C251.919 373.617 251.653 369.405 253.42 366.469C257.787 359.202 268.122 357.902 272.072 349.822C274.627 344.584 274.407 337.106 270.715 332.541C268.008 329.206 267.47 330.122 263.937 331.672C260.934 332.987 255.824 335.423 255.824 339.197V349.196H255.808ZM272.694 399.464C272.065 393.474 272.785 383.013 265.741 381.212C264.058 382.598 255.862 385.268 255.058 386.631C254.451 387.664 254.527 398.243 255.642 398.987C256.658 399.668 258.894 399.668 259.448 398.321C260.843 394.938 258.705 389.63 260.517 386.13C263.899 388.98 266.067 393.169 268.956 396.395C269.411 396.912 272.186 400.051 272.686 399.464H272.694ZM235.936 433.321H244.382V431.786H238.423C240.273 428.827 247.332 424.849 243.154 421.004C238.976 417.16 235.018 423.197 235.943 424.089C237.088 425.201 238.317 422.085 238.916 421.78C239.841 421.302 241.941 421.177 242.327 422.367C243.851 427.057 234.768 432.256 235.943 433.329L235.936 433.321ZM253.67 432.648C256.824 429.633 256.225 418.483 249.227 420.12C242.441 421.709 246.581 439.413 253.67 432.648ZM262.261 419.987C261.101 419.266 256.931 422.696 256.802 423.33C256.256 425.93 259.486 423.252 260.274 423.064V431.786C260.274 431.912 258.204 431.685 257.787 431.786V433.321C260.077 433.094 264.968 435.6 264.74 431.786C264.346 431.692 262.261 431.912 262.261 431.786V419.987ZM267.379 427.308C264.156 431.497 270.29 436.085 274.362 432.734C277.888 429.829 273.702 426.799 273.702 426.392C273.702 426.188 274.862 425.483 275.082 424.747C276.819 418.953 265.771 417.528 267.22 424.865C267.485 426.204 268.865 426.094 268.721 426.392C268.501 426.846 267.644 426.963 267.386 427.308H267.379Z" fill="#FDFDFD"/>
<path d="M200.671 272.767C192.831 273.761 187.827 267.904 190.238 259.957C185.462 259.26 180.018 254.554 181.011 249.152C181.36 247.233 182.831 245.847 183.286 244.054C181.413 243.608 179.464 242.324 178.061 240.985C171.791 234.995 171.002 221.934 173.224 213.909C175.976 203.965 177.591 211.849 180.086 215.295C188.047 226.28 222.788 227.079 235.928 232.521C243.404 235.614 256.332 245.769 257.295 254.57C259.243 272.344 248.188 279.861 232.956 283.298C222.705 285.616 201.126 288.607 200.664 272.775L200.671 272.767Z" fill="#14116C"/>
<path d="M319.923 275.883C319.741 276.055 319.316 279.391 318.497 280.824C313.918 288.842 300.975 287.378 293.469 285.945C284.477 284.23 273.437 280.824 267.523 273.237C261.313 265.266 262.594 253.959 268.736 246.364C285.932 225.106 314.547 233.507 337.028 223.532C342.548 221.081 343.731 217.612 346.953 212.758C352.283 218.873 351.154 230.649 348.439 237.876C346.415 243.263 343.291 246.051 338.272 248.431C340.88 253.192 340.887 257.859 336.24 261.194C335.072 262.032 331.182 263.269 331.016 263.504C330.591 264.091 332.032 269.11 329.325 272.524C326.618 275.938 320.545 275.288 319.915 275.891L319.923 275.883Z" fill="#14116C"/>
<path d="M255.808 349.196V339.197C255.808 335.423 260.911 332.987 263.921 331.672C267.455 330.122 267.993 329.206 270.7 332.541C274.392 337.106 274.62 344.584 272.057 349.822C268.107 357.91 257.772 359.21 253.405 366.469C251.638 369.413 251.904 373.617 255.308 374.847V365.873C255.308 365.247 264.134 358.779 265.119 358.521C267.606 357.871 271.193 363.908 271.928 366.14C276.402 379.709 261.374 380.101 253.86 385.926L242.631 398.955C241.554 399.174 241.873 398.438 241.873 397.663C241.895 393.592 243.192 385.871 245.868 382.802C250.463 377.524 269.631 375.575 261.412 364.722C261.093 364.3 261.427 363.791 260.274 364.073V373.046C260.274 373.719 249.485 379.028 248.628 378.95C245.345 378.629 242.79 373.116 242.851 369.961C243.101 357.127 263.125 353.173 264.255 343.824C264.627 340.778 264.149 336.292 260.767 335.344V347.911C260.767 348.538 251.843 355.123 250.971 355.272C248.393 355.71 245.042 350.229 244.284 348.013C236.58 325.588 272.664 318.439 285.947 311.337C289.898 309.223 291.884 307.266 286.122 305.833C279.161 304.095 271.276 306.342 266.605 298.802C260.403 288.787 272.664 284.708 280.39 285.592C289.488 286.634 300.672 300.924 297.882 310.327C293.712 324.398 265.718 326.05 255.793 335.086C251.487 339.001 251.744 345.21 255.793 349.196H255.808Z" fill="#14116C"/>
<path d="M263.322 243.6C262.595 254.593 263.065 265.61 262.784 276.643C262.602 283.901 261.965 291.394 261.753 298.661C261.556 305.363 262.39 313.193 261.283 319.716C261.017 321.266 256.908 322.589 255.482 323.474C253.807 324.508 249.644 327.812 248.166 327.663C246.27 327.475 237.179 322.965 234.943 321.775C223.175 315.511 214.607 308.237 224.813 294.362C230.628 286.454 239.098 281.951 248.537 286.187C258.303 290.564 254.201 300.297 246.096 303.014C242.009 304.384 231.743 303.821 229.271 305.551C226.466 307.524 236.14 311.651 237.247 312.199C243.427 315.268 249.925 317.868 256.301 320.475L258.295 244.297C257.992 242.661 255.566 242.707 254.133 241.932C235.299 231.769 249.682 203.072 268.418 212.311C282.535 219.272 278.714 241.533 263.33 243.608L263.322 243.6Z" fill="#14116C"/>
<path d="M272.694 399.464C272.193 400.051 269.426 396.912 268.963 396.395C266.075 393.169 263.906 388.98 260.525 386.13C258.712 389.63 260.851 394.938 259.455 398.321C258.902 399.668 256.665 399.668 255.649 398.986C254.535 398.243 254.459 387.664 255.065 386.631C255.869 385.268 264.065 382.59 265.749 381.212C272.792 383.013 272.072 393.466 272.701 399.464H272.694Z" fill="#14116C"/>
</svg>
