<svg width="141" height="56" viewBox="0 0 141 56" fill="none" xmlns="http://www.w3.org/2000/svg">
<path fill-rule="evenodd" clip-rule="evenodd" d="M36.0693 19.2355L36.3204 19.684C36.6367 20.2289 36.8037 20.8476 36.8047 21.4776V35.3791C36.7996 36.0086 36.6328 36.6262 36.3204 37.1728L36.0514 37.6213C35.7442 38.1703 35.2909 38.6234 34.742 38.9307L22.706 45.8903C22.161 46.2065 21.5424 46.3735 20.9123 46.3747H20.41C19.7791 46.3806 19.1586 46.213 18.6163 45.8903L6.56243 38.9487C6.02519 38.6261 5.5755 38.1765 5.25301 37.6392L5.00189 37.1908C4.68573 36.6457 4.5187 36.0271 4.51758 35.397V21.4955C4.5187 20.8656 4.68573 20.2468 5.00189 19.7019L5.25301 19.2535C5.56737 18.7099 6.01889 18.2583 6.56243 17.944L18.5984 10.9843C19.1434 10.6682 19.762 10.5011 20.3921 10.5H20.9123C21.5424 10.5011 22.161 10.6682 22.706 10.9843L34.742 17.9261C35.2886 18.2425 35.7455 18.6932 36.0693 19.2355ZM20.9123 14.0874H20.3921L9.8988 20.1502L20.6612 26.3565L31.4236 20.1502L20.9123 14.0874ZM32.9482 35.8276L22.4549 41.8905V29.4778L33.2173 23.2536V35.3792L32.9482 35.8276ZM83.5808 37.0475H79.8613V17.4169H83.5808V37.0475ZM50.0176 37.4683H54.1762V30.3392H55.9843L60.4012 37.4683H64.8439L59.9621 29.6161C62.1318 28.9703 63.759 27.498 63.759 24.7084V24.605C63.759 20.7823 60.9953 19 56.63 19H50.0176V37.4683ZM54.1762 27.498V22.2029H56.5267C58.5414 22.2029 59.678 22.8487 59.678 24.7342V24.8375C59.678 26.6198 58.619 27.498 56.5267 27.498H54.1762ZM71.5982 37.3309C75.2918 37.3309 77.6165 35.7037 78.0555 32.7849H74.5169C74.2844 33.9214 73.4321 34.6705 71.7015 34.6705C69.6609 34.6705 68.447 33.379 68.3436 31.1318H78.0814V30.0986C78.0814 25.2684 74.9818 23.2279 71.4948 23.2279C67.5687 23.2279 64.5466 25.9917 64.5466 30.2536V30.4602C64.5466 34.7738 67.517 37.3309 71.5982 37.3309ZM68.3952 28.833C68.6794 26.9215 69.8159 25.8109 71.4948 25.8109C73.2771 25.8109 74.3103 26.7924 74.4394 28.833H68.3952ZM90.716 37.332C92.9377 37.332 94.3062 36.2988 95.0035 34.9299V37.0479H98.7231V23.5389H95.0035V31.4687C95.0035 33.4576 93.7637 34.4391 92.1887 34.4391C90.5874 34.4391 89.8376 33.5609 89.8376 31.727V23.5389H86.1185V32.2436C86.1185 35.7822 88.0814 37.332 90.716 37.332ZM105.008 37.0468H101.262V23.5378H105.008V25.6042C105.679 24.3385 107.126 23.2279 109.141 23.2279C110.923 23.2279 112.266 23.977 112.912 25.5784C113.997 23.9511 115.753 23.2279 117.458 23.2279C119.964 23.2279 121.901 24.8035 121.901 28.3939V37.0468H118.181V28.8071C118.181 27.0765 117.406 26.3016 116.063 26.3016C114.617 26.3016 113.455 27.2315 113.455 29.0654V37.0468H109.735V28.8071C109.735 27.0765 108.934 26.3016 107.617 26.3016C106.17 26.3016 105.008 27.2315 105.008 29.0654V37.0468ZM130.549 37.3309C134.243 37.3309 136.568 35.7037 137.007 32.7849H133.468C133.235 33.9214 132.383 34.6705 130.652 34.6705C128.612 34.6705 127.398 33.379 127.295 31.1318H137.033V30.0986C137.033 25.2684 133.933 23.2279 130.446 23.2279C126.52 23.2279 123.497 25.9917 123.497 30.2536V30.4602C123.497 34.7738 126.468 37.3309 130.549 37.3309ZM127.347 28.833C127.631 26.9215 128.768 25.8109 130.446 25.8109C132.228 25.8109 133.262 26.7924 133.391 28.833H127.347Z" fill="black"/>
</svg>
