<?xml version="1.0" encoding="UTF-8"?>
<svg id="Layer_1" data-name="Layer 1" xmlns="http://www.w3.org/2000/svg" viewBox="0 0 2115.81 1126.95">
  <path d="M1356.3,18.24c20.95,15.34,40.48,47.68,31.22,73.15-11.61,27.22-59,19.37-83.16,50.62-18.56,22.69-27.07,53.86-34.54,82.13-8.08,32.4-14.98,64.68-22.56,97.21-32.94,144.66-65.73,289.21-100.96,433.37-4.16,16.65-8.84,33.97-15.96,49.28-6.88,14.89-16.33,27.79-28.62,36.21-27.36,19.07-64.12,12.82-84.68-12.83-17.69-21.22-25.74-52-32.84-81.83-4.52-19.65-8.22-39.65-11.59-59.43-10.53-63.03-19.32-125.32-28.99-188.36-14.38-104.5-28.66-64.81-45.57,7.54-15.28,63.46-28.98,127.12-45.76,190.12-16.09,59.12-35.64,120.16-76.36,167.2-89.62,105.39-270.99,86.61-265.55-74.78.91-26.69,6.02-53.19,11.43-79.31,13.28-61.26,26.63-122.62,41.28-183.72,5.08-20.78,10.96-43.68,21.46-60.17,21.4-36.17,71.14-40.03,94.27-4.37,10.88,17.39,10.71,38.85,8.24,58.72-1.4,10.92-3.63,21.86-5.97,32.65-8.55,38.44-18.19,75.61-27.22,113.67-7.32,33.74-17.94,69.9-15.62,104.95,1.99,28.24,20.81,48.12,47.58,25.2,12.22-10.7,21.56-28.53,28.3-45.27,9.34-23.4,16.52-48.89,22.97-73.77,42.19-172.51,75.37-346.99,116.43-519.67,6.58-25.34,15.79-52.58,34.62-70.41,28.62-28.29,80.12-29.3,106.78,1.96,20.7,23.82,25.87,57.73,31.02,88.25,13.72,91.41,24.98,183.11,38.62,275.04,2.13,13.23,4.48,28.91,8.5,39.76,6.75,17.06,12.37-3.41,15.64-15.11,4.3-16.59,8.01-36.24,11.74-53.52,14.62-69.05,30.13-137.57,44.44-206.42,11.31-51.73,22.5-106.74,50.15-152.52,12.71-20.66,28.56-37.77,49.22-49.34,33.77-19.38,80.24-20.24,111.88,3.72l.15.11Z"/>
  <path d="M723.57,1003.82c44.88-51.52,116.17-69.97,181.38-78.28,109.78-13.7,218.72-1.47,327.87,10.7,102.25,8.53,234.13,22.04,311.6-59.1,30.86-34.45,47.55-79.8,59.57-124.58,37.01-160.38,61.44-322.97,94.47-484.15,10.88-54.04,11.94-108.32,84.58-99.74,62.26,9.21,78.11,82.8,90.92,134.2,16.91,70.43,34.78,144.87,46.79,216.06.9,3.33,2.61,23.75,5.54,23.03,1.11.06,3.38-7.11,4.24-10.44,5.81-22.56,13.25-46.17,17.9-68.67,4.06-19.61,9.94-44.55,13.41-64.1,13.35-74.1,28.72-148.02,33.28-223.28.7-10.47,3.39-21.46,12-28.12,18.31-13.6,50.87-11.52,71.41-1.46,54.91,28.84,35.66,111.07,25.93,160.66-27.24,127.18-50.48,255.47-78.4,382.4-5.32,23.05-8.8,45.89-14.02,69.18-2.44,10.41-5.43,20.64-9.47,30.01-7.27,17.06-18.54,31.5-35.71,38.51-20.78,7.93-46.25,8.76-66.62-.57-22.83-10.78-34.95-33.08-42.98-56.51-6.51-19.11-10.54-39.86-14.56-59.62-17.36-82.33-35.46-164.49-51.97-246.87-.77-4-3.81-16.51-7.55-10.14-1.71,3.14-2.49,6.92-3.32,10.63-12.89,58.81-23.7,118.01-34.91,177.16-23.03,129.19-46.12,278.91-164.05,357.17-225.25,149.03-548.65-58.01-777.81,81.63-10.69,7.17-19.72,15.54-29.07,24.91-13.45,13.15-27.27,29.44-49.65,19.33-11.68-5.43-19.84-17.09-24.54-28.96-13.07-31.75,1.81-66.07,23.6-90.87l.13-.15Z"/>
  <path d="M306.3,215.75c-1.83-1.84-18.61-1.51-22.3-1.28-80.27,5.08-165.98,56.6-129.85,148.94,6.35,16.22,27.05,36-.58,45.63-39.4,13.73-84.87-17.11-103.19-50.86-40.63-74.85-2.54-172.67,65.86-216.48,101.62-65.09,252.25-40.33,366.85-35.23,85,3.78,200.62,10.26,268.94-48.98,12.73-11.04,27.78-36.69,46.05-19.01,23.71,22.94,9.77,78.93-4.75,104.31-55.61,97.19-213.24,89.05-309.29,84.73-8.95-.4-18.04-.43-26.98-1.02-6.52-.43-14.32-4.43-19.53,1.5-2.57,2.93-6.29,18.31-7.7,23.3-9.24,32.84-17.13,66.25-25.75,99.25-8.27,31.68-18.4,62.99-23.56,95.4.15,1.03.59,2.01,1.42,2.66,1.89,1.49,18.39,1.13,22.13.94,22.25-1.11,60.35-8.11,80.72-3.8,42.84,9.06,24.21,69.16,5.7,93.22-32.15,41.78-79.96,27.66-125.34,33.66-20.52,2.72-22.24,9.73-27.93,28.07-12.01,38.71-21.52,80.23-32.42,119.58-26.8,96.72-50.7,243.02-157,283-51.98,19.55-117.96,4.13-141.12-50.4-5.84-13.75-15.89-61.17,11.85-54.85,7.78,1.77,17.98,7.39,26.59,8.41,88.24,10.42,112.31-109.39,129.95-172.89,11.74-42.26,22.53-84.81,33.27-127.32-.65-5-8.3-4.21-12.24-3.66-12.65,1.78-29.37,11.41-43.06,11.03-18.17-.51-33.22-18.65-35.24-35.84-6.26-53.1,27.66-83.68,74.93-97.56,14.12-4.14,31.71-5.44,45.03-9.97,13.29-4.51,11.2-16.5,14.02-27.98,17.69-72.14,35.27-144.51,53.82-216.18.72-2.77,4-7.02.71-10.32Z"/>
  <path d="M1469.29,180.77c34.62-3.73,88.53-1.42,101.75,37.74,12.12,35.92,9.57,101.24,10.51,140.49,2.87,119.84,3.62,242.16-3.05,361.97-1.96,35.13,1.37,97.58-36.58,114.42-31.9,14.15-77.83,6.75-81.36-34.39-3.2-37.31.96-81.28,2.03-118.94.15-5.35.83-22.5-.79-26.29-1.43-3.36-4.46-4.01-7.7-4.3-17.64-1.61-36.53,1.16-54.01,2.09-13.59.72-26.35-.07-39.98,2.02-7.9,1.21-14.19,6.3-17.58,13.42-22.2,48.24-33.85,109.57-59.63,155.37-15.69,27.88-42.11,38.6-73.78,33.07-53.07-9.27-37.01-55.49-26.28-92.13,19.11-65.27,45.07-132.16,69.05-195.95,36.65-97.49,74.75-199.41,116.32-294.68,19.55-44.82,47.74-88.15,101.1-93.9ZM1470.69,322.18c-.69-.2-1.77.91-2.83,2.9-1.53,2.98-3.42,7.48-4.9,10.96-24.04,59.47-47.76,122.05-68.02,182.82-1.7,6.99-8.85,22.28-4.14,27.78,7.72,4.98,18.82,1.07,27.6,1.65,13.58-.86,37.82,1.03,48.49-7.83,3.52-4.76,3.13-13.09,3.62-18.9.77-16.9.36-34.52.31-51.49.57-47.81.96-95.55,1.15-143.46-.08-2.34-.44-4.15-1.21-4.41l-.06-.02Z"/>
  <path d="M616.88,281.86c36.83-42.03,105.26-28.1,118.59,27.21s-20.84,101.18-78.45,95.45c-59.15-5.89-75.91-81.85-40.14-122.66Z"/>
</svg>