<?xml version="1.0" encoding="UTF-8" standalone="no"?>
<!DOCTYPE svg PUBLIC "-//W3C//DTD SVG 1.1//EN" "http://www.w3.org/Graphics/SVG/1.1/DTD/svg11.dtd">
<svg xmlns="http://www.w3.org/2000/svg" version="1.1" viewBox="0.00 0.00 1500.00 665.00">
<path fill="#000000" d="
  M 446.39 210.51
  A 0.27 0.27 0.0 0 1 446.74 210.92
  Q 408.01 256.66 351.03 277.12
  A 0.09 0.09 0.0 0 0 351.06 277.29
  L 406.35 279.71
  A 0.37 0.37 0.0 0 1 406.58 280.36
  Q 381.90 302.35 351.95 316.19
  Q 346.71 318.61 339.22 321.76
  A 0.26 0.26 0.0 0 0 339.29 322.26
  L 378.93 326.90
  A 0.33 0.33 0.0 0 1 379.05 327.51
  Q 371.32 331.80 367.37 334.62
  Q 310.03 375.45 299.68 445.46
  Q 298.25 455.15 298.51 467.01
  A 0.30 0.29 -55.6 0 1 297.94 467.12
  Q 277.73 410.16 288.51 351.42
  A 0.14 0.14 0.0 0 0 288.26 351.32
  L 258.72 397.67
  A 0.45 0.45 0.0 0 1 257.90 397.52
  Q 249.84 357.98 255.90 318.30
  A 0.20 0.20 0.0 0 0 255.54 318.15
  L 231.29 350.70
  A 0.25 0.25 0.0 0 1 230.84 350.52
  Q 231.10 347.74 231.03 345.75
  C 229.10 288.76 199.29 238.76 150.12 210.50
  A 0.17 0.17 0.0 0 1 150.24 210.18
  Q 200.93 219.31 242.47 249.55
  Q 249.48 254.66 255.50 260.05
  A 0.13 0.13 0.0 0 0 255.71 259.89
  L 230.16 210.79
  A 0.37 0.37 0.0 0 1 230.60 210.26
  Q 268.74 222.87 300.33 248.14
  A 0.21 0.21 0.0 0 0 300.66 247.89
  L 284.68 210.74
  A 0.20 0.20 0.0 0 1 284.97 210.49
  C 318.62 230.20 358.11 237.07 396.39 229.49
  Q 423.27 224.17 446.39 210.51
  Z"
/>
<path fill="#000000" d="
  M 994.27 405.52
  L 970.62 405.52
  A 0.35 0.35 0.0 0 1 970.30 405.32
  L 953.49 370.21
  A 0.35 0.35 0.0 0 0 953.17 370.01
  L 884.26 370.01
  A 0.35 0.35 0.0 0 0 883.94 370.20
  L 866.33 405.34
  A 0.35 0.35 0.0 0 1 866.01 405.53
  L 842.48 405.53
  A 0.35 0.35 0.0 0 1 842.16 405.02
  L 919.80 250.20
  A 0.35 0.35 0.0 0 1 920.43 250.20
  L 994.59 405.02
  A 0.35 0.35 0.0 0 1 994.27 405.52
  Z
  M 894.43 348.16
  A 0.32 0.32 0.0 0 0 894.72 348.62
  L 943.14 348.87
  A 0.32 0.32 0.0 0 0 943.43 348.42
  L 919.49 297.61
  A 0.32 0.32 0.0 0 0 918.91 297.61
  L 894.43 348.16
  Z"
/>
<path fill="#000000" d="
  M 508.55 250.08
  A 0.28 0.28 0.0 0 1 509.05 250.09
  L 583.23 404.95
  A 0.39 0.39 0.0 0 1 582.88 405.50
  L 559.47 405.51
  A 0.92 0.91 77.0 0 1 558.65 404.99
  L 542.43 370.44
  A 0.76 0.75 -12.0 0 0 541.74 370.00
  L 472.83 370.01
  A 0.60 0.58 12.8 0 0 472.30 370.33
  L 455.41 405.07
  A 0.80 0.79 -76.7 0 1 454.70 405.51
  L 431.15 405.52
  A 0.34 0.34 0.0 0 1 430.85 405.03
  L 508.55 250.08
  Z
  M 483.12 348.13
  A 0.34 0.34 0.0 0 0 483.42 348.62
  L 531.80 348.88
  A 0.34 0.34 0.0 0 0 532.10 348.39
  L 508.18 297.64
  A 0.34 0.34 0.0 0 0 507.57 297.64
  L 483.12 348.13
  Z"
/>
<path fill="#000000" d="
  M 1201.29 250.10
  A 0.28 0.28 0.0 0 1 1201.79 250.11
  L 1275.92 404.93
  A 0.39 0.39 0.0 0 1 1275.57 405.48
  L 1252.18 405.49
  A 0.92 0.91 77.0 0 1 1251.36 404.97
  L 1235.14 370.42
  A 0.76 0.75 -12.0 0 0 1234.45 369.98
  L 1165.56 369.98
  A 0.60 0.58 12.8 0 0 1165.03 370.30
  L 1148.15 405.03
  A 0.80 0.79 -76.7 0 1 1147.44 405.47
  L 1123.89 405.48
  A 0.34 0.34 0.0 0 1 1123.59 404.99
  L 1201.29 250.10
  Z
  M 1175.87 348.12
  A 0.35 0.35 0.0 0 0 1176.18 348.62
  L 1224.52 348.88
  A 0.35 0.35 0.0 0 0 1224.84 348.38
  L 1200.93 297.66
  A 0.35 0.35 0.0 0 0 1200.30 297.66
  L 1175.87 348.12
  Z"
/>
<path fill="#000000" d="
  M 734.50 331.40
  C 734.49 364.62 761.70 388.56 794.24 386.74
  Q 816.30 385.51 833.66 371.73
  A 0.20 0.19 -19.7 0 1 833.98 371.88
  L 833.98 395.42
  A 0.98 0.97 75.3 0 1 833.49 396.27
  Q 811.12 409.25 786.95 407.70
  Q 753.70 405.56 731.25 382.91
  Q 713.00 364.51 710.40 338.27
  Q 710.01 334.36 710.01 331.39
  Q 710.01 328.43 710.41 324.52
  Q 713.02 298.28 731.28 279.89
  Q 753.75 257.26 787.00 255.14
  Q 811.17 253.61 833.53 266.60
  A 0.98 0.97 -75.3 0 1 834.02 267.45
  L 834.01 290.99
  A 0.20 0.19 19.7 0 1 833.69 291.14
  Q 816.34 277.35 794.28 276.10
  C 761.74 274.26 734.51 298.19 734.50 331.40
  Z"
/>
<path fill="#000000" d="
  M 624.78 325.76
  Q 630.30 325.81 642.70 325.67
  Q 645.37 325.65 651.88 324.59
  C 660.97 323.11 669.20 318.08 671.61 308.64
  C 674.45 297.49 670.49 286.40 659.35 282.11
  Q 652.63 279.52 642.58 279.35
  Q 630.61 279.16 618.64 279.28
  A 0.40 0.39 0.0 0 0 618.24 279.67
  L 618.24 405.19
  A 0.31 0.31 0.0 0 1 617.93 405.50
  L 595.81 405.50
  A 0.34 0.33 0.0 0 1 595.47 405.17
  L 595.47 258.96
  A 0.36 0.36 0.0 0 1 595.82 258.60
  Q 625.76 258.33 646.20 258.60
  Q 652.86 258.69 661.05 260.47
  C 683.54 265.34 696.30 283.80 694.00 306.67
  C 692.18 324.83 680.46 338.02 662.52 342.56
  A 0.49 0.49 0.0 0 0 662.24 343.32
  L 707.32 405.06
  A 0.28 0.28 0.0 0 1 707.09 405.50
  L 680.71 405.50
  A 1.14 1.13 72.4 0 1 679.78 405.01
  L 624.59 326.13
  A 0.24 0.23 73.0 0 1 624.78 325.76
  Z"
/>
<path fill="#000000" d="
  M 1007.06 405.49
  A 0.31 0.31 0.0 0 1 1006.75 405.18
  L 1006.75 258.84
  A 0.26 0.26 0.0 0 1 1007.01 258.58
  Q 1030.49 258.38 1050.26 258.54
  C 1074.45 258.74 1096.27 266.90 1110.85 286.37
  C 1122.66 302.13 1127.43 322.76 1124.83 342.53
  C 1120.01 379.09 1091.71 403.04 1055.32 405.13
  C 1043.25 405.82 1028.87 405.52 1007.06 405.49
  Z
  M 1029.41 280.31
  L 1029.59 383.79
  A 0.26 0.26 0.0 0 0 1029.85 384.05
  L 1052.53 384.01
  A 49.48 46.93 -0.1 0 0 1101.93 337.00
  L 1101.91 326.86
  A 49.48 46.93 -0.1 0 0 1052.35 280.01
  L 1029.67 280.05
  A 0.26 0.26 0.0 0 0 1029.41 280.31
  Z"
/>
</svg>
