<?xml version="1.0" encoding="UTF-8" standalone="no"?>
<!DOCTYPE svg PUBLIC "-//W3C//DTD SVG 1.1//EN" "http://www.w3.org/Graphics/SVG/1.1/DTD/svg11.dtd">
<svg xmlns="http://www.w3.org/2000/svg" version="1.1" viewBox="0.00 0.00 2496.00 736.00">
<g stroke-width="2.00" fill="none" stroke-linecap="butt">
<path stroke="#838dd6" vector-effect="non-scaling-stroke" d="
  M 446.76 242.70
  Q 466.90 242.72 494.50 243.35
  Q 516.07 243.84 540.86 245.16
  A 0.50 0.49 88.9 0 0 541.37 244.62
  C 536.38 187.12 529.72 130.14 519.58 73.99
  A 2.39 2.38 -89.5 0 0 517.71 72.08
  Q 496.90 67.84 475.23 65.10
  C 465.95 63.93 458.92 64.10 446.98 64.08
  C 435.04 64.07 428.01 63.89 418.72 65.03
  Q 397.05 67.71 376.23 71.90
  A 2.39 2.38 89.6 0 0 374.36 73.81
  C 364.08 129.93 357.27 186.90 352.14 244.38
  A 0.50 0.49 -88.8 0 0 352.65 244.92
  Q 377.44 243.67 399.01 243.23
  Q 426.62 242.67 446.76 242.70"
/>
<path stroke="#838dd6" vector-effect="non-scaling-stroke" d="
  M 309.99 246.69
  Q 315.43 194.31 318.69 172.23
  Q 325.39 126.93 334.79 84.78
  A 1.04 1.03 11.3 0 0 333.96 83.54
  C 332.88 83.34 331.48 84.16 330.35 84.63
  C 302.69 96.26 277.43 110.46 253.89 129.40
  Q 198.06 174.32 167.02 237.72
  C 161.72 248.54 158.54 256.94 153.22 269.48
  Q 152.77 270.52 152.91 271.21
  A 1.15 1.15 0.0 0 0 154.27 272.11
  C 156.71 271.63 159.09 270.43 161.70 269.87
  Q 193.22 263.10 206.28 260.86
  Q 223.59 257.88 251.33 253.65
  Q 269.06 250.94 309.44 247.24
  A 0.61 0.61 0.0 0 0 309.99 246.69"
/>
<path stroke="#838dd6" vector-effect="non-scaling-stroke" d="
  M 734.77 270.61
  Q 734.79 270.42 734.65 270.06
  Q 728.33 254.05 721.14 238.59
  Q 697.23 187.16 656.13 148.65
  Q 612.14 107.44 556.74 84.27
  Q 555.81 83.88 555.34 84.02
  A 1.14 1.13 75.0 0 0 554.55 85.39
  Q 562.38 116.83 567.68 150.26
  Q 575.37 198.66 579.59 246.75
  A 0.64 0.64 0.0 0 0 580.19 247.33
  Q 626.39 250.52 671.00 257.74
  Q 701.96 262.76 733.63 271.41
  A 0.91 0.90 -79.9 0 0 734.77 270.61"
/>
<path stroke="#808080" vector-effect="non-scaling-stroke" d="
  M 1665.27 205.92
  A 29.34 29.34 0.0 0 0 1635.93 176.58
  L 1623.29 176.58
  A 29.34 29.34 0.0 0 0 1593.95 205.92
  L 1593.95 237.42
  A 29.34 29.34 0.0 0 0 1623.29 266.76
  L 1635.93 266.76
  A 29.34 29.34 0.0 0 0 1665.27 237.42
  L 1665.27 205.92"
/>
<path stroke="#808080" vector-effect="non-scaling-stroke" d="
  M 965.3424 177.4133
  A 0.27 0.27 0.0 0 0 965.0719 177.1437
  L 946.3519 177.1764
  A 0.27 0.27 0.0 0 0 946.0824 177.4469
  L 946.2376 266.3867
  A 0.27 0.27 0.0 0 0 946.5081 266.6563
  L 965.2281 266.6236
  A 0.27 0.27 0.0 0 0 965.4976 266.3531
  L 965.3424 177.4133"
/>
<path stroke="#808080" vector-effect="non-scaling-stroke" d="
  M 1366.35 177.37
  A 0.33 0.33 0.0 0 0 1366.03 177.70
  L 1365.52 266.56
  A 0.33 0.33 0.0 0 0 1365.86 266.89
  L 1384.08 266.54
  A 0.33 0.33 0.0 0 0 1384.40 266.21
  L 1384.91 177.35
  A 0.33 0.33 0.0 0 0 1384.57 177.02
  L 1366.35 177.37"
/>
<path stroke="#808080" vector-effect="non-scaling-stroke" d="
  M 1167.70 266.79
  A 0.34 0.34 0.0 0 0 1168.04 266.45
  L 1168.54 177.80
  A 0.34 0.34 0.0 0 0 1168.20 177.46
  L 1148.64 177.35
  A 0.34 0.34 0.0 0 0 1148.30 177.69
  L 1148.30 266.34
  A 0.34 0.34 0.0 0 0 1148.64 266.68
  L 1167.70 266.79"
/>
<path stroke="#808080" vector-effect="non-scaling-stroke" d="
  M 1507.42 248.99
  Q 1507.35 248.96 1507.29 248.74
  C 1500.41 225.04 1492.51 201.85 1485.82 177.91
  A 0.64 0.64 0.0 0 0 1485.20 177.44
  L 1456.30 177.44
  A 0.61 0.61 0.0 0 0 1455.69 178.04
  L 1455.20 265.50
  A 0.48 0.48 0.0 0 0 1455.67 265.98
  L 1473.81 266.08
  A 0.38 0.38 0.0 0 0 1474.19 265.69
  Q 1473.75 220.53 1473.64 212.75
  Q 1473.52 204.06 1472.77 194.48
  A 0.45 0.44 -63.0 0 1 1473.59 194.21
  Q 1474.77 196.15 1475.57 198.65
  Q 1492.74 252.80 1495.76 262.55
  Q 1496.18 263.91 1496.87 265.78
  A 0.60 0.59 -9.7 0 0 1497.43 266.17
  L 1524.73 266.17
  A 0.73 0.73 0.0 0 0 1525.46 265.44
  L 1525.46 177.67
  A 0.31 0.31 0.0 0 0 1525.15 177.36
  L 1507.57 177.36
  A 0.59 0.59 0.0 0 0 1506.98 177.95
  C 1506.92 203.75 1506.34 225.55 1507.70 248.79
  A 0.20 0.20 0.0 0 1 1507.42 248.99"
/>
<path stroke="#808080" vector-effect="non-scaling-stroke" d="
  M 1035.80 178.20
  Q 1036.38 221.69 1035.54 265.36
  A 0.39 0.38 90.0 0 0 1035.92 265.75
  L 1085.39 266.03
  A 0.74 0.74 0.0 0 0 1086.13 265.30
  L 1086.22 249.20
  A 0.24 0.24 0.0 0 0 1085.98 248.96
  L 1054.97 248.78
  A 0.51 0.50 90.0 0 1 1054.47 248.27
  L 1054.87 178.22
  A 0.53 0.53 0.0 0 0 1054.34 177.69
  L 1036.42 177.58
  A 0.62 0.62 0.0 0 0 1035.80 178.20"
/>
<path stroke="#808080" vector-effect="non-scaling-stroke" d="
  M 1237.89 178.44
  L 1237.39 266.16
  A 0.16 0.16 0.0 0 0 1237.55 266.32
  L 1254.17 266.42
  A 0.59 0.59 0.0 0 0 1254.76 265.83
  L 1254.91 239.79
  A 0.55 0.55 0.0 0 1 1255.45 239.24
  Q 1271.41 239.15 1274.49 238.88
  Q 1280.02 238.38 1282.45 237.71
  Q 1298.91 233.18 1301.32 216.06
  Q 1302.00 211.25 1301.55 202.05
  C 1301.07 192.14 1296.45 182.74 1286.74 179.98
  Q 1277.47 177.35 1266.25 177.49
  Q 1247.80 177.70 1238.44 177.88
  A 0.56 0.56 0.0 0 0 1237.89 178.44"
/>
<path stroke="#808080" vector-effect="non-scaling-stroke" d="
  M 826.65 177.81
  A 0.35 0.35 0.0 0 0 826.30 178.16
  L 826.30 266.48
  A 0.35 0.35 0.0 0 0 826.65 266.83
  L 845.12 266.83
  A 0.35 0.35 0.0 0 0 845.47 266.48
  L 845.47 234.23
  A 0.35 0.35 0.0 0 1 845.82 233.88
  L 876.55 233.88
  A 0.35 0.35 0.0 0 0 876.90 233.53
  L 876.90 217.52
  A 0.35 0.35 0.0 0 0 876.55 217.17
  L 845.66 217.17
  A 0.35 0.35 0.0 0 1 845.31 216.82
  L 845.31 194.47
  A 0.35 0.35 0.0 0 1 845.66 194.12
  L 883.11 194.12
  A 0.35 0.35 0.0 0 0 883.46 193.77
  L 883.46 178.16
  A 0.35 0.35 0.0 0 0 883.11 177.81
  L 826.65 177.81"
/>
<path stroke="#feedb5" vector-effect="non-scaling-stroke" d="
  M 441.03 469.91
  L 453.69 469.35"
/>
<path stroke="#fecfa8" vector-effect="non-scaling-stroke" d="
  M 453.69 469.35
  C 482.87 466.35 505.15 445.82 511.31 417.39
  Q 517.34 389.52 507.05 363.08
  A 0.49 0.49 0.0 0 0 506.18 363.00
  Q 500.13 372.97 489.77 378.93
  A 0.26 0.26 0.0 0 1 489.38 378.68
  Q 490.67 365.47 489.54 353.04
  Q 488.47 341.11 484.12 328.07
  Q 475.77 303.06 459.38 282.31
  C 457.19 279.54 453.93 276.39 451.55 273.65
  Q 447.00 268.42 441.40 264.66
  A 0.49 0.49 0.0 0 0 440.64 265.12
  Q 445.16 303.95 418.04 330.52
  A 1.18 1.18 0.0 0 1 416.41 330.54
  Q 408.30 322.98 399.48 317.60
  A 0.85 0.84 19.3 0 0 398.20 318.21
  Q 397.64 322.74 395.54 328.09
  Q 393.19 334.06 384.75 352.52
  C 381.32 360.04 377.92 368.90 376.16 375.95
  C 372.64 390.08 372.07 406.51 376.68 420.27
  Q 380.18 430.71 385.78 439.21
  Q 402.88 465.17 433.69 469.64
  Q 435.15 469.85 437.35 469.83
  Q 439.18 469.81 441.03 469.91"
/>
<path stroke="#fdbc5e" vector-effect="non-scaling-stroke" d="
  M 453.69 469.35
  Q 453.04 469.05 452.99 468.39
  A 0.60 0.59 78.4 0 1 453.38 467.79
  Q 456.82 466.48 459.71 465.25
  C 475.33 458.55 485.74 443.55 487.11 426.90
  Q 488.23 413.32 484.31 400.69
  C 483.94 399.52 483.35 398.62 483.35 397.70
  A 0.38 0.38 0.0 0 0 482.68 397.45
  Q 476.42 404.50 468.06 410.58
  A 0.51 0.51 0.0 0 1 467.25 410.17
  C 467.24 408.51 467.17 406.11 467.56 404.28
  Q 468.06 401.99 468.16 399.25
  Q 468.55 388.59 467.90 380.27
  Q 467.27 372.18 463.58 360.57
  C 462.54 357.31 460.37 353.51 459.25 350.18
  A 4.13 4.03 -74.9 0 0 458.55 348.93
  Q 457.05 347.10 455.90 344.38
  A 2.38 2.34 12.0 0 0 455.47 343.73
  L 453.63 341.82
  A 1.02 1.02 0.0 0 0 451.90 342.30
  Q 451.64 343.43 451.09 344.26
  A 3.89 3.86 -21.6 0 0 450.56 345.47
  Q 448.96 352.07 445.73 358.75
  Q 440.69 369.21 433.49 379.70
  A 0.43 0.43 0.0 0 1 432.77 379.70
  L 425.46 368.95
  A 1.09 1.09 0.0 0 0 423.62 369.01
  Q 421.92 371.91 415.71 381.46
  C 409.82 390.51 405.24 401.11 403.61 412.02
  C 400.79 430.85 407.55 448.55 422.95 459.80
  Q 425.64 461.77 429.86 463.59
  Q 434.25 465.48 441.87 468.38
  A 0.73 0.72 49.7 0 1 441.76 469.77
  L 441.03 469.91"
/>
<path stroke="#838dd6" vector-effect="non-scaling-stroke" d="
  M 305.98 279.91
  A 0.49 0.49 0.0 0 0 305.40 279.41
  Q 297.77 280.71 295.73 280.96
  Q 277.48 283.20 245.95 287.77
  C 223.54 291.01 197.34 296.24 179.78 300.05
  Q 165.60 303.13 145.21 309.08
  C 143.08 309.71 142.33 310.57 141.91 312.67
  Q 135.67 344.02 137.00 374.98
  Q 137.92 396.36 143.38 429.31
  C 143.63 430.85 144.71 432.56 146.22 433.00
  Q 159.26 436.75 183.52 442.55
  C 190.72 444.27 195.57 444.97 204.60 446.87
  Q 212.21 448.47 220.46 449.86
  Q 263.91 457.23 306.85 461.59
  A 0.64 0.63 0.8 0 0 307.55 460.91
  C 305.73 435.10 305.10 409.94 304.78 378.25
  Q 304.33 332.60 305.98 279.91"
/>
<path stroke="#838dd6" vector-effect="non-scaling-stroke" d="
  M 583.29 460.91
  Q 614.58 457.96 650.00 452.70
  Q 692.52 446.38 740.64 432.94
  Q 743.68 432.09 744.27 429.25
  Q 747.60 413.31 749.52 396.74
  Q 754.30 355.35 745.67 311.72
  Q 745.20 309.38 743.01 308.72
  Q 725.05 303.25 708.70 299.58
  Q 646.30 285.58 583.00 280.01
  A 0.35 0.35 0.0 0 0 582.61 280.37
  Q 586.22 370.24 582.65 460.31
  A 0.59 0.58 -1.7 0 0 583.29 460.91"
/>
<path stroke="#808080" vector-effect="non-scaling-stroke" d="
  M 1504.08 405.76
  Q 1497.29 405.80 1488.26 405.73
  Q 1469.65 405.60 1467.57 387.53
  Q 1466.95 382.17 1466.72 355.02
  C 1466.69 351.47 1467.04 346.95 1467.69 344.00
  C 1470.21 332.43 1480.46 329.04 1491.02 329.18
  Q 1508.10 329.40 1525.67 332.81
  A 0.53 0.53 0.0 0 0 1526.30 332.37
  L 1529.36 312.61
  A 0.51 0.51 0.0 0 0 1528.95 312.04
  Q 1518.18 310.18 1505.76 308.73
  Q 1492.72 307.21 1482.50 307.76
  Q 1473.78 308.23 1468.07 309.90
  C 1441.33 317.73 1441.11 343.92 1441.48 367.05
  C 1441.72 382.63 1441.58 394.17 1446.24 405.51
  C 1454.29 425.12 1475.71 428.94 1495.02 427.70
  Q 1513.39 426.52 1528.47 423.39
  A 0.58 0.58 0.0 0 0 1528.93 422.82
  L 1529.28 361.95
  A 0.74 0.74 0.0 0 0 1528.54 361.21
  L 1492.90 361.00
  A 0.58 0.58 0.0 0 0 1492.32 361.58
  L 1492.20 383.70
  A 0.90 0.89 -89.7 0 0 1493.09 384.61
  L 1504.31 384.67
  A 0.33 0.33 0.0 0 1 1504.63 385.00
  L 1504.52 405.32
  A 0.45 0.45 0.0 0 1 1504.08 405.76"
/>
<path stroke="#808080" vector-effect="non-scaling-stroke" d="
  M 2060.88 367.04
  Q 2060.79 380.11 2061.64 389.74
  C 2063.33 408.77 2073.00 422.63 2092.75 425.99
  Q 2109.56 428.84 2124.78 425.65
  Q 2144.75 421.46 2151.91 403.06
  C 2156.15 392.16 2156.03 380.43 2156.12 367.68
  C 2156.20 354.94 2156.48 343.21 2152.39 332.26
  Q 2145.48 313.76 2125.57 309.30
  Q 2110.40 305.90 2093.55 308.52
  C 2073.76 311.61 2063.90 325.34 2061.95 344.35
  Q 2060.97 353.96 2060.88 367.04"
/>
<path stroke="#808080" vector-effect="non-scaling-stroke" d="
  M 1933.72 332.26
  L 1937.50 313.63
  A 1.17 1.16 12.1 0 0 1936.61 312.26
  Q 1926.20 309.94 1914.72 308.64
  C 1893.03 306.18 1863.52 306.30 1859.06 334.24
  C 1857.13 346.33 1859.06 360.55 1869.11 367.92
  C 1878.24 374.62 1890.97 377.21 1901.85 379.46
  C 1908.66 380.88 1916.71 385.45 1915.86 393.57
  C 1914.95 402.23 1906.68 404.97 1899.11 405.39
  C 1886.98 406.07 1873.53 404.15 1861.51 401.78
  A 0.55 0.54 -80.9 0 0 1860.86 402.26
  L 1858.39 422.51
  A 0.63 0.63 0.0 0 0 1858.86 423.20
  Q 1863.12 424.31 1868.27 424.45
  C 1869.80 424.49 1871.77 425.49 1873.10 425.05
  A 0.80 0.76 -36.1 0 1 1873.78 425.14
  Q 1873.95 425.26 1875.49 425.46
  Q 1893.06 427.74 1909.11 425.90
  C 1933.26 423.14 1944.60 403.75 1938.88 380.70
  C 1933.53 359.16 1911.28 357.27 1894.01 351.48
  C 1887.13 349.18 1882.09 345.13 1883.63 337.23
  C 1885.49 327.71 1899.23 327.67 1907.01 328.52
  Q 1910.70 328.93 1911.00 328.78
  A 0.88 0.87 51.8 0 1 1911.95 328.90
  Q 1912.13 329.06 1912.87 329.15
  Q 1926.21 330.86 1933.11 332.64
  A 0.50 0.50 0.0 0 0 1933.72 332.26"
/>
<path stroke="#808080" vector-effect="non-scaling-stroke" d="
  M 1245.56 334.68
  L 1246.86 313.60
  A 0.61 0.61 0.0 0 0 1246.39 312.97
  C 1242.43 312.00 1238.08 311.87 1234.33 310.69
  C 1232.12 309.99 1230.61 310.39 1228.46 309.67
  Q 1226.89 309.14 1225.35 309.39
  A 3.02 2.94 48.0 0 1 1224.12 309.31
  Q 1221.95 308.71 1219.51 308.55
  C 1202.93 307.50 1180.50 306.56 1172.26 324.59
  C 1168.82 332.13 1168.66 343.62 1170.84 351.84
  C 1174.17 364.40 1182.70 370.57 1194.64 374.08
  Q 1213.84 379.74 1214.33 379.91
  C 1220.11 382.01 1225.31 385.58 1225.36 392.24
  C 1225.42 401.72 1218.39 404.60 1210.27 405.53
  C 1198.32 406.90 1184.69 404.40 1173.17 401.15
  A 0.43 0.42 -78.5 0 0 1172.63 401.51
  L 1170.09 422.34
  A 0.58 0.58 0.0 0 0 1170.54 422.97
  Q 1180.54 425.14 1189.63 426.34
  Q 1206.29 428.54 1221.62 425.63
  C 1234.92 423.11 1246.24 413.72 1249.61 400.37
  C 1253.49 385.02 1249.40 369.56 1234.71 361.99
  C 1225.40 357.19 1218.36 355.58 1205.48 351.53
  C 1199.46 349.64 1193.20 345.76 1193.25 338.86
  C 1193.31 330.58 1203.46 328.97 1209.81 329.13
  Q 1228.36 329.57 1245.16 334.95
  A 0.30 0.30 0.0 0 0 1245.56 334.68"
/>
<path stroke="#808080" vector-effect="non-scaling-stroke" d="
  M 1296.1824 309.6245
  A 0.26 0.26 0.0 0 0 1295.9233 309.3636
  L 1271.1635 309.2771
  A 0.26 0.26 0.0 0 0 1270.9026 309.5362
  L 1270.4976 425.5555
  A 0.26 0.26 0.0 0 0 1270.7567 425.8164
  L 1295.5165 425.9029
  A 0.26 0.26 0.0 0 0 1295.7774 425.6438
  L 1296.1824 309.6245"
/>
<path stroke="#808080" vector-effect="non-scaling-stroke" d="
  M 1392.81 404.28
  Q 1392.68 404.13 1392.63 403.96
  C 1383.55 373.13 1373.89 341.51 1364.96 309.85
  A 0.71 0.71 0.0 0 0 1364.28 309.34
  L 1324.69 309.34
  A 0.54 0.54 0.0 0 0 1324.15 309.88
  L 1323.50 425.53
  A 0.37 0.36 0.8 0 0 1323.87 425.90
  L 1348.53 425.90
  A 0.55 0.54 -1.0 0 0 1349.08 425.34
  Q 1348.70 405.94 1348.52 375.75
  Q 1348.30 337.64 1348.27 337.00
  Q 1348.24 336.15 1349.20 336.46
  A 0.77 0.74 89.7 0 1 1349.66 336.93
  C 1354.98 353.50 1359.25 367.57 1363.75 381.17
  Q 1371.63 404.99 1377.30 425.37
  A 0.75 0.74 -7.6 0 0 1378.02 425.91
  L 1417.55 425.91
  A 0.12 0.12 0.0 0 0 1417.67 425.79
  L 1417.26 309.54
  A 0.14 0.14 0.0 0 0 1417.12 309.40
  L 1393.63 309.40
  A 0.45 0.45 0.0 0 0 1393.18 309.85
  L 1393.18 404.15
  A 0.21 0.21 0.0 0 1 1392.81 404.28"
/>
<path stroke="#808080" vector-effect="non-scaling-stroke" d="
  M 897.57 401.53
  A 0.19 0.19 0.0 0 1 897.20 401.58
  Q 892.80 384.83 887.92 369.05
  Q 877.90 336.66 869.28 309.82
  A 0.42 0.41 -8.0 0 0 868.90 309.54
  L 829.92 309.32
  A 0.58 0.58 0.0 0 0 829.34 309.90
  L 828.68 425.33
  A 0.46 0.46 0.0 0 0 829.14 425.79
  L 854.07 425.79
  A 0.16 0.15 90.0 0 0 854.22 425.63
  L 853.81 335.80
  A 0.37 0.36 -12.9 0 1 854.02 335.47
  Q 854.86 335.05 855.39 336.68
  C 859.42 349.06 863.94 365.42 869.06 380.76
  Q 877.68 406.63 882.73 425.30
  A 0.75 0.75 0.0 0 0 883.45 425.85
  L 922.13 425.85
  A 0.45 0.45 0.0 0 0 922.58 425.40
  L 923.24 309.76
  A 0.34 0.33 90.0 0 0 922.91 309.42
  L 898.46 309.42
  A 0.37 0.36 0.0 0 0 898.09 309.78
  L 897.57 401.53"
/>
<path stroke="#808080" vector-effect="non-scaling-stroke" d="
  M 949.88 309.87
  Q 949.55 338.15 949.39 383.07
  C 949.33 399.38 952.51 415.32 968.14 423.05
  C 979.13 428.47 996.80 428.73 1008.91 426.16
  Q 1034.69 420.69 1038.07 394.26
  Q 1038.78 388.67 1038.82 380.75
  Q 1038.93 351.70 1038.89 310.00
  A 0.42 0.41 -90.0 0 0 1038.48 309.58
  L 1014.58 309.44
  A 0.37 0.37 0.0 0 0 1014.21 309.81
  Q 1014.79 350.24 1014.58 381.75
  C 1014.53 388.50 1014.02 395.33 1009.49 400.39
  C 1005.20 405.21 996.94 405.84 990.94 405.26
  Q 975.11 403.72 974.66 387.35
  Q 974.32 374.97 974.86 362.25
  Q 975.58 345.15 975.61 337.22
  Q 975.70 313.34 975.76 309.90
  A 0.51 0.51 0.0 0 0 975.26 309.38
  L 950.52 309.24
  A 0.64 0.64 0.0 0 0 949.88 309.87"
/>
<path stroke="#808080" vector-effect="non-scaling-stroke" d="
  M 1732.6712 309.7626
  A 0.26 0.26 0.0 0 0 1732.4116 309.5022
  L 1707.1117 309.4580
  A 0.26 0.26 0.0 0 0 1706.8512 309.7176
  L 1706.6488 425.6774
  A 0.26 0.26 0.0 0 0 1706.9084 425.9378
  L 1732.2083 425.9820
  A 0.26 0.26 0.0 0 0 1732.4688 425.7224
  L 1732.6712 309.7626"
/>
<path stroke="#808080" vector-effect="non-scaling-stroke" d="
  M 1595.01 310.11
  L 1594.36 425.39
  A 0.62 0.61 -0.0 0 0 1594.99 426.01
  L 1641.14 425.12
  A 1.98 1.96 -59.9 0 0 1642.06 424.87
  C 1644.18 423.71 1645.34 425.31 1647.33 424.53
  Q 1649.42 423.71 1652.98 423.34
  A 3.63 3.55 30.6 0 0 1654.00 423.09
  Q 1661.78 420.06 1665.04 418.03
  C 1678.00 409.98 1682.75 395.10 1683.42 380.23
  Q 1684.17 363.64 1682.97 349.03
  C 1680.90 324.03 1666.52 309.51 1640.74 309.60
  Q 1606.34 309.73 1595.51 309.62
  A 0.49 0.49 0.0 0 0 1595.01 310.11"
/>
<path stroke="#808080" vector-effect="non-scaling-stroke" d="
  M 1780.24 404.60
  L 1818.12 404.60
  A 0.58 0.58 0.0 0 1 1818.69 405.07
  L 1822.64 424.84
  A 1.27 1.27 0.0 0 0 1823.89 425.87
  L 1849.51 425.87
  A 0.38 0.37 82.8 0 0 1849.87 425.40
  C 1839.79 388.31 1831.32 351.52 1821.81 310.05
  A 0.75 0.74 -6.3 0 0 1821.08 309.47
  L 1776.95 309.47
  A 0.70 0.70 0.0 0 0 1776.26 310.04
  Q 1769.70 341.65 1760.93 378.25
  Q 1750.29 422.69 1749.51 425.46
  A 0.40 0.40 0.0 0 0 1749.90 425.97
  L 1774.78 425.97
  A 0.72 0.71 -84.0 0 0 1775.48 425.40
  L 1779.60 405.13
  A 0.67 0.65 -84.0 0 1 1780.24 404.60"
/>
<path stroke="#808080" vector-effect="non-scaling-stroke" d="
  M 2205.24 386.91
  L 2225.67 386.91
  A 0.89 0.89 0.0 0 1 2226.52 387.53
  L 2238.71 425.15
  A 1.14 1.12 -8.8 0 0 2239.79 425.93
  L 2265.95 425.93
  A 0.33 0.33 0.0 0 0 2266.26 425.47
  L 2248.29 382.73
  A 1.53 1.53 0.0 0 1 2249.12 380.72
  C 2269.17 372.53 2270.13 336.34 2258.24 322.42
  Q 2252.00 315.11 2243.51 312.60
  Q 2233.56 309.67 2220.74 309.76
  Q 2220.17 309.76 2180.47 309.73
  A 0.53 0.53 0.0 0 0 2179.94 310.26
  L 2179.94 425.31
  A 0.59 0.59 0.0 0 0 2180.53 425.90
  L 2204.28 425.90
  A 0.42 0.42 0.0 0 0 2204.70 425.48
  L 2204.70 387.45
  A 0.54 0.54 0.0 0 1 2205.24 386.91"
/>
<path stroke="#808080" vector-effect="non-scaling-stroke" d="
  M 1089.99 425.24
  L 1089.99 387.32
  A 0.45 0.44 0.0 0 1 1090.44 386.88
  L 1110.43 386.99
  A 0.74 0.73 78.6 0 1 1111.11 387.45
  Q 1118.59 405.83 1123.64 421.54
  Q 1123.93 422.44 1124.82 425.08
  A 0.73 0.72 80.3 0 0 1125.50 425.57
  L 1152.63 425.57
  A 0.36 0.35 78.0 0 0 1152.95 425.07
  Q 1137.04 389.97 1136.12 387.88
  Q 1134.74 384.78 1133.92 381.77
  A 0.61 0.61 0.0 0 1 1134.26 381.05
  C 1151.31 373.49 1153.67 354.19 1150.62 337.39
  C 1148.31 324.65 1140.65 315.40 1128.42 312.10
  Q 1120.47 309.96 1113.75 309.92
  Q 1097.45 309.82 1066.77 309.87
  A 0.08 0.08 0.0 0 0 1066.69 309.95
  L 1066.04 425.16
  A 0.54 0.54 0.0 0 0 1066.58 425.71
  L 1089.52 425.71
  A 0.47 0.47 0.0 0 0 1089.99 425.24"
/>
<path stroke="#808080" vector-effect="non-scaling-stroke" d="
  M 1986.58 391.08
  C 1997.45 391.86 2008.76 392.27 2019.69 389.73
  C 2043.37 384.21 2046.62 363.33 2045.08 342.56
  C 2043.85 326.01 2035.80 314.39 2019.20 311.15
  Q 2013.14 309.96 2010.02 309.92
  Q 1989.30 309.63 1962.02 309.93
  A 0.31 0.30 -1.0 0 0 1961.72 310.23
  Q 1961.57 345.58 1961.13 392.88
  C 1961.02 404.51 1960.58 413.31 1960.27 425.36
  A 0.55 0.54 -89.5 0 0 1960.81 425.92
  L 1985.62 425.92
  A 0.48 0.48 0.0 0 0 1986.10 425.44
  L 1986.10 391.53
  A 0.45 0.45 0.0 0 1 1986.58 391.08"
/>
<path stroke="#808080" vector-effect="non-scaling-stroke" d="
  M 2302.16 425.37
  L 2306.35 404.76
  A 0.83 0.82 -84.5 0 1 2307.16 404.09
  L 2344.78 404.09
  A 0.55 0.54 84.1 0 1 2345.31 404.53
  L 2349.77 425.44
  A 0.56 0.56 0.0 0 0 2350.32 425.89
  L 2375.62 425.89
  A 0.56 0.56 0.0 0 0 2376.17 425.20
  L 2348.74 310.01
  A 0.45 0.43 -6.6 0 0 2348.31 309.68
  L 2304.79 309.68
  A 0.49 0.49 0.0 0 0 2304.31 310.06
  Q 2291.25 368.66 2276.27 425.35
  A 0.48 0.48 0.0 0 0 2276.73 425.95
  L 2301.45 425.95
  A 0.73 0.72 -84.1 0 0 2302.16 425.37"
/>
<path stroke="#838dd6" vector-effect="non-scaling-stroke" d="
  M 333.91 655.20
  Q 333.84 653.89 333.17 650.94
  C 322.01 601.88 314.81 547.31 309.90 495.77
  A 1.31 1.31 0.0 0 0 308.68 494.58
  Q 302.12 494.20 301.31 494.13
  Q 229.86 487.34 160.91 470.90
  C 158.92 470.42 157.26 469.63 155.39 469.75
  A 1.03 1.03 0.0 0 0 154.48 471.14
  Q 166.04 502.29 184.15 530.54
  Q 203.12 560.14 224.87 583.03
  Q 270.30 630.82 332.82 655.98
  A 0.80 0.79 9.3 0 0 333.91 655.20"
/>
<path stroke="#838dd6" vector-effect="non-scaling-stroke" d="
  M 556.50 654.45
  Q 604.26 634.45 643.55 601.40
  C 660.87 586.83 677.16 569.20 690.20 551.71
  C 708.02 527.82 721.81 500.69 733.01 472.76
  Q 733.48 471.58 733.54 470.54
  A 0.72 0.72 0.0 0 0 732.61 469.82
  Q 721.64 473.23 711.00 475.73
  C 668.94 485.59 625.12 491.16 582.06 494.48
  A 0.83 0.83 0.0 0 0 581.31 495.21
  Q 580.84 499.14 577.31 529.13
  Q 573.53 561.30 566.40 603.49
  Q 563.20 622.39 559.27 640.26
  Q 557.59 647.86 555.81 653.83
  A 0.52 0.51 -2.9 0 0 556.50 654.45"
/>
<path stroke="#969696" vector-effect="non-scaling-stroke" d="
  M 1278.31 522.89
  C 1278.38 530.05 1278.01 537.95 1279.81 544.97
  C 1283.94 561.17 1301.48 565.08 1315.84 563.33
  C 1330.87 561.50 1341.21 552.95 1342.00 536.77
  Q 1342.17 533.26 1342.07 522.27
  Q 1341.96 511.28 1341.72 507.78
  C 1340.62 491.61 1330.11 483.27 1315.05 481.73
  C 1300.66 480.25 1283.20 484.50 1279.38 500.78
  C 1277.72 507.83 1278.24 515.72 1278.31 522.89"
/>
<path stroke="#969696" vector-effect="non-scaling-stroke" d="
  M 876.46 553.87
  Q 860.99 518.96 842.53 483.13
  A 1.98 1.97 -13.5 0 0 840.77 482.06
  L 826.96 482.06
  A 0.43 0.42 -90.0 0 0 826.54 482.49
  L 826.54 562.55
  A 0.28 0.28 0.0 0 0 826.82 562.83
  L 835.94 562.83
  A 0.27 0.27 0.0 0 0 836.21 562.56
  Q 836.02 533.09 835.87 502.21
  Q 835.84 495.94 835.34 489.58
  A 0.23 0.22 30.2 0 1 835.77 489.47
  L 870.10 561.88
  A 0.92 0.91 77.0 0 0 870.92 562.40
  L 885.91 562.40
  A 0.57 0.57 0.0 0 0 886.48 561.83
  L 886.48 482.29
  A 0.35 0.35 0.0 0 0 886.13 481.94
  L 876.72 481.94
  A 0.14 0.13 -90.0 0 0 876.59 482.08
  L 876.59 553.84
  A 0.07 0.07 0.0 0 1 876.46 553.87"
/>
<path stroke="#969696" vector-effect="non-scaling-stroke" d="
  M 1205.04 554.42
  L 1188.54 482.64
  A 0.64 0.63 -5.8 0 0 1187.93 482.15
  L 1177.80 482.10
  A 0.57 0.57 0.0 0 0 1177.23 482.55
  L 1161.19 554.47
  A 0.42 0.42 0.0 0 1 1160.37 554.47
  L 1143.87 482.67
  A 0.95 0.95 0.0 0 0 1142.94 481.93
  L 1133.90 481.88
  A 0.33 0.32 83.8 0 0 1133.58 482.29
  L 1152.48 561.67
  A 0.98 0.98 0.0 0 0 1153.43 562.42
  L 1167.47 562.50
  A 0.93 0.92 7.2 0 0 1168.37 561.81
  Q 1176.78 528.80 1182.33 496.80
  A 0.09 0.09 0.0 0 1 1182.50 496.79
  L 1197.50 562.04
  A 0.69 0.68 -5.9 0 0 1198.16 562.57
  L 1212.71 562.65
  A 0.76 0.75 6.2 0 0 1213.45 562.06
  L 1232.11 482.14
  A 0.21 0.21 0.0 0 0 1231.90 481.88
  L 1222.29 481.83
  A 0.13 0.12 5.2 0 0 1222.16 481.93
  L 1205.99 554.42
  A 0.49 0.49 0.0 0 1 1205.04 554.42"
/>
<path stroke="#969696" vector-effect="non-scaling-stroke" d="
  M 1560.06 562.25
  C 1559.66 561.51 1559.31 560.54 1558.89 559.96
  Q 1539.30 532.64 1532.26 522.66
  A 1.06 1.06 0.0 0 1 1532.26 521.44
  L 1559.65 482.90
  A 0.28 0.28 0.0 0 0 1559.42 482.46
  L 1548.82 482.46
  A 1.58 1.57 17.5 0 0 1547.53 483.13
  C 1539.73 494.31 1531.30 507.69 1522.52 518.69
  A 2.62 2.61 18.6 0 1 1520.54 519.67
  L 1514.08 519.79
  A 0.52 0.52 0.0 0 1 1513.55 519.27
  L 1513.55 482.26
  A 0.34 0.34 0.0 0 0 1513.21 481.92
  L 1504.17 481.92
  A 0.35 0.35 0.0 0 0 1503.82 482.27
  L 1503.82 561.94
  A 0.91 0.91 0.0 0 0 1504.73 562.85
  L 1512.85 562.85
  A 0.76 0.76 0.0 0 0 1513.61 562.09
  L 1513.61 528.03
  A 0.26 0.26 0.0 0 1 1513.87 527.77
  L 1522.94 527.82
  A 1.83 1.79 63.7 0 1 1524.07 528.22
  Q 1525.40 529.28 1526.15 530.37
  Q 1534.34 542.14 1547.54 561.57
  A 2.12 2.08 72.5 0 0 1549.27 562.49
  L 1559.88 562.55
  A 0.20 0.20 0.0 0 0 1560.06 562.25"
/>
<path stroke="#969696" vector-effect="non-scaling-stroke" d="
  M 1058.91 490.84
  A 0.51 0.51 0.0 0 1 1059.42 491.35
  L 1059.42 562.34
  A 0.51 0.51 0.0 0 0 1059.93 562.85
  L 1069.07 562.85
  A 0.51 0.51 0.0 0 0 1069.58 562.34
  L 1069.58 491.33
  A 0.51 0.51 0.0 0 1 1070.09 490.82
  L 1092.94 490.82
  A 0.51 0.51 0.0 0 0 1093.45 490.31
  L 1093.45 482.69
  A 0.51 0.51 0.0 0 0 1092.94 482.18
  L 1032.44 482.18
  A 0.51 0.51 0.0 0 0 1031.93 482.69
  L 1031.93 490.33
  A 0.51 0.51 0.0 0 0 1032.44 490.84
  L 1058.91 490.84"
/>
<path stroke="#969696" vector-effect="non-scaling-stroke" d="
  M 952.57 553.24
  A 0.51 0.51 0.0 0 1 952.06 552.73
  L 952.06 526.42
  A 0.51 0.51 0.0 0 1 952.57 525.91
  L 983.79 525.91
  A 0.51 0.51 0.0 0 0 984.30 525.40
  L 984.30 517.58
  A 0.51 0.51 0.0 0 0 983.79 517.07
  L 952.60 517.07
  A 0.51 0.51 0.0 0 1 952.09 516.56
  L 952.09 491.34
  A 0.51 0.51 0.0 0 1 952.60 490.83
  L 989.36 490.83
  A 0.51 0.51 0.0 0 0 989.87 490.32
  L 989.87 482.80
  A 0.51 0.51 0.0 0 0 989.36 482.29
  L 942.83 482.29
  A 0.51 0.51 0.0 0 0 942.32 482.80
  L 942.32 561.79
  A 0.51 0.51 0.0 0 0 942.83 562.30
  L 990.90 562.30
  A 0.51 0.51 0.0 0 0 991.41 561.79
  L 991.41 553.75
  A 0.51 0.51 0.0 0 0 990.90 553.24
  L 952.57 553.24"
/>
<path stroke="#969696" vector-effect="non-scaling-stroke" d="
  M 1394.64 562.65
  L 1403.91 562.65
  A 0.42 0.42 0.0 0 0 1404.33 562.23
  L 1404.33 531.63
  A 0.32 0.31 90.0 0 1 1404.64 531.31
  L 1424.04 531.31
  A 2.14 2.14 0.0 0 1 1425.96 532.50
  L 1440.59 561.72
  A 1.42 1.42 0.0 0 0 1441.87 562.52
  L 1451.54 562.52
  A 0.84 0.84 0.0 0 0 1452.28 561.27
  L 1435.29 530.38
  A 0.33 0.33 0.0 0 1 1435.46 529.92
  Q 1452.35 523.34 1451.45 504.85
  Q 1450.83 492.03 1440.42 485.82
  C 1435.42 482.84 1427.93 482.43 1422.00 482.42
  Q 1416.40 482.42 1394.96 482.44
  A 0.76 0.76 0.0 0 0 1394.20 483.20
  L 1394.20 562.22
  A 0.44 0.43 -0.0 0 0 1394.64 562.65"
/>
<path stroke="#838dd6" vector-effect="non-scaling-stroke" d="
  M 539.83 495.70
  Q 536.51 496.02 534.12 496.08
  Q 512.74 496.66 463.61 497.20
  C 428.37 497.59 382.78 496.45 354.24 495.75
  A 0.56 0.56 0.0 0 0 353.66 496.35
  Q 359.24 578.41 373.18 661.17
  Q 373.67 664.06 374.14 666.72
  A 1.81 1.80 0.5 0 0 375.59 668.19
  C 393.79 671.44 407.01 673.80 424.26 675.53
  Q 455.17 678.62 487.06 672.61
  Q 499.38 670.29 517.80 666.62
  A 2.14 2.13 -0.6 0 0 519.47 664.92
  Q 534.71 581.42 540.18 496.03
  A 0.32 0.31 -1.6 0 0 539.83 495.70"
/>
<path stroke="#808080" vector-effect="non-scaling-stroke" d="
  M 1645.9968 206.1992
  A 14.43 14.43 0.0 0 0 1631.5920 191.7441
  L 1626.9920 191.7360
  A 14.43 14.43 0.0 0 0 1612.5368 206.1408
  L 1612.4832 236.8608
  A 14.43 14.43 0.0 0 0 1626.8880 251.3159
  L 1631.4880 251.3240
  A 14.43 14.43 0.0 0 0 1645.9432 236.9192
  L 1645.9968 206.1992"
/>
<path stroke="#808080" vector-effect="non-scaling-stroke" d="
  M 1256.23 193.82
  L 1256.33 223.28
  A 0.60 0.60 0.0 0 0 1256.93 223.88
  L 1271.06 223.83
  A 12.88 12.75 89.8 0 0 1283.77 210.90
  L 1283.75 206.00
  A 12.88 12.75 89.8 0 0 1270.96 193.17
  L 1256.83 193.22
  A 0.60 0.60 0.0 0 0 1256.23 193.82"
/>
<path stroke="#808080" vector-effect="non-scaling-stroke" d="
  M 2130.4357 347.5017
  A 18.23 18.23 0.0 0 0 2112.1739 329.3036
  L 2104.7339 329.3166
  A 18.23 18.23 0.0 0 0 2086.5357 347.5783
  L 2086.6043 386.8783
  A 18.23 18.23 0.0 0 0 2104.8661 405.0764
  L 2112.3061 405.0634
  A 18.23 18.23 0.0 0 0 2130.5043 386.8017
  L 2130.4357 347.5017"
/>
<path stroke="#808080" vector-effect="non-scaling-stroke" d="
  M 1619.86 331.47
  L 1619.60 403.63
  A 0.30 0.30 0.0 0 0 1619.90 403.93
  L 1636.90 403.99
  A 20.76 20.76 0.0 0 0 1657.74 383.31
  L 1657.84 352.07
  A 20.76 20.76 0.0 0 0 1637.16 331.23
  L 1620.16 331.17
  A 0.30 0.30 0.0 0 0 1619.86 331.47"
/>
<path stroke="#808080" vector-effect="non-scaling-stroke" d="
  M 1813.70 384.00
  A 0.36 0.36 0.0 0 0 1814.05 383.57
  L 1802.80 330.77
  A 0.36 0.36 0.0 0 0 1802.45 330.48
  L 1796.28 330.48
  A 0.36 0.36 0.0 0 0 1795.93 330.77
  L 1785.20 383.57
  A 0.36 0.36 0.0 0 0 1785.55 384.00
  L 1813.70 384.00"
/>
<path stroke="#808080" vector-effect="non-scaling-stroke" d="
  M 2204.70 331.89
  L 2204.52 365.31
  A 0.91 0.91 0.0 0 0 2205.43 366.23
  L 2225.31 366.33
  A 15.83 15.81 -89.7 0 0 2241.20 350.59
  L 2241.22 347.01
  A 15.83 15.81 -89.7 0 0 2225.49 331.09
  L 2205.61 330.99
  A 0.91 0.91 0.0 0 0 2204.70 331.89"
/>
<path stroke="#808080" vector-effect="non-scaling-stroke" d="
  M 1089.90 331.54
  L 1089.90 365.66
  A 0.82 0.82 0.0 0 0 1090.72 366.48
  L 1109.86 366.48
  A 16.70 15.99 0.0 0 0 1126.56 350.49
  L 1126.56 346.71
  A 16.70 15.99 0.0 0 0 1109.86 330.72
  L 1090.72 330.72
  A 0.82 0.82 0.0 0 0 1089.90 331.54"
/>
<path stroke="#808080" vector-effect="non-scaling-stroke" d="
  M 1986.18 331.70
  L 1986.24 370.12
  A 1.10 1.10 0.0 0 0 1987.35 371.22
  L 2003.57 371.19
  A 16.66 16.64 89.9 0 0 2020.18 354.50
  L 2020.16 347.20
  A 16.66 16.64 89.9 0 0 2003.49 330.57
  L 1987.27 330.60
  A 1.10 1.10 0.0 0 0 1986.18 331.70"
/>
<path stroke="#808080" vector-effect="non-scaling-stroke" d="
  M 2340.10 383.40
  A 0.43 0.43 0.0 0 0 2340.53 382.88
  L 2330.10 330.58
  A 0.43 0.43 0.0 0 0 2329.68 330.24
  L 2323.41 330.20
  A 0.43 0.43 0.0 0 0 2322.99 330.55
  L 2312.38 382.73
  A 0.43 0.43 0.0 0 0 2312.80 383.24
  L 2340.10 383.40"
/>
<path stroke="#feedb5" vector-effect="non-scaling-stroke" d="
  M 443.63 394.94
  A 0.63 0.63 0.0 0 0 442.81 394.89
  Q 439.90 397.17 437.96 400.17
  A 9.19 8.35 -9.8 0 1 437.03 401.36
  Q 430.88 407.86 426.86 416.32
  C 419.84 431.13 421.30 447.89 433.41 458.96
  Q 437.99 463.14 442.20 465.22
  C 444.58 466.39 446.19 466.21 448.47 464.99
  C 465.06 456.10 468.64 438.28 460.99 421.99
  C 457.09 413.67 451.38 405.33 446.48 398.27
  Q 445.32 396.61 443.63 394.94"
/>
<path stroke="#969696" vector-effect="non-scaling-stroke" d="
  M 1331.2929 509.1061
  A 18.18 18.18 0.0 0 0 1313.0495 490.9897
  L 1307.0295 491.0107
  A 18.18 18.18 0.0 0 0 1288.9131 509.2540
  L 1289.0071 536.1939
  A 18.18 18.18 0.0 0 0 1307.2505 554.3103
  L 1313.2705 554.2893
  A 18.18 18.18 0.0 0 0 1331.3869 536.0460
  L 1331.2929 509.1061"
/>
<path stroke="#969696" vector-effect="non-scaling-stroke" d="
  M 1404.35 492.18
  L 1404.35 521.56
  A 0.84 0.84 0.0 0 0 1405.19 522.40
  L 1425.63 522.40
  A 15.16 14.23 -0.0 0 0 1440.79 508.17
  L 1440.79 505.57
  A 15.16 14.23 0.0 0 0 1425.63 491.34
  L 1405.19 491.34
  A 0.84 0.84 0.0 0 0 1404.35 492.18"
/>
</g>
<path fill="#ffffff" d="
  M 2496.00 0.00
  L 2496.00 736.00
  L 0.00 736.00
  L 0.00 0.00
  L 2496.00 0.00
  Z
  M 446.76 242.70
  Q 466.90 242.72 494.50 243.35
  Q 516.07 243.84 540.86 245.16
  A 0.50 0.49 88.9 0 0 541.37 244.62
  C 536.38 187.12 529.72 130.14 519.58 73.99
  A 2.39 2.38 -89.5 0 0 517.71 72.08
  Q 496.90 67.84 475.23 65.10
  C 465.95 63.93 458.92 64.10 446.98 64.08
  C 435.04 64.07 428.01 63.89 418.72 65.03
  Q 397.05 67.71 376.23 71.90
  A 2.39 2.38 89.6 0 0 374.36 73.81
  C 364.08 129.93 357.27 186.90 352.14 244.38
  A 0.50 0.49 -88.8 0 0 352.65 244.92
  Q 377.44 243.67 399.01 243.23
  Q 426.62 242.67 446.76 242.70
  Z
  M 309.99 246.69
  Q 315.43 194.31 318.69 172.23
  Q 325.39 126.93 334.79 84.78
  A 1.04 1.03 11.3 0 0 333.96 83.54
  C 332.88 83.34 331.48 84.16 330.35 84.63
  C 302.69 96.26 277.43 110.46 253.89 129.40
  Q 198.06 174.32 167.02 237.72
  C 161.72 248.54 158.54 256.94 153.22 269.48
  Q 152.77 270.52 152.91 271.21
  A 1.15 1.15 0.0 0 0 154.27 272.11
  C 156.71 271.63 159.09 270.43 161.70 269.87
  Q 193.22 263.10 206.28 260.86
  Q 223.59 257.88 251.33 253.65
  Q 269.06 250.94 309.44 247.24
  A 0.61 0.61 0.0 0 0 309.99 246.69
  Z
  M 734.77 270.61
  Q 734.79 270.42 734.65 270.06
  Q 728.33 254.05 721.14 238.59
  Q 697.23 187.16 656.13 148.65
  Q 612.14 107.44 556.74 84.27
  Q 555.81 83.88 555.34 84.02
  A 1.14 1.13 75.0 0 0 554.55 85.39
  Q 562.38 116.83 567.68 150.26
  Q 575.37 198.66 579.59 246.75
  A 0.64 0.64 0.0 0 0 580.19 247.33
  Q 626.39 250.52 671.00 257.74
  Q 701.96 262.76 733.63 271.41
  A 0.91 0.90 -79.9 0 0 734.77 270.61
  Z
  M 1665.27 205.92
  A 29.34 29.34 0.0 0 0 1635.93 176.58
  L 1623.29 176.58
  A 29.34 29.34 0.0 0 0 1593.95 205.92
  L 1593.95 237.42
  A 29.34 29.34 0.0 0 0 1623.29 266.76
  L 1635.93 266.76
  A 29.34 29.34 0.0 0 0 1665.27 237.42
  L 1665.27 205.92
  Z
  M 965.3424 177.4133
  A 0.27 0.27 0.0 0 0 965.0719 177.1437
  L 946.3519 177.1764
  A 0.27 0.27 0.0 0 0 946.0824 177.4469
  L 946.2376 266.3867
  A 0.27 0.27 0.0 0 0 946.5081 266.6563
  L 965.2281 266.6236
  A 0.27 0.27 0.0 0 0 965.4976 266.3531
  L 965.3424 177.4133
  Z
  M 1366.35 177.37
  A 0.33 0.33 0.0 0 0 1366.03 177.70
  L 1365.52 266.56
  A 0.33 0.33 0.0 0 0 1365.86 266.89
  L 1384.08 266.54
  A 0.33 0.33 0.0 0 0 1384.40 266.21
  L 1384.91 177.35
  A 0.33 0.33 0.0 0 0 1384.57 177.02
  L 1366.35 177.37
  Z
  M 1167.70 266.79
  A 0.34 0.34 0.0 0 0 1168.04 266.45
  L 1168.54 177.80
  A 0.34 0.34 0.0 0 0 1168.20 177.46
  L 1148.64 177.35
  A 0.34 0.34 0.0 0 0 1148.30 177.69
  L 1148.30 266.34
  A 0.34 0.34 0.0 0 0 1148.64 266.68
  L 1167.70 266.79
  Z
  M 1507.42 248.99
  Q 1507.35 248.96 1507.29 248.74
  C 1500.41 225.04 1492.51 201.85 1485.82 177.91
  A 0.64 0.64 0.0 0 0 1485.20 177.44
  L 1456.30 177.44
  A 0.61 0.61 0.0 0 0 1455.69 178.04
  L 1455.20 265.50
  A 0.48 0.48 0.0 0 0 1455.67 265.98
  L 1473.81 266.08
  A 0.38 0.38 0.0 0 0 1474.19 265.69
  Q 1473.75 220.53 1473.64 212.75
  Q 1473.52 204.06 1472.77 194.48
  A 0.45 0.44 -63.0 0 1 1473.59 194.21
  Q 1474.77 196.15 1475.57 198.65
  Q 1492.74 252.80 1495.76 262.55
  Q 1496.18 263.91 1496.87 265.78
  A 0.60 0.59 -9.7 0 0 1497.43 266.17
  L 1524.73 266.17
  A 0.73 0.73 0.0 0 0 1525.46 265.44
  L 1525.46 177.67
  A 0.31 0.31 0.0 0 0 1525.15 177.36
  L 1507.57 177.36
  A 0.59 0.59 0.0 0 0 1506.98 177.95
  C 1506.92 203.75 1506.34 225.55 1507.70 248.79
  A 0.20 0.20 0.0 0 1 1507.42 248.99
  Z
  M 1035.80 178.20
  Q 1036.38 221.69 1035.54 265.36
  A 0.39 0.38 90.0 0 0 1035.92 265.75
  L 1085.39 266.03
  A 0.74 0.74 0.0 0 0 1086.13 265.30
  L 1086.22 249.20
  A 0.24 0.24 0.0 0 0 1085.98 248.96
  L 1054.97 248.78
  A 0.51 0.50 90.0 0 1 1054.47 248.27
  L 1054.87 178.22
  A 0.53 0.53 0.0 0 0 1054.34 177.69
  L 1036.42 177.58
  A 0.62 0.62 0.0 0 0 1035.80 178.20
  Z
  M 1237.89 178.44
  L 1237.39 266.16
  A 0.16 0.16 0.0 0 0 1237.55 266.32
  L 1254.17 266.42
  A 0.59 0.59 0.0 0 0 1254.76 265.83
  L 1254.91 239.79
  A 0.55 0.55 0.0 0 1 1255.45 239.24
  Q 1271.41 239.15 1274.49 238.88
  Q 1280.02 238.38 1282.45 237.71
  Q 1298.91 233.18 1301.32 216.06
  Q 1302.00 211.25 1301.55 202.05
  C 1301.07 192.14 1296.45 182.74 1286.74 179.98
  Q 1277.47 177.35 1266.25 177.49
  Q 1247.80 177.70 1238.44 177.88
  A 0.56 0.56 0.0 0 0 1237.89 178.44
  Z
  M 826.65 177.81
  A 0.35 0.35 0.0 0 0 826.30 178.16
  L 826.30 266.48
  A 0.35 0.35 0.0 0 0 826.65 266.83
  L 845.12 266.83
  A 0.35 0.35 0.0 0 0 845.47 266.48
  L 845.47 234.23
  A 0.35 0.35 0.0 0 1 845.82 233.88
  L 876.55 233.88
  A 0.35 0.35 0.0 0 0 876.90 233.53
  L 876.90 217.52
  A 0.35 0.35 0.0 0 0 876.55 217.17
  L 845.66 217.17
  A 0.35 0.35 0.0 0 1 845.31 216.82
  L 845.31 194.47
  A 0.35 0.35 0.0 0 1 845.66 194.12
  L 883.11 194.12
  A 0.35 0.35 0.0 0 0 883.46 193.77
  L 883.46 178.16
  A 0.35 0.35 0.0 0 0 883.11 177.81
  L 826.65 177.81
  Z
  M 441.03 469.91
  L 453.69 469.35
  C 482.87 466.35 505.15 445.82 511.31 417.39
  Q 517.34 389.52 507.05 363.08
  A 0.49 0.49 0.0 0 0 506.18 363.00
  Q 500.13 372.97 489.77 378.93
  A 0.26 0.26 0.0 0 1 489.38 378.68
  Q 490.67 365.47 489.54 353.04
  Q 488.47 341.11 484.12 328.07
  Q 475.77 303.06 459.38 282.31
  C 457.19 279.54 453.93 276.39 451.55 273.65
  Q 447.00 268.42 441.40 264.66
  A 0.49 0.49 0.0 0 0 440.64 265.12
  Q 445.16 303.95 418.04 330.52
  A 1.18 1.18 0.0 0 1 416.41 330.54
  Q 408.30 322.98 399.48 317.60
  A 0.85 0.84 19.3 0 0 398.20 318.21
  Q 397.64 322.74 395.54 328.09
  Q 393.19 334.06 384.75 352.52
  C 381.32 360.04 377.92 368.90 376.16 375.95
  C 372.64 390.08 372.07 406.51 376.68 420.27
  Q 380.18 430.71 385.78 439.21
  Q 402.88 465.17 433.69 469.64
  Q 435.15 469.85 437.35 469.83
  Q 439.18 469.81 441.03 469.91
  Z
  M 305.98 279.91
  A 0.49 0.49 0.0 0 0 305.40 279.41
  Q 297.77 280.71 295.73 280.96
  Q 277.48 283.20 245.95 287.77
  C 223.54 291.01 197.34 296.24 179.78 300.05
  Q 165.60 303.13 145.21 309.08
  C 143.08 309.71 142.33 310.57 141.91 312.67
  Q 135.67 344.02 137.00 374.98
  Q 137.92 396.36 143.38 429.31
  C 143.63 430.85 144.71 432.56 146.22 433.00
  Q 159.26 436.75 183.52 442.55
  C 190.72 444.27 195.57 444.97 204.60 446.87
  Q 212.21 448.47 220.46 449.86
  Q 263.91 457.23 306.85 461.59
  A 0.64 0.63 0.8 0 0 307.55 460.91
  C 305.73 435.10 305.10 409.94 304.78 378.25
  Q 304.33 332.60 305.98 279.91
  Z
  M 583.29 460.91
  Q 614.58 457.96 650.00 452.70
  Q 692.52 446.38 740.64 432.94
  Q 743.68 432.09 744.27 429.25
  Q 747.60 413.31 749.52 396.74
  Q 754.30 355.35 745.67 311.72
  Q 745.20 309.38 743.01 308.72
  Q 725.05 303.25 708.70 299.58
  Q 646.30 285.58 583.00 280.01
  A 0.35 0.35 0.0 0 0 582.61 280.37
  Q 586.22 370.24 582.65 460.31
  A 0.59 0.58 -1.7 0 0 583.29 460.91
  Z
  M 1504.08 405.76
  Q 1497.29 405.80 1488.26 405.73
  Q 1469.65 405.60 1467.57 387.53
  Q 1466.95 382.17 1466.72 355.02
  C 1466.69 351.47 1467.04 346.95 1467.69 344.00
  C 1470.21 332.43 1480.46 329.04 1491.02 329.18
  Q 1508.10 329.40 1525.67 332.81
  A 0.53 0.53 0.0 0 0 1526.30 332.37
  L 1529.36 312.61
  A 0.51 0.51 0.0 0 0 1528.95 312.04
  Q 1518.18 310.18 1505.76 308.73
  Q 1492.72 307.21 1482.50 307.76
  Q 1473.78 308.23 1468.07 309.90
  C 1441.33 317.73 1441.11 343.92 1441.48 367.05
  C 1441.72 382.63 1441.58 394.17 1446.24 405.51
  C 1454.29 425.12 1475.71 428.94 1495.02 427.70
  Q 1513.39 426.52 1528.47 423.39
  A 0.58 0.58 0.0 0 0 1528.93 422.82
  L 1529.28 361.95
  A 0.74 0.74 0.0 0 0 1528.54 361.21
  L 1492.90 361.00
  A 0.58 0.58 0.0 0 0 1492.32 361.58
  L 1492.20 383.70
  A 0.90 0.89 -89.7 0 0 1493.09 384.61
  L 1504.31 384.67
  A 0.33 0.33 0.0 0 1 1504.63 385.00
  L 1504.52 405.32
  A 0.45 0.45 0.0 0 1 1504.08 405.76
  Z
  M 2060.88 367.04
  Q 2060.79 380.11 2061.64 389.74
  C 2063.33 408.77 2073.00 422.63 2092.75 425.99
  Q 2109.56 428.84 2124.78 425.65
  Q 2144.75 421.46 2151.91 403.06
  C 2156.15 392.16 2156.03 380.43 2156.12 367.68
  C 2156.20 354.94 2156.48 343.21 2152.39 332.26
  Q 2145.48 313.76 2125.57 309.30
  Q 2110.40 305.90 2093.55 308.52
  C 2073.76 311.61 2063.90 325.34 2061.95 344.35
  Q 2060.97 353.96 2060.88 367.04
  Z
  M 1933.72 332.26
  L 1937.50 313.63
  A 1.17 1.16 12.1 0 0 1936.61 312.26
  Q 1926.20 309.94 1914.72 308.64
  C 1893.03 306.18 1863.52 306.30 1859.06 334.24
  C 1857.13 346.33 1859.06 360.55 1869.11 367.92
  C 1878.24 374.62 1890.97 377.21 1901.85 379.46
  C 1908.66 380.88 1916.71 385.45 1915.86 393.57
  C 1914.95 402.23 1906.68 404.97 1899.11 405.39
  C 1886.98 406.07 1873.53 404.15 1861.51 401.78
  A 0.55 0.54 -80.9 0 0 1860.86 402.26
  L 1858.39 422.51
  A 0.63 0.63 0.0 0 0 1858.86 423.20
  Q 1863.12 424.31 1868.27 424.45
  C 1869.80 424.49 1871.77 425.49 1873.10 425.05
  A 0.80 0.76 -36.1 0 1 1873.78 425.14
  Q 1873.95 425.26 1875.49 425.46
  Q 1893.06 427.74 1909.11 425.90
  C 1933.26 423.14 1944.60 403.75 1938.88 380.70
  C 1933.53 359.16 1911.28 357.27 1894.01 351.48
  C 1887.13 349.18 1882.09 345.13 1883.63 337.23
  C 1885.49 327.71 1899.23 327.67 1907.01 328.52
  Q 1910.70 328.93 1911.00 328.78
  A 0.88 0.87 51.8 0 1 1911.95 328.90
  Q 1912.13 329.06 1912.87 329.15
  Q 1926.21 330.86 1933.11 332.64
  A 0.50 0.50 0.0 0 0 1933.72 332.26
  Z
  M 1245.56 334.68
  L 1246.86 313.60
  A 0.61 0.61 0.0 0 0 1246.39 312.97
  C 1242.43 312.00 1238.08 311.87 1234.33 310.69
  C 1232.12 309.99 1230.61 310.39 1228.46 309.67
  Q 1226.89 309.14 1225.35 309.39
  A 3.02 2.94 48.0 0 1 1224.12 309.31
  Q 1221.95 308.71 1219.51 308.55
  C 1202.93 307.50 1180.50 306.56 1172.26 324.59
  C 1168.82 332.13 1168.66 343.62 1170.84 351.84
  C 1174.17 364.40 1182.70 370.57 1194.64 374.08
  Q 1213.84 379.74 1214.33 379.91
  C 1220.11 382.01 1225.31 385.58 1225.36 392.24
  C 1225.42 401.72 1218.39 404.60 1210.27 405.53
  C 1198.32 406.90 1184.69 404.40 1173.17 401.15
  A 0.43 0.42 -78.5 0 0 1172.63 401.51
  L 1170.09 422.34
  A 0.58 0.58 0.0 0 0 1170.54 422.97
  Q 1180.54 425.14 1189.63 426.34
  Q 1206.29 428.54 1221.62 425.63
  C 1234.92 423.11 1246.24 413.72 1249.61 400.37
  C 1253.49 385.02 1249.40 369.56 1234.71 361.99
  C 1225.40 357.19 1218.36 355.58 1205.48 351.53
  C 1199.46 349.64 1193.20 345.76 1193.25 338.86
  C 1193.31 330.58 1203.46 328.97 1209.81 329.13
  Q 1228.36 329.57 1245.16 334.95
  A 0.30 0.30 0.0 0 0 1245.56 334.68
  Z
  M 1296.1824 309.6245
  A 0.26 0.26 0.0 0 0 1295.9233 309.3636
  L 1271.1635 309.2771
  A 0.26 0.26 0.0 0 0 1270.9026 309.5362
  L 1270.4976 425.5555
  A 0.26 0.26 0.0 0 0 1270.7567 425.8164
  L 1295.5165 425.9029
  A 0.26 0.26 0.0 0 0 1295.7774 425.6438
  L 1296.1824 309.6245
  Z
  M 1392.81 404.28
  Q 1392.68 404.13 1392.63 403.96
  C 1383.55 373.13 1373.89 341.51 1364.96 309.85
  A 0.71 0.71 0.0 0 0 1364.28 309.34
  L 1324.69 309.34
  A 0.54 0.54 0.0 0 0 1324.15 309.88
  L 1323.50 425.53
  A 0.37 0.36 0.8 0 0 1323.87 425.90
  L 1348.53 425.90
  A 0.55 0.54 -1.0 0 0 1349.08 425.34
  Q 1348.70 405.94 1348.52 375.75
  Q 1348.30 337.64 1348.27 337.00
  Q 1348.24 336.15 1349.20 336.46
  A 0.77 0.74 89.7 0 1 1349.66 336.93
  C 1354.98 353.50 1359.25 367.57 1363.75 381.17
  Q 1371.63 404.99 1377.30 425.37
  A 0.75 0.74 -7.6 0 0 1378.02 425.91
  L 1417.55 425.91
  A 0.12 0.12 0.0 0 0 1417.67 425.79
  L 1417.26 309.54
  A 0.14 0.14 0.0 0 0 1417.12 309.40
  L 1393.63 309.40
  A 0.45 0.45 0.0 0 0 1393.18 309.85
  L 1393.18 404.15
  A 0.21 0.21 0.0 0 1 1392.81 404.28
  Z
  M 897.57 401.53
  A 0.19 0.19 0.0 0 1 897.20 401.58
  Q 892.80 384.83 887.92 369.05
  Q 877.90 336.66 869.28 309.82
  A 0.42 0.41 -8.0 0 0 868.90 309.54
  L 829.92 309.32
  A 0.58 0.58 0.0 0 0 829.34 309.90
  L 828.68 425.33
  A 0.46 0.46 0.0 0 0 829.14 425.79
  L 854.07 425.79
  A 0.16 0.15 90.0 0 0 854.22 425.63
  L 853.81 335.80
  A 0.37 0.36 -12.9 0 1 854.02 335.47
  Q 854.86 335.05 855.39 336.68
  C 859.42 349.06 863.94 365.42 869.06 380.76
  Q 877.68 406.63 882.73 425.30
  A 0.75 0.75 0.0 0 0 883.45 425.85
  L 922.13 425.85
  A 0.45 0.45 0.0 0 0 922.58 425.40
  L 923.24 309.76
  A 0.34 0.33 90.0 0 0 922.91 309.42
  L 898.46 309.42
  A 0.37 0.36 0.0 0 0 898.09 309.78
  L 897.57 401.53
  Z
  M 949.88 309.87
  Q 949.55 338.15 949.39 383.07
  C 949.33 399.38 952.51 415.32 968.14 423.05
  C 979.13 428.47 996.80 428.73 1008.91 426.16
  Q 1034.69 420.69 1038.07 394.26
  Q 1038.78 388.67 1038.82 380.75
  Q 1038.93 351.70 1038.89 310.00
  A 0.42 0.41 -90.0 0 0 1038.48 309.58
  L 1014.58 309.44
  A 0.37 0.37 0.0 0 0 1014.21 309.81
  Q 1014.79 350.24 1014.58 381.75
  C 1014.53 388.50 1014.02 395.33 1009.49 400.39
  C 1005.20 405.21 996.94 405.84 990.94 405.26
  Q 975.11 403.72 974.66 387.35
  Q 974.32 374.97 974.86 362.25
  Q 975.58 345.15 975.61 337.22
  Q 975.70 313.34 975.76 309.90
  A 0.51 0.51 0.0 0 0 975.26 309.38
  L 950.52 309.24
  A 0.64 0.64 0.0 0 0 949.88 309.87
  Z
  M 1732.6712 309.7626
  A 0.26 0.26 0.0 0 0 1732.4116 309.5022
  L 1707.1117 309.4580
  A 0.26 0.26 0.0 0 0 1706.8512 309.7176
  L 1706.6488 425.6774
  A 0.26 0.26 0.0 0 0 1706.9084 425.9378
  L 1732.2083 425.9820
  A 0.26 0.26 0.0 0 0 1732.4688 425.7224
  L 1732.6712 309.7626
  Z
  M 1595.01 310.11
  L 1594.36 425.39
  A 0.62 0.61 -0.0 0 0 1594.99 426.01
  L 1641.14 425.12
  A 1.98 1.96 -59.9 0 0 1642.06 424.87
  C 1644.18 423.71 1645.34 425.31 1647.33 424.53
  Q 1649.42 423.71 1652.98 423.34
  A 3.63 3.55 30.6 0 0 1654.00 423.09
  Q 1661.78 420.06 1665.04 418.03
  C 1678.00 409.98 1682.75 395.10 1683.42 380.23
  Q 1684.17 363.64 1682.97 349.03
  C 1680.90 324.03 1666.52 309.51 1640.74 309.60
  Q 1606.34 309.73 1595.51 309.62
  A 0.49 0.49 0.0 0 0 1595.01 310.11
  Z
  M 1780.24 404.60
  L 1818.12 404.60
  A 0.58 0.58 0.0 0 1 1818.69 405.07
  L 1822.64 424.84
  A 1.27 1.27 0.0 0 0 1823.89 425.87
  L 1849.51 425.87
  A 0.38 0.37 82.8 0 0 1849.87 425.40
  C 1839.79 388.31 1831.32 351.52 1821.81 310.05
  A 0.75 0.74 -6.3 0 0 1821.08 309.47
  L 1776.95 309.47
  A 0.70 0.70 0.0 0 0 1776.26 310.04
  Q 1769.70 341.65 1760.93 378.25
  Q 1750.29 422.69 1749.51 425.46
  A 0.40 0.40 0.0 0 0 1749.90 425.97
  L 1774.78 425.97
  A 0.72 0.71 -84.0 0 0 1775.48 425.40
  L 1779.60 405.13
  A 0.67 0.65 -84.0 0 1 1780.24 404.60
  Z
  M 2205.24 386.91
  L 2225.67 386.91
  A 0.89 0.89 0.0 0 1 2226.52 387.53
  L 2238.71 425.15
  A 1.14 1.12 -8.8 0 0 2239.79 425.93
  L 2265.95 425.93
  A 0.33 0.33 0.0 0 0 2266.26 425.47
  L 2248.29 382.73
  A 1.53 1.53 0.0 0 1 2249.12 380.72
  C 2269.17 372.53 2270.13 336.34 2258.24 322.42
  Q 2252.00 315.11 2243.51 312.60
  Q 2233.56 309.67 2220.74 309.76
  Q 2220.17 309.76 2180.47 309.73
  A 0.53 0.53 0.0 0 0 2179.94 310.26
  L 2179.94 425.31
  A 0.59 0.59 0.0 0 0 2180.53 425.90
  L 2204.28 425.90
  A 0.42 0.42 0.0 0 0 2204.70 425.48
  L 2204.70 387.45
  A 0.54 0.54 0.0 0 1 2205.24 386.91
  Z
  M 1089.99 425.24
  L 1089.99 387.32
  A 0.45 0.44 0.0 0 1 1090.44 386.88
  L 1110.43 386.99
  A 0.74 0.73 78.6 0 1 1111.11 387.45
  Q 1118.59 405.83 1123.64 421.54
  Q 1123.93 422.44 1124.82 425.08
  A 0.73 0.72 80.3 0 0 1125.50 425.57
  L 1152.63 425.57
  A 0.36 0.35 78.0 0 0 1152.95 425.07
  Q 1137.04 389.97 1136.12 387.88
  Q 1134.74 384.78 1133.92 381.77
  A 0.61 0.61 0.0 0 1 1134.26 381.05
  C 1151.31 373.49 1153.67 354.19 1150.62 337.39
  C 1148.31 324.65 1140.65 315.40 1128.42 312.10
  Q 1120.47 309.96 1113.75 309.92
  Q 1097.45 309.82 1066.77 309.87
  A 0.08 0.08 0.0 0 0 1066.69 309.95
  L 1066.04 425.16
  A 0.54 0.54 0.0 0 0 1066.58 425.71
  L 1089.52 425.71
  A 0.47 0.47 0.0 0 0 1089.99 425.24
  Z
  M 1986.58 391.08
  C 1997.45 391.86 2008.76 392.27 2019.69 389.73
  C 2043.37 384.21 2046.62 363.33 2045.08 342.56
  C 2043.85 326.01 2035.80 314.39 2019.20 311.15
  Q 2013.14 309.96 2010.02 309.92
  Q 1989.30 309.63 1962.02 309.93
  A 0.31 0.30 -1.0 0 0 1961.72 310.23
  Q 1961.57 345.58 1961.13 392.88
  C 1961.02 404.51 1960.58 413.31 1960.27 425.36
  A 0.55 0.54 -89.5 0 0 1960.81 425.92
  L 1985.62 425.92
  A 0.48 0.48 0.0 0 0 1986.10 425.44
  L 1986.10 391.53
  A 0.45 0.45 0.0 0 1 1986.58 391.08
  Z
  M 2302.16 425.37
  L 2306.35 404.76
  A 0.83 0.82 -84.5 0 1 2307.16 404.09
  L 2344.78 404.09
  A 0.55 0.54 84.1 0 1 2345.31 404.53
  L 2349.77 425.44
  A 0.56 0.56 0.0 0 0 2350.32 425.89
  L 2375.62 425.89
  A 0.56 0.56 0.0 0 0 2376.17 425.20
  L 2348.74 310.01
  A 0.45 0.43 -6.6 0 0 2348.31 309.68
  L 2304.79 309.68
  A 0.49 0.49 0.0 0 0 2304.31 310.06
  Q 2291.25 368.66 2276.27 425.35
  A 0.48 0.48 0.0 0 0 2276.73 425.95
  L 2301.45 425.95
  A 0.73 0.72 -84.1 0 0 2302.16 425.37
  Z
  M 333.91 655.20
  Q 333.84 653.89 333.17 650.94
  C 322.01 601.88 314.81 547.31 309.90 495.77
  A 1.31 1.31 0.0 0 0 308.68 494.58
  Q 302.12 494.20 301.31 494.13
  Q 229.86 487.34 160.91 470.90
  C 158.92 470.42 157.26 469.63 155.39 469.75
  A 1.03 1.03 0.0 0 0 154.48 471.14
  Q 166.04 502.29 184.15 530.54
  Q 203.12 560.14 224.87 583.03
  Q 270.30 630.82 332.82 655.98
  A 0.80 0.79 9.3 0 0 333.91 655.20
  Z
  M 556.50 654.45
  Q 604.26 634.45 643.55 601.40
  C 660.87 586.83 677.16 569.20 690.20 551.71
  C 708.02 527.82 721.81 500.69 733.01 472.76
  Q 733.48 471.58 733.54 470.54
  A 0.72 0.72 0.0 0 0 732.61 469.82
  Q 721.64 473.23 711.00 475.73
  C 668.94 485.59 625.12 491.16 582.06 494.48
  A 0.83 0.83 0.0 0 0 581.31 495.21
  Q 580.84 499.14 577.31 529.13
  Q 573.53 561.30 566.40 603.49
  Q 563.20 622.39 559.27 640.26
  Q 557.59 647.86 555.81 653.83
  A 0.52 0.51 -2.9 0 0 556.50 654.45
  Z
  M 1278.31 522.89
  C 1278.38 530.05 1278.01 537.95 1279.81 544.97
  C 1283.94 561.17 1301.48 565.08 1315.84 563.33
  C 1330.87 561.50 1341.21 552.95 1342.00 536.77
  Q 1342.17 533.26 1342.07 522.27
  Q 1341.96 511.28 1341.72 507.78
  C 1340.62 491.61 1330.11 483.27 1315.05 481.73
  C 1300.66 480.25 1283.20 484.50 1279.38 500.78
  C 1277.72 507.83 1278.24 515.72 1278.31 522.89
  Z
  M 876.46 553.87
  Q 860.99 518.96 842.53 483.13
  A 1.98 1.97 -13.5 0 0 840.77 482.06
  L 826.96 482.06
  A 0.43 0.42 -90.0 0 0 826.54 482.49
  L 826.54 562.55
  A 0.28 0.28 0.0 0 0 826.82 562.83
  L 835.94 562.83
  A 0.27 0.27 0.0 0 0 836.21 562.56
  Q 836.02 533.09 835.87 502.21
  Q 835.84 495.94 835.34 489.58
  A 0.23 0.22 30.2 0 1 835.77 489.47
  L 870.10 561.88
  A 0.92 0.91 77.0 0 0 870.92 562.40
  L 885.91 562.40
  A 0.57 0.57 0.0 0 0 886.48 561.83
  L 886.48 482.29
  A 0.35 0.35 0.0 0 0 886.13 481.94
  L 876.72 481.94
  A 0.14 0.13 -90.0 0 0 876.59 482.08
  L 876.59 553.84
  A 0.07 0.07 0.0 0 1 876.46 553.87
  Z
  M 1205.04 554.42
  L 1188.54 482.64
  A 0.64 0.63 -5.8 0 0 1187.93 482.15
  L 1177.80 482.10
  A 0.57 0.57 0.0 0 0 1177.23 482.55
  L 1161.19 554.47
  A 0.42 0.42 0.0 0 1 1160.37 554.47
  L 1143.87 482.67
  A 0.95 0.95 0.0 0 0 1142.94 481.93
  L 1133.90 481.88
  A 0.33 0.32 83.8 0 0 1133.58 482.29
  L 1152.48 561.67
  A 0.98 0.98 0.0 0 0 1153.43 562.42
  L 1167.47 562.50
  A 0.93 0.92 7.2 0 0 1168.37 561.81
  Q 1176.78 528.80 1182.33 496.80
  A 0.09 0.09 0.0 0 1 1182.50 496.79
  L 1197.50 562.04
  A 0.69 0.68 -5.9 0 0 1198.16 562.57
  L 1212.71 562.65
  A 0.76 0.75 6.2 0 0 1213.45 562.06
  L 1232.11 482.14
  A 0.21 0.21 0.0 0 0 1231.90 481.88
  L 1222.29 481.83
  A 0.13 0.12 5.2 0 0 1222.16 481.93
  L 1205.99 554.42
  A 0.49 0.49 0.0 0 1 1205.04 554.42
  Z
  M 1560.06 562.25
  C 1559.66 561.51 1559.31 560.54 1558.89 559.96
  Q 1539.30 532.64 1532.26 522.66
  A 1.06 1.06 0.0 0 1 1532.26 521.44
  L 1559.65 482.90
  A 0.28 0.28 0.0 0 0 1559.42 482.46
  L 1548.82 482.46
  A 1.58 1.57 17.5 0 0 1547.53 483.13
  C 1539.73 494.31 1531.30 507.69 1522.52 518.69
  A 2.62 2.61 18.6 0 1 1520.54 519.67
  L 1514.08 519.79
  A 0.52 0.52 0.0 0 1 1513.55 519.27
  L 1513.55 482.26
  A 0.34 0.34 0.0 0 0 1513.21 481.92
  L 1504.17 481.92
  A 0.35 0.35 0.0 0 0 1503.82 482.27
  L 1503.82 561.94
  A 0.91 0.91 0.0 0 0 1504.73 562.85
  L 1512.85 562.85
  A 0.76 0.76 0.0 0 0 1513.61 562.09
  L 1513.61 528.03
  A 0.26 0.26 0.0 0 1 1513.87 527.77
  L 1522.94 527.82
  A 1.83 1.79 63.7 0 1 1524.07 528.22
  Q 1525.40 529.28 1526.15 530.37
  Q 1534.34 542.14 1547.54 561.57
  A 2.12 2.08 72.5 0 0 1549.27 562.49
  L 1559.88 562.55
  A 0.20 0.20 0.0 0 0 1560.06 562.25
  Z
  M 1058.91 490.84
  A 0.51 0.51 0.0 0 1 1059.42 491.35
  L 1059.42 562.34
  A 0.51 0.51 0.0 0 0 1059.93 562.85
  L 1069.07 562.85
  A 0.51 0.51 0.0 0 0 1069.58 562.34
  L 1069.58 491.33
  A 0.51 0.51 0.0 0 1 1070.09 490.82
  L 1092.94 490.82
  A 0.51 0.51 0.0 0 0 1093.45 490.31
  L 1093.45 482.69
  A 0.51 0.51 0.0 0 0 1092.94 482.18
  L 1032.44 482.18
  A 0.51 0.51 0.0 0 0 1031.93 482.69
  L 1031.93 490.33
  A 0.51 0.51 0.0 0 0 1032.44 490.84
  L 1058.91 490.84
  Z
  M 952.57 553.24
  A 0.51 0.51 0.0 0 1 952.06 552.73
  L 952.06 526.42
  A 0.51 0.51 0.0 0 1 952.57 525.91
  L 983.79 525.91
  A 0.51 0.51 0.0 0 0 984.30 525.40
  L 984.30 517.58
  A 0.51 0.51 0.0 0 0 983.79 517.07
  L 952.60 517.07
  A 0.51 0.51 0.0 0 1 952.09 516.56
  L 952.09 491.34
  A 0.51 0.51 0.0 0 1 952.60 490.83
  L 989.36 490.83
  A 0.51 0.51 0.0 0 0 989.87 490.32
  L 989.87 482.80
  A 0.51 0.51 0.0 0 0 989.36 482.29
  L 942.83 482.29
  A 0.51 0.51 0.0 0 0 942.32 482.80
  L 942.32 561.79
  A 0.51 0.51 0.0 0 0 942.83 562.30
  L 990.90 562.30
  A 0.51 0.51 0.0 0 0 991.41 561.79
  L 991.41 553.75
  A 0.51 0.51 0.0 0 0 990.90 553.24
  L 952.57 553.24
  Z
  M 1394.64 562.65
  L 1403.91 562.65
  A 0.42 0.42 0.0 0 0 1404.33 562.23
  L 1404.33 531.63
  A 0.32 0.31 90.0 0 1 1404.64 531.31
  L 1424.04 531.31
  A 2.14 2.14 0.0 0 1 1425.96 532.50
  L 1440.59 561.72
  A 1.42 1.42 0.0 0 0 1441.87 562.52
  L 1451.54 562.52
  A 0.84 0.84 0.0 0 0 1452.28 561.27
  L 1435.29 530.38
  A 0.33 0.33 0.0 0 1 1435.46 529.92
  Q 1452.35 523.34 1451.45 504.85
  Q 1450.83 492.03 1440.42 485.82
  C 1435.42 482.84 1427.93 482.43 1422.00 482.42
  Q 1416.40 482.42 1394.96 482.44
  A 0.76 0.76 0.0 0 0 1394.20 483.20
  L 1394.20 562.22
  A 0.44 0.43 -0.0 0 0 1394.64 562.65
  Z
  M 539.83 495.70
  Q 536.51 496.02 534.12 496.08
  Q 512.74 496.66 463.61 497.20
  C 428.37 497.59 382.78 496.45 354.24 495.75
  A 0.56 0.56 0.0 0 0 353.66 496.35
  Q 359.24 578.41 373.18 661.17
  Q 373.67 664.06 374.14 666.72
  A 1.81 1.80 0.5 0 0 375.59 668.19
  C 393.79 671.44 407.01 673.80 424.26 675.53
  Q 455.17 678.62 487.06 672.61
  Q 499.38 670.29 517.80 666.62
  A 2.14 2.13 -0.6 0 0 519.47 664.92
  Q 534.71 581.42 540.18 496.03
  A 0.32 0.31 -1.6 0 0 539.83 495.70
  Z"
/>
<path fill="#061bac" d="
  M 446.98 64.08
  C 458.92 64.10 465.95 63.93 475.23 65.10
  Q 496.90 67.84 517.71 72.08
  A 2.39 2.38 -89.5 0 1 519.58 73.99
  C 529.72 130.14 536.38 187.12 541.37 244.62
  A 0.50 0.49 88.9 0 1 540.86 245.16
  Q 516.07 243.84 494.50 243.35
  Q 466.90 242.72 446.76 242.70
  Q 426.62 242.67 399.01 243.23
  Q 377.44 243.67 352.65 244.92
  A 0.50 0.49 -88.8 0 1 352.14 244.38
  C 357.27 186.90 364.08 129.93 374.36 73.81
  A 2.39 2.38 89.6 0 1 376.23 71.90
  Q 397.05 67.71 418.72 65.03
  C 428.01 63.89 435.04 64.07 446.98 64.08
  Z"
/>
<path fill="#061bac" d="
  M 309.44 247.24
  Q 269.06 250.94 251.33 253.65
  Q 223.59 257.88 206.28 260.86
  Q 193.22 263.10 161.70 269.87
  C 159.09 270.43 156.71 271.63 154.27 272.11
  A 1.15 1.15 0.0 0 1 152.91 271.21
  Q 152.77 270.52 153.22 269.48
  C 158.54 256.94 161.72 248.54 167.02 237.72
  Q 198.06 174.32 253.89 129.40
  C 277.43 110.46 302.69 96.26 330.35 84.63
  C 331.48 84.16 332.88 83.34 333.96 83.54
  A 1.04 1.03 11.3 0 1 334.79 84.78
  Q 325.39 126.93 318.69 172.23
  Q 315.43 194.31 309.99 246.69
  A 0.61 0.61 0.0 0 1 309.44 247.24
  Z"
/>
<path fill="#061bac" d="
  M 734.77 270.61
  A 0.91 0.90 -79.9 0 1 733.63 271.41
  Q 701.96 262.76 671.00 257.74
  Q 626.39 250.52 580.19 247.33
  A 0.64 0.64 0.0 0 1 579.59 246.75
  Q 575.37 198.66 567.68 150.26
  Q 562.38 116.83 554.55 85.39
  A 1.14 1.13 75.0 0 1 555.34 84.02
  Q 555.81 83.88 556.74 84.27
  Q 612.14 107.44 656.13 148.65
  Q 697.23 187.16 721.14 238.59
  Q 728.33 254.05 734.65 270.06
  Q 734.79 270.42 734.77 270.61
  Z"
/>
<path fill="#010101" d="
  M 1665.27 237.42
  A 29.34 29.34 0.0 0 1 1635.93 266.76
  L 1623.29 266.76
  A 29.34 29.34 0.0 0 1 1593.95 237.42
  L 1593.95 205.92
  A 29.34 29.34 0.0 0 1 1623.29 176.58
  L 1635.93 176.58
  A 29.34 29.34 0.0 0 1 1665.27 205.92
  L 1665.27 237.42
  Z
  M 1645.9968 206.1992
  A 14.43 14.43 0.0 0 0 1631.5920 191.7441
  L 1626.9920 191.7360
  A 14.43 14.43 0.0 0 0 1612.5368 206.1408
  L 1612.4832 236.8608
  A 14.43 14.43 0.0 0 0 1626.8880 251.3159
  L 1631.4880 251.3240
  A 14.43 14.43 0.0 0 0 1645.9432 236.9192
  L 1645.9968 206.1992
  Z"
/>
<rect fill="#010101" x="-9.63" y="-44.74" transform="translate(955.79,221.90) rotate(-0.1)" width="19.26" height="89.48" rx="0.27"/>
<path fill="#010101" d="
  M 1366.35 177.37
  L 1384.57 177.02
  A 0.33 0.33 0.0 0 1 1384.91 177.35
  L 1384.40 266.21
  A 0.33 0.33 0.0 0 1 1384.08 266.54
  L 1365.86 266.89
  A 0.33 0.33 0.0 0 1 1365.52 266.56
  L 1366.03 177.70
  A 0.33 0.33 0.0 0 1 1366.35 177.37
  Z"
/>
<path fill="#010101" d="
  M 1167.70 266.79
  L 1148.64 266.68
  A 0.34 0.34 0.0 0 1 1148.30 266.34
  L 1148.30 177.69
  A 0.34 0.34 0.0 0 1 1148.64 177.35
  L 1168.20 177.46
  A 0.34 0.34 0.0 0 1 1168.54 177.80
  L 1168.04 266.45
  A 0.34 0.34 0.0 0 1 1167.70 266.79
  Z"
/>
<path fill="#010101" d="
  M 1507.42 248.99
  A 0.20 0.20 0.0 0 0 1507.70 248.79
  C 1506.34 225.55 1506.92 203.75 1506.98 177.95
  A 0.59 0.59 0.0 0 1 1507.57 177.36
  L 1525.15 177.36
  A 0.31 0.31 0.0 0 1 1525.46 177.67
  L 1525.46 265.44
  A 0.73 0.73 0.0 0 1 1524.73 266.17
  L 1497.43 266.17
  A 0.60 0.59 -9.7 0 1 1496.87 265.78
  Q 1496.18 263.91 1495.76 262.55
  Q 1492.74 252.80 1475.57 198.65
  Q 1474.77 196.15 1473.59 194.21
  A 0.45 0.44 -63.0 0 0 1472.77 194.48
  Q 1473.52 204.06 1473.64 212.75
  Q 1473.75 220.53 1474.19 265.69
  A 0.38 0.38 0.0 0 1 1473.81 266.08
  L 1455.67 265.98
  A 0.48 0.48 0.0 0 1 1455.20 265.50
  L 1455.69 178.04
  A 0.61 0.61 0.0 0 1 1456.30 177.44
  L 1485.20 177.44
  A 0.64 0.64 0.0 0 1 1485.82 177.91
  C 1492.51 201.85 1500.41 225.04 1507.29 248.74
  Q 1507.35 248.96 1507.42 248.99
  Z"
/>
<path fill="#010101" d="
  M 1036.42 177.58
  L 1054.34 177.69
  A 0.53 0.53 0.0 0 1 1054.87 178.22
  L 1054.47 248.27
  A 0.51 0.50 90.0 0 0 1054.97 248.78
  L 1085.98 248.96
  A 0.24 0.24 0.0 0 1 1086.22 249.20
  L 1086.13 265.30
  A 0.74 0.74 0.0 0 1 1085.39 266.03
  L 1035.92 265.75
  A 0.39 0.38 -90.0 0 1 1035.54 265.36
  Q 1036.38 221.69 1035.80 178.20
  A 0.62 0.62 0.0 0 1 1036.42 177.58
  Z"
/>
<path fill="#010101" d="
  M 1238.44 177.88
  Q 1247.80 177.70 1266.25 177.49
  Q 1277.47 177.35 1286.74 179.98
  C 1296.45 182.74 1301.07 192.14 1301.55 202.05
  Q 1302.00 211.25 1301.32 216.06
  Q 1298.91 233.18 1282.45 237.71
  Q 1280.02 238.38 1274.49 238.88
  Q 1271.41 239.15 1255.45 239.24
  A 0.55 0.55 0.0 0 0 1254.91 239.79
  L 1254.76 265.83
  A 0.59 0.59 0.0 0 1 1254.17 266.42
  L 1237.55 266.32
  A 0.16 0.16 0.0 0 1 1237.39 266.16
  L 1237.89 178.44
  A 0.56 0.56 0.0 0 1 1238.44 177.88
  Z
  M 1256.23 193.82
  L 1256.33 223.28
  A 0.60 0.60 0.0 0 0 1256.93 223.88
  L 1271.06 223.83
  A 12.88 12.75 89.8 0 0 1283.77 210.90
  L 1283.75 206.00
  A 12.88 12.75 89.8 0 0 1270.96 193.17
  L 1256.83 193.22
  A 0.60 0.60 0.0 0 0 1256.23 193.82
  Z"
/>
<path fill="#010101" d="
  M 826.65 177.81
  L 883.11 177.81
  A 0.35 0.35 0.0 0 1 883.46 178.16
  L 883.46 193.77
  A 0.35 0.35 0.0 0 1 883.11 194.12
  L 845.66 194.12
  A 0.35 0.35 0.0 0 0 845.31 194.47
  L 845.31 216.82
  A 0.35 0.35 0.0 0 0 845.66 217.17
  L 876.55 217.17
  A 0.35 0.35 0.0 0 1 876.90 217.52
  L 876.90 233.53
  A 0.35 0.35 0.0 0 1 876.55 233.88
  L 845.82 233.88
  A 0.35 0.35 0.0 0 0 845.47 234.23
  L 845.47 266.48
  A 0.35 0.35 0.0 0 1 845.12 266.83
  L 826.65 266.83
  A 0.35 0.35 0.0 0 1 826.30 266.48
  L 826.30 178.16
  A 0.35 0.35 0.0 0 1 826.65 177.81
  Z"
/>
<rect fill="#ffffff" x="-16.73" y="-29.79" transform="translate(1629.24,221.53) rotate(0.1)" width="33.46" height="59.58" rx="14.43"/>
<path fill="#ffffff" d="
  M 1256.23 193.82
  A 0.60 0.60 0.0 0 1 1256.83 193.22
  L 1270.96 193.17
  A 12.88 12.75 89.8 0 1 1283.75 206.00
  L 1283.77 210.90
  A 12.88 12.75 89.8 0 1 1271.06 223.83
  L 1256.93 223.88
  A 0.60 0.60 0.0 0 1 1256.33 223.28
  L 1256.23 193.82
  Z"
/>
<path fill="#fc9e50" d="
  M 453.69 469.35
  Q 453.04 469.05 452.99 468.39
  A 0.60 0.59 78.4 0 1 453.38 467.79
  Q 456.82 466.48 459.71 465.25
  C 475.33 458.55 485.74 443.55 487.11 426.90
  Q 488.23 413.32 484.31 400.69
  C 483.94 399.52 483.35 398.62 483.35 397.70
  A 0.38 0.38 0.0 0 0 482.68 397.45
  Q 476.42 404.50 468.06 410.58
  A 0.51 0.51 0.0 0 1 467.25 410.17
  C 467.24 408.51 467.17 406.11 467.56 404.28
  Q 468.06 401.99 468.16 399.25
  Q 468.55 388.59 467.90 380.27
  Q 467.27 372.18 463.58 360.57
  C 462.54 357.31 460.37 353.51 459.25 350.18
  A 4.13 4.03 -74.9 0 0 458.55 348.93
  Q 457.05 347.10 455.90 344.38
  A 2.38 2.34 12.0 0 0 455.47 343.73
  L 453.63 341.82
  A 1.02 1.02 0.0 0 0 451.90 342.30
  Q 451.64 343.43 451.09 344.26
  A 3.89 3.86 -21.6 0 0 450.56 345.47
  Q 448.96 352.07 445.73 358.75
  Q 440.69 369.21 433.49 379.70
  A 0.43 0.43 0.0 0 1 432.77 379.70
  L 425.46 368.95
  A 1.09 1.09 0.0 0 0 423.62 369.01
  Q 421.92 371.91 415.71 381.46
  C 409.82 390.51 405.24 401.11 403.61 412.02
  C 400.79 430.85 407.55 448.55 422.95 459.80
  Q 425.64 461.77 429.86 463.59
  Q 434.25 465.48 441.87 468.38
  A 0.73 0.72 49.7 0 1 441.76 469.77
  L 441.03 469.91
  Q 439.18 469.81 437.35 469.83
  Q 435.15 469.85 433.69 469.64
  Q 402.88 465.17 385.78 439.21
  Q 380.18 430.71 376.68 420.27
  C 372.07 406.51 372.64 390.08 376.16 375.95
  C 377.92 368.90 381.32 360.04 384.75 352.52
  Q 393.19 334.06 395.54 328.09
  Q 397.64 322.74 398.20 318.21
  A 0.85 0.84 19.3 0 1 399.48 317.60
  Q 408.30 322.98 416.41 330.54
  A 1.18 1.18 0.0 0 0 418.04 330.52
  Q 445.16 303.95 440.64 265.12
  A 0.49 0.49 0.0 0 1 441.40 264.66
  Q 447.00 268.42 451.55 273.65
  C 453.93 276.39 457.19 279.54 459.38 282.31
  Q 475.77 303.06 484.12 328.07
  Q 488.47 341.11 489.54 353.04
  Q 490.67 365.47 489.38 378.68
  A 0.26 0.26 0.0 0 0 489.77 378.93
  Q 500.13 372.97 506.18 363.00
  A 0.49 0.49 0.0 0 1 507.05 363.08
  Q 517.34 389.52 511.31 417.39
  C 505.15 445.82 482.87 466.35 453.69 469.35
  Z"
/>
<path fill="#061bac" d="
  M 305.98 279.91
  Q 304.33 332.60 304.78 378.25
  C 305.10 409.94 305.73 435.10 307.55 460.91
  A 0.64 0.63 0.8 0 1 306.85 461.59
  Q 263.91 457.23 220.46 449.86
  Q 212.21 448.47 204.60 446.87
  C 195.57 444.97 190.72 444.27 183.52 442.55
  Q 159.26 436.75 146.22 433.00
  C 144.71 432.56 143.63 430.85 143.38 429.31
  Q 137.92 396.36 137.00 374.98
  Q 135.67 344.02 141.91 312.67
  C 142.33 310.57 143.08 309.71 145.21 309.08
  Q 165.60 303.13 179.78 300.05
  C 197.34 296.24 223.54 291.01 245.95 287.77
  Q 277.48 283.20 295.73 280.96
  Q 297.77 280.71 305.40 279.41
  A 0.49 0.49 0.0 0 1 305.98 279.91
  Z"
/>
<path fill="#061bac" d="
  M 583.29 460.91
  A 0.59 0.58 -1.7 0 1 582.65 460.31
  Q 586.22 370.24 582.61 280.37
  A 0.35 0.35 0.0 0 1 583.00 280.01
  Q 646.30 285.58 708.70 299.58
  Q 725.05 303.25 743.01 308.72
  Q 745.20 309.38 745.67 311.72
  Q 754.30 355.35 749.52 396.74
  Q 747.60 413.31 744.27 429.25
  Q 743.68 432.09 740.64 432.94
  Q 692.52 446.38 650.00 452.70
  Q 614.58 457.96 583.29 460.91
  Z"
/>
<path fill="#010101" d="
  M 1504.08 405.76
  A 0.45 0.45 0.0 0 0 1504.52 405.32
  L 1504.63 385.00
  A 0.33 0.33 0.0 0 0 1504.31 384.67
  L 1493.09 384.61
  A 0.90 0.89 -89.7 0 1 1492.20 383.70
  L 1492.32 361.58
  A 0.58 0.58 0.0 0 1 1492.90 361.00
  L 1528.54 361.21
  A 0.74 0.74 0.0 0 1 1529.28 361.95
  L 1528.93 422.82
  A 0.58 0.58 0.0 0 1 1528.47 423.39
  Q 1513.39 426.52 1495.02 427.70
  C 1475.71 428.94 1454.29 425.12 1446.24 405.51
  C 1441.58 394.17 1441.72 382.63 1441.48 367.05
  C 1441.11 343.92 1441.33 317.73 1468.07 309.90
  Q 1473.78 308.23 1482.50 307.76
  Q 1492.72 307.21 1505.76 308.73
  Q 1518.18 310.18 1528.95 312.04
  A 0.51 0.51 0.0 0 1 1529.36 312.61
  L 1526.30 332.37
  A 0.53 0.53 0.0 0 1 1525.67 332.81
  Q 1508.10 329.40 1491.02 329.18
  C 1480.46 329.04 1470.21 332.43 1467.69 344.00
  C 1467.04 346.95 1466.69 351.47 1466.72 355.02
  Q 1466.95 382.17 1467.57 387.53
  Q 1469.65 405.60 1488.26 405.73
  Q 1497.29 405.80 1504.08 405.76
  Z"
/>
<path fill="#010101" d="
  M 2156.12 367.68
  C 2156.03 380.43 2156.15 392.16 2151.91 403.06
  Q 2144.75 421.46 2124.78 425.65
  Q 2109.56 428.84 2092.75 425.99
  C 2073.00 422.63 2063.33 408.77 2061.64 389.74
  Q 2060.79 380.11 2060.88 367.04
  Q 2060.97 353.96 2061.95 344.35
  C 2063.90 325.34 2073.76 311.61 2093.55 308.52
  Q 2110.40 305.90 2125.57 309.30
  Q 2145.48 313.76 2152.39 332.26
  C 2156.48 343.21 2156.20 354.94 2156.12 367.68
  Z
  M 2130.4357 347.5017
  A 18.23 18.23 0.0 0 0 2112.1739 329.3036
  L 2104.7339 329.3166
  A 18.23 18.23 0.0 0 0 2086.5357 347.5783
  L 2086.6043 386.8783
  A 18.23 18.23 0.0 0 0 2104.8661 405.0764
  L 2112.3061 405.0634
  A 18.23 18.23 0.0 0 0 2130.5043 386.8017
  L 2130.4357 347.5017
  Z"
/>
<path fill="#010101" d="
  M 1933.72 332.26
  A 0.50 0.50 0.0 0 1 1933.11 332.64
  Q 1926.21 330.86 1912.87 329.15
  Q 1912.13 329.06 1911.95 328.90
  A 0.88 0.87 51.8 0 0 1911.00 328.78
  Q 1910.70 328.93 1907.01 328.52
  C 1899.23 327.67 1885.49 327.71 1883.63 337.23
  C 1882.09 345.13 1887.13 349.18 1894.01 351.48
  C 1911.28 357.27 1933.53 359.16 1938.88 380.70
  C 1944.60 403.75 1933.26 423.14 1909.11 425.90
  Q 1893.06 427.74 1875.49 425.46
  Q 1873.95 425.26 1873.78 425.14
  A 0.80 0.76 -36.1 0 0 1873.10 425.05
  C 1871.77 425.49 1869.80 424.49 1868.27 424.45
  Q 1863.12 424.31 1858.86 423.20
  A 0.63 0.63 0.0 0 1 1858.39 422.51
  L 1860.86 402.26
  A 0.55 0.54 -80.9 0 1 1861.51 401.78
  C 1873.53 404.15 1886.98 406.07 1899.11 405.39
  C 1906.68 404.97 1914.95 402.23 1915.86 393.57
  C 1916.71 385.45 1908.66 380.88 1901.85 379.46
  C 1890.97 377.21 1878.24 374.62 1869.11 367.92
  C 1859.06 360.55 1857.13 346.33 1859.06 334.24
  C 1863.52 306.30 1893.03 306.18 1914.72 308.64
  Q 1926.20 309.94 1936.61 312.26
  A 1.17 1.16 12.1 0 1 1937.50 313.63
  L 1933.72 332.26
  Z"
/>
<path fill="#010101" d="
  M 1245.56 334.68
  A 0.30 0.30 0.0 0 1 1245.16 334.95
  Q 1228.36 329.57 1209.81 329.13
  C 1203.46 328.97 1193.31 330.58 1193.25 338.86
  C 1193.20 345.76 1199.46 349.64 1205.48 351.53
  C 1218.36 355.58 1225.40 357.19 1234.71 361.99
  C 1249.40 369.56 1253.49 385.02 1249.61 400.37
  C 1246.24 413.72 1234.92 423.11 1221.62 425.63
  Q 1206.29 428.54 1189.63 426.34
  Q 1180.54 425.14 1170.54 422.97
  A 0.58 0.58 0.0 0 1 1170.09 422.34
  L 1172.63 401.51
  A 0.43 0.42 -78.5 0 1 1173.17 401.15
  C 1184.69 404.40 1198.32 406.90 1210.27 405.53
  C 1218.39 404.60 1225.42 401.72 1225.36 392.24
  C 1225.31 385.58 1220.11 382.01 1214.33 379.91
  Q 1213.84 379.74 1194.64 374.08
  C 1182.70 370.57 1174.17 364.40 1170.84 351.84
  C 1168.66 343.62 1168.82 332.13 1172.26 324.59
  C 1180.50 306.56 1202.93 307.50 1219.51 308.55
  Q 1221.95 308.71 1224.12 309.31
  A 3.02 2.94 48.0 0 0 1225.35 309.39
  Q 1226.89 309.14 1228.46 309.67
  C 1230.61 310.39 1232.12 309.99 1234.33 310.69
  C 1238.08 311.87 1242.43 312.00 1246.39 312.97
  A 0.61 0.61 0.0 0 1 1246.86 313.60
  L 1245.56 334.68
  Z"
/>
<rect fill="#010101" x="-12.64" y="-58.27" transform="translate(1283.34,367.59) rotate(0.2)" width="25.28" height="116.54" rx="0.26"/>
<path fill="#010101" d="
  M 1392.81 404.28
  A 0.21 0.21 0.0 0 0 1393.18 404.15
  L 1393.18 309.85
  A 0.45 0.45 0.0 0 1 1393.63 309.40
  L 1417.12 309.40
  A 0.14 0.14 0.0 0 1 1417.26 309.54
  L 1417.67 425.79
  A 0.12 0.12 0.0 0 1 1417.55 425.91
  L 1378.02 425.91
  A 0.75 0.74 -7.6 0 1 1377.30 425.37
  Q 1371.63 404.99 1363.75 381.17
  C 1359.25 367.57 1354.98 353.50 1349.66 336.93
  A 0.77 0.74 89.7 0 0 1349.20 336.46
  Q 1348.24 336.15 1348.27 337.00
  Q 1348.30 337.64 1348.52 375.75
  Q 1348.70 405.94 1349.08 425.34
  A 0.55 0.54 -1.0 0 1 1348.53 425.90
  L 1323.87 425.90
  A 0.37 0.36 0.8 0 1 1323.50 425.53
  L 1324.15 309.88
  A 0.54 0.54 0.0 0 1 1324.69 309.34
  L 1364.28 309.34
  A 0.71 0.71 0.0 0 1 1364.96 309.85
  C 1373.89 341.51 1383.55 373.13 1392.63 403.96
  Q 1392.68 404.13 1392.81 404.28
  Z"
/>
<path fill="#010101" d="
  M 897.57 401.53
  L 898.09 309.78
  A 0.37 0.36 0.0 0 1 898.46 309.42
  L 922.91 309.42
  A 0.34 0.33 -90.0 0 1 923.24 309.76
  L 922.58 425.40
  A 0.45 0.45 0.0 0 1 922.13 425.85
  L 883.45 425.85
  A 0.75 0.75 0.0 0 1 882.73 425.30
  Q 877.68 406.63 869.06 380.76
  C 863.94 365.42 859.42 349.06 855.39 336.68
  Q 854.86 335.05 854.02 335.47
  A 0.37 0.36 -12.9 0 0 853.81 335.80
  L 854.22 425.63
  A 0.16 0.15 90.0 0 1 854.07 425.79
  L 829.14 425.79
  A 0.46 0.46 0.0 0 1 828.68 425.33
  L 829.34 309.90
  A 0.58 0.58 0.0 0 1 829.92 309.32
  L 868.90 309.54
  A 0.42 0.41 -8.0 0 1 869.28 309.82
  Q 877.90 336.66 887.92 369.05
  Q 892.80 384.83 897.20 401.58
  A 0.19 0.19 0.0 0 0 897.57 401.53
  Z"
/>
<path fill="#010101" d="
  M 950.52 309.24
  L 975.26 309.38
  A 0.51 0.51 0.0 0 1 975.76 309.90
  Q 975.70 313.34 975.61 337.22
  Q 975.58 345.15 974.86 362.25
  Q 974.32 374.97 974.66 387.35
  Q 975.11 403.72 990.94 405.26
  C 996.94 405.84 1005.20 405.21 1009.49 400.39
  C 1014.02 395.33 1014.53 388.50 1014.58 381.75
  Q 1014.79 350.24 1014.21 309.81
  A 0.37 0.37 0.0 0 1 1014.58 309.44
  L 1038.48 309.58
  A 0.42 0.41 90.0 0 1 1038.89 310.00
  Q 1038.93 351.70 1038.82 380.75
  Q 1038.78 388.67 1038.07 394.26
  Q 1034.69 420.69 1008.91 426.16
  C 996.80 428.73 979.13 428.47 968.14 423.05
  C 952.51 415.32 949.33 399.38 949.39 383.07
  Q 949.55 338.15 949.88 309.87
  A 0.64 0.64 0.0 0 1 950.52 309.24
  Z"
/>
<rect fill="#010101" x="-12.91" y="-58.24" transform="translate(1719.66,367.72) rotate(0.1)" width="25.82" height="116.48" rx="0.26"/>
<path fill="#010101" d="
  M 1595.51 309.62
  Q 1606.34 309.73 1640.74 309.60
  C 1666.52 309.51 1680.90 324.03 1682.97 349.03
  Q 1684.17 363.64 1683.42 380.23
  C 1682.75 395.10 1678.00 409.98 1665.04 418.03
  Q 1661.78 420.06 1654.00 423.09
  A 3.63 3.55 30.6 0 1 1652.98 423.34
  Q 1649.42 423.71 1647.33 424.53
  C 1645.34 425.31 1644.18 423.71 1642.06 424.87
  A 1.98 1.96 -59.9 0 1 1641.14 425.12
  L 1594.99 426.01
  A 0.62 0.61 -0.0 0 1 1594.36 425.39
  L 1595.01 310.11
  A 0.49 0.49 0.0 0 1 1595.51 309.62
  Z
  M 1619.86 331.47
  L 1619.60 403.63
  A 0.30 0.30 0.0 0 0 1619.90 403.93
  L 1636.90 403.99
  A 20.76 20.76 0.0 0 0 1657.74 383.31
  L 1657.84 352.07
  A 20.76 20.76 0.0 0 0 1637.16 331.23
  L 1620.16 331.17
  A 0.30 0.30 0.0 0 0 1619.86 331.47
  Z"
/>
<path fill="#010101" d="
  M 1779.60 405.13
  L 1775.48 425.40
  A 0.72 0.71 -84.0 0 1 1774.78 425.97
  L 1749.90 425.97
  A 0.40 0.40 0.0 0 1 1749.51 425.46
  Q 1750.29 422.69 1760.93 378.25
  Q 1769.70 341.65 1776.26 310.04
  A 0.70 0.70 0.0 0 1 1776.95 309.47
  L 1821.08 309.47
  A 0.75 0.74 -6.3 0 1 1821.81 310.05
  C 1831.32 351.52 1839.79 388.31 1849.87 425.40
  A 0.38 0.37 82.8 0 1 1849.51 425.87
  L 1823.89 425.87
  A 1.27 1.27 0.0 0 1 1822.64 424.84
  L 1818.69 405.07
  A 0.58 0.58 0.0 0 0 1818.12 404.60
  L 1780.24 404.60
  A 0.67 0.65 -84.0 0 0 1779.60 405.13
  Z
  M 1813.70 384.00
  A 0.36 0.36 0.0 0 0 1814.05 383.57
  L 1802.80 330.77
  A 0.36 0.36 0.0 0 0 1802.45 330.48
  L 1796.28 330.48
  A 0.36 0.36 0.0 0 0 1795.93 330.77
  L 1785.20 383.57
  A 0.36 0.36 0.0 0 0 1785.55 384.00
  L 1813.70 384.00
  Z"
/>
<path fill="#010101" d="
  M 2204.70 387.45
  L 2204.70 425.48
  A 0.42 0.42 0.0 0 1 2204.28 425.90
  L 2180.53 425.90
  A 0.59 0.59 0.0 0 1 2179.94 425.31
  L 2179.94 310.26
  A 0.53 0.53 0.0 0 1 2180.47 309.73
  Q 2220.17 309.76 2220.74 309.76
  Q 2233.56 309.67 2243.51 312.60
  Q 2252.00 315.11 2258.24 322.42
  C 2270.13 336.34 2269.17 372.53 2249.12 380.72
  A 1.53 1.53 0.0 0 0 2248.29 382.73
  L 2266.26 425.47
  A 0.33 0.33 0.0 0 1 2265.95 425.93
  L 2239.79 425.93
  A 1.14 1.12 -8.8 0 1 2238.71 425.15
  L 2226.52 387.53
  A 0.89 0.89 0.0 0 0 2225.67 386.91
  L 2205.24 386.91
  A 0.54 0.54 0.0 0 0 2204.70 387.45
  Z
  M 2204.70 331.89
  L 2204.52 365.31
  A 0.91 0.91 0.0 0 0 2205.43 366.23
  L 2225.31 366.33
  A 15.83 15.81 -89.7 0 0 2241.20 350.59
  L 2241.22 347.01
  A 15.83 15.81 -89.7 0 0 2225.49 331.09
  L 2205.61 330.99
  A 0.91 0.91 0.0 0 0 2204.70 331.89
  Z"
/>
<path fill="#010101" d="
  M 1089.52 425.71
  L 1066.58 425.71
  A 0.54 0.54 0.0 0 1 1066.04 425.16
  L 1066.69 309.95
  A 0.08 0.08 0.0 0 1 1066.77 309.87
  Q 1097.45 309.82 1113.75 309.92
  Q 1120.47 309.96 1128.42 312.10
  C 1140.65 315.40 1148.31 324.65 1150.62 337.39
  C 1153.67 354.19 1151.31 373.49 1134.26 381.05
  A 0.61 0.61 0.0 0 0 1133.92 381.77
  Q 1134.74 384.78 1136.12 387.88
  Q 1137.04 389.97 1152.95 425.07
  A 0.36 0.35 78.0 0 1 1152.63 425.57
  L 1125.50 425.57
  A 0.73 0.72 80.3 0 1 1124.82 425.08
  Q 1123.93 422.44 1123.64 421.54
  Q 1118.59 405.83 1111.11 387.45
  A 0.74 0.73 78.6 0 0 1110.43 386.99
  L 1090.44 386.88
  A 0.45 0.44 0.0 0 0 1089.99 387.32
  L 1089.99 425.24
  A 0.47 0.47 0.0 0 1 1089.52 425.71
  Z
  M 1089.90 331.54
  L 1089.90 365.66
  A 0.82 0.82 0.0 0 0 1090.72 366.48
  L 1109.86 366.48
  A 16.70 15.99 0.0 0 0 1126.56 350.49
  L 1126.56 346.71
  A 16.70 15.99 0.0 0 0 1109.86 330.72
  L 1090.72 330.72
  A 0.82 0.82 0.0 0 0 1089.90 331.54
  Z"
/>
<path fill="#010101" d="
  M 1986.58 391.08
  A 0.45 0.45 0.0 0 0 1986.10 391.53
  L 1986.10 425.44
  A 0.48 0.48 0.0 0 1 1985.62 425.92
  L 1960.81 425.92
  A 0.55 0.54 -89.5 0 1 1960.27 425.36
  C 1960.58 413.31 1961.02 404.51 1961.13 392.88
  Q 1961.57 345.58 1961.72 310.23
  A 0.31 0.30 -1.0 0 1 1962.02 309.93
  Q 1989.30 309.63 2010.02 309.92
  Q 2013.14 309.96 2019.20 311.15
  C 2035.80 314.39 2043.85 326.01 2045.08 342.56
  C 2046.62 363.33 2043.37 384.21 2019.69 389.73
  C 2008.76 392.27 1997.45 391.86 1986.58 391.08
  Z
  M 1986.18 331.70
  L 1986.24 370.12
  A 1.10 1.10 0.0 0 0 1987.35 371.22
  L 2003.57 371.19
  A 16.66 16.64 89.9 0 0 2020.18 354.50
  L 2020.16 347.20
  A 16.66 16.64 89.9 0 0 2003.49 330.57
  L 1987.27 330.60
  A 1.10 1.10 0.0 0 0 1986.18 331.70
  Z"
/>
<path fill="#010101" d="
  M 2301.45 425.95
  L 2276.73 425.95
  A 0.48 0.48 0.0 0 1 2276.27 425.35
  Q 2291.25 368.66 2304.31 310.06
  A 0.49 0.49 0.0 0 1 2304.79 309.68
  L 2348.31 309.68
  A 0.45 0.43 -6.6 0 1 2348.74 310.01
  L 2376.17 425.20
  A 0.56 0.56 0.0 0 1 2375.62 425.89
  L 2350.32 425.89
  A 0.56 0.56 0.0 0 1 2349.77 425.44
  L 2345.31 404.53
  A 0.55 0.54 84.1 0 0 2344.78 404.09
  L 2307.16 404.09
  A 0.83 0.82 -84.5 0 0 2306.35 404.76
  L 2302.16 425.37
  A 0.73 0.72 -84.1 0 1 2301.45 425.95
  Z
  M 2340.10 383.40
  A 0.43 0.43 0.0 0 0 2340.53 382.88
  L 2330.10 330.58
  A 0.43 0.43 0.0 0 0 2329.68 330.24
  L 2323.41 330.20
  A 0.43 0.43 0.0 0 0 2322.99 330.55
  L 2312.38 382.73
  A 0.43 0.43 0.0 0 0 2312.80 383.24
  L 2340.10 383.40
  Z"
/>
<rect fill="#ffffff" x="-21.95" y="-37.88" transform="translate(2108.52,367.19) rotate(-0.1)" width="43.90" height="75.76" rx="18.23"/>
<path fill="#ffffff" d="
  M 2340.10 383.40
  L 2312.80 383.24
  A 0.43 0.43 0.0 0 1 2312.38 382.73
  L 2322.99 330.55
  A 0.43 0.43 0.0 0 1 2323.41 330.20
  L 2329.68 330.24
  A 0.43 0.43 0.0 0 1 2330.10 330.58
  L 2340.53 382.88
  A 0.43 0.43 0.0 0 1 2340.10 383.40
  Z"
/>
<path fill="#ffffff" d="
  M 1813.70 384.00
  L 1785.55 384.00
  A 0.36 0.36 0.0 0 1 1785.20 383.57
  L 1795.93 330.77
  A 0.36 0.36 0.0 0 1 1796.28 330.48
  L 1802.45 330.48
  A 0.36 0.36 0.0 0 1 1802.80 330.77
  L 1814.05 383.57
  A 0.36 0.36 0.0 0 1 1813.70 384.00
  Z"
/>
<path fill="#ffffff" d="
  M 1089.90 331.54
  A 0.82 0.82 0.0 0 1 1090.72 330.72
  L 1109.86 330.72
  A 16.70 15.99 -0.0 0 1 1126.56 346.71
  L 1126.56 350.49
  A 16.70 15.99 -0.0 0 1 1109.86 366.48
  L 1090.72 366.48
  A 0.82 0.82 0.0 0 1 1089.90 365.66
  L 1089.90 331.54
  Z"
/>
<path fill="#ffffff" d="
  M 1986.18 331.70
  A 1.10 1.10 0.0 0 1 1987.27 330.60
  L 2003.49 330.57
  A 16.66 16.64 89.9 0 1 2020.16 347.20
  L 2020.18 354.50
  A 16.66 16.64 89.9 0 1 2003.57 371.19
  L 1987.35 371.22
  A 1.10 1.10 0.0 0 1 1986.24 370.12
  L 1986.18 331.70
  Z"
/>
<path fill="#ffffff" d="
  M 2204.70 331.89
  A 0.91 0.91 0.0 0 1 2205.61 330.99
  L 2225.49 331.09
  A 15.83 15.81 -89.7 0 1 2241.22 347.01
  L 2241.20 350.59
  A 15.83 15.81 -89.7 0 1 2225.31 366.33
  L 2205.43 366.23
  A 0.91 0.91 0.0 0 1 2204.52 365.31
  L 2204.70 331.89
  Z"
/>
<path fill="#ffffff" d="
  M 1619.86 331.47
  A 0.30 0.30 0.0 0 1 1620.16 331.17
  L 1637.16 331.23
  A 20.76 20.76 0.0 0 1 1657.84 352.07
  L 1657.74 383.31
  A 20.76 20.76 0.0 0 1 1636.90 403.99
  L 1619.90 403.93
  A 0.30 0.30 0.0 0 1 1619.60 403.63
  L 1619.86 331.47
  Z"
/>
<path fill="#fdda6b" d="
  M 453.69 469.35
  L 441.03 469.91
  L 441.76 469.77
  A 0.73 0.72 49.7 0 0 441.87 468.38
  Q 434.25 465.48 429.86 463.59
  Q 425.64 461.77 422.95 459.80
  C 407.55 448.55 400.79 430.85 403.61 412.02
  C 405.24 401.11 409.82 390.51 415.71 381.46
  Q 421.92 371.91 423.62 369.01
  A 1.09 1.09 0.0 0 1 425.46 368.95
  L 432.77 379.70
  A 0.43 0.43 0.0 0 0 433.49 379.70
  Q 440.69 369.21 445.73 358.75
  Q 448.96 352.07 450.56 345.47
  A 3.89 3.86 -21.6 0 1 451.09 344.26
  Q 451.64 343.43 451.90 342.30
  A 1.02 1.02 0.0 0 1 453.63 341.82
  L 455.47 343.73
  A 2.38 2.34 12.0 0 1 455.90 344.38
  Q 457.05 347.10 458.55 348.93
  A 4.13 4.03 -74.9 0 1 459.25 350.18
  C 460.37 353.51 462.54 357.31 463.58 360.57
  Q 467.27 372.18 467.90 380.27
  Q 468.55 388.59 468.16 399.25
  Q 468.06 401.99 467.56 404.28
  C 467.17 406.11 467.24 408.51 467.25 410.17
  A 0.51 0.51 0.0 0 0 468.06 410.58
  Q 476.42 404.50 482.68 397.45
  A 0.38 0.38 0.0 0 1 483.35 397.70
  C 483.35 398.62 483.94 399.52 484.31 400.69
  Q 488.23 413.32 487.11 426.90
  C 485.74 443.55 475.33 458.55 459.71 465.25
  Q 456.82 466.48 453.38 467.79
  A 0.60 0.59 78.4 0 0 452.99 468.39
  Q 453.04 469.05 453.69 469.35
  Z
  M 443.63 394.94
  A 0.63 0.63 0.0 0 0 442.81 394.89
  Q 439.90 397.17 437.96 400.17
  A 9.19 8.35 -9.8 0 1 437.03 401.36
  Q 430.88 407.86 426.86 416.32
  C 419.84 431.13 421.30 447.89 433.41 458.96
  Q 437.99 463.14 442.20 465.22
  C 444.58 466.39 446.19 466.21 448.47 464.99
  C 465.06 456.10 468.64 438.28 460.99 421.99
  C 457.09 413.67 451.38 405.33 446.48 398.27
  Q 445.32 396.61 443.63 394.94
  Z"
/>
<path fill="#ffffff" d="
  M 443.63 394.94
  Q 445.32 396.61 446.48 398.27
  C 451.38 405.33 457.09 413.67 460.99 421.99
  C 468.64 438.28 465.06 456.10 448.47 464.99
  C 446.19 466.21 444.58 466.39 442.20 465.22
  Q 437.99 463.14 433.41 458.96
  C 421.30 447.89 419.84 431.13 426.86 416.32
  Q 430.88 407.86 437.03 401.36
  A 9.19 8.35 -9.8 0 0 437.96 400.17
  Q 439.90 397.17 442.81 394.89
  A 0.63 0.63 0.0 0 1 443.63 394.94
  Z"
/>
<path fill="#061bac" d="
  M 333.91 655.20
  A 0.80 0.79 9.3 0 1 332.82 655.98
  Q 270.30 630.82 224.87 583.03
  Q 203.12 560.14 184.15 530.54
  Q 166.04 502.29 154.48 471.14
  A 1.03 1.03 0.0 0 1 155.39 469.75
  C 157.26 469.63 158.92 470.42 160.91 470.90
  Q 229.86 487.34 301.31 494.13
  Q 302.12 494.20 308.68 494.58
  A 1.31 1.31 0.0 0 1 309.90 495.77
  C 314.81 547.31 322.01 601.88 333.17 650.94
  Q 333.84 653.89 333.91 655.20
  Z"
/>
<path fill="#061bac" d="
  M 556.50 654.45
  A 0.52 0.51 -2.9 0 1 555.81 653.83
  Q 557.59 647.86 559.27 640.26
  Q 563.20 622.39 566.40 603.49
  Q 573.53 561.30 577.31 529.13
  Q 580.84 499.14 581.31 495.21
  A 0.83 0.83 0.0 0 1 582.06 494.48
  C 625.12 491.16 668.94 485.59 711.00 475.73
  Q 721.64 473.23 732.61 469.82
  A 0.72 0.72 0.0 0 1 733.54 470.54
  Q 733.48 471.58 733.01 472.76
  C 721.81 500.69 708.02 527.82 690.20 551.71
  C 677.16 569.20 660.87 586.83 643.55 601.40
  Q 604.26 634.45 556.50 654.45
  Z"
/>
<path fill="#2d2d2d" d="
  M 1342.07 522.27
  Q 1342.17 533.26 1342.00 536.77
  C 1341.21 552.95 1330.87 561.50 1315.84 563.33
  C 1301.48 565.08 1283.94 561.17 1279.81 544.97
  C 1278.01 537.95 1278.38 530.05 1278.31 522.89
  C 1278.24 515.72 1277.72 507.83 1279.38 500.78
  C 1283.20 484.50 1300.66 480.25 1315.05 481.73
  C 1330.11 483.27 1340.62 491.61 1341.72 507.78
  Q 1341.96 511.28 1342.07 522.27
  Z
  M 1331.2929 509.1061
  A 18.18 18.18 0.0 0 0 1313.0495 490.9897
  L 1307.0295 491.0107
  A 18.18 18.18 0.0 0 0 1288.9131 509.2540
  L 1289.0071 536.1939
  A 18.18 18.18 0.0 0 0 1307.2505 554.3103
  L 1313.2705 554.2893
  A 18.18 18.18 0.0 0 0 1331.3869 536.0460
  L 1331.2929 509.1061
  Z"
/>
<path fill="#2d2d2d" d="
  M 876.46 553.87
  A 0.07 0.07 0.0 0 0 876.59 553.84
  L 876.59 482.08
  A 0.14 0.13 -90.0 0 1 876.72 481.94
  L 886.13 481.94
  A 0.35 0.35 0.0 0 1 886.48 482.29
  L 886.48 561.83
  A 0.57 0.57 0.0 0 1 885.91 562.40
  L 870.92 562.40
  A 0.92 0.91 77.0 0 1 870.10 561.88
  L 835.77 489.47
  A 0.23 0.22 30.2 0 0 835.34 489.58
  Q 835.84 495.94 835.87 502.21
  Q 836.02 533.09 836.21 562.56
  A 0.27 0.27 0.0 0 1 835.94 562.83
  L 826.82 562.83
  A 0.28 0.28 0.0 0 1 826.54 562.55
  L 826.54 482.49
  A 0.43 0.42 90.0 0 1 826.96 482.06
  L 840.77 482.06
  A 1.98 1.97 -13.5 0 1 842.53 483.13
  Q 860.99 518.96 876.46 553.87
  Z"
/>
<path fill="#2d2d2d" d="
  M 1205.04 554.42
  A 0.49 0.49 0.0 0 0 1205.99 554.42
  L 1222.16 481.93
  A 0.13 0.12 5.2 0 1 1222.29 481.83
  L 1231.90 481.88
  A 0.21 0.21 0.0 0 1 1232.11 482.14
  L 1213.45 562.06
  A 0.76 0.75 6.2 0 1 1212.71 562.65
  L 1198.16 562.57
  A 0.69 0.68 -5.9 0 1 1197.50 562.04
  L 1182.50 496.79
  A 0.09 0.09 0.0 0 0 1182.33 496.80
  Q 1176.78 528.80 1168.37 561.81
  A 0.93 0.92 7.2 0 1 1167.47 562.50
  L 1153.43 562.42
  A 0.98 0.98 0.0 0 1 1152.48 561.67
  L 1133.58 482.29
  A 0.33 0.32 83.8 0 1 1133.90 481.88
  L 1142.94 481.93
  A 0.95 0.95 0.0 0 1 1143.87 482.67
  L 1160.37 554.47
  A 0.42 0.42 0.0 0 0 1161.19 554.47
  L 1177.23 482.55
  A 0.57 0.57 0.0 0 1 1177.80 482.10
  L 1187.93 482.15
  A 0.64 0.63 -5.8 0 1 1188.54 482.64
  L 1205.04 554.42
  Z"
/>
<path fill="#2d2d2d" d="
  M 1560.06 562.25
  A 0.20 0.20 0.0 0 1 1559.88 562.55
  L 1549.27 562.49
  A 2.12 2.08 72.5 0 1 1547.54 561.57
  Q 1534.34 542.14 1526.15 530.37
  Q 1525.40 529.28 1524.07 528.22
  A 1.83 1.79 63.7 0 0 1522.94 527.82
  L 1513.87 527.77
  A 0.26 0.26 0.0 0 0 1513.61 528.03
  L 1513.61 562.09
  A 0.76 0.76 0.0 0 1 1512.85 562.85
  L 1504.73 562.85
  A 0.91 0.91 0.0 0 1 1503.82 561.94
  L 1503.82 482.27
  A 0.35 0.35 0.0 0 1 1504.17 481.92
  L 1513.21 481.92
  A 0.34 0.34 0.0 0 1 1513.55 482.26
  L 1513.55 519.27
  A 0.52 0.52 0.0 0 0 1514.08 519.79
  L 1520.54 519.67
  A 2.62 2.61 18.6 0 0 1522.52 518.69
  C 1531.30 507.69 1539.73 494.31 1547.53 483.13
  A 1.58 1.57 17.5 0 1 1548.82 482.46
  L 1559.42 482.46
  A 0.28 0.28 0.0 0 1 1559.65 482.90
  L 1532.26 521.44
  A 1.06 1.06 0.0 0 0 1532.26 522.66
  Q 1539.30 532.64 1558.89 559.96
  C 1559.31 560.54 1559.66 561.51 1560.06 562.25
  Z"
/>
<path fill="#2d2d2d" d="
  M 1058.91 490.84
  L 1032.44 490.84
  A 0.51 0.51 0.0 0 1 1031.93 490.33
  L 1031.93 482.69
  A 0.51 0.51 0.0 0 1 1032.44 482.18
  L 1092.94 482.18
  A 0.51 0.51 0.0 0 1 1093.45 482.69
  L 1093.45 490.31
  A 0.51 0.51 0.0 0 1 1092.94 490.82
  L 1070.09 490.82
  A 0.51 0.51 0.0 0 0 1069.58 491.33
  L 1069.58 562.34
  A 0.51 0.51 0.0 0 1 1069.07 562.85
  L 1059.93 562.85
  A 0.51 0.51 0.0 0 1 1059.42 562.34
  L 1059.42 491.35
  A 0.51 0.51 0.0 0 0 1058.91 490.84
  Z"
/>
<path fill="#2d2d2d" d="
  M 952.57 553.24
  L 990.90 553.24
  A 0.51 0.51 0.0 0 1 991.41 553.75
  L 991.41 561.79
  A 0.51 0.51 0.0 0 1 990.90 562.30
  L 942.83 562.30
  A 0.51 0.51 0.0 0 1 942.32 561.79
  L 942.32 482.80
  A 0.51 0.51 0.0 0 1 942.83 482.29
  L 989.36 482.29
  A 0.51 0.51 0.0 0 1 989.87 482.80
  L 989.87 490.32
  A 0.51 0.51 0.0 0 1 989.36 490.83
  L 952.60 490.83
  A 0.51 0.51 0.0 0 0 952.09 491.34
  L 952.09 516.56
  A 0.51 0.51 0.0 0 0 952.60 517.07
  L 983.79 517.07
  A 0.51 0.51 0.0 0 1 984.30 517.58
  L 984.30 525.40
  A 0.51 0.51 0.0 0 1 983.79 525.91
  L 952.57 525.91
  A 0.51 0.51 0.0 0 0 952.06 526.42
  L 952.06 552.73
  A 0.51 0.51 0.0 0 0 952.57 553.24
  Z"
/>
<path fill="#2d2d2d" d="
  M 1394.64 562.65
  A 0.44 0.43 -0.0 0 1 1394.20 562.22
  L 1394.20 483.20
  A 0.76 0.76 0.0 0 1 1394.96 482.44
  Q 1416.40 482.42 1422.00 482.42
  C 1427.93 482.43 1435.42 482.84 1440.42 485.82
  Q 1450.83 492.03 1451.45 504.85
  Q 1452.35 523.34 1435.46 529.92
  A 0.33 0.33 0.0 0 0 1435.29 530.38
  L 1452.28 561.27
  A 0.84 0.84 0.0 0 1 1451.54 562.52
  L 1441.87 562.52
  A 1.42 1.42 0.0 0 1 1440.59 561.72
  L 1425.96 532.50
  A 2.14 2.14 0.0 0 0 1424.04 531.31
  L 1404.64 531.31
  A 0.32 0.31 90.0 0 0 1404.33 531.63
  L 1404.33 562.23
  A 0.42 0.42 0.0 0 1 1403.91 562.65
  L 1394.64 562.65
  Z
  M 1404.35 492.18
  L 1404.35 521.56
  A 0.84 0.84 0.0 0 0 1405.19 522.40
  L 1425.63 522.40
  A 15.16 14.23 -0.0 0 0 1440.79 508.17
  L 1440.79 505.57
  A 15.16 14.23 0.0 0 0 1425.63 491.34
  L 1405.19 491.34
  A 0.84 0.84 0.0 0 0 1404.35 492.18
  Z"
/>
<rect fill="#ffffff" x="-21.19" y="-31.65" transform="translate(1310.15,522.65) rotate(-0.2)" width="42.38" height="63.30" rx="18.18"/>
<path fill="#ffffff" d="
  M 1404.35 492.18
  A 0.84 0.84 0.0 0 1 1405.19 491.34
  L 1425.63 491.34
  A 15.16 14.23 -0.0 0 1 1440.79 505.57
  L 1440.79 508.17
  A 15.16 14.23 -0.0 0 1 1425.63 522.40
  L 1405.19 522.40
  A 0.84 0.84 0.0 0 1 1404.35 521.56
  L 1404.35 492.18
  Z"
/>
<path fill="#061bac" d="
  M 539.83 495.70
  A 0.32 0.31 -1.6 0 1 540.18 496.03
  Q 534.71 581.42 519.47 664.92
  A 2.14 2.13 -0.6 0 1 517.80 666.62
  Q 499.38 670.29 487.06 672.61
  Q 455.17 678.62 424.26 675.53
  C 407.01 673.80 393.79 671.44 375.59 668.19
  A 1.81 1.80 0.5 0 1 374.14 666.72
  Q 373.67 664.06 373.18 661.17
  Q 359.24 578.41 353.66 496.35
  A 0.56 0.56 0.0 0 1 354.24 495.75
  C 382.78 496.45 428.37 497.59 463.61 497.20
  Q 512.74 496.66 534.12 496.08
  Q 536.51 496.02 539.83 495.70
  Z"
/>
</svg>
