<svg xmlns="http://www.w3.org/2000/svg" xmlns:xlink="http://www.w3.org/1999/xlink" version="1.1" id="Layer_1" x="0px" y="0px" style="enable-background:new 0 0 419.5 204.1;" xml:space="preserve" viewBox="40.1 42 333.6 115.56">
<style type="text/css">
	.st0{fill:#365ABD;}
</style>
<g>
	<g>
		<path class="st0" d="M155.3,84h1.6c2.9,0,3.4-0.4,3.4-2.8h0.9v7h-0.9c0-2.5-0.5-2.8-3.4-2.8h-1.6v4.4c0,2.9,0.4,3.4,2.8,3.4v0.9    h-9.3v-0.9c2.4,0,2.8-0.5,2.8-3.4v-9c0-2.9-0.4-3.4-2.8-3.4v-0.9h15.6l0.3,4.1h-0.9l-0.1-0.6c-0.4-1.6-0.7-2.2-3.4-2.2h-5V84z"/>
		<path class="st0" d="M168.5,93.9v-0.9c2.4,0,2.8-0.5,2.8-3.4v-9c0-2.9-0.4-3.4-2.8-3.4v-0.9h9.3v0.9c-2.4,0-2.8,0.5-2.8,3.4v9    c0,2.9,0.4,3.4,2.8,3.4v0.9H168.5z"/>
		<path class="st0" d="M197.9,80.6c0-2.9-0.4-3.4-2.8-3.4v-0.9h7v0.9c-2.5,0-2.8,0.5-2.8,3.4v13.8h-0.7l-12.2-14.5v9.7    c0,2.9,0.4,3.4,2.8,3.4v0.9h-6.9v-0.9c2.4,0,2.8-0.5,2.8-3.4v-9c0-2.9-0.4-3.4-2.8-3.4v-0.9h5.9l9.8,11.7V80.6z"/>
		<path class="st0" d="M222.1,80.6c0-2.9-0.4-3.4-2.8-3.4v-0.9h7v0.9c-2.5,0-2.8,0.5-2.8,3.4v13.8h-0.7l-12.2-14.5v9.7    c0,2.9,0.4,3.4,2.8,3.4v0.9h-6.9v-0.9c2.4,0,2.8-0.5,2.8-3.4v-9c0-2.9-0.4-3.4-2.8-3.4v-0.9h5.9l9.8,11.7V80.6z"/>
		<path class="st0" d="M230.6,93.9v-0.9c2.4,0,2.8-0.5,2.8-3.4v-9c0-2.9-0.4-3.4-2.8-3.4v-0.9h9.3v0.9c-2.4,0-2.8,0.5-2.8,3.4v9    c0,2.9,0.4,3.4,2.8,3.4v0.9H230.6z"/>
		<path class="st0" d="M245.8,94.4h-0.9V88h0.9c0.6,3.1,3,5.1,5.4,5.1c1.7,0,2.9-1,2.9-2.9c0-1.1-0.8-2.3-2.2-3l-2.8-1.5    c-2.5-1.3-4-2.6-4-5.6c0-2.4,2.3-4.4,5.1-4.4c1.7,0,2.7,0.6,3.6,1.2c0.4-0.3,0.7-0.7,0.9-1.4h0.8v6.5h-0.9c-0.2-2.3-1.1-5-4.2-5    c-1.2,0-2.4,0.9-2.4,2.4c0,0.9,0.8,2.2,2.4,3l2.8,1.4c2.1,1.1,3.8,2.9,3.8,5.2c0,3.2-2.8,5.3-5.8,5.3c-2.2,0-3.6-1.2-4.6-1.4    C246.3,93.4,245.9,93.8,245.8,94.4z"/>
		<path class="st0" d="M268.2,89.7c0,2.9,0.4,3.4,2.8,3.4v0.9h-9.3v-0.9c2.4,0,2.8-0.5,2.8-3.4v-9c0-2.9-0.4-3.4-2.8-3.4v-0.9h9.3    v0.9c-2.4,0-2.8,0.5-2.8,3.4v3.3h9v-3.3c0-2.9-0.4-3.4-2.8-3.4v-0.9h9.3v0.9c-2.4,0-2.8,0.5-2.8,3.4v9c0,2.9,0.4,3.4,2.8,3.4v0.9    h-9.3v-0.9c2.5,0,2.8-0.5,2.8-3.4v-4.4h-9V89.7z"/>
		<path class="st0" d="M159.6,121.5v-0.9h8.7v0.9c-2.4,0-2.8,0.5-2.8,3.4v2c-3.5,0-4.7,1.5-7.6,1.5c-5,0-9-4.2-9-9.3s4.1-9.3,9-9.3    c2.1,0,4,0.9,5.5,2.5c0.4-0.3,0.6-0.9,0.8-1.7h0.8v6.5H164c-0.8-3.8-3.2-5.9-6.1-5.9c-4,0-5.2,4.3-5.2,7.9s1.1,7.9,5.2,7.9    c2.3,0,4.4-0.9,4.4-3.6C162.3,122.1,161.6,121.5,159.6,121.5z"/>
		<path class="st0" d="M182,128.5c-5.4,0-9.8-4.2-9.8-9.3s4.4-9.3,9.8-9.3c5.4,0,9.8,4.2,9.8,9.3S187.4,128.5,182,128.5z M182,111.3    c-4.2,0-5.8,4.3-5.8,7.9s1.7,7.9,5.8,7.9c4.1,0,5.8-4.3,5.8-7.9S186.1,111.3,182,111.3z"/>
		<path class="st0" d="M210.7,113.8l-6.4,14.7h-0.6l-6.4-14.7c-0.8-1.9-1.2-2.6-3.6-2.6v-0.9h9.6v0.9c-2.6,0-2.9,0.7-2.2,2.2    l4.1,9.5l4.1-9.5c0.7-1.6,0.2-2.2-2.2-2.2v-0.9h7.1v0.9C212.3,111.2,211.6,111.7,210.7,113.8z"/>
		<path class="st0" d="M216.5,127.1c2.4,0,2.8-0.5,2.8-3.4v-9c0-2.9-0.4-3.4-2.8-3.4v-0.9h15.1l0.2,4.1H231l-0.1-0.6    c-0.4-1.6-0.7-2.2-3.4-2.2H223v6.3h1.6c2.9,0,3.4-0.4,3.4-2.8h0.9v7H228c0-2.5-0.5-2.8-3.4-2.8H223v3.9c0,2.9,0.4,3.4,2.8,3.4h2.6    c2.7,0,3-0.7,3.4-2.2l0.1-0.6h0.9l-0.2,4.1h-16.1V127.1z"/>
		<path class="st0" d="M251,123.4c2.6,2.8,3.7,3.5,5.5,3.8v0.9h-6.4l-5.2-7.7H244v3.4c0,2.9,0.4,3.4,2.8,3.4v0.9h-9.3v-0.9    c2.4,0,2.8-0.5,2.8-3.4v-9c0-2.9-0.4-3.4-2.8-3.4v-0.9h9.8c3.6,0,5.9,2.2,5.9,5c0,2.6-2,4.6-5.2,4.9L251,123.4z M249.4,115.3    c0-2-1.2-3.6-3.8-3.6H244v7.3h1.6C248.2,118.9,249.4,117.3,249.4,115.3z"/>
		<path class="st0" d="M275.3,114.6c0-2.9-0.4-3.4-2.8-3.4v-0.9h7v0.9c-2.5,0-2.8,0.5-2.8,3.4v13.8h-0.7L263.8,114v9.7    c0,2.9,0.4,3.4,2.8,3.4v0.9h-6.9v-0.9c2.4,0,2.8-0.5,2.8-3.4v-9c0-2.9-0.4-3.4-2.8-3.4v-0.9h5.9l9.8,11.7V114.6z"/>
		<path class="st0" d="M288,123.7c0,2.9,0.4,3.4,2.8,3.4v0.9h-6.9v-0.9c2.4,0,2.8-0.5,2.8-3.4v-9c0-2.9-0.4-3.4-2.8-3.4v-0.9h6.1    l5.3,12.7l5.3-12.7h5.9v0.9c-2.5,0-2.8,0.5-2.8,3.4v9c0,2.9,0.4,3.4,2.8,3.4v0.9h-9.1v-0.9c2.4,0,2.8-0.5,2.8-3.4v-9.2l-5.8,14    h-0.6l-5.9-14V123.7z"/>
		<path class="st0" d="M311,127.1c2.4,0,2.8-0.5,2.8-3.4v-9c0-2.9-0.4-3.4-2.8-3.4v-0.9h15.1l0.2,4.1h-0.9l-0.1-0.6    c-0.4-1.6-0.7-2.2-3.4-2.2h-4.5v6.3h1.6c2.9,0,3.4-0.4,3.4-2.8h0.9v7h-0.9c0-2.5-0.5-2.8-3.4-2.8h-1.6v3.9c0,2.9,0.4,3.4,2.8,3.4    h2.6c2.7,0,3-0.7,3.4-2.2l0.1-0.6h0.9l-0.2,4.1H311V127.1z"/>
		<path class="st0" d="M347.7,114.6c0-2.9-0.4-3.4-2.8-3.4v-0.9h7v0.9c-2.5,0-2.8,0.5-2.8,3.4v13.8h-0.7L336.2,114v9.7    c0,2.9,0.4,3.4,2.8,3.4v0.9h-6.9v-0.9c2.4,0,2.8-0.5,2.8-3.4v-9c0-2.9-0.4-3.4-2.8-3.4v-0.9h5.9l9.8,11.7V114.6z"/>
		<path class="st0" d="M373.7,114.5h-0.9l-0.1-0.6c-0.4-1.6-0.7-2.2-3.4-2.2h-2.9v12c0,2.9,0.4,3.4,2.8,3.4v0.9h-9.3v-0.9    c2.4,0,2.8-0.5,2.8-3.4v-12h-2.9c-2.7,0-3,0.7-3.4,2.2l-0.1,0.6h-0.9l0.3-4.1h17.9L373.7,114.5z"/>
	</g>
	<path class="st0" d="M63.2,149.8c2.1,1.5,3.6,2.4,5.4,3.3c4.5,2.2,13.5,5.4,25.5,4.2c11.4-1.1,16.8-5.2,16.8-5.2   c-1.9-0.7-3.6-1.8-4.7-2.9c-0.1,0.2-0.2,0.5-0.2,0.9c-0.1,0.8-0.2,1.7-0.2,1.7s-0.3-0.1-1-0.4c-0.8-0.4-2.2-1.6-2.3-3.3   c0-0.2,0-0.3,0-0.4c-2.3,0.9-6.7,2.4-11.3,2.5c-8,0.2-16-1.1-23.8-4.5c-1-0.4-2.2-1-2.2-1s-0.5,1.2,1.5,3.5   c-0.8-0.2-1.8-0.1-2.4,0.2C63.7,149,63.3,149.6,63.2,149.8 M99.4,108.9c-1.5-1.2-3.2-1.9-4.6-2.5c0,0,1.7-1.2,1.4-1.4   c-0.5-0.4-1.3-0.4-1.3-0.4c-5.6,2.1-11.3,5.4-14.1,7.3c0,0-0.1,0-0.1,0.1c-2,1.4-4.7-0.3-4.7-0.3l-0.4,2.2c1.1,0.6,1.9,0.9,2.4,1   c-0.8,0.2-2,0.5-2.6,1.2l0.8,2c0,0,1.2-1,3.1-1c0,0.1,0,0.2,0,0.3c0.3,2.5-3.7,6.1-7.1,7.5c-3.5,1.4-6.3,1.4-6.9,1   c-2.3-1.5-2.4-3.6-3.6-3.9c-0.3-0.1-0.6,0.4-1.1,0.3c-1.8-0.3-4-0.2-4.6,1.4c0,0,4.3-0.3,2.5,0.7c-1.7,1,2.8,2.9,4,3.6   c0.4,0.3,0.1,0.4,0,0.4c-0.8,0.1-3.4-1.2-4.8-1.6c-1.1-0.3-1.2,0.5-1.5,0.5c-1.7-0.3-4.9,1.5-3.6,4c0,0,1.3-2.1,2.5-1.7   c0.5,0.2-0.3,1.6,0.7,2.2c1.3,0.8,6.1-0.8,6.9-0.1c0.8,0.6-5.2,0.5-5.4,1.7c0,0.1,0,0.4,0.1,0.6c0.2,0.5-1.2,1.1-1.3,2.8   c-0.1,1.7,1.8,2.9,1.8,2.9c0.2-0.2-0.5-2.3,0.3-2.6c0.4-0.2,0.8,0.8,1.6,0.9c1.7,0.2,2.4-2.5,5.2-3.9c4.1-2,0.9,0.9,2.4,1.2   c2.4,0.6-0.3,2.7-0.3,2.7c0.7,0.4,2.8-0.3,3.6-2.4c0.3-0.8,0.7-0.4,1.1-0.9c0.4-0.5,0-1.3,0.3-1.9c0.6-1.1,3.1-0.7,3-1.7   c-0.2-1.4,1-1.8,1.7-2c0.3-0.1,0.3,1.8,2.9,2.7c0.8-0.3,1.6-0.6,3-1.4c0.7-0.4,1.5-0.8,1.7-1.1c0-0.1-1.1-0.9-1.5-2.1   c-0.2-0.6-0.2-1-0.1-1c0,0,1.2,1.7,2.9,2.3c1.2-0.6,2.4-1.3,3.7-2.1c0.2-0.1,0.4-0.3,0.6-0.4c0,0,0,0,0,0c0.2-0.3-3.1-2.4-1.7-3.1   c1.2-0.6-1.9-3.8-0.3-4.6c4.5-2.4,9.9-4.8,13-6.3C101.2,111.9,100.9,110.2,99.4,108.9 M45.5,141.9c0,0.1-0.2,1.1,0.6,1.8   c0.5,0.5,1.4,0.7,1.8,0.3c0.6-0.5,0.2-1.4,0.5-2.1c0.1-0.2,0.5-0.3,0.5-0.3c0.2,0,0.3-0.1,0.4-0.2c3.8,1.6,7.5,3.9,10.8,6.3   c0.2,0.2,0.4,0.3,0.6,0.4c-0.1,0.5-0.3,1-0.6,1.6c-0.9,1.7-2,3.5-1.8,4.6c0.1,0.8,0.7,1.4,1.5,1.5c0.9,0,1.7-0.6,1.8-1.3   c0.4-1.6-1.2-1.8-1.2-1.8s0.5-1.4,0.7-1.9c1.5-3.8,3.5-3.6,3.5-3.6s-1.7-1.4,0.1-4.7c1-1.7,1.4-3,1.6-4.3c0.1-0.8-0.7-1.8-1.5-1.9   c-0.9-0.1-1.8,0.7-1.9,1.5c-0.2,2,1.5,1.7,1.4,2.1c-0.5,1.7-1.1,2.8-1.8,3.5c-0.3-0.2-0.6-0.4-1-0.6c-3.5-2-6.4-3.7-10.6-4.6   c0.1-0.2,0.2-0.4,0.3-0.6c0.7-1.2,1-1.7,0.9-1.8c-0.1-0.1-0.5,0.3-1.4,0.8c-1.1,0.6-1.4,0.7-2.1,0.7c-0.4,0-0.8-0.2-1.1-0.1   c-0.3,0.1-0.5,0.6-0.8,1.5c-0.5,1.3-0.5,1.4-0.5,1.5C45.8,141.4,45.6,141.4,45.5,141.9 M46.7,58.5c1.2,0,3.3-0.3,3.3-0.3l-0.1-5.2   c0,0-1.3-0.2-2.6-0.4c-2.5-0.4-2.4,2.2-2.4,2.2l0.1,1.4C45,56.1,45.1,58.5,46.7,58.5 M58.8,56.5c0.1-0.4,0-1,0-1.5   c0-0.8,0-1.9,0-2.7c0,0,0-1.1-0.3-1.1c-0.2,0-0.9,0-1.1,0c-0.1,0.2-0.3,0.9-0.4,1.1l-0.3-1.1c-0.2,0-1.2,0-1.3,0   c-0.1,0.2-0.3,0.8-0.4,1l-0.3-1c-0.1,0-1.2,0-1.3,0c-0.1,0.2-0.4,0.8-0.4,1l-0.3-1c0,0-0.5,0-0.8,0c-0.4,0-0.6,0.6-0.6,1   c0,1.1,0,1.6,0,2.7c0,0.6,0.1,3.1,0.1,3.1c0.5,0,0.9-0.1,1.1-0.3c0.5-0.4,0.5-1.1,0.5-1.1c0,0.3,0,1.4,0,1.8c0,0.1,0.8,0.2,1.4-0.3   c0.4-0.4,0.5-1.2,0.6-1.4c0,0.6,0,1.7,0.1,1.8c0.2,0,0.9,0,1.3-0.4c0.4-0.4,0.6-1,0.6-1.4c0,0,0,0.9,0.1,1.3c0.1,0,0.3,0,0.5-0.1   c0,0,0.4-0.2,0.6-0.3C58.4,57.3,58.7,57.1,58.8,56.5 M61.6,59.2l0-1.6c0,0-0.6-0.5-0.7-1.9c0-0.9,0.6-1.9,0.6-1.9l0-1.5   c0,0-1-0.8-1.5-0.7l0,5.6c0,1-1.4,2.1-2.6,2.3c-2.6,0.5-5.3,0.3-5.3,0.3s0.1,0.8,0.3,1.4c0.2,0.5,0.8,0.9,0.8,0.9h6.6L61.6,59.2z    M53.2,65.8h6.7c0,0,0.4-1,0.4-1.3L60,63.3h-6.7l-0.4,1.1L53.2,65.8z M59.9,67h-6.5l0,8.6l5.6,0.1l1.8-1.4L59.9,67z M62.9,77.8   c0,0-1.1-0.8-1.2-0.9c-0.1-0.1-0.2-1.5-0.2-1.5l-2.1,1.7l-6.4,0c-0.2,0-0.1,4.6-0.1,4.6s3.2,2.7,3.4,2.6l4.3-5.4L62.9,77.8z    M61.5,79.8l-3.8,4.9l6.3,2.6c3.6-1.9,8.7-5.3,8.7-5.3l-8.9-3.3L61.5,79.8z M64.9,53.9c0,0-0.1-5.1,0-5.3c0,0,0.2-0.2,0.3-0.4   c0.1-0.4,0-0.9,0-0.9h-3.1c-0.1,0.1,0,0.6,0,0.7c0.1,0.3,0.2,0.6,0.5,0.7v5.2c0,0-0.4,0.5-0.6,1.7c-0.1,1,0.6,1.8,0.6,1.8l-0.1,4.4   c0,0-0.3,0.2-0.3,0.7c0,0.5,0.1,0.7,0.1,0.7h2.9c0-0.1,0.1-0.6,0-0.9c-0.1-0.2-0.2-0.4-0.3-0.5l0-4.3c0.3-0.5,0.7-1,0.7-1.8   C65.6,54.9,65.1,54.2,64.9,53.9 M71.4,58.2l4.9-4.9c-1.9,0-4.1-0.1-7.1-0.1c-0.6,0-2.6-1.4-2.8-1.1c0,0-0.5,1.1-0.6,1.5   c0,0,0.9,1,0.9,2.1c0,0.3,0,1.3-0.9,2.2c0,0,0.7,1.5,0.9,1.7c0,0,1.5-1,2.7-1.2C69.6,58.3,70.2,58.2,71.4,58.2 M93.2,58.3l6.2-8.1   c0,0-0.7-0.3-1.6,0.2c-0.8,0.5-1,1.7-0.9,1.9c-0.7-1.7-2.6-0.6-2.6-0.6c1.2,2,0.2,2.8-0.6,2.5c-1.1-0.3-0.9-1.5-0.9-1.5s-1.1,1-2,0   c-0.6-0.8,0.3-1.8,2.1-1.7c0,0,0.1-1.1-0.9-1.8c-0.8-0.5-2,0-2,0s0.8-0.4,1-1.3c0.1-0.6-0.1-1.6-0.8-2.3l0,0l0,0   c-1,0-1.8,0.5-2.2,1c-0.5,0.7-0.3,1.6-0.3,1.6s-0.4-1.2-1.3-1.4c-1.2-0.3-1.9,0.6-1.9,0.6c1.3,1.3,1.1,2.7,0.1,2.7   c-1.3,0.1-1.4-1.4-1.4-1.4s-0.8,1-1.7,0.3c-0.7-0.5-0.8-1.8,1.4-2.2c0,0-0.5-2.2-2.2-1.5c0.2-0.1,1-1.1,0.8-2   c-0.2-0.9-0.9-1.3-0.9-1.3l-1.8,10.1l4.6,2c0.5-0.5,1.1-0.8,1.5-1c1.3-0.6,2.6-0.4,3.6,0c1.6,0.7,1.8,1.6,1.8,2.3   c0,0.4-0.3,1.2-0.5,1.4L93.2,58.3z M116.3,57.1l4-2l-4.1-1.7c-2.8,0.1-9.5-0.1-17.5-0.2l-3.4,4.3C104.3,57.4,112.9,57.2,116.3,57.1    M111.1,78.4c-3-1.5-5.7-2.7-7.1-5c-1.2-2.3-0.8-6.5,2.5-8.5c0.7,0.7,0.7,1.5,0.7,1.5c0.8,0,2.5-0.1,3.4-0.1c0-0.6,0-1.6-0.5-2.4   c0.9,0.6,1.4,1.1,1.6,2.4c0.5,0,3,0.1,3,0.1c0-0.8-0.2-1.4-0.6-1.9c3.3,1.4,4.1,4.5,4,6.1c0.1,2.4-1.2,4.5-3,5.6   C113.6,77.2,112.2,77.9,111.1,78.4 M108,99.7c-0.1,0-0.2-0.1-0.3-0.1c0,0,0,0-0.1,0C107.8,99.6,107.9,99.6,108,99.7 M78.6,59.9   c0.1,0.2-2.4,0.6-2.6,0.4c-0.2-0.2-0.3-1.3-0.2-1.5C76,58.5,78.3,59,78.6,59.9 M122.5,91.6c1,0.2,1.7,0.1,2.2-0.2   c0,0-0.2-2.7-0.5-3.7c-0.7,0.2-2.1,0.3-3.1-1.1c-0.2-0.3-0.4-0.6-0.6-1c-2-2.7-4.3-4.4-6.6-5.8c4.2-2.1,5.5-4,6.2-5.2   c1.3-2.1,2.4-8.9-3.6-12.2c-4.3-2.4-8.8-1.3-10.7-0.5c-3.6,1.7-6.2,5.5-5.3,10.3c0.8,4.3,3.6,5.8,7.2,7.5c-2.8,1.5-4.6,3.2-4.6,6.5   c0,2.1,1.6,4,0.7,7.9c-0.1,0.4,2.5-1,2.6-1.2c0.9-2,0.6-4.8,0.6-4.8c0.9,0.8,0.9,2.9,0.6,4.1c0,0,1.7-1,1.9-1.6   c0.9-2.8,0-4.5-0.5-5.9c-0.5-1.4,0.4-2.7,1.7-3.5c0.8,0.4,1.6,0.9,2.4,1.4c0.6,0.4,4.1,2.8,5.3,5.8c1.9,4.8,0.6,7.4,0,8.4   c-1.2,1.9-2.8,3.3-5.2,3.6c-0.1,0-0.2,0-0.3,0c-0.8,0-1.4,0-2-0.1c-0.6-0.1-1.2-0.2-1.8-0.4c-0.5-0.2-1-0.4-1.5-0.6   c-1.5-0.7-5.4-2.9-8.7-6.5c-2.7-3-4.4-5.1-5.6-6.7c1.6,0.7,3.6,0.5,3.6,0.5c0,0,0.1-1.5,0.1-2.3l0.1-2.3c0,0,0.1-1.1,0.1-1.9   c0,0-4.8-0.3-5.7-2.6c0,0,1,0.6,2.6,0.7c1.4,0.1,3.2-0.2,3.2-0.2c0.2-0.4,0.3-4.2,0.3-4.2c0.1-0.4,0.1-2,0.1-2   c-0.8,0.2-2,0-3.4-0.3c-0.9-0.2-2.3-1.1-2.9-2c0,0,1,0.5,2.7,0.7c1.8,0.2,3.8-0.1,3.8-0.4c0.1-1,0.1-3.9,0.1-4c0,0,0.2-2.2,0.1-2.2   c-0.5,0.1-3.3,0-5.5-2.4c0,0-0.9-0.7,0-1.9c0,0-4.5-2-4.5-2c0,0,1-0.9,1-1.9c0-1.1-1.6-1.7-2.9-1.5c-1.2,0.2-2.2,1.5-2.2,1.5   l-5.6-2.5l-4.5,4.5c0,0-0.3,0.4-0.3,0.9l0.1,0.4c0,0.3-0.1,0.5-0.2,0.6c-0.4,0.5-0.9,1.1-1.3,1.6c-0.4,0.5-0.7,0.9-0.8,1.1   c-0.5,0.7-0.6,1.2-0.8,1.7c0,0-0.6,1.2,1.6,2.9l0.1,0.1c0,0,0.2-0.3,0.2-0.3l0.2,0.2c0.2,0.2,0.5,0.5,0.9,0.7c0,0,0.2-0.8,0.6-1.4   c0.4-0.6,1.2-1.3,1.7-1.6c0.7-0.4,1.4-0.7,2.2-0.7c0.7,0,1.1,0.2,1.6,0.7c0.7,0.7,1,2.5,0.7,3.3c-0.3-0.2-0.5-0.3-0.5-0.3   c-0.9-0.5-2.7-1.3-5-0.3c-0.8,0.4-2.2,1.1-4.7,1.8c-1.3,0.4-2.1,0.2-2.4-0.9c-0.2-1,0.3-1.7,0.3-1.7s-1.6,0.3-1.9,1.7   c-0.3,1.4,0.2,2.7,1.5,3c1.2,0.3,3.1-0.6,4.5-1.3c0.5-0.3,1.5-0.8,2.3-1.1c1.3-0.6,2.2-0.6,3.6,0c1,0.5,1.6,1.1,1.6,1.1   s-0.5,1.2-2.1,1.2c-1.3,0.1-2.4-0.6-2.8-1.3c0,0-0.3,0.7-0.4,0.9c-0.4,0.8,0.1,1.2-0.1,1.7c-0.2,0.5-1.1,1.2-1.7,1.5   c-0.8,0.6-2.2,1-2.6,1.1c0,0,0.9,1.9,1,2.2c0.4,0.8,1.2,2.6,1.9,3.3c0,0,1.6-0.3,2.7-1c1-0.6,1.8-1.3,2.1-1.9   c-1.5,3.4-2.6,4.6-3.5,5.2c-3.8,2.4-11.3,7.8-18.5,8.8c-2.1,0.1-5.5-3-6.4-4.1c-0.6-0.8-2,0.3-2,0.3s-2.8-0.5-4,1.4   c-0.2,0.3,1.5-0.3,2.5,0.1c0.7,0.2-0.3,0.6-0.3,1.3c0,1,3.1,1.8,4.3,2.2c0.4,0.1,0.4,0.5,0.2,0.5c-2.4-0.1-3.8-1.1-4.7-1.4   c-1.8-0.6-2.4-0.2-2.6,0.7c-0.1,0.7-2.3,0-2.6,3.9c0,0.4,2.3-2.6,2.5-1.6c0.5,3.1,5.9,0.5,7,1.4c0.7,0.5-5.5,0.5-4.6,2.4   c0.1,0.3-2.8,2.1-0.3,4.4c0,0,0.2-2.6,1.7-2.5c1.3,0.1,1.9,1.3,3.5,0.1c0.6-0.4,0.9-1,3-1.7c0.2,0,0.2,0.7,0.5,1.2   c0.2,0.3,0.8,0.3,0.8,0.6c0,1-1.2,1.8-1.2,1.9c0,0,1.4,0.8,2.7-1.6c0.2-0.4,0.7-0.1,1.2-0.2c1.8-0.6,0-1.7,1-2.7   c1.4-1.3,2.9-2,4.3-2.5c0,0-0.6,1.6,0.2,3.2l5.6-1.4c-0.6-1.4,0.3-3.3,1.5-4.7c0.3-0.3-0.7,3.5,0.1,4.3l5.5-1.4   c-0.4-0.9-0.2-2.3,0.2-3.4c0.6,2.5,1.8,5.2,4.4,6.3c4.1,1.8,7.8,2.6,13.8,4.4c1.6,0.5,3.4,1.1,4.2,1.5c1.2,0.6-0.6,1.9-0.6,1.9   c0.6,0.4,1.5,0.6,3.2,1.8c1.8,1.4,2.5,4,3.2,6.8c0.5,2.2,0.9,5.2,0.2,6.1c-0.4,0.5-0.8,0.9-3.2,1.4l0.5,2.1   c1.7,0.1,3.1-0.6,3.1-0.6s-0.2,0.1-0.3,0.4c-0.6,0.8-0.8,1.3-0.9,2.3l2.2,1.4c0.6-1.9,1.3-3.6,2-3.8c1-0.4,5.5,1.9,7.3,6.4   c1,2.6,0.6,8.1-2,8.6c-1.4,0.3-4.7-2.6-5.4-1.3c-0.7,1.4-4.6,1.2-3.2,5.1c0.7-1,1.6-2,2.3-1.8c0.4,0.1,0.4,0.7,0.8,1.1   c0.5,0.6,4.1-0.5,4.3,0.2c0.1,0.3-0.5,0.3-0.8,0.3c-1.8,0.3-4,0.6-4.3,1.4c-0.1,0.3,0.1,0.3-0.1,0.9c-0.4,1.1-2,1-1.9,3.5   c0.1,1.2,1.2,2.1,1.4,2.2c0.2,0-0.1-2.6,1-2.8c0.5-0.1,0.8,0.9,1.6,0.9c1.4-0.1,4.1-4.1,5.4-3.8c0.4,0.2-2.4,1.9-2.8,3.4   c-0.3,1.2,1.1,1.4,1.2,2.3c0,2,3.9,2.9,4.2,2.7c0.3-0.3-2.3-2.2-1.7-3.1c0.3-0.4,0.9,0.2,1.8-0.1c0.3-0.3-1.4-3,2-6.1   c0,0,0.7,1.2,1.9,1.4c1.1,0.1,0.4,2.7,0.6,2.7c0.2,0,1.6-1.7,1.3-3.7c0,0,0.9-0.7,1.1-1.3c0.5-1.9-1.9-0.6-1.7-5.6   c0-0.9-0.2-0.6-1-1.4c-0.4-0.4-0.6-1.1-0.2-1c1.3,0.6,2.9,0.1,2.9,0.1c0.5-4.9,0.1-5.3,0.1-5.3c-1.8,0-2.6-0.4-3.1-1   c1.2,0.3,2.5,0.1,3.1-0.4c0,0-0.1-5.2-0.5-5.1c-1.3,0.4-2.3,0.3-3.4-0.4c-0.9-0.6,0-2.2-1-2.4c-2.1-0.5-3.9-2-4.3-2.5   c-0.9-1.2-0.7-2-0.7-2c0.8,0.4,1.7,0.6,2.5,0.3l0.3-4.1c0,0-0.8-0.1-1.5-0.4c-0.8-0.4-1.4-1.4-1.4-1.4s0.7,0.3,1.5,0.4   c0.9,0.1,1.5-0.1,1.5-0.1l0.6-4.6c-2.5,0.2-2.5-1.3-2.5-1.6c4.6-0.8,7.4-5,8.3-8.6c0.5,0.3,1.6,0.7,2.5,0.4c0,0,0.2-3.1,0.1-3.6   C124,92.8,123,92.6,122.5,91.6"/>
</g>
</svg>