<?xml version="1.0" encoding="UTF-8" standalone="no"?>
<!DOCTYPE svg PUBLIC "-//W3C//DTD SVG 1.1//EN" "http://www.w3.org/Graphics/SVG/1.1/DTD/svg11.dtd">
<svg xmlns="http://www.w3.org/2000/svg" version="1.1" viewBox="0.00 0.00 232.00 234.00">
<g stroke-width="2.00" fill="none" stroke-linecap="butt">
<path stroke="#a7bbb7" vector-effect="non-scaling-stroke" d="
  M 107.30 22.47
  Q 106.10 23.22 105.83 24.00
  A 2.26 2.04 23.6 0 0 107.00 26.59
  Q 108.07 27.12 108.97 26.48
  Q 111.14 24.96 118.37 19.31
  A 0.22 0.22 0.0 0 0 118.33 18.94
  L 108.70 14.55
  A 1.45 1.35 -34.2 0 0 107.93 14.43
  Q 106.08 14.66 105.71 16.13
  Q 105.63 16.48 105.78 16.78
  Q 106.00 17.24 106.01 17.34
  A 0.67 0.66 -3.3 0 1 105.41 18.01
  Q 65.19 21.78 39.04 52.56
  C 24.89 69.22 16.39 92.17 17.45 114.09
  A 1.61 1.61 0.0 0 0 18.86 115.62
  L 19.30 115.68
  A 1.86 1.86 0.0 0 0 21.39 113.83
  C 21.43 73.32 48.00 37.80 86.41 25.97
  Q 97.23 22.64 107.21 22.17
  A 0.16 0.16 0.0 0 1 107.30 22.47"
/>
<path stroke="#e0f2ee" vector-effect="non-scaling-stroke" d="
  M 45.60 102.75
  Q 50.57 87.52 63.53 77.77
  A 8.21 8.17 86.0 0 0 65.79 75.16
  Q 74.29 59.63 89.10 51.17
  Q 95.30 47.63 100.51 46.65
  A 0.26 0.26 0.0 0 0 100.69 46.26
  L 100.49 45.93
  A 0.06 0.05 69.2 0 0 100.43 45.90
  Q 78.06 50.43 62.68 66.69
  Q 48.71 81.46 45.02 102.52
  A 0.35 0.34 -79.2 0 0 45.28 102.91
  L 45.30 102.92
  A 0.26 0.25 14.9 0 0 45.60 102.75"
/>
<path stroke="#caebe4" vector-effect="non-scaling-stroke" d="
  M 163.41 78.28
  Q 175.87 87.85 180.78 102.86
  A 0.07 0.07 0.0 0 0 180.86 102.91
  L 181.11 102.89
  A 0.25 0.25 0.0 0 0 181.34 102.60
  Q 177.74 81.33 162.86 65.91"
/>
<path stroke="#e0f2ee" vector-effect="non-scaling-stroke" d="
  M 162.86 65.91
  Q 148.07 50.72 126.89 46.06
  Q 126.10 45.88 125.48 46.07
  A 0.25 0.25 0.0 0 0 125.44 46.54
  C 126.49 47.06 129.04 47.27 130.96 48.13
  Q 148.72 56.05 157.75 70.75
  Q 161.12 76.22 163.41 78.28"
/>
<path stroke="#abddd2" vector-effect="non-scaling-stroke" d="
  M 162.86 65.91
  L 163.41 78.28"
/>
<path stroke="#e0f2ee" vector-effect="non-scaling-stroke" d="
  M 95.42 63.49
  Q 102.99 61.92 111.74 61.81
  A 0.64 0.63 89.5 0 0 112.36 61.17
  L 112.36 47.45
  A 0.61 0.60 88.7 0 0 111.73 46.84
  C 104.09 47.17 98.19 56.83 95.18 63.18
  A 0.22 0.22 0.0 0 0 95.42 63.49"
/>
<path stroke="#e0f2ee" vector-effect="non-scaling-stroke" d="
  M 130.91 63.51
  A 0.22 0.22 0.0 0 0 131.15 63.20
  C 128.14 56.85 122.25 47.18 114.61 46.84
  A 0.61 0.60 -88.6 0 0 113.98 47.45
  L 113.97 61.17
  A 0.64 0.63 -89.5 0 0 114.59 61.81
  Q 123.34 61.93 130.91 63.51"
/>
<path stroke="#e0f2ee" vector-effect="non-scaling-stroke" d="
  M 104.84 47.62
  A 0.25 0.25 0.0 0 0 104.64 47.17
  C 89.01 50.39 76.51 60.58 68.39 74.08
  A 0.10 0.09 89.5 0 0 68.52 74.21
  C 75.91 69.52 83.79 66.44 92.48 63.93
  A 1.38 1.38 0.0 0 0 93.36 63.16
  C 95.99 57.15 99.76 51.37 104.84 47.62"
/>
<path stroke="#e0f2ee" vector-effect="non-scaling-stroke" d="
  M 121.48 47.64
  C 126.58 51.41 130.36 57.21 132.99 63.25
  A 1.39 1.39 0.0 0 0 133.87 64.02
  C 142.59 66.55 150.50 69.65 157.91 74.36
  A 0.10 0.09 -89.4 0 0 158.04 74.23
  C 149.91 60.67 137.37 50.43 121.69 47.19
  A 0.25 0.25 0.0 0 0 121.48 47.64"
/>
<path stroke="#e0f2ee" vector-effect="non-scaling-stroke" d="
  M 88.31 88.11
  Q 99.73 86.39 111.70 86.29
  A 0.67 0.67 0.0 0 0 112.36 85.62
  L 112.36 63.94
  A 0.59 0.59 0.0 0 0 111.77 63.35
  Q 102.95 63.38 94.69 65.25
  A 1.18 1.18 0.0 0 0 93.88 65.94
  Q 89.78 76.00 87.78 87.57
  A 0.47 0.47 0.0 0 0 88.31 88.11"
/>
<path stroke="#e0f2ee" vector-effect="non-scaling-stroke" d="
  M 138.00 88.12
  A 0.47 0.46 89.6 0 0 138.54 87.58
  Q 136.55 76.01 132.46 65.95
  A 1.18 1.18 0.0 0 0 131.65 65.26
  Q 123.40 63.38 114.58 63.34
  A 0.59 0.59 0.0 0 0 113.99 63.93
  L 113.97 85.60
  A 0.67 0.67 0.0 0 0 114.63 86.27
  Q 126.59 86.38 138.00 88.12"
/>
<path stroke="#e0f2ee" vector-effect="non-scaling-stroke" d="
  M 60.04 96.15
  Q 71.30 90.93 85.42 88.56
  A 0.82 0.81 89.6 0 0 86.08 87.88
  Q 87.84 76.72 91.88 66.42
  A 0.31 0.31 0.0 0 0 91.52 66.00
  Q 78.27 69.12 67.41 76.76
  A 4.16 3.91 -1.8 0 0 66.46 77.71
  C 63.08 82.56 60.58 90.86 59.62 95.83
  A 0.30 0.29 -7.0 0 0 60.04 96.15"
/>
<path stroke="#caebe4" vector-effect="non-scaling-stroke" d="
  M 161.23 93.90
  L 166.05 96.01
  A 0.27 0.27 0.0 0 0 166.42 95.68
  L 163.42 85.56"
/>
<path stroke="#e0f2ee" vector-effect="non-scaling-stroke" d="
  M 163.42 85.56
  Q 161.37 79.85 160.20 78.30
  Q 159.01 76.72 156.72 75.26
  Q 146.41 68.70 134.29 65.87
  A 0.08 0.08 0.0 0 0 134.20 65.98
  Q 138.29 76.39 140.14 87.85
  A 0.80 0.80 0.0 0 0 140.79 88.51
  Q 151.01 90.38 161.23 93.90"
/>
<path stroke="#abddd2" vector-effect="non-scaling-stroke" d="
  M 163.42 85.56
  L 161.23 93.90"
/>
<path stroke="#e0f2ee" vector-effect="non-scaling-stroke" d="
  M 46.87 105.87
  Q 51.19 100.97 56.66 98.06
  A 1.78 1.77 84.3 0 0 57.53 96.99
  Q 58.27 94.44 58.54 93.26
  Q 60.02 86.83 63.03 80.22
  A 0.06 0.06 0.0 0 0 62.94 80.15
  Q 50.23 90.54 46.41 105.62
  A 0.27 0.27 0.0 0 0 46.87 105.87"
/>
<path stroke="#caebe4" vector-effect="non-scaling-stroke" d="
  M 178.97 105.39
  A 0.27 0.26 -73.2 0 0 179.42 105.14
  Q 175.69 90.30 163.20 80.06
  A 0.06 0.06 0.0 0 0 163.12 80.13
  Q 166.07 86.64 167.51 92.97
  Q 167.78 94.13 168.50 96.64
  A 1.75 1.74 -84.2 0 0 169.35 97.69
  Q 174.73 100.56 178.97 105.39"
/>
<path stroke="#a7bbb7" vector-effect="non-scaling-stroke" d="
  M 100.30 112.75
  L 100.33 114.30"
/>
<path stroke="#e0f2ee" vector-effect="non-scaling-stroke" d="
  M 100.33 114.30
  L 86.20 114.53
  A 0.54 0.54 0.0 0 0 85.67 115.07
  Q 85.69 126.07 87.38 137.07
  A 0.58 0.58 0.0 0 0 87.85 137.54
  Q 99.62 139.34 111.77 139.42
  A 0.51 0.51 0.0 0 0 112.28 138.91
  L 112.29 117.91"
/>
<path stroke="#a7bbb7" vector-effect="non-scaling-stroke" d="
  M 112.29 117.91
  L 114.20 120.17"
/>
<path stroke="#e0f2ee" vector-effect="non-scaling-stroke" d="
  M 114.20 120.17
  L 114.12 138.86
  A 0.50 0.50 0.0 0 0 114.65 139.37
  L 123.60 138.97"
/>
<path stroke="#caebe4" vector-effect="non-scaling-stroke" d="
  M 123.60 138.97
  L 138.36 137.46
  A 0.66 0.66 0.0 0 0 138.95 136.89
  L 139.96 128.57"
/>
<path stroke="#e0f2ee" vector-effect="non-scaling-stroke" d="
  M 139.96 128.57
  L 140.60 114.83
  A 0.33 0.33 0.0 0 0 140.27 114.48
  L 117.66 114.48"
/>
<path stroke="#a7bbb7" vector-effect="non-scaling-stroke" d="
  M 117.66 114.48
  L 117.67 112.77"
/>
<path stroke="#e0f2ee" vector-effect="non-scaling-stroke" d="
  M 117.67 112.77
  L 140.19 112.76
  A 0.46 0.46 0.0 0 0 140.65 112.30
  Q 140.59 101.17 138.96 90.11
  A 0.46 0.46 0.0 0 0 138.57 89.72
  Q 126.39 87.87 114.35 87.85
  A 0.39 0.39 0.0 0 0 113.96 88.23
  L 113.53 99.20"
/>
<path stroke="#a7bbb7" vector-effect="non-scaling-stroke" d="
  M 113.53 99.20
  L 112.94 110.91
  A 0.26 0.25 19.7 0 1 112.53 111.10
  Q 111.66 110.42 111.62 109.85"
/>
<path stroke="#e0f2ee" vector-effect="non-scaling-stroke" d="
  M 111.62 109.85
  L 112.36 88.28
  A 0.41 0.40 1.3 0 0 111.95 87.86
  Q 99.87 87.86 87.74 89.72
  A 0.42 0.42 0.0 0 0 87.40 90.06
  Q 85.65 101.22 85.63 112.41
  A 0.36 0.36 0.0 0 0 85.99 112.77
  L 100.30 112.75"
/>
<path stroke="#88ada5" vector-effect="non-scaling-stroke" d="
  M 111.62 109.85
  L 101.08 98.73
  A 0.43 0.43 0.0 0 0 100.34 99.03
  L 100.30 112.75"
/>
<path stroke="#88ada5" vector-effect="non-scaling-stroke" d="
  M 117.66 114.48
  L 117.61 122.12
  A 0.59 0.58 -67.8 0 1 116.62 122.54
  L 114.20 120.17"
/>
<path stroke="#88ada5" vector-effect="non-scaling-stroke" d="
  M 112.29 117.91
  L 109.23 114.40"
/>
<path stroke="#a7bbb7" vector-effect="non-scaling-stroke" d="
  M 109.23 114.40
  L 105.43 110.26
  A 0.22 0.22 0.0 0 0 105.05 110.40
  L 104.93 114.49"
/>
<path stroke="#88ada5" vector-effect="non-scaling-stroke" d="
  M 104.93 114.49
  L 104.91 121.53
  A 0.54 0.54 0.0 0 1 104.37 122.07
  L 100.83 122.07
  A 0.55 0.54 0.0 0 1 100.28 121.53
  L 100.33 114.30"
/>
<path stroke="#88ada5" vector-effect="non-scaling-stroke" d="
  M 117.67 112.77
  L 117.60 99.85
  A 0.54 0.54 0.0 0 0 117.08 99.31
  L 113.53 99.20"
/>
<path stroke="#abddd2" vector-effect="non-scaling-stroke" d="
  M 139.96 128.57
  Q 132.43 134.70 123.60 138.97"
/>
<path stroke="#e0f2ee" vector-effect="non-scaling-stroke" d="
  M 109.23 114.40
  L 104.93 114.49"
/>
<path stroke="#a7bbb7" vector-effect="non-scaling-stroke" d="
  M 62.01 112.80
  L 61.26 114.49"
/>
<path stroke="#e0f2ee" vector-effect="non-scaling-stroke" d="
  M 61.26 114.49
  L 58.27 114.52
  A 0.52 0.52 0.0 0 0 57.75 115.03
  Q 57.68 118.04 58.59 120.84"
/>
<path stroke="#a7bbb7" vector-effect="non-scaling-stroke" d="
  M 58.59 120.84
  L 58.33 121.88"
/>
<path stroke="#e0f2ee" vector-effect="non-scaling-stroke" d="
  M 58.33 121.88
  L 58.98 128.17
  A 1.51 1.50 8.8 0 0 59.89 129.40
  Q 74.12 135.48 85.15 136.97
  A 0.39 0.39 0.0 0 0 85.59 136.53
  Q 84.03 126.02 83.99 115.16
  A 0.58 0.58 0.0 0 0 83.42 114.58
  L 74.97 114.54"
/>
<path stroke="#a7bbb7" vector-effect="non-scaling-stroke" d="
  M 74.97 114.54
  L 74.30 112.94"
/>
<path stroke="#e0f2ee" vector-effect="non-scaling-stroke" d="
  M 74.30 112.94
  L 83.45 112.69
  A 0.53 0.53 0.0 0 0 83.97 112.15
  Q 83.90 101.26 85.58 90.71
  A 0.38 0.37 1.1 0 0 85.16 90.28
  Q 71.62 92.14 59.94 98.10
  A 1.99 1.97 -10.2 0 0 58.88 99.61
  L 57.34 111.71
  A 0.80 0.80 0.0 0 0 58.09 112.61
  L 62.01 112.80"
/>
<path stroke="#88ada5" vector-effect="non-scaling-stroke" d="
  M 74.30 112.94
  L 68.48 98.57
  A 0.37 0.37 0.0 0 0 67.80 98.57
  L 62.01 112.80"
/>
<path stroke="#88ada5" vector-effect="non-scaling-stroke" d="
  M 74.97 114.54
  L 77.85 121.39
  A 0.44 0.44 0.0 0 1 77.44 122.00
  L 73.29 122.00
  A 0.90 0.90 0.0 0 1 72.39 121.19
  L 72.32 120.31
  A 0.86 0.86 0.0 0 0 71.46 119.53
  L 64.84 119.53
  A 0.95 0.94 0.0 0 0 63.89 120.47
  L 63.89 121.07
  A 0.82 0.82 0.0 0 1 63.07 121.89
  L 58.33 121.88"
/>
<path stroke="#88ada5" vector-effect="non-scaling-stroke" d="
  M 58.59 120.84
  L 61.26 114.49"
/>
<path stroke="#a7bbb7" vector-effect="non-scaling-stroke" d="
  M 141.98 99.24
  L 142.14 121.62
  A 0.54 0.54 0.0 0 0 142.65 122.16
  L 145.82 122.30"
/>
<path stroke="#caebe4" vector-effect="non-scaling-stroke" d="
  M 145.82 122.30
  Q 144.89 123.70 142.89 123.32
  A 0.45 0.45 0.0 0 0 142.36 123.71
  L 140.71 136.65
  A 0.39 0.39 0.0 0 0 141.16 137.08
  Q 154.37 134.78 166.47 129.33
  A 1.45 1.43 81.6 0 0 167.31 128.19
  L 168.92 115.51
  A 0.84 0.83 3.6 0 0 168.09 114.57
  L 151.25 114.65"
/>
<path stroke="#e0f2ee" vector-effect="non-scaling-stroke" d="
  M 151.25 114.65
  L 146.76 114.59"
/>
<path stroke="#a7bbb7" vector-effect="non-scaling-stroke" d="
  M 146.76 114.59
  Q 146.33 113.52 147.00 113.52
  Q 151.29 113.53 154.60 112.56"
/>
<path stroke="#caebe4" vector-effect="non-scaling-stroke" d="
  M 154.60 112.56
  L 168.21 112.77
  A 0.43 0.43 0.0 0 0 168.65 112.30
  L 167.51 99.50
  A 1.58 1.57 10.4 0 0 166.62 98.22
  L 160.91 95.51"
/>
<path stroke="#e0f2ee" vector-effect="non-scaling-stroke" d="
  M 160.91 95.51
  Q 151.54 91.83 141.05 90.24
  A 0.39 0.39 0.0 0 0 140.61 90.69
  L 141.98 99.24"
/>
<path stroke="#abddd2" vector-effect="non-scaling-stroke" d="
  M 160.91 95.51
  L 157.39 104.07"
/>
<path stroke="#88ada5" vector-effect="non-scaling-stroke" d="
  M 157.39 104.07
  Q 155.73 99.50 151.75 99.23
  Q 148.25 98.99 141.98 99.24"
/>
<path stroke="#71a69b" vector-effect="non-scaling-stroke" d="
  M 154.60 112.56
  Q 158.61 108.63 157.39 104.07"
/>
<path stroke="#88ada5" vector-effect="non-scaling-stroke" d="
  M 146.76 114.59
  L 146.72 121.13"
/>
<path stroke="#71a69b" vector-effect="non-scaling-stroke" d="
  M 146.72 121.13
  Q 146.64 121.90 145.82 122.30"
/>
<path stroke="#abddd2" vector-effect="non-scaling-stroke" d="
  M 151.25 114.65
  Q 149.95 118.31 146.72 121.13"
/>
<path stroke="#caebe4" vector-effect="non-scaling-stroke" d="
  M 179.51 108.68
  C 177.91 107.09 176.49 104.92 175.00 103.60
  Q 172.59 101.48 169.60 99.81
  A 0.23 0.23 0.0 0 0 169.26 100.03
  L 170.33 112.13
  A 0.58 0.58 0.0 0 0 170.91 112.66
  L 179.69 112.68"
/>
<path stroke="#a7bbb7" vector-effect="non-scaling-stroke" d="
  M 179.69 112.68
  L 180.17 114.52"
/>
<path stroke="#caebe4" vector-effect="non-scaling-stroke" d="
  M 180.17 114.52
  L 170.99 114.57
  A 0.29 0.29 0.0 0 0 170.70 114.83
  L 169.14 127.09
  A 0.34 0.34 0.0 0 0 169.64 127.44
  Q 177.55 123.35 180.54 115.43"
/>
<path stroke="#a7bbb7" vector-effect="non-scaling-stroke" d="
  M 180.54 115.43
  C 183.26 121.35 189.96 123.48 195.84 121.12
  A 0.33 0.32 -13.3 0 0 196.05 120.79
  L 195.67 116.63
  A 0.23 0.23 0.0 0 0 195.35 116.43
  Q 189.63 118.77 186.37 115.40
  C 183.64 112.57 183.79 107.67 186.79 105.07
  Q 189.83 102.44 194.88 104.19
  A 0.19 0.19 0.0 0 0 195.13 104.04
  L 195.67 99.77
  A 0.30 0.29 10.5 0 0 195.44 99.44
  Q 182.48 96.69 179.51 108.68"
/>
<path stroke="#71a69b" vector-effect="non-scaling-stroke" d="
  M 180.54 115.43
  Q 180.45 114.98 180.17 114.52"
/>
<path stroke="#71a69b" vector-effect="non-scaling-stroke" d="
  M 179.69 112.68
  L 179.51 108.68"
/>
<path stroke="#a7bbb7" vector-effect="non-scaling-stroke" d="
  M 35.89 99.49
  A 0.37 0.37 0.0 0 0 35.52 99.12
  L 31.68 99.12
  A 0.37 0.37 0.0 0 0 31.31 99.49
  L 31.31 121.61
  A 0.37 0.37 0.0 0 0 31.68 121.98
  L 35.52 121.98
  A 0.37 0.37 0.0 0 0 35.89 121.61
  L 35.89 99.49"
/>
<path stroke="#e0f2ee" vector-effect="non-scaling-stroke" d="
  M 56.72 99.82
  Q 52.66 102.13 49.54 105.41
  Q 47.06 108.01 45.82 112.44
  A 0.20 0.19 7.6 0 0 46.01 112.69
  L 55.44 112.70
  A 0.27 0.27 0.0 0 0 55.71 112.45
  L 56.86 99.91
  A 0.09 0.09 0.0 0 0 56.72 99.82"
/>
<path stroke="#a7bbb7" vector-effect="non-scaling-stroke" d="
  M 117.99 209.48
  Q 142.61 207.86 162.25 196.03
  C 191.12 178.64 209.31 147.70 209.06 113.67
  A 1.97 1.97 0.0 0 0 207.02 111.72
  L 206.94 111.72
  A 2.13 2.13 0.0 0 0 204.89 113.83
  Q 204.52 147.19 183.42 172.39
  C 167.35 191.59 143.67 203.31 118.87 204.85
  A 0.52 0.52 0.0 0 1 118.32 204.29
  Q 118.34 204.02 118.65 203.64
  Q 119.01 203.21 118.53 202.41
  Q 117.30 200.31 115.08 201.64
  Q 109.14 205.17 106.07 207.02
  A 0.43 0.43 0.0 0 0 106.08 207.76
  L 115.84 213.39
  A 0.83 0.82 -35.0 0 0 116.42 213.49
  Q 118.48 213.07 118.53 211.02
  A 0.75 0.75 0.0 0 0 118.15 210.35
  L 117.83 210.17
  A 0.37 0.37 0.0 0 1 117.99 209.48"
/>
<path stroke="#e0f2ee" vector-effect="non-scaling-stroke" d="
  M 56.90 127.73
  A 0.10 0.09 -76.7 0 0 57.04 127.64
  L 55.89 114.76
  A 0.28 0.28 0.0 0 0 55.61 114.50
  L 45.93 114.50
  A 0.20 0.20 0.0 0 0 45.73 114.75
  Q 47.00 119.30 49.54 121.98
  Q 52.74 125.35 56.90 127.73"
/>
<path stroke="#caebe4" vector-effect="non-scaling-stroke" d="
  M 181.34 120.36
  C 180.65 132.09 170.89 143.54 161.95 150.49
  A 4.75 4.69 87.0 0 0 160.82 151.76
  C 152.63 165.45 142.92 175.18 127.64 180.36
  C 125.18 181.20 122.28 181.37 119.81 182.28
  A 2.00 1.92 -53.0 0 1 119.01 182.41
  L 114.23 182.15
  A 0.26 0.13 9.6 0 0 114.06 182.20
  Q 114.04 182.21 113.97 182.22
  A 0.09 0.07 -40.5 0 0 113.94 182.37
  Q 115.50 182.32 118.99 182.65
  A 2.62 2.56 35.6 0 0 120.29 182.45
  C 122.40 181.56 124.65 181.90 126.76 181.40
  Q 141.69 177.90 151.90 170.88
  Q 176.28 154.10 181.73 123.43
  Q 181.97 122.04 181.51 120.35
  A 0.09 0.09 0.0 0 0 181.34 120.36"
/>
<path stroke="#caebe4" vector-effect="non-scaling-stroke" d="
  M 179.18 121.93
  Q 174.90 126.72 169.49 129.56
  A 1.75 1.74 84.6 0 0 168.63 130.60
  Q 167.88 133.11 167.61 134.27
  Q 166.11 140.59 163.11 147.08
  A 0.06 0.06 0.0 0 0 163.19 147.15
  Q 175.77 137.00 179.63 122.18
  A 0.27 0.26 73.7 0 0 179.18 121.93"
/>
<path stroke="#caebe4" vector-effect="non-scaling-stroke" d="
  M 48.88 128.57
  Q 53.86 139.91 63.02 147.22
  A 0.11 0.11 0.0 0 0 63.19 147.10
  L 58.75 135.08"
/>
<path stroke="#e0f2ee" vector-effect="non-scaling-stroke" d="
  M 58.75 135.08
  L 57.83 130.92
  A 2.13 2.12 -81.9 0 0 56.80 129.54
  Q 51.15 126.45 47.08 121.82
  A 0.17 0.16 -74.7 0 0 46.80 121.98
  L 48.88 128.57"
/>
<path stroke="#abddd2" vector-effect="non-scaling-stroke" d="
  M 58.75 135.08
  L 48.88 128.57"
/>
<path stroke="#e0f2ee" vector-effect="non-scaling-stroke" d="
  M 104.38 181.80
  Q 107.86 183.50 111.91 182.46
  A 0.04 0.04 0.0 0 0 111.91 182.38
  L 104.38 181.80"
/>
<path stroke="#caebe4" vector-effect="non-scaling-stroke" d="
  M 104.38 181.80
  Q 85.30 177.84 72.91 162.56
  Q 68.75 157.44 65.67 152.14
  A 5.46 5.33 -85.7 0 0 64.46 150.70
  C 55.49 143.17 48.87 135.63 45.56 124.48
  A 0.20 0.20 0.0 0 0 45.36 124.35
  L 45.05 124.38
  A 0.25 0.24 82.6 0 0 44.83 124.67
  Q 49.82 150.69 68.58 166.51
  Q 82.62 178.34 101.32 181.40
  Q 102.89 181.66 104.38 181.80"
/>
<path stroke="#caebe4" vector-effect="non-scaling-stroke" d="
  M 61.10 136.84
  Q 63.09 143.70 66.10 149.17
  A 3.72 3.58 4.3 0 0 67.19 150.39
  Q 78.08 158.08 91.38 161.21
  A 0.30 0.29 88.7 0 0 91.73 160.84
  L 87.05 144.90"
/>
<path stroke="#e0f2ee" vector-effect="non-scaling-stroke" d="
  M 87.05 144.90
  L 85.93 139.43
  A 0.73 0.72 88.3 0 0 85.32 138.85
  Q 72.15 136.83 60.08 131.39
  A 0.26 0.26 0.0 0 0 59.72 131.69
  L 61.10 136.84"
/>
<path stroke="#abddd2" vector-effect="non-scaling-stroke" d="
  M 87.05 144.90
  Q 73.74 143.61 61.10 136.84"
/>
<path stroke="#caebe4" vector-effect="non-scaling-stroke" d="
  M 166.19 131.38
  Q 154.97 136.51 140.91 138.81
  A 0.82 0.80 89.8 0 0 140.25 139.48
  Q 138.45 150.57 134.38 160.79
  A 0.31 0.31 0.0 0 0 134.74 161.21
  Q 147.93 158.17 158.77 150.62
  A 4.14 3.89 -1.5 0 0 159.72 149.68
  C 163.10 144.88 165.63 136.63 166.60 131.70
  A 0.30 0.29 -6.8 0 0 166.19 131.38"
/>
<path stroke="#caebe4" vector-effect="non-scaling-stroke" d="
  M 88.86 144.77
  Q 90.40 153.08 93.95 161.39
  A 1.15 1.14 84.8 0 0 94.75 162.06
  Q 103.16 163.93 111.75 163.89
  A 0.58 0.58 0.0 0 0 112.32 163.31
  L 112.30 142.82"
/>
<path stroke="#e0f2ee" vector-effect="non-scaling-stroke" d="
  M 112.30 142.82
  L 112.36 141.38
  A 0.41 0.41 0.0 0 0 111.93 140.95
  Q 99.82 141.36 88.31 139.32
  A 0.39 0.38 -0.4 0 0 87.86 139.77
  L 88.86 144.77"
/>
<path stroke="#abddd2" vector-effect="non-scaling-stroke" d="
  M 112.30 142.82
  Q 107.96 144.28 102.36 144.83
  Q 94.96 145.56 88.86 144.77"
/>
<path stroke="#caebe4" vector-effect="non-scaling-stroke" d="
  M 137.94 139.38
  Q 126.60 141.07 114.72 141.15
  A 0.67 0.67 0.0 0 0 114.06 141.81
  L 114.03 163.33
  A 0.59 0.59 0.0 0 0 114.61 163.92
  Q 123.37 163.90 131.57 162.06
  A 1.17 1.17 0.0 0 0 132.37 161.38
  Q 136.46 151.40 138.46 139.92
  A 0.46 0.46 0.0 0 0 137.94 139.38"
/>
<path stroke="#caebe4" vector-effect="non-scaling-stroke" d="
  M 104.68 179.65
  C 99.64 175.96 95.89 170.25 93.26 164.31
  A 1.37 1.37 0.0 0 0 92.39 163.55
  C 83.78 161.10 75.97 158.08 68.64 153.46
  A 0.09 0.09 0.0 0 0 68.51 153.59
  C 76.60 166.92 89.00 176.96 104.48 180.10
  A 0.25 0.25 0.0 0 0 104.68 179.65"
/>
<path stroke="#caebe4" vector-effect="non-scaling-stroke" d="
  M 121.68 179.52
  A 0.25 0.25 0.0 0 0 121.87 179.96
  C 137.19 176.88 149.48 166.97 157.49 153.79
  A 0.09 0.09 0.0 0 0 157.37 153.66
  C 150.11 158.21 142.38 161.19 133.86 163.61
  A 1.36 1.35 4.0 0 0 132.99 164.36
  C 130.39 170.23 126.67 175.87 121.68 179.52"
/>
<path stroke="#caebe4" vector-effect="non-scaling-stroke" d="
  M 95.51 164.08
  A 0.22 0.22 0.0 0 0 95.28 164.38
  C 98.29 170.66 104.18 180.20 111.75 180.49
  A 0.60 0.60 0.0 0 0 112.37 179.88
  L 112.30 166.29
  A 0.63 0.62 -89.8 0 0 111.68 165.66
  Q 103.02 165.59 95.51 164.08"
/>
<path stroke="#caebe4" vector-effect="non-scaling-stroke" d="
  M 130.82 164.04
  Q 123.32 165.57 114.67 165.64
  A 0.63 0.62 89.8 0 0 114.05 166.27
  L 114.00 179.84
  A 0.60 0.59 88.9 0 0 114.62 180.45
  C 122.18 180.15 128.05 170.62 131.05 164.35
  A 0.22 0.22 0.0 0 0 130.82 164.04"
/>
<path stroke="#a7bbb7" vector-effect="non-scaling-stroke" d="
  M 68.11 115.07
  Q 68.57 115.08 69.54 115.15
  A 0.43 0.43 0.0 0 0 69.98 114.57
  Q 68.19 109.84 68.14 109.84
  Q 68.09 109.84 66.24 114.55
  A 0.43 0.43 0.0 0 0 66.67 115.13
  Q 67.64 115.07 68.11 115.07"
/>
<path stroke="#88ada5" vector-effect="non-scaling-stroke" d="
  M 146.65 104.04
  L 146.63 108.44
  A 0.36 0.36 0.0 0 0 146.99 108.81
  L 150.52 108.82
  A 2.39 2.36 0.3 0 0 152.92 106.48
  L 152.92 106.08
  A 2.39 2.36 0.3 0 0 150.54 103.70
  L 147.01 103.69
  A 0.36 0.36 0.0 0 0 146.65 104.04"
/>
</g>
<path fill="#ffffff" d="
  M 232.00 0.00
  L 232.00 234.00
  L 0.00 234.00
  L 0.00 0.00
  L 232.00 0.00
  Z
  M 107.30 22.47
  Q 106.10 23.22 105.83 24.00
  A 2.26 2.04 23.6 0 0 107.00 26.59
  Q 108.07 27.12 108.97 26.48
  Q 111.14 24.96 118.37 19.31
  A 0.22 0.22 0.0 0 0 118.33 18.94
  L 108.70 14.55
  A 1.45 1.35 -34.2 0 0 107.93 14.43
  Q 106.08 14.66 105.71 16.13
  Q 105.63 16.48 105.78 16.78
  Q 106.00 17.24 106.01 17.34
  A 0.67 0.66 -3.3 0 1 105.41 18.01
  Q 65.19 21.78 39.04 52.56
  C 24.89 69.22 16.39 92.17 17.45 114.09
  A 1.61 1.61 0.0 0 0 18.86 115.62
  L 19.30 115.68
  A 1.86 1.86 0.0 0 0 21.39 113.83
  C 21.43 73.32 48.00 37.80 86.41 25.97
  Q 97.23 22.64 107.21 22.17
  A 0.16 0.16 0.0 0 1 107.30 22.47
  Z
  M 45.60 102.75
  Q 50.57 87.52 63.53 77.77
  A 8.21 8.17 86.0 0 0 65.79 75.16
  Q 74.29 59.63 89.10 51.17
  Q 95.30 47.63 100.51 46.65
  A 0.26 0.26 0.0 0 0 100.69 46.26
  L 100.49 45.93
  A 0.06 0.05 69.2 0 0 100.43 45.90
  Q 78.06 50.43 62.68 66.69
  Q 48.71 81.46 45.02 102.52
  A 0.35 0.34 -79.2 0 0 45.28 102.91
  L 45.30 102.92
  A 0.26 0.25 14.9 0 0 45.60 102.75
  Z
  M 163.41 78.28
  Q 175.87 87.85 180.78 102.86
  A 0.07 0.07 0.0 0 0 180.86 102.91
  L 181.11 102.89
  A 0.25 0.25 0.0 0 0 181.34 102.60
  Q 177.74 81.33 162.86 65.91
  Q 148.07 50.72 126.89 46.06
  Q 126.10 45.88 125.48 46.07
  A 0.25 0.25 0.0 0 0 125.44 46.54
  C 126.49 47.06 129.04 47.27 130.96 48.13
  Q 148.72 56.05 157.75 70.75
  Q 161.12 76.22 163.41 78.28
  Z
  M 95.42 63.49
  Q 102.99 61.92 111.74 61.81
  A 0.64 0.63 89.5 0 0 112.36 61.17
  L 112.36 47.45
  A 0.61 0.60 88.7 0 0 111.73 46.84
  C 104.09 47.17 98.19 56.83 95.18 63.18
  A 0.22 0.22 0.0 0 0 95.42 63.49
  Z
  M 130.91 63.51
  A 0.22 0.22 0.0 0 0 131.15 63.20
  C 128.14 56.85 122.25 47.18 114.61 46.84
  A 0.61 0.60 -88.6 0 0 113.98 47.45
  L 113.97 61.17
  A 0.64 0.63 -89.5 0 0 114.59 61.81
  Q 123.34 61.93 130.91 63.51
  Z
  M 104.84 47.62
  A 0.25 0.25 0.0 0 0 104.64 47.17
  C 89.01 50.39 76.51 60.58 68.39 74.08
  A 0.10 0.09 89.5 0 0 68.52 74.21
  C 75.91 69.52 83.79 66.44 92.48 63.93
  A 1.38 1.38 0.0 0 0 93.36 63.16
  C 95.99 57.15 99.76 51.37 104.84 47.62
  Z
  M 121.48 47.64
  C 126.58 51.41 130.36 57.21 132.99 63.25
  A 1.39 1.39 0.0 0 0 133.87 64.02
  C 142.59 66.55 150.50 69.65 157.91 74.36
  A 0.10 0.09 -89.4 0 0 158.04 74.23
  C 149.91 60.67 137.37 50.43 121.69 47.19
  A 0.25 0.25 0.0 0 0 121.48 47.64
  Z
  M 88.31 88.11
  Q 99.73 86.39 111.70 86.29
  A 0.67 0.67 0.0 0 0 112.36 85.62
  L 112.36 63.94
  A 0.59 0.59 0.0 0 0 111.77 63.35
  Q 102.95 63.38 94.69 65.25
  A 1.18 1.18 0.0 0 0 93.88 65.94
  Q 89.78 76.00 87.78 87.57
  A 0.47 0.47 0.0 0 0 88.31 88.11
  Z
  M 138.00 88.12
  A 0.47 0.46 89.6 0 0 138.54 87.58
  Q 136.55 76.01 132.46 65.95
  A 1.18 1.18 0.0 0 0 131.65 65.26
  Q 123.40 63.38 114.58 63.34
  A 0.59 0.59 0.0 0 0 113.99 63.93
  L 113.97 85.60
  A 0.67 0.67 0.0 0 0 114.63 86.27
  Q 126.59 86.38 138.00 88.12
  Z
  M 60.04 96.15
  Q 71.30 90.93 85.42 88.56
  A 0.82 0.81 89.6 0 0 86.08 87.88
  Q 87.84 76.72 91.88 66.42
  A 0.31 0.31 0.0 0 0 91.52 66.00
  Q 78.27 69.12 67.41 76.76
  A 4.16 3.91 -1.8 0 0 66.46 77.71
  C 63.08 82.56 60.58 90.86 59.62 95.83
  A 0.30 0.29 -7.0 0 0 60.04 96.15
  Z
  M 161.23 93.90
  L 166.05 96.01
  A 0.27 0.27 0.0 0 0 166.42 95.68
  L 163.42 85.56
  Q 161.37 79.85 160.20 78.30
  Q 159.01 76.72 156.72 75.26
  Q 146.41 68.70 134.29 65.87
  A 0.08 0.08 0.0 0 0 134.20 65.98
  Q 138.29 76.39 140.14 87.85
  A 0.80 0.80 0.0 0 0 140.79 88.51
  Q 151.01 90.38 161.23 93.90
  Z
  M 46.87 105.87
  Q 51.19 100.97 56.66 98.06
  A 1.78 1.77 84.3 0 0 57.53 96.99
  Q 58.27 94.44 58.54 93.26
  Q 60.02 86.83 63.03 80.22
  A 0.06 0.06 0.0 0 0 62.94 80.15
  Q 50.23 90.54 46.41 105.62
  A 0.27 0.27 0.0 0 0 46.87 105.87
  Z
  M 178.97 105.39
  A 0.27 0.26 -73.2 0 0 179.42 105.14
  Q 175.69 90.30 163.20 80.06
  A 0.06 0.06 0.0 0 0 163.12 80.13
  Q 166.07 86.64 167.51 92.97
  Q 167.78 94.13 168.50 96.64
  A 1.75 1.74 -84.2 0 0 169.35 97.69
  Q 174.73 100.56 178.97 105.39
  Z
  M 100.30 112.75
  L 100.33 114.30
  L 86.20 114.53
  A 0.54 0.54 0.0 0 0 85.67 115.07
  Q 85.69 126.07 87.38 137.07
  A 0.58 0.58 0.0 0 0 87.85 137.54
  Q 99.62 139.34 111.77 139.42
  A 0.51 0.51 0.0 0 0 112.28 138.91
  L 112.29 117.91
  L 114.20 120.17
  L 114.12 138.86
  A 0.50 0.50 0.0 0 0 114.65 139.37
  L 123.60 138.97
  L 138.36 137.46
  A 0.66 0.66 0.0 0 0 138.95 136.89
  L 139.96 128.57
  L 140.60 114.83
  A 0.33 0.33 0.0 0 0 140.27 114.48
  L 117.66 114.48
  L 117.67 112.77
  L 140.19 112.76
  A 0.46 0.46 0.0 0 0 140.65 112.30
  Q 140.59 101.17 138.96 90.11
  A 0.46 0.46 0.0 0 0 138.57 89.72
  Q 126.39 87.87 114.35 87.85
  A 0.39 0.39 0.0 0 0 113.96 88.23
  L 113.53 99.20
  L 112.94 110.91
  A 0.26 0.25 19.7 0 1 112.53 111.10
  Q 111.66 110.42 111.62 109.85
  L 112.36 88.28
  A 0.41 0.40 1.3 0 0 111.95 87.86
  Q 99.87 87.86 87.74 89.72
  A 0.42 0.42 0.0 0 0 87.40 90.06
  Q 85.65 101.22 85.63 112.41
  A 0.36 0.36 0.0 0 0 85.99 112.77
  L 100.30 112.75
  Z
  M 62.01 112.80
  L 61.26 114.49
  L 58.27 114.52
  A 0.52 0.52 0.0 0 0 57.75 115.03
  Q 57.68 118.04 58.59 120.84
  L 58.33 121.88
  L 58.98 128.17
  A 1.51 1.50 8.8 0 0 59.89 129.40
  Q 74.12 135.48 85.15 136.97
  A 0.39 0.39 0.0 0 0 85.59 136.53
  Q 84.03 126.02 83.99 115.16
  A 0.58 0.58 0.0 0 0 83.42 114.58
  L 74.97 114.54
  L 74.30 112.94
  L 83.45 112.69
  A 0.53 0.53 0.0 0 0 83.97 112.15
  Q 83.90 101.26 85.58 90.71
  A 0.38 0.37 1.1 0 0 85.16 90.28
  Q 71.62 92.14 59.94 98.10
  A 1.99 1.97 -10.2 0 0 58.88 99.61
  L 57.34 111.71
  A 0.80 0.80 0.0 0 0 58.09 112.61
  L 62.01 112.80
  Z
  M 141.98 99.24
  L 142.14 121.62
  A 0.54 0.54 0.0 0 0 142.65 122.16
  L 145.82 122.30
  Q 144.89 123.70 142.89 123.32
  A 0.45 0.45 0.0 0 0 142.36 123.71
  L 140.71 136.65
  A 0.39 0.39 0.0 0 0 141.16 137.08
  Q 154.37 134.78 166.47 129.33
  A 1.45 1.43 81.6 0 0 167.31 128.19
  L 168.92 115.51
  A 0.84 0.83 3.6 0 0 168.09 114.57
  L 151.25 114.65
  L 146.76 114.59
  Q 146.33 113.52 147.00 113.52
  Q 151.29 113.53 154.60 112.56
  L 168.21 112.77
  A 0.43 0.43 0.0 0 0 168.65 112.30
  L 167.51 99.50
  A 1.58 1.57 10.4 0 0 166.62 98.22
  L 160.91 95.51
  Q 151.54 91.83 141.05 90.24
  A 0.39 0.39 0.0 0 0 140.61 90.69
  L 141.98 99.24
  Z
  M 179.51 108.68
  C 177.91 107.09 176.49 104.92 175.00 103.60
  Q 172.59 101.48 169.60 99.81
  A 0.23 0.23 0.0 0 0 169.26 100.03
  L 170.33 112.13
  A 0.58 0.58 0.0 0 0 170.91 112.66
  L 179.69 112.68
  L 180.17 114.52
  L 170.99 114.57
  A 0.29 0.29 0.0 0 0 170.70 114.83
  L 169.14 127.09
  A 0.34 0.34 0.0 0 0 169.64 127.44
  Q 177.55 123.35 180.54 115.43
  C 183.26 121.35 189.96 123.48 195.84 121.12
  A 0.33 0.32 -13.3 0 0 196.05 120.79
  L 195.67 116.63
  A 0.23 0.23 0.0 0 0 195.35 116.43
  Q 189.63 118.77 186.37 115.40
  C 183.64 112.57 183.79 107.67 186.79 105.07
  Q 189.83 102.44 194.88 104.19
  A 0.19 0.19 0.0 0 0 195.13 104.04
  L 195.67 99.77
  A 0.30 0.29 10.5 0 0 195.44 99.44
  Q 182.48 96.69 179.51 108.68
  Z
  M 35.89 99.49
  A 0.37 0.37 0.0 0 0 35.52 99.12
  L 31.68 99.12
  A 0.37 0.37 0.0 0 0 31.31 99.49
  L 31.31 121.61
  A 0.37 0.37 0.0 0 0 31.68 121.98
  L 35.52 121.98
  A 0.37 0.37 0.0 0 0 35.89 121.61
  L 35.89 99.49
  Z
  M 56.72 99.82
  Q 52.66 102.13 49.54 105.41
  Q 47.06 108.01 45.82 112.44
  A 0.20 0.19 7.6 0 0 46.01 112.69
  L 55.44 112.70
  A 0.27 0.27 0.0 0 0 55.71 112.45
  L 56.86 99.91
  A 0.09 0.09 0.0 0 0 56.72 99.82
  Z
  M 117.99 209.48
  Q 142.61 207.86 162.25 196.03
  C 191.12 178.64 209.31 147.70 209.06 113.67
  A 1.97 1.97 0.0 0 0 207.02 111.72
  L 206.94 111.72
  A 2.13 2.13 0.0 0 0 204.89 113.83
  Q 204.52 147.19 183.42 172.39
  C 167.35 191.59 143.67 203.31 118.87 204.85
  A 0.52 0.52 0.0 0 1 118.32 204.29
  Q 118.34 204.02 118.65 203.64
  Q 119.01 203.21 118.53 202.41
  Q 117.30 200.31 115.08 201.64
  Q 109.14 205.17 106.07 207.02
  A 0.43 0.43 0.0 0 0 106.08 207.76
  L 115.84 213.39
  A 0.83 0.82 -35.0 0 0 116.42 213.49
  Q 118.48 213.07 118.53 211.02
  A 0.75 0.75 0.0 0 0 118.15 210.35
  L 117.83 210.17
  A 0.37 0.37 0.0 0 1 117.99 209.48
  Z
  M 56.90 127.73
  A 0.10 0.09 -76.7 0 0 57.04 127.64
  L 55.89 114.76
  A 0.28 0.28 0.0 0 0 55.61 114.50
  L 45.93 114.50
  A 0.20 0.20 0.0 0 0 45.73 114.75
  Q 47.00 119.30 49.54 121.98
  Q 52.74 125.35 56.90 127.73
  Z
  M 181.34 120.36
  C 180.65 132.09 170.89 143.54 161.95 150.49
  A 4.75 4.69 87.0 0 0 160.82 151.76
  C 152.63 165.45 142.92 175.18 127.64 180.36
  C 125.18 181.20 122.28 181.37 119.81 182.28
  A 2.00 1.92 -53.0 0 1 119.01 182.41
  L 114.23 182.15
  A 0.26 0.13 9.6 0 0 114.06 182.20
  Q 114.04 182.21 113.97 182.22
  A 0.09 0.07 -40.5 0 0 113.94 182.37
  Q 115.50 182.32 118.99 182.65
  A 2.62 2.56 35.6 0 0 120.29 182.45
  C 122.40 181.56 124.65 181.90 126.76 181.40
  Q 141.69 177.90 151.90 170.88
  Q 176.28 154.10 181.73 123.43
  Q 181.97 122.04 181.51 120.35
  A 0.09 0.09 0.0 0 0 181.34 120.36
  Z
  M 179.18 121.93
  Q 174.90 126.72 169.49 129.56
  A 1.75 1.74 84.6 0 0 168.63 130.60
  Q 167.88 133.11 167.61 134.27
  Q 166.11 140.59 163.11 147.08
  A 0.06 0.06 0.0 0 0 163.19 147.15
  Q 175.77 137.00 179.63 122.18
  A 0.27 0.26 73.7 0 0 179.18 121.93
  Z
  M 48.88 128.57
  Q 53.86 139.91 63.02 147.22
  A 0.11 0.11 0.0 0 0 63.19 147.10
  L 58.75 135.08
  L 57.83 130.92
  A 2.13 2.12 -81.9 0 0 56.80 129.54
  Q 51.15 126.45 47.08 121.82
  A 0.17 0.16 -74.7 0 0 46.80 121.98
  L 48.88 128.57
  Z
  M 104.38 181.80
  Q 107.86 183.50 111.91 182.46
  A 0.04 0.04 0.0 0 0 111.91 182.38
  L 104.38 181.80
  Q 85.30 177.84 72.91 162.56
  Q 68.75 157.44 65.67 152.14
  A 5.46 5.33 -85.7 0 0 64.46 150.70
  C 55.49 143.17 48.87 135.63 45.56 124.48
  A 0.20 0.20 0.0 0 0 45.36 124.35
  L 45.05 124.38
  A 0.25 0.24 82.6 0 0 44.83 124.67
  Q 49.82 150.69 68.58 166.51
  Q 82.62 178.34 101.32 181.40
  Q 102.89 181.66 104.38 181.80
  Z
  M 61.10 136.84
  Q 63.09 143.70 66.10 149.17
  A 3.72 3.58 4.3 0 0 67.19 150.39
  Q 78.08 158.08 91.38 161.21
  A 0.30 0.29 88.7 0 0 91.73 160.84
  L 87.05 144.90
  L 85.93 139.43
  A 0.73 0.72 88.3 0 0 85.32 138.85
  Q 72.15 136.83 60.08 131.39
  A 0.26 0.26 0.0 0 0 59.72 131.69
  L 61.10 136.84
  Z
  M 166.19 131.38
  Q 154.97 136.51 140.91 138.81
  A 0.82 0.80 89.8 0 0 140.25 139.48
  Q 138.45 150.57 134.38 160.79
  A 0.31 0.31 0.0 0 0 134.74 161.21
  Q 147.93 158.17 158.77 150.62
  A 4.14 3.89 -1.5 0 0 159.72 149.68
  C 163.10 144.88 165.63 136.63 166.60 131.70
  A 0.30 0.29 -6.8 0 0 166.19 131.38
  Z
  M 88.86 144.77
  Q 90.40 153.08 93.95 161.39
  A 1.15 1.14 84.8 0 0 94.75 162.06
  Q 103.16 163.93 111.75 163.89
  A 0.58 0.58 0.0 0 0 112.32 163.31
  L 112.30 142.82
  L 112.36 141.38
  A 0.41 0.41 0.0 0 0 111.93 140.95
  Q 99.82 141.36 88.31 139.32
  A 0.39 0.38 -0.4 0 0 87.86 139.77
  L 88.86 144.77
  Z
  M 137.94 139.38
  Q 126.60 141.07 114.72 141.15
  A 0.67 0.67 0.0 0 0 114.06 141.81
  L 114.03 163.33
  A 0.59 0.59 0.0 0 0 114.61 163.92
  Q 123.37 163.90 131.57 162.06
  A 1.17 1.17 0.0 0 0 132.37 161.38
  Q 136.46 151.40 138.46 139.92
  A 0.46 0.46 0.0 0 0 137.94 139.38
  Z
  M 104.68 179.65
  C 99.64 175.96 95.89 170.25 93.26 164.31
  A 1.37 1.37 0.0 0 0 92.39 163.55
  C 83.78 161.10 75.97 158.08 68.64 153.46
  A 0.09 0.09 0.0 0 0 68.51 153.59
  C 76.60 166.92 89.00 176.96 104.48 180.10
  A 0.25 0.25 0.0 0 0 104.68 179.65
  Z
  M 121.68 179.52
  A 0.25 0.25 0.0 0 0 121.87 179.96
  C 137.19 176.88 149.48 166.97 157.49 153.79
  A 0.09 0.09 0.0 0 0 157.37 153.66
  C 150.11 158.21 142.38 161.19 133.86 163.61
  A 1.36 1.35 4.0 0 0 132.99 164.36
  C 130.39 170.23 126.67 175.87 121.68 179.52
  Z
  M 95.51 164.08
  A 0.22 0.22 0.0 0 0 95.28 164.38
  C 98.29 170.66 104.18 180.20 111.75 180.49
  A 0.60 0.60 0.0 0 0 112.37 179.88
  L 112.30 166.29
  A 0.63 0.62 -89.8 0 0 111.68 165.66
  Q 103.02 165.59 95.51 164.08
  Z
  M 130.82 164.04
  Q 123.32 165.57 114.67 165.64
  A 0.63 0.62 89.8 0 0 114.05 166.27
  L 114.00 179.84
  A 0.60 0.59 88.9 0 0 114.62 180.45
  C 122.18 180.15 128.05 170.62 131.05 164.35
  A 0.22 0.22 0.0 0 0 130.82 164.04
  Z"
/>
<path fill="#4e766e" d="
  M 107.30 22.47
  A 0.16 0.16 0.0 0 0 107.21 22.17
  Q 97.23 22.64 86.41 25.97
  C 48.00 37.80 21.43 73.32 21.39 113.83
  A 1.86 1.86 0.0 0 1 19.30 115.68
  L 18.86 115.62
  A 1.61 1.61 0.0 0 1 17.45 114.09
  C 16.39 92.17 24.89 69.22 39.04 52.56
  Q 65.19 21.78 105.41 18.01
  A 0.67 0.66 -3.3 0 0 106.01 17.34
  Q 106.00 17.24 105.78 16.78
  Q 105.63 16.48 105.71 16.13
  Q 106.08 14.66 107.93 14.43
  A 1.45 1.35 -34.2 0 1 108.70 14.55
  L 118.33 18.94
  A 0.22 0.22 0.0 0 1 118.37 19.31
  Q 111.14 24.96 108.97 26.48
  Q 108.07 27.12 107.00 26.59
  A 2.26 2.04 23.6 0 1 105.83 24.00
  Q 106.10 23.22 107.30 22.47
  Z"
/>
<path fill="#c1e4dc" d="
  M 45.60 102.75
  A 0.26 0.25 14.9 0 1 45.30 102.92
  L 45.28 102.91
  A 0.35 0.34 -79.2 0 1 45.02 102.52
  Q 48.71 81.46 62.68 66.69
  Q 78.06 50.43 100.43 45.90
  A 0.06 0.05 69.2 0 1 100.49 45.93
  L 100.69 46.26
  A 0.26 0.26 0.0 0 1 100.51 46.65
  Q 95.30 47.63 89.10 51.17
  Q 74.29 59.63 65.79 75.16
  A 8.21 8.17 86.0 0 1 63.53 77.77
  Q 50.57 87.52 45.60 102.75
  Z"
/>
<path fill="#c1e4dc" d="
  M 162.86 65.91
  L 163.41 78.28
  Q 161.12 76.22 157.75 70.75
  Q 148.72 56.05 130.96 48.13
  C 129.04 47.27 126.49 47.06 125.44 46.54
  A 0.25 0.25 0.0 0 1 125.48 46.07
  Q 126.10 45.88 126.89 46.06
  Q 148.07 50.72 162.86 65.91
  Z"
/>
<path fill="#c1e4dc" d="
  M 95.42 63.49
  A 0.22 0.22 0.0 0 1 95.18 63.18
  C 98.19 56.83 104.09 47.17 111.73 46.84
  A 0.61 0.60 88.7 0 1 112.36 47.45
  L 112.36 61.17
  A 0.64 0.63 89.5 0 1 111.74 61.81
  Q 102.99 61.92 95.42 63.49
  Z"
/>
<path fill="#c1e4dc" d="
  M 130.91 63.51
  Q 123.34 61.93 114.59 61.81
  A 0.64 0.63 -89.5 0 1 113.97 61.17
  L 113.98 47.45
  A 0.61 0.60 -88.6 0 1 114.61 46.84
  C 122.25 47.18 128.14 56.85 131.15 63.20
  A 0.22 0.22 0.0 0 1 130.91 63.51
  Z"
/>
<path fill="#c1e4dc" d="
  M 104.84 47.62
  C 99.76 51.37 95.99 57.15 93.36 63.16
  A 1.38 1.38 0.0 0 1 92.48 63.93
  C 83.79 66.44 75.91 69.52 68.52 74.21
  A 0.10 0.09 89.5 0 1 68.39 74.08
  C 76.51 60.58 89.01 50.39 104.64 47.17
  A 0.25 0.25 0.0 0 1 104.84 47.62
  Z"
/>
<path fill="#c1e4dc" d="
  M 121.48 47.64
  A 0.25 0.25 0.0 0 1 121.69 47.19
  C 137.37 50.43 149.91 60.67 158.04 74.23
  A 0.10 0.09 -89.4 0 1 157.91 74.36
  C 150.50 69.65 142.59 66.55 133.87 64.02
  A 1.39 1.39 0.0 0 1 132.99 63.25
  C 130.36 57.21 126.58 51.41 121.48 47.64
  Z"
/>
<path fill="#c1e4dc" d="
  M 87.78 87.57
  Q 89.78 76.00 93.88 65.94
  A 1.18 1.18 0.0 0 1 94.69 65.25
  Q 102.95 63.38 111.77 63.35
  A 0.59 0.59 0.0 0 1 112.36 63.94
  L 112.36 85.62
  A 0.67 0.67 0.0 0 1 111.70 86.29
  Q 99.73 86.39 88.31 88.11
  A 0.47 0.47 0.0 0 1 87.78 87.57
  Z"
/>
<path fill="#c1e4dc" d="
  M 138.00 88.12
  Q 126.59 86.38 114.63 86.27
  A 0.67 0.67 0.0 0 1 113.97 85.60
  L 113.99 63.93
  A 0.59 0.59 0.0 0 1 114.58 63.34
  Q 123.40 63.38 131.65 65.26
  A 1.18 1.18 0.0 0 1 132.46 65.95
  Q 136.55 76.01 138.54 87.58
  A 0.47 0.46 89.6 0 1 138.00 88.12
  Z"
/>
<path fill="#c1e4dc" d="
  M 59.62 95.83
  C 60.58 90.86 63.08 82.56 66.46 77.71
  A 4.16 3.91 -1.8 0 1 67.41 76.76
  Q 78.27 69.12 91.52 66.00
  A 0.31 0.31 0.0 0 1 91.88 66.42
  Q 87.84 76.72 86.08 87.88
  A 0.82 0.81 89.6 0 1 85.42 88.56
  Q 71.30 90.93 60.04 96.15
  A 0.30 0.29 -7.0 0 1 59.62 95.83
  Z"
/>
<path fill="#c1e4dc" d="
  M 163.42 85.56
  L 161.23 93.90
  Q 151.01 90.38 140.79 88.51
  A 0.80 0.80 0.0 0 1 140.14 87.85
  Q 138.29 76.39 134.20 65.98
  A 0.08 0.08 0.0 0 1 134.29 65.87
  Q 146.41 68.70 156.72 75.26
  Q 159.01 76.72 160.20 78.30
  Q 161.37 79.85 163.42 85.56
  Z"
/>
<path fill="#94d6c8" d="
  M 163.41 78.28
  L 162.86 65.91
  Q 177.74 81.33 181.34 102.60
  A 0.25 0.25 0.0 0 1 181.11 102.89
  L 180.86 102.91
  A 0.07 0.07 0.0 0 1 180.78 102.86
  Q 175.87 87.85 163.41 78.28
  Z"
/>
<path fill="#c1e4dc" d="
  M 46.41 105.62
  Q 50.23 90.54 62.94 80.15
  A 0.06 0.06 0.0 0 1 63.03 80.22
  Q 60.02 86.83 58.54 93.26
  Q 58.27 94.44 57.53 96.99
  A 1.78 1.77 84.3 0 1 56.66 98.06
  Q 51.19 100.97 46.87 105.87
  A 0.27 0.27 0.0 0 1 46.41 105.62
  Z"
/>
<path fill="#94d6c8" d="
  M 178.97 105.39
  Q 174.73 100.56 169.35 97.69
  A 1.75 1.74 -84.2 0 1 168.50 96.64
  Q 167.78 94.13 167.51 92.97
  Q 166.07 86.64 163.12 80.13
  A 0.06 0.06 0.0 0 1 163.20 80.06
  Q 175.69 90.30 179.42 105.14
  A 0.27 0.26 -73.2 0 1 178.97 105.39
  Z"
/>
<path fill="#94d6c8" d="
  M 163.42 85.56
  L 166.42 95.68
  A 0.27 0.27 0.0 0 1 166.05 96.01
  L 161.23 93.90
  L 163.42 85.56
  Z"
/>
<path fill="#c1e4dc" d="
  M 111.62 109.85
  L 101.08 98.73
  A 0.43 0.43 0.0 0 0 100.34 99.03
  L 100.30 112.75
  L 85.99 112.77
  A 0.36 0.36 0.0 0 1 85.63 112.41
  Q 85.65 101.22 87.40 90.06
  A 0.42 0.42 0.0 0 1 87.74 89.72
  Q 99.87 87.86 111.95 87.86
  A 0.41 0.40 1.3 0 1 112.36 88.28
  L 111.62 109.85
  Z"
/>
<path fill="#c1e4dc" d="
  M 117.67 112.77
  L 117.60 99.85
  A 0.54 0.54 0.0 0 0 117.08 99.31
  L 113.53 99.20
  L 113.96 88.23
  A 0.39 0.39 0.0 0 1 114.35 87.85
  Q 126.39 87.87 138.57 89.72
  A 0.46 0.46 0.0 0 1 138.96 90.11
  Q 140.59 101.17 140.65 112.30
  A 0.46 0.46 0.0 0 1 140.19 112.76
  L 117.67 112.77
  Z"
/>
<path fill="#c1e4dc" d="
  M 74.30 112.94
  L 68.48 98.57
  A 0.37 0.37 0.0 0 0 67.80 98.57
  L 62.01 112.80
  L 58.09 112.61
  A 0.80 0.80 0.0 0 1 57.34 111.71
  L 58.88 99.61
  A 1.99 1.97 -10.2 0 1 59.94 98.10
  Q 71.62 92.14 85.16 90.28
  A 0.38 0.37 1.1 0 1 85.58 90.71
  Q 83.90 101.26 83.97 112.15
  A 0.53 0.53 0.0 0 1 83.45 112.69
  L 74.30 112.94
  Z"
/>
<path fill="#c1e4dc" d="
  M 160.91 95.51
  L 157.39 104.07
  Q 155.73 99.50 151.75 99.23
  Q 148.25 98.99 141.98 99.24
  L 140.61 90.69
  A 0.39 0.39 0.0 0 1 141.05 90.24
  Q 151.54 91.83 160.91 95.51
  Z"
/>
<path fill="#94d6c8" d="
  M 160.91 95.51
  L 166.62 98.22
  A 1.58 1.57 10.4 0 1 167.51 99.50
  L 168.65 112.30
  A 0.43 0.43 0.0 0 1 168.21 112.77
  L 154.60 112.56
  Q 158.61 108.63 157.39 104.07
  L 160.91 95.51
  Z"
/>
<path fill="#4e766e" d="
  M 74.30 112.94
  L 74.97 114.54
  L 77.85 121.39
  A 0.44 0.44 0.0 0 1 77.44 122.00
  L 73.29 122.00
  A 0.90 0.90 0.0 0 1 72.39 121.19
  L 72.32 120.31
  A 0.86 0.86 0.0 0 0 71.46 119.53
  L 64.84 119.53
  A 0.95 0.94 0.0 0 0 63.89 120.47
  L 63.89 121.07
  A 0.82 0.82 0.0 0 1 63.07 121.89
  L 58.33 121.88
  L 58.59 120.84
  L 61.26 114.49
  L 62.01 112.80
  L 67.80 98.57
  A 0.37 0.37 0.0 0 1 68.48 98.57
  L 74.30 112.94
  Z
  M 68.11 115.07
  Q 68.57 115.08 69.54 115.15
  A 0.43 0.43 0.0 0 0 69.98 114.57
  Q 68.19 109.84 68.14 109.84
  Q 68.09 109.84 66.24 114.55
  A 0.43 0.43 0.0 0 0 66.67 115.13
  Q 67.64 115.07 68.11 115.07
  Z"
/>
<path fill="#4e766e" d="
  M 111.62 109.85
  Q 111.66 110.42 112.53 111.10
  A 0.26 0.25 19.7 0 0 112.94 110.91
  L 113.53 99.20
  L 117.08 99.31
  A 0.54 0.54 0.0 0 1 117.60 99.85
  L 117.67 112.77
  L 117.66 114.48
  L 117.61 122.12
  A 0.59 0.58 -67.8 0 1 116.62 122.54
  L 114.20 120.17
  L 112.29 117.91
  L 109.23 114.40
  L 105.43 110.26
  A 0.22 0.22 0.0 0 0 105.05 110.40
  L 104.93 114.49
  L 104.91 121.53
  A 0.54 0.54 0.0 0 1 104.37 122.07
  L 100.83 122.07
  A 0.55 0.54 0.0 0 1 100.28 121.53
  L 100.33 114.30
  L 100.30 112.75
  L 100.34 99.03
  A 0.43 0.43 0.0 0 1 101.08 98.73
  L 111.62 109.85
  Z"
/>
<path fill="#4e766e" d="
  M 180.54 115.43
  Q 180.45 114.98 180.17 114.52
  L 179.69 112.68
  L 179.51 108.68
  Q 182.48 96.69 195.44 99.44
  A 0.30 0.29 10.5 0 1 195.67 99.77
  L 195.13 104.04
  A 0.19 0.19 0.0 0 1 194.88 104.19
  Q 189.83 102.44 186.79 105.07
  C 183.79 107.67 183.64 112.57 186.37 115.40
  Q 189.63 118.77 195.35 116.43
  A 0.23 0.23 0.0 0 1 195.67 116.63
  L 196.05 120.79
  A 0.33 0.32 -13.3 0 1 195.84 121.12
  C 189.96 123.48 183.26 121.35 180.54 115.43
  Z"
/>
<rect fill="#4e766e" x="31.31" y="99.12" width="4.58" height="22.86" rx="0.37"/>
<path fill="#4e766e" d="
  M 157.39 104.07
  Q 158.61 108.63 154.60 112.56
  Q 151.29 113.53 147.00 113.52
  Q 146.33 113.52 146.76 114.59
  L 146.72 121.13
  Q 146.64 121.90 145.82 122.30
  L 142.65 122.16
  A 0.54 0.54 0.0 0 1 142.14 121.62
  L 141.98 99.24
  Q 148.25 98.99 151.75 99.23
  Q 155.73 99.50 157.39 104.07
  Z
  M 146.65 104.04
  L 146.63 108.44
  A 0.36 0.36 0.0 0 0 146.99 108.81
  L 150.52 108.82
  A 2.39 2.36 0.3 0 0 152.92 106.48
  L 152.92 106.08
  A 2.39 2.36 0.3 0 0 150.54 103.70
  L 147.01 103.69
  A 0.36 0.36 0.0 0 0 146.65 104.04
  Z"
/>
<path fill="#c1e4dc" d="
  M 56.72 99.82
  A 0.09 0.09 0.0 0 1 56.86 99.91
  L 55.71 112.45
  A 0.27 0.27 0.0 0 1 55.44 112.70
  L 46.01 112.69
  A 0.20 0.19 7.6 0 1 45.82 112.44
  Q 47.06 108.01 49.54 105.41
  Q 52.66 102.13 56.72 99.82
  Z"
/>
<path fill="#94d6c8" d="
  M 179.51 108.68
  L 179.69 112.68
  L 170.91 112.66
  A 0.58 0.58 0.0 0 1 170.33 112.13
  L 169.26 100.03
  A 0.23 0.23 0.0 0 1 169.60 99.81
  Q 172.59 101.48 175.00 103.60
  C 176.49 104.92 177.91 107.09 179.51 108.68
  Z"
/>
<path fill="#c1e4dc" d="
  M 146.65 104.04
  A 0.36 0.36 0.0 0 1 147.01 103.69
  L 150.54 103.70
  A 2.39 2.36 0.3 0 1 152.92 106.08
  L 152.92 106.48
  A 2.39 2.36 0.3 0 1 150.52 108.82
  L 146.99 108.81
  A 0.36 0.36 0.0 0 1 146.63 108.44
  L 146.65 104.04
  Z"
/>
<path fill="#ffffff" d="
  M 68.14 109.84
  Q 68.19 109.84 69.98 114.57
  A 0.43 0.43 0.0 0 1 69.54 115.15
  Q 68.57 115.08 68.11 115.07
  Q 67.64 115.07 66.67 115.13
  A 0.43 0.43 0.0 0 1 66.24 114.55
  Q 68.09 109.84 68.14 109.84
  Z"
/>
<path fill="#ffffff" d="
  M 109.23 114.40
  L 104.93 114.49
  L 105.05 110.40
  A 0.22 0.22 0.0 0 1 105.43 110.26
  L 109.23 114.40
  Z"
/>
<path fill="#4e766e" d="
  M 117.83 210.17
  L 118.15 210.35
  A 0.75 0.75 0.0 0 1 118.53 211.02
  Q 118.48 213.07 116.42 213.49
  A 0.83 0.82 -35.0 0 1 115.84 213.39
  L 106.08 207.76
  A 0.43 0.43 0.0 0 1 106.07 207.02
  Q 109.14 205.17 115.08 201.64
  Q 117.30 200.31 118.53 202.41
  Q 119.01 203.21 118.65 203.64
  Q 118.34 204.02 118.32 204.29
  A 0.52 0.52 0.0 0 0 118.87 204.85
  C 143.67 203.31 167.35 191.59 183.42 172.39
  Q 204.52 147.19 204.89 113.83
  A 2.13 2.13 0.0 0 1 206.94 111.72
  L 207.02 111.72
  A 1.97 1.97 0.0 0 1 209.06 113.67
  C 209.31 147.70 191.12 178.64 162.25 196.03
  Q 142.61 207.86 117.99 209.48
  A 0.37 0.37 0.0 0 0 117.83 210.17
  Z"
/>
<path fill="#c1e4dc" d="
  M 104.93 114.49
  L 109.23 114.40
  L 112.29 117.91
  L 112.28 138.91
  A 0.51 0.51 0.0 0 1 111.77 139.42
  Q 99.62 139.34 87.85 137.54
  A 0.58 0.58 0.0 0 1 87.38 137.07
  Q 85.69 126.07 85.67 115.07
  A 0.54 0.54 0.0 0 1 86.20 114.53
  L 100.33 114.30
  L 100.28 121.53
  A 0.55 0.54 -0.0 0 0 100.83 122.07
  L 104.37 122.07
  A 0.54 0.54 0.0 0 0 104.91 121.53
  L 104.93 114.49
  Z"
/>
<path fill="#c1e4dc" d="
  M 56.90 127.73
  Q 52.74 125.35 49.54 121.98
  Q 47.00 119.30 45.73 114.75
  A 0.20 0.20 0.0 0 1 45.93 114.50
  L 55.61 114.50
  A 0.28 0.28 0.0 0 1 55.89 114.76
  L 57.04 127.64
  A 0.10 0.09 -76.7 0 1 56.90 127.73
  Z"
/>
<path fill="#c1e4dc" d="
  M 61.26 114.49
  L 58.59 120.84
  Q 57.68 118.04 57.75 115.03
  A 0.52 0.52 0.0 0 1 58.27 114.52
  L 61.26 114.49
  Z"
/>
<path fill="#c1e4dc" d="
  M 58.33 121.88
  L 63.07 121.89
  A 0.82 0.82 0.0 0 0 63.89 121.07
  L 63.89 120.47
  A 0.95 0.94 0.0 0 1 64.84 119.53
  L 71.46 119.53
  A 0.86 0.86 0.0 0 1 72.32 120.31
  L 72.39 121.19
  A 0.90 0.90 0.0 0 0 73.29 122.00
  L 77.44 122.00
  A 0.44 0.44 0.0 0 0 77.85 121.39
  L 74.97 114.54
  L 83.42 114.58
  A 0.58 0.58 0.0 0 1 83.99 115.16
  Q 84.03 126.02 85.59 136.53
  A 0.39 0.39 0.0 0 1 85.15 136.97
  Q 74.12 135.48 59.89 129.40
  A 1.51 1.50 8.8 0 1 58.98 128.17
  L 58.33 121.88
  Z"
/>
<path fill="#c1e4dc" d="
  M 139.96 128.57
  Q 132.43 134.70 123.60 138.97
  L 114.65 139.37
  A 0.50 0.50 0.0 0 1 114.12 138.86
  L 114.20 120.17
  L 116.62 122.54
  A 0.59 0.58 -67.8 0 0 117.61 122.12
  L 117.66 114.48
  L 140.27 114.48
  A 0.33 0.33 0.0 0 1 140.60 114.83
  L 139.96 128.57
  Z"
/>
<path fill="#c1e4dc" d="
  M 151.25 114.65
  Q 149.95 118.31 146.72 121.13
  L 146.76 114.59
  L 151.25 114.65
  Z"
/>
<path fill="#94d6c8" d="
  M 145.82 122.30
  Q 146.64 121.90 146.72 121.13
  Q 149.95 118.31 151.25 114.65
  L 168.09 114.57
  A 0.84 0.83 3.6 0 1 168.92 115.51
  L 167.31 128.19
  A 1.45 1.43 81.6 0 1 166.47 129.33
  Q 154.37 134.78 141.16 137.08
  A 0.39 0.39 0.0 0 1 140.71 136.65
  L 142.36 123.71
  A 0.45 0.45 0.0 0 1 142.89 123.32
  Q 144.89 123.70 145.82 122.30
  Z"
/>
<path fill="#94d6c8" d="
  M 180.17 114.52
  Q 180.45 114.98 180.54 115.43
  Q 177.55 123.35 169.64 127.44
  A 0.34 0.34 0.0 0 1 169.14 127.09
  L 170.70 114.83
  A 0.29 0.29 0.0 0 1 170.99 114.57
  L 180.17 114.52
  Z"
/>
<path fill="#94d6c8" d="
  M 181.51 120.35
  Q 181.97 122.04 181.73 123.43
  Q 176.28 154.10 151.90 170.88
  Q 141.69 177.90 126.76 181.40
  C 124.65 181.90 122.40 181.56 120.29 182.45
  A 2.62 2.56 35.6 0 1 118.99 182.65
  Q 115.50 182.32 113.94 182.37
  A 0.09 0.07 -40.5 0 1 113.97 182.22
  Q 114.04 182.21 114.06 182.20
  A 0.26 0.13 9.6 0 1 114.23 182.15
  L 119.01 182.41
  A 2.00 1.92 -53.0 0 0 119.81 182.28
  C 122.28 181.37 125.18 181.20 127.64 180.36
  C 142.92 175.18 152.63 165.45 160.82 151.76
  A 4.75 4.69 87.0 0 1 161.95 150.49
  C 170.89 143.54 180.65 132.09 181.34 120.36
  A 0.09 0.09 0.0 0 1 181.51 120.35
  Z"
/>
<path fill="#94d6c8" d="
  M 179.18 121.93
  A 0.27 0.26 73.7 0 1 179.63 122.18
  Q 175.77 137.00 163.19 147.15
  A 0.06 0.06 0.0 0 1 163.11 147.08
  Q 166.11 140.59 167.61 134.27
  Q 167.88 133.11 168.63 130.60
  A 1.75 1.74 84.6 0 1 169.49 129.56
  Q 174.90 126.72 179.18 121.93
  Z"
/>
<path fill="#c1e4dc" d="
  M 58.75 135.08
  L 48.88 128.57
  L 46.80 121.98
  A 0.17 0.16 -74.7 0 1 47.08 121.82
  Q 51.15 126.45 56.80 129.54
  A 2.13 2.12 -81.9 0 1 57.83 130.92
  L 58.75 135.08
  Z"
/>
<path fill="#94d6c8" d="
  M 104.38 181.80
  Q 102.89 181.66 101.32 181.40
  Q 82.62 178.34 68.58 166.51
  Q 49.82 150.69 44.83 124.67
  A 0.25 0.24 82.6 0 1 45.05 124.38
  L 45.36 124.35
  A 0.20 0.20 0.0 0 1 45.56 124.48
  C 48.87 135.63 55.49 143.17 64.46 150.70
  A 5.46 5.33 -85.7 0 1 65.67 152.14
  Q 68.75 157.44 72.91 162.56
  Q 85.30 177.84 104.38 181.80
  Z"
/>
<path fill="#94d6c8" d="
  M 58.75 135.08
  L 63.19 147.10
  A 0.11 0.11 0.0 0 1 63.02 147.22
  Q 53.86 139.91 48.88 128.57
  L 58.75 135.08
  Z"
/>
<path fill="#94d6c8" d="
  M 139.96 128.57
  L 138.95 136.89
  A 0.66 0.66 0.0 0 1 138.36 137.46
  L 123.60 138.97
  Q 132.43 134.70 139.96 128.57
  Z"
/>
<path fill="#c1e4dc" d="
  M 87.05 144.90
  Q 73.74 143.61 61.10 136.84
  L 59.72 131.69
  A 0.26 0.26 0.0 0 1 60.08 131.39
  Q 72.15 136.83 85.32 138.85
  A 0.73 0.72 88.3 0 1 85.93 139.43
  L 87.05 144.90
  Z"
/>
<path fill="#94d6c8" d="
  M 166.19 131.38
  A 0.30 0.29 -6.8 0 1 166.60 131.70
  C 165.63 136.63 163.10 144.88 159.72 149.68
  A 4.14 3.89 -1.5 0 1 158.77 150.62
  Q 147.93 158.17 134.74 161.21
  A 0.31 0.31 0.0 0 1 134.38 160.79
  Q 138.45 150.57 140.25 139.48
  A 0.82 0.80 89.8 0 1 140.91 138.81
  Q 154.97 136.51 166.19 131.38
  Z"
/>
<path fill="#94d6c8" d="
  M 87.05 144.90
  L 91.73 160.84
  A 0.30 0.29 88.7 0 1 91.38 161.21
  Q 78.08 158.08 67.19 150.39
  A 3.72 3.58 4.3 0 1 66.10 149.17
  Q 63.09 143.70 61.10 136.84
  Q 73.74 143.61 87.05 144.90
  Z"
/>
<path fill="#c1e4dc" d="
  M 112.30 142.82
  Q 107.96 144.28 102.36 144.83
  Q 94.96 145.56 88.86 144.77
  L 87.86 139.77
  A 0.39 0.38 -0.4 0 1 88.31 139.32
  Q 99.82 141.36 111.93 140.95
  A 0.41 0.41 0.0 0 1 112.36 141.38
  L 112.30 142.82
  Z"
/>
<path fill="#94d6c8" d="
  M 137.94 139.38
  A 0.46 0.46 0.0 0 1 138.46 139.92
  Q 136.46 151.40 132.37 161.38
  A 1.17 1.17 0.0 0 1 131.57 162.06
  Q 123.37 163.90 114.61 163.92
  A 0.59 0.59 0.0 0 1 114.03 163.33
  L 114.06 141.81
  A 0.67 0.67 0.0 0 1 114.72 141.15
  Q 126.60 141.07 137.94 139.38
  Z"
/>
<path fill="#94d6c8" d="
  M 112.30 142.82
  L 112.32 163.31
  A 0.58 0.58 0.0 0 1 111.75 163.89
  Q 103.16 163.93 94.75 162.06
  A 1.15 1.14 84.8 0 1 93.95 161.39
  Q 90.40 153.08 88.86 144.77
  Q 94.96 145.56 102.36 144.83
  Q 107.96 144.28 112.30 142.82
  Z"
/>
<path fill="#94d6c8" d="
  M 104.68 179.65
  A 0.25 0.25 0.0 0 1 104.48 180.10
  C 89.00 176.96 76.60 166.92 68.51 153.59
  A 0.09 0.09 0.0 0 1 68.64 153.46
  C 75.97 158.08 83.78 161.10 92.39 163.55
  A 1.37 1.37 0.0 0 1 93.26 164.31
  C 95.89 170.25 99.64 175.96 104.68 179.65
  Z"
/>
<path fill="#94d6c8" d="
  M 121.68 179.52
  C 126.67 175.87 130.39 170.23 132.99 164.36
  A 1.36 1.35 4.0 0 1 133.86 163.61
  C 142.38 161.19 150.11 158.21 157.37 153.66
  A 0.09 0.09 0.0 0 1 157.49 153.79
  C 149.48 166.97 137.19 176.88 121.87 179.96
  A 0.25 0.25 0.0 0 1 121.68 179.52
  Z"
/>
<path fill="#94d6c8" d="
  M 95.51 164.08
  Q 103.02 165.59 111.68 165.66
  A 0.63 0.62 -89.8 0 1 112.30 166.29
  L 112.37 179.88
  A 0.60 0.60 0.0 0 1 111.75 180.49
  C 104.18 180.20 98.29 170.66 95.28 164.38
  A 0.22 0.22 0.0 0 1 95.51 164.08
  Z"
/>
<path fill="#94d6c8" d="
  M 130.82 164.04
  A 0.22 0.22 0.0 0 1 131.05 164.35
  C 128.05 170.62 122.18 180.15 114.62 180.45
  A 0.60 0.59 88.9 0 1 114.00 179.84
  L 114.05 166.27
  A 0.63 0.62 89.8 0 1 114.67 165.64
  Q 123.32 165.57 130.82 164.04
  Z"
/>
<path fill="#c1e4dc" d="
  M 104.38 181.80
  L 111.91 182.38
  A 0.04 0.04 0.0 0 1 111.91 182.46
  Q 107.86 183.50 104.38 181.80
  Z"
/>
</svg>
