<?xml version="1.0" encoding="UTF-8" standalone="no"?>
<!DOCTYPE svg PUBLIC "-//W3C//DTD SVG 1.1//EN" "http://www.w3.org/Graphics/SVG/1.1/DTD/svg11.dtd">
<svg xmlns="http://www.w3.org/2000/svg" version="1.1" viewBox="0.00 0.00 378.00 70.00">
<g stroke-width="2.00" fill="none" stroke-linecap="butt">
<path stroke="#8eb99d" vector-effect="non-scaling-stroke" d="
  M 105.36 41.92
  A 0.36 0.36 0.0 0 0 105.67 42.55
  C 116.29 40.44 119.25 32.10 117.21 22.15
  Q 115.49 13.75 107.83 8.66
  C 98.70 2.60 88.73 7.21 80.89 12.69
  A 0.12 0.11 57.2 0 0 80.86 12.84
  L 80.99 13.07
  A 0.32 0.31 -29.1 0 0 81.41 13.18
  C 93.91 6.56 109.25 10.56 111.10 26.26
  Q 111.54 30.00 109.77 32.15
  A 2.03 2.01 -25.5 0 0 109.31 33.43
  Q 109.32 38.37 105.36 41.92"
/>
<path stroke="#8bafc8" vector-effect="non-scaling-stroke" d="
  M 54.87 19.40
  Q 53.98 37.29 54.43 59.77
  A 0.67 0.66 89.1 0 0 55.09 60.42
  L 64.25 60.42
  A 0.61 0.61 0.0 0 0 64.86 59.81
  L 64.86 7.49
  A 0.48 0.48 0.0 0 0 64.38 7.01
  L 50.48 7.01
  A 1.28 1.27 9.2 0 0 49.27 7.88
  L 36.35 47.10
  A 0.35 0.35 0.0 0 1 35.68 47.09
  L 23.55 7.55
  A 0.81 0.80 -8.2 0 0 22.78 6.98
  L 8.70 6.98
  A 0.62 0.62 0.0 0 0 8.08 7.60
  L 8.08 59.78
  A 0.62 0.61 -0.0 0 0 8.70 60.39
  L 17.40 60.39
  A 0.67 0.66 -0.0 0 0 18.07 59.73
  Q 18.16 47.46 18.06 32.31
  C 18.04 28.64 17.41 23.16 17.38 19.16
  A 0.25 0.24 -54.1 0 1 17.86 19.08
  L 30.36 59.85
  A 0.80 0.79 -8.4 0 0 31.12 60.41
  L 40.13 60.41
  A 0.99 0.99 0.0 0 0 41.07 59.74
  L 54.39 19.31
  A 0.25 0.25 0.0 0 1 54.87 19.40"
/>
<path stroke="#8bafc8" vector-effect="non-scaling-stroke" d="
  M 170.46 46.17
  Q 170.05 45.82 169.64 45.11
  Q 161.89 31.79 147.91 7.52
  A 1.04 1.04 0.0 0 0 147.01 7.00
  L 134.00 7.00
  A 0.43 0.43 0.0 0 0 133.57 7.43
  L 133.57 60.04
  A 0.40 0.40 0.0 0 0 133.97 60.44
  L 143.27 60.44
  A 0.38 0.37 -0.7 0 0 143.65 60.06
  Q 143.63 40.99 143.62 32.55
  C 143.62 28.71 142.85 23.83 142.78 20.39
  A 0.22 0.21 -61.2 0 1 143.18 20.27
  L 166.17 60.10
  A 0.69 0.68 74.6 0 0 166.76 60.44
  L 179.98 60.44
  A 0.64 0.63 -0.0 0 0 180.62 59.81
  L 180.62 7.29
  A 0.30 0.30 0.0 0 0 180.32 6.99
  L 170.96 6.99
  A 0.34 0.33 90.0 0 0 170.63 7.33
  L 170.63 46.09
  A 0.10 0.10 0.0 0 1 170.46 46.17"
/>
<path stroke="#8bafc8" vector-effect="non-scaling-stroke" d="
  M 205.15 7.40
  A 0.40 0.40 0.0 0 0 204.75 7.00
  L 194.53 7.00
  A 0.40 0.40 0.0 0 0 194.13 7.40
  L 194.13 60.06
  A 0.40 0.40 0.0 0 0 194.53 60.46
  L 204.75 60.46
  A 0.40 0.40 0.0 0 0 205.15 60.06
  L 205.15 7.40"
/>
<path stroke="#8bafc8" vector-effect="non-scaling-stroke" d="
  M 240.44 37.40
  Q 249.53 37.42 250.38 37.43
  A 0.67 0.67 0.0 0 1 251.04 38.10
  L 251.04 59.90
  A 0.55 0.54 -90.0 0 0 251.58 60.45
  L 261.80 60.45
  A 0.46 0.46 0.0 0 0 262.26 59.99
  L 262.26 7.63
  A 0.60 0.60 0.0 0 0 261.66 7.03
  L 251.55 7.03
  A 0.58 0.58 0.0 0 0 250.97 7.61
  L 250.96 27.35
  A 0.64 0.64 0.0 0 1 250.39 27.99
  Q 249.67 28.07 240.45 28.06
  Q 231.24 28.05 230.51 27.96
  A 0.64 0.64 0.0 0 1 229.95 27.33
  L 229.98 7.59
  A 0.58 0.58 0.0 0 0 229.40 7.00
  L 219.29 6.98
  A 0.60 0.60 0.0 0 0 218.69 7.58
  L 218.57 59.94
  A 0.46 0.46 0.0 0 0 219.03 60.40
  L 229.25 60.42
  A 0.55 0.54 -89.9 0 0 229.79 59.88
  L 229.84 38.08
  A 0.67 0.67 0.0 0 1 230.51 37.41
  Q 231.36 37.39 240.44 37.40"
/>
<path stroke="#8bafc8" vector-effect="non-scaling-stroke" d="
  M 305.74 60.42
  A 0.43 0.43 0.0 0 0 306.17 59.99
  L 306.17 51.56
  A 0.43 0.43 0.0 0 0 305.74 51.13
  L 287.34 51.13
  A 0.43 0.43 0.0 0 1 286.91 50.70
  L 286.91 37.75
  A 0.43 0.43 0.0 0 1 287.34 37.32
  L 304.43 37.32
  A 0.43 0.43 0.0 0 0 304.86 36.89
  L 304.86 28.58
  A 0.43 0.43 0.0 0 0 304.43 28.15
  L 287.34 28.15
  A 0.43 0.43 0.0 0 1 286.91 27.72
  L 286.91 16.70
  A 0.43 0.43 0.0 0 1 287.34 16.27
  L 305.77 16.27
  A 0.43 0.43 0.0 0 0 306.20 15.84
  L 306.20 7.44
  A 0.43 0.43 0.0 0 0 305.77 7.01
  L 275.89 7.01
  A 0.43 0.43 0.0 0 0 275.46 7.44
  L 275.46 59.99
  A 0.43 0.43 0.0 0 0 275.89 60.42
  L 305.74 60.42"
/>
<path stroke="#8bafc8" vector-effect="non-scaling-stroke" d="
  M 329.06 51.13
  A 0.49 0.49 0.0 0 1 328.57 50.64
  L 328.57 7.47
  A 0.49 0.49 0.0 0 0 328.08 6.98
  L 317.83 6.98
  A 0.49 0.49 0.0 0 0 317.34 7.47
  L 317.34 59.92
  A 0.49 0.49 0.0 0 0 317.83 60.41
  L 349.60 60.41
  A 0.49 0.49 0.0 0 0 350.09 59.92
  L 350.09 51.62
  A 0.49 0.49 0.0 0 0 349.60 51.13
  L 329.06 51.13"
/>
<path stroke="#8bafc8" vector-effect="non-scaling-stroke" d="
  M 370.73 7.38
  A 0.38 0.38 0.0 0 0 370.35 7.00
  L 359.83 7.00
  A 0.38 0.38 0.0 0 0 359.45 7.38
  L 359.45 60.08
  A 0.38 0.38 0.0 0 0 359.83 60.46
  L 370.35 60.46
  A 0.38 0.38 0.0 0 0 370.73 60.08
  L 370.73 7.38"
/>
<path stroke="#fee48c" vector-effect="non-scaling-stroke" d="
  M 113.10 9.85
  Q 115.91 13.43 116.38 14.06
  Q 126.93 28.30 114.47 40.40
  C 113.16 41.67 107.82 45.01 105.29 43.94
  Q 104.40 43.57 103.88 43.44
  A 2.31 2.29 43.4 0 0 102.67 43.47
  Q 97.69 44.96 93.71 42.16
  A 0.49 0.49 0.0 0 0 93.02 42.84
  Q 100.69 54.33 113.53 48.73
  Q 121.70 45.18 124.75 37.75
  C 129.55 26.07 123.14 15.94 113.29 9.64
  A 0.14 0.14 0.0 0 0 113.10 9.85"
/>
<path stroke="#eb8f93" vector-effect="non-scaling-stroke" d="
  M 73.60 45.35
  Q 73.47 40.77 73.47 39.98
  Q 73.46 22.16 90.78 19.83
  C 92.59 19.59 98.91 20.08 100.31 22.46
  Q 100.81 23.29 101.16 23.71
  A 2.32 2.31 79.9 0 0 102.15 24.41
  Q 107.07 26.18 108.61 30.83
  A 0.50 0.49 -52.9 0 0 109.58 30.69
  Q 110.25 16.82 96.52 13.66
  Q 87.79 11.64 80.88 15.82
  C 70.01 22.39 69.13 34.42 73.32 45.40
  A 0.14 0.14 0.0 0 0 73.60 45.35"
/>
<path stroke="#f4a394" vector-effect="non-scaling-stroke" d="
  M 102.01 61.61
  Q 97.68 60.30 96.93 60.05
  Q 80.20 54.46 83.45 37.47
  C 83.80 35.68 86.25 29.91 88.92 29.34
  Q 89.86 29.13 90.36 28.94
  A 2.30 2.28 8.4 0 0 91.33 28.23
  Q 94.54 24.17 99.39 24.18
  A 0.49 0.49 0.0 0 0 99.56 23.23
  Q 86.74 18.23 79.46 30.14
  Q 74.83 37.70 76.58 45.50
  C 79.33 57.77 90.35 62.38 101.98 61.89
  A 0.14 0.14 0.0 0 0 102.01 61.61"
/>
<path stroke="#8bafc8" vector-effect="non-scaling-stroke" d="
  M 126.57 39.85
  Q 124.01 43.61 123.55 44.25
  Q 113.15 58.59 97.87 50.36
  C 96.27 49.49 91.48 45.41 91.74 42.68
  Q 91.82 41.72 91.79 41.18
  A 2.30 2.29 -64.1 0 0 91.40 40.04
  Q 88.48 35.74 89.95 31.11
  A 0.49 0.49 0.0 0 0 89.09 30.65
  Q 80.45 41.42 89.65 51.97
  Q 95.50 58.68 103.49 59.35
  C 116.07 60.41 123.79 51.25 126.83 39.97
  A 0.14 0.14 0.0 0 0 126.57 39.85"
/>
</g>
<path fill="#ffffff" d="
  M 378.00 0.00
  L 378.00 70.00
  L 0.00 70.00
  L 0.00 0.00
  L 378.00 0.00
  Z
  M 105.36 41.92
  A 0.36 0.36 0.0 0 0 105.67 42.55
  C 116.29 40.44 119.25 32.10 117.21 22.15
  Q 115.49 13.75 107.83 8.66
  C 98.70 2.60 88.73 7.21 80.89 12.69
  A 0.12 0.11 57.2 0 0 80.86 12.84
  L 80.99 13.07
  A 0.32 0.31 -29.1 0 0 81.41 13.18
  C 93.91 6.56 109.25 10.56 111.10 26.26
  Q 111.54 30.00 109.77 32.15
  A 2.03 2.01 -25.5 0 0 109.31 33.43
  Q 109.32 38.37 105.36 41.92
  Z
  M 54.87 19.40
  Q 53.98 37.29 54.43 59.77
  A 0.67 0.66 89.1 0 0 55.09 60.42
  L 64.25 60.42
  A 0.61 0.61 0.0 0 0 64.86 59.81
  L 64.86 7.49
  A 0.48 0.48 0.0 0 0 64.38 7.01
  L 50.48 7.01
  A 1.28 1.27 9.2 0 0 49.27 7.88
  L 36.35 47.10
  A 0.35 0.35 0.0 0 1 35.68 47.09
  L 23.55 7.55
  A 0.81 0.80 -8.2 0 0 22.78 6.98
  L 8.70 6.98
  A 0.62 0.62 0.0 0 0 8.08 7.60
  L 8.08 59.78
  A 0.62 0.61 -0.0 0 0 8.70 60.39
  L 17.40 60.39
  A 0.67 0.66 -0.0 0 0 18.07 59.73
  Q 18.16 47.46 18.06 32.31
  C 18.04 28.64 17.41 23.16 17.38 19.16
  A 0.25 0.24 -54.1 0 1 17.86 19.08
  L 30.36 59.85
  A 0.80 0.79 -8.4 0 0 31.12 60.41
  L 40.13 60.41
  A 0.99 0.99 0.0 0 0 41.07 59.74
  L 54.39 19.31
  A 0.25 0.25 0.0 0 1 54.87 19.40
  Z
  M 170.46 46.17
  Q 170.05 45.82 169.64 45.11
  Q 161.89 31.79 147.91 7.52
  A 1.04 1.04 0.0 0 0 147.01 7.00
  L 134.00 7.00
  A 0.43 0.43 0.0 0 0 133.57 7.43
  L 133.57 60.04
  A 0.40 0.40 0.0 0 0 133.97 60.44
  L 143.27 60.44
  A 0.38 0.37 -0.7 0 0 143.65 60.06
  Q 143.63 40.99 143.62 32.55
  C 143.62 28.71 142.85 23.83 142.78 20.39
  A 0.22 0.21 -61.2 0 1 143.18 20.27
  L 166.17 60.10
  A 0.69 0.68 74.6 0 0 166.76 60.44
  L 179.98 60.44
  A 0.64 0.63 -0.0 0 0 180.62 59.81
  L 180.62 7.29
  A 0.30 0.30 0.0 0 0 180.32 6.99
  L 170.96 6.99
  A 0.34 0.33 90.0 0 0 170.63 7.33
  L 170.63 46.09
  A 0.10 0.10 0.0 0 1 170.46 46.17
  Z
  M 205.15 7.40
  A 0.40 0.40 0.0 0 0 204.75 7.00
  L 194.53 7.00
  A 0.40 0.40 0.0 0 0 194.13 7.40
  L 194.13 60.06
  A 0.40 0.40 0.0 0 0 194.53 60.46
  L 204.75 60.46
  A 0.40 0.40 0.0 0 0 205.15 60.06
  L 205.15 7.40
  Z
  M 240.44 37.40
  Q 249.53 37.42 250.38 37.43
  A 0.67 0.67 0.0 0 1 251.04 38.10
  L 251.04 59.90
  A 0.55 0.54 -90.0 0 0 251.58 60.45
  L 261.80 60.45
  A 0.46 0.46 0.0 0 0 262.26 59.99
  L 262.26 7.63
  A 0.60 0.60 0.0 0 0 261.66 7.03
  L 251.55 7.03
  A 0.58 0.58 0.0 0 0 250.97 7.61
  L 250.96 27.35
  A 0.64 0.64 0.0 0 1 250.39 27.99
  Q 249.67 28.07 240.45 28.06
  Q 231.24 28.05 230.51 27.96
  A 0.64 0.64 0.0 0 1 229.95 27.33
  L 229.98 7.59
  A 0.58 0.58 0.0 0 0 229.40 7.00
  L 219.29 6.98
  A 0.60 0.60 0.0 0 0 218.69 7.58
  L 218.57 59.94
  A 0.46 0.46 0.0 0 0 219.03 60.40
  L 229.25 60.42
  A 0.55 0.54 -89.9 0 0 229.79 59.88
  L 229.84 38.08
  A 0.67 0.67 0.0 0 1 230.51 37.41
  Q 231.36 37.39 240.44 37.40
  Z
  M 305.74 60.42
  A 0.43 0.43 0.0 0 0 306.17 59.99
  L 306.17 51.56
  A 0.43 0.43 0.0 0 0 305.74 51.13
  L 287.34 51.13
  A 0.43 0.43 0.0 0 1 286.91 50.70
  L 286.91 37.75
  A 0.43 0.43 0.0 0 1 287.34 37.32
  L 304.43 37.32
  A 0.43 0.43 0.0 0 0 304.86 36.89
  L 304.86 28.58
  A 0.43 0.43 0.0 0 0 304.43 28.15
  L 287.34 28.15
  A 0.43 0.43 0.0 0 1 286.91 27.72
  L 286.91 16.70
  A 0.43 0.43 0.0 0 1 287.34 16.27
  L 305.77 16.27
  A 0.43 0.43 0.0 0 0 306.20 15.84
  L 306.20 7.44
  A 0.43 0.43 0.0 0 0 305.77 7.01
  L 275.89 7.01
  A 0.43 0.43 0.0 0 0 275.46 7.44
  L 275.46 59.99
  A 0.43 0.43 0.0 0 0 275.89 60.42
  L 305.74 60.42
  Z
  M 329.06 51.13
  A 0.49 0.49 0.0 0 1 328.57 50.64
  L 328.57 7.47
  A 0.49 0.49 0.0 0 0 328.08 6.98
  L 317.83 6.98
  A 0.49 0.49 0.0 0 0 317.34 7.47
  L 317.34 59.92
  A 0.49 0.49 0.0 0 0 317.83 60.41
  L 349.60 60.41
  A 0.49 0.49 0.0 0 0 350.09 59.92
  L 350.09 51.62
  A 0.49 0.49 0.0 0 0 349.60 51.13
  L 329.06 51.13
  Z
  M 370.73 7.38
  A 0.38 0.38 0.0 0 0 370.35 7.00
  L 359.83 7.00
  A 0.38 0.38 0.0 0 0 359.45 7.38
  L 359.45 60.08
  A 0.38 0.38 0.0 0 0 359.83 60.46
  L 370.35 60.46
  A 0.38 0.38 0.0 0 0 370.73 60.08
  L 370.73 7.38
  Z
  M 113.10 9.85
  Q 115.91 13.43 116.38 14.06
  Q 126.93 28.30 114.47 40.40
  C 113.16 41.67 107.82 45.01 105.29 43.94
  Q 104.40 43.57 103.88 43.44
  A 2.31 2.29 43.4 0 0 102.67 43.47
  Q 97.69 44.96 93.71 42.16
  A 0.49 0.49 0.0 0 0 93.02 42.84
  Q 100.69 54.33 113.53 48.73
  Q 121.70 45.18 124.75 37.75
  C 129.55 26.07 123.14 15.94 113.29 9.64
  A 0.14 0.14 0.0 0 0 113.10 9.85
  Z
  M 73.60 45.35
  Q 73.47 40.77 73.47 39.98
  Q 73.46 22.16 90.78 19.83
  C 92.59 19.59 98.91 20.08 100.31 22.46
  Q 100.81 23.29 101.16 23.71
  A 2.32 2.31 79.9 0 0 102.15 24.41
  Q 107.07 26.18 108.61 30.83
  A 0.50 0.49 -52.9 0 0 109.58 30.69
  Q 110.25 16.82 96.52 13.66
  Q 87.79 11.64 80.88 15.82
  C 70.01 22.39 69.13 34.42 73.32 45.40
  A 0.14 0.14 0.0 0 0 73.60 45.35
  Z
  M 102.01 61.61
  Q 97.68 60.30 96.93 60.05
  Q 80.20 54.46 83.45 37.47
  C 83.80 35.68 86.25 29.91 88.92 29.34
  Q 89.86 29.13 90.36 28.94
  A 2.30 2.28 8.4 0 0 91.33 28.23
  Q 94.54 24.17 99.39 24.18
  A 0.49 0.49 0.0 0 0 99.56 23.23
  Q 86.74 18.23 79.46 30.14
  Q 74.83 37.70 76.58 45.50
  C 79.33 57.77 90.35 62.38 101.98 61.89
  A 0.14 0.14 0.0 0 0 102.01 61.61
  Z
  M 126.57 39.85
  Q 124.01 43.61 123.55 44.25
  Q 113.15 58.59 97.87 50.36
  C 96.27 49.49 91.48 45.41 91.74 42.68
  Q 91.82 41.72 91.79 41.18
  A 2.30 2.29 -64.1 0 0 91.40 40.04
  Q 88.48 35.74 89.95 31.11
  A 0.49 0.49 0.0 0 0 89.09 30.65
  Q 80.45 41.42 89.65 51.97
  Q 95.50 58.68 103.49 59.35
  C 116.07 60.41 123.79 51.25 126.83 39.97
  A 0.14 0.14 0.0 0 0 126.57 39.85
  Z"
/>
<path fill="#1d723b" d="
  M 105.36 41.92
  Q 109.32 38.37 109.31 33.43
  A 2.03 2.01 -25.5 0 1 109.77 32.15
  Q 111.54 30.00 111.10 26.26
  C 109.25 10.56 93.91 6.56 81.41 13.18
  A 0.32 0.31 -29.1 0 1 80.99 13.07
  L 80.86 12.84
  A 0.12 0.11 57.2 0 1 80.89 12.69
  C 88.73 7.21 98.70 2.60 107.83 8.66
  Q 115.49 13.75 117.21 22.15
  C 119.25 32.10 116.29 40.44 105.67 42.55
  A 0.36 0.36 0.0 0 1 105.36 41.92
  Z"
/>
<path fill="#165f91" d="
  M 54.87 19.40
  A 0.25 0.25 0.0 0 0 54.39 19.31
  L 41.07 59.74
  A 0.99 0.99 0.0 0 1 40.13 60.41
  L 31.12 60.41
  A 0.80 0.79 -8.4 0 1 30.36 59.85
  L 17.86 19.08
  A 0.25 0.24 -54.1 0 0 17.38 19.16
  C 17.41 23.16 18.04 28.64 18.06 32.31
  Q 18.16 47.46 18.07 59.73
  A 0.67 0.66 0.0 0 1 17.40 60.39
  L 8.70 60.39
  A 0.62 0.61 0.0 0 1 8.08 59.78
  L 8.08 7.60
  A 0.62 0.62 0.0 0 1 8.70 6.98
  L 22.78 6.98
  A 0.81 0.80 -8.2 0 1 23.55 7.55
  L 35.68 47.09
  A 0.35 0.35 0.0 0 0 36.35 47.10
  L 49.27 7.88
  A 1.28 1.27 9.2 0 1 50.48 7.01
  L 64.38 7.01
  A 0.48 0.48 0.0 0 1 64.86 7.49
  L 64.86 59.81
  A 0.61 0.61 0.0 0 1 64.25 60.42
  L 55.09 60.42
  A 0.67 0.66 89.1 0 1 54.43 59.77
  Q 53.98 37.29 54.87 19.40
  Z"
/>
<path fill="#165f91" d="
  M 170.46 46.17
  A 0.10 0.10 0.0 0 0 170.63 46.09
  L 170.63 7.33
  A 0.34 0.33 90.0 0 1 170.96 6.99
  L 180.32 6.99
  A 0.30 0.30 0.0 0 1 180.62 7.29
  L 180.62 59.81
  A 0.64 0.63 -0.0 0 1 179.98 60.44
  L 166.76 60.44
  A 0.69 0.68 74.6 0 1 166.17 60.10
  L 143.18 20.27
  A 0.22 0.21 -61.2 0 0 142.78 20.39
  C 142.85 23.83 143.62 28.71 143.62 32.55
  Q 143.63 40.99 143.65 60.06
  A 0.38 0.37 -0.7 0 1 143.27 60.44
  L 133.97 60.44
  A 0.40 0.40 0.0 0 1 133.57 60.04
  L 133.57 7.43
  A 0.43 0.43 0.0 0 1 134.00 7.00
  L 147.01 7.00
  A 1.04 1.04 0.0 0 1 147.91 7.52
  Q 161.89 31.79 169.64 45.11
  Q 170.05 45.82 170.46 46.17
  Z"
/>
<rect fill="#165f91" x="194.13" y="7.00" width="11.02" height="53.46" rx="0.40"/>
<path fill="#165f91" d="
  M 240.45 28.06
  Q 249.67 28.07 250.39 27.99
  A 0.64 0.64 0.0 0 0 250.96 27.35
  L 250.97 7.61
  A 0.58 0.58 0.0 0 1 251.55 7.03
  L 261.66 7.03
  A 0.60 0.60 0.0 0 1 262.26 7.63
  L 262.26 59.99
  A 0.46 0.46 0.0 0 1 261.80 60.45
  L 251.58 60.45
  A 0.55 0.54 -90.0 0 1 251.04 59.90
  L 251.04 38.10
  A 0.67 0.67 0.0 0 0 250.38 37.43
  Q 249.53 37.42 240.44 37.40
  Q 231.36 37.39 230.51 37.41
  A 0.67 0.67 0.0 0 0 229.84 38.08
  L 229.79 59.88
  A 0.55 0.54 -89.9 0 1 229.25 60.42
  L 219.03 60.40
  A 0.46 0.46 0.0 0 1 218.57 59.94
  L 218.69 7.58
  A 0.60 0.60 0.0 0 1 219.29 6.98
  L 229.40 7.00
  A 0.58 0.58 0.0 0 1 229.98 7.59
  L 229.95 27.33
  A 0.64 0.64 0.0 0 0 230.51 27.96
  Q 231.24 28.05 240.45 28.06
  Z"
/>
<path fill="#165f91" d="
  M 305.74 60.42
  L 275.89 60.42
  A 0.43 0.43 0.0 0 1 275.46 59.99
  L 275.46 7.44
  A 0.43 0.43 0.0 0 1 275.89 7.01
  L 305.77 7.01
  A 0.43 0.43 0.0 0 1 306.20 7.44
  L 306.20 15.84
  A 0.43 0.43 0.0 0 1 305.77 16.27
  L 287.34 16.27
  A 0.43 0.43 0.0 0 0 286.91 16.70
  L 286.91 27.72
  A 0.43 0.43 0.0 0 0 287.34 28.15
  L 304.43 28.15
  A 0.43 0.43 0.0 0 1 304.86 28.58
  L 304.86 36.89
  A 0.43 0.43 0.0 0 1 304.43 37.32
  L 287.34 37.32
  A 0.43 0.43 0.0 0 0 286.91 37.75
  L 286.91 50.70
  A 0.43 0.43 0.0 0 0 287.34 51.13
  L 305.74 51.13
  A 0.43 0.43 0.0 0 1 306.17 51.56
  L 306.17 59.99
  A 0.43 0.43 0.0 0 1 305.74 60.42
  Z"
/>
<path fill="#165f91" d="
  M 329.06 51.13
  L 349.60 51.13
  A 0.49 0.49 0.0 0 1 350.09 51.62
  L 350.09 59.92
  A 0.49 0.49 0.0 0 1 349.60 60.41
  L 317.83 60.41
  A 0.49 0.49 0.0 0 1 317.34 59.92
  L 317.34 7.47
  A 0.49 0.49 0.0 0 1 317.83 6.98
  L 328.08 6.98
  A 0.49 0.49 0.0 0 1 328.57 7.47
  L 328.57 50.64
  A 0.49 0.49 0.0 0 0 329.06 51.13
  Z"
/>
<rect fill="#165f91" x="359.45" y="7.00" width="11.28" height="53.46" rx="0.38"/>
<path fill="#fdc818" d="
  M 113.29 9.64
  C 123.14 15.94 129.55 26.07 124.75 37.75
  Q 121.70 45.18 113.53 48.73
  Q 100.69 54.33 93.02 42.84
  A 0.49 0.49 0.0 0 1 93.71 42.16
  Q 97.69 44.96 102.67 43.47
  A 2.31 2.29 43.4 0 1 103.88 43.44
  Q 104.40 43.57 105.29 43.94
  C 107.82 45.01 113.16 41.67 114.47 40.40
  Q 126.93 28.30 116.38 14.06
  Q 115.91 13.43 113.10 9.85
  A 0.14 0.14 0.0 0 1 113.29 9.64
  Z"
/>
<path fill="#d61f27" d="
  M 73.60 45.35
  A 0.14 0.14 0.0 0 1 73.32 45.40
  C 69.13 34.42 70.01 22.39 80.88 15.82
  Q 87.79 11.64 96.52 13.66
  Q 110.25 16.82 109.58 30.69
  A 0.50 0.49 -52.9 0 1 108.61 30.83
  Q 107.07 26.18 102.15 24.41
  A 2.32 2.31 79.9 0 1 101.16 23.71
  Q 100.81 23.29 100.31 22.46
  C 98.91 20.08 92.59 19.59 90.78 19.83
  Q 73.46 22.16 73.47 39.98
  Q 73.47 40.77 73.60 45.35
  Z"
/>
<path fill="#e84628" d="
  M 102.01 61.61
  A 0.14 0.14 0.0 0 1 101.98 61.89
  C 90.35 62.38 79.33 57.77 76.58 45.50
  Q 74.83 37.70 79.46 30.14
  Q 86.74 18.23 99.56 23.23
  A 0.49 0.49 0.0 0 1 99.39 24.18
  Q 94.54 24.17 91.33 28.23
  A 2.30 2.28 8.4 0 1 90.36 28.94
  Q 89.86 29.13 88.92 29.34
  C 86.25 29.91 83.80 35.68 83.45 37.47
  Q 80.20 54.46 96.93 60.05
  Q 97.68 60.30 102.01 61.61
  Z"
/>
<path fill="#165f91" d="
  M 126.57 39.85
  A 0.14 0.14 0.0 0 1 126.83 39.97
  C 123.79 51.25 116.07 60.41 103.49 59.35
  Q 95.50 58.68 89.65 51.97
  Q 80.45 41.42 89.09 30.65
  A 0.49 0.49 0.0 0 1 89.95 31.11
  Q 88.48 35.74 91.40 40.04
  A 2.30 2.29 -64.1 0 1 91.79 41.18
  Q 91.82 41.72 91.74 42.68
  C 91.48 45.41 96.27 49.49 97.87 50.36
  Q 113.15 58.59 123.55 44.25
  Q 124.01 43.61 126.57 39.85
  Z"
/>
</svg>
