<?xml version="1.0" encoding="UTF-8" standalone="no"?>
<!DOCTYPE svg PUBLIC "-//W3C//DTD SVG 1.1//EN" "http://www.w3.org/Graphics/SVG/1.1/DTD/svg11.dtd">
<svg xmlns="http://www.w3.org/2000/svg" version="1.1" viewBox="0.00 0.00 407.00 189.00">
<path fill="#f18800" d="
  M 82.34 22.47
  C 108.62 22.49 120.33 46.79 120.32 69.99
  C 120.31 93.20 108.57 117.49 82.29 117.47
  C 56.01 117.46 44.30 93.16 44.31 69.96
  C 44.33 46.75 56.06 22.46 82.34 22.47
  Z
  M 63.45 69.97
  C 63.45 82.88 67.34 102.72 82.32 102.72
  C 97.30 102.72 101.20 82.87 101.19 69.97
  C 101.19 57.06 97.30 37.21 82.32 37.21
  C 67.34 37.21 63.45 57.06 63.45 69.97
  Z"
/>
<path fill="#f18800" d="
  M 157.75 24.00
  Q 162.85 24.00 163.92 24.04
  A 3.33 3.32 82.4 0 1 166.97 26.38
  Q 168.00 29.71 193.31 112.98
  Q 193.87 114.83 192.71 115.66
  A 1.56 1.52 -62.5 0 1 191.80 115.96
  Q 187.23 116.04 177.78 115.99
  C 175.42 115.98 174.52 114.45 173.94 112.23
  Q 168.48 90.95 157.94 50.45
  Q 157.92 50.35 157.75 50.35
  Q 157.58 50.35 157.56 50.45
  Q 147.02 90.95 141.57 112.23
  C 140.99 114.45 140.09 115.98 137.73 115.99
  Q 128.28 116.04 123.71 115.96
  A 1.56 1.52 62.5 0 1 122.80 115.66
  Q 121.64 114.83 122.20 112.98
  Q 147.50 29.71 148.53 26.38
  A 3.33 3.32 -82.4 0 1 151.58 24.04
  Q 152.64 24.00 157.75 24.00
  Z"
/>
<path fill="#f18800" d="
  M 272.25 43.85
  A 0.14 0.14 0.0 0 0 271.97 43.82
  Q 270.18 51.52 255.73 113.69
  Q 255.24 115.83 252.47 115.91
  Q 246.28 116.09 241.01 115.98
  A 3.33 3.31 -5.8 0 1 237.85 113.42
  L 221.84 44.45
  A 0.19 0.19 0.0 0 0 221.47 44.50
  Q 221.51 55.28 221.50 112.76
  Q 221.50 115.98 218.52 115.99
  Q 210.83 116.02 205.36 115.99
  A 2.61 2.61 0.0 0 1 202.76 113.39
  Q 202.74 54.15 202.76 27.25
  C 202.76 25.01 203.71 23.99 206.04 23.99
  Q 218.60 24.00 231.15 24.02
  C 232.75 24.02 233.74 25.96 234.01 27.47
  Q 234.05 27.72 246.65 88.90
  A 0.18 0.18 0.0 0 0 247.00 88.90
  L 259.87 26.43
  A 3.05 3.05 0.0 0 1 262.86 23.99
  Q 279.79 24.02 287.52 23.98
  C 290.42 23.96 290.80 25.21 290.76 27.72
  Q 290.74 28.93 290.75 113.25
  Q 290.75 115.95 287.75 115.98
  Q 281.02 116.03 274.58 115.98
  A 2.34 2.34 0.0 0 1 272.25 113.64
  L 272.25 43.85
  Z"
/>
<path fill="#f18800" d="
  M 352.83 24.01
  A 1.31 1.31 0.0 0 1 353.97 25.96
  Q 353.28 27.19 328.90 67.38
  Q 327.87 69.07 329.28 71.24
  Q 343.73 93.38 357.04 113.46
  Q 357.26 113.80 357.43 114.40
  A 1.24 1.24 0.0 0 1 356.25 115.97
  Q 346.54 116.13 339.14 115.89
  Q 337.23 115.83 335.57 113.44
  Q 328.74 103.66 306.90 71.80
  Q 306.12 70.67 306.57 68.34
  A 2.81 2.70 67.8 0 1 306.95 67.38
  L 332.20 26.26
  A 4.74 4.71 15.7 0 1 336.23 24.01
  L 352.83 24.01
  Z"
/>
<path fill="#000000" d="
  M 106.3024 130.7800
  A 7.08 5.71 -89.9 0 1 112.0000 137.8700
  A 7.08 5.71 -89.9 0 1 106.2776 144.9400
  A 7.08 5.71 -89.9 0 1 100.5800 137.8500
  A 7.08 5.71 -89.9 0 1 106.3024 130.7800
  Z
  M 106.2573 133.1801
  A 4.68 2.63 -90.4 0 0 103.6601 137.8784
  A 4.68 2.63 -90.4 0 0 106.3227 142.5399
  A 4.68 2.63 -90.4 0 0 108.9199 137.8416
  A 4.68 2.63 -90.4 0 0 106.2573 133.1801
  Z"
/>
<path fill="#000000" d="
  M 119.66 142.27
  Q 121.59 142.26 121.55 139.32
  Q 121.50 135.21 121.47 131.54
  A 0.57 0.56 -0.5 0 1 122.04 130.97
  L 123.92 130.97
  A 0.56 0.56 0.0 0 1 124.48 131.53
  Q 124.50 140.03 124.48 140.49
  C 124.36 143.56 122.53 144.78 119.66 144.79
  C 116.80 144.79 114.96 143.59 114.82 140.52
  Q 114.80 140.06 114.76 131.56
  A 0.56 0.56 0.0 0 1 115.32 131.00
  L 117.20 130.99
  A 0.57 0.56 0.1 0 1 117.77 131.55
  Q 117.77 135.22 117.74 139.33
  Q 117.72 142.28 119.66 142.27
  Z"
/>
<path fill="#000000" d="
  M 135.80 144.71
  L 128.15 144.71
  A 0.46 0.46 0.0 0 1 127.69 144.25
  L 127.69 131.49
  A 0.46 0.46 0.0 0 1 128.15 131.03
  L 130.12 131.03
  A 0.46 0.46 0.0 0 1 130.58 131.49
  L 130.58 141.59
  A 0.46 0.46 0.0 0 0 131.04 142.05
  L 135.80 142.05
  A 0.46 0.46 0.0 0 1 136.26 142.51
  L 136.26 144.25
  A 0.46 0.46 0.0 0 1 135.80 144.71
  Z"
/>
<path fill="#000000" d="
  M 143.65 144.78
  C 140.78 144.79 138.95 143.58 138.81 140.52
  Q 138.79 140.05 138.77 131.56
  A 0.56 0.56 0.0 0 1 139.32 131.00
  L 141.20 130.99
  A 0.57 0.56 0.2 0 1 141.78 131.55
  Q 141.76 135.22 141.73 139.33
  Q 141.71 142.27 143.65 142.27
  Q 145.58 142.27 145.54 139.32
  Q 145.50 135.22 145.47 131.55
  A 0.57 0.56 -0.4 0 1 146.04 130.98
  L 147.92 130.98
  A 0.56 0.56 0.0 0 1 148.48 131.54
  Q 148.49 140.04 148.47 140.50
  C 148.34 143.56 146.51 144.78 143.65 144.78
  Z"
/>
<path fill="#000000" d="
  M 163.46 144.75
  C 160.61 144.75 158.79 143.55 158.65 140.51
  Q 158.63 140.05 158.61 131.60
  A 0.56 0.56 0.0 0 1 159.16 131.04
  L 161.03 131.03
  A 0.57 0.56 0.2 0 1 161.60 131.60
  Q 161.59 135.24 161.56 139.33
  Q 161.53 142.25 163.45 142.25
  Q 165.38 142.25 165.34 139.32
  Q 165.30 135.24 165.27 131.59
  A 0.57 0.56 -0.4 0 1 165.84 131.02
  L 167.71 131.02
  A 0.56 0.56 0.0 0 1 168.26 131.58
  Q 168.27 140.03 168.25 140.49
  C 168.13 143.53 166.31 144.74 163.46 144.75
  Z"
/>
<path fill="#000000" d="
  M 178.96 138.32
  A 0.19 0.19 0.0 0 0 179.32 138.23
  L 179.28 131.54
  A 0.46 0.45 89.7 0 1 179.73 131.07
  L 181.81 131.06
  A 0.47 0.47 0.0 0 1 182.28 131.53
  L 182.34 144.08
  A 0.61 0.60 89.7 0 1 181.75 144.69
  L 179.81 144.70
  A 0.89 0.89 0.0 0 1 179.00 144.19
  L 174.77 135.29
  A 0.19 0.19 0.0 0 0 174.41 135.37
  L 174.46 144.17
  A 0.52 0.52 0.0 0 1 173.94 144.69
  L 171.96 144.70
  A 0.50 0.50 0.0 0 1 171.46 144.20
  L 171.40 131.67
  A 0.58 0.58 0.0 0 1 171.97 131.08
  L 174.95 131.07
  A 0.89 0.89 0.0 0 1 175.76 131.58
  L 178.96 138.32
  Z"
/>
<rect fill="#000000" x="-1.51" y="-6.87" transform="translate(187.00,137.89) rotate(0.1)" width="3.02" height="13.74" rx="0.46"/>
<path fill="#000000" d="
  M 196.13 139.97
  Q 196.37 139.94 198.39 131.54
  A 0.69 0.68 6.8 0 1 199.06 131.02
  L 201.09 131.02
  A 0.41 0.41 0.0 0 1 201.48 131.55
  L 197.60 144.19
  A 0.88 0.86 -87.4 0 1 196.95 144.79
  Q 196.93 144.79 196.12 144.79
  Q 195.31 144.79 195.29 144.78
  A 0.88 0.86 87.7 0 1 194.65 144.18
  L 190.81 131.53
  A 0.41 0.41 0.0 0 1 191.21 131.00
  L 193.24 131.01
  A 0.69 0.68 -6.6 0 1 193.90 131.53
  Q 195.89 139.94 196.13 139.97
  Z"
/>
<path fill="#000000" d="
  M 203.74 137.84
  Q 203.70 132.49 203.70 131.76
  A 0.75 0.74 -0.5 0 1 204.44 131.02
  L 211.98 130.91
  A 0.48 0.47 -0.8 0 1 212.46 131.37
  L 212.48 133.01
  A 0.46 0.46 0.0 0 1 212.03 133.47
  L 207.22 133.54
  A 0.59 0.58 -0.8 0 0 206.64 134.13
  L 206.67 135.96
  A 0.60 0.60 0.0 0 0 207.28 136.55
  L 210.47 136.51
  A 0.79 0.79 0.0 0 1 211.25 137.14
  Q 211.32 137.45 211.32 137.79
  Q 211.32 138.12 211.26 138.43
  A 0.79 0.79 0.0 0 1 210.49 139.08
  L 207.29 139.08
  A 0.60 0.60 0.0 0 0 206.70 139.68
  L 206.70 141.51
  A 0.59 0.58 -0.1 0 0 207.29 142.09
  L 212.10 142.08
  A 0.46 0.46 0.0 0 1 212.56 142.54
  L 212.56 144.18
  A 0.48 0.47 -0.1 0 1 212.08 144.65
  L 204.54 144.65
  A 0.75 0.74 -0.4 0 1 203.79 143.92
  Q 203.78 143.20 203.74 137.84
  Z"
/>
<path fill="#000000" d="
  M 225.76 144.13
  A 0.44 0.43 -11.9 0 1 225.36 144.74
  L 223.35 144.74
  A 0.62 0.61 -11.8 0 1 222.79 144.38
  L 220.47 139.45
  A 0.91 0.91 0.0 0 0 218.74 139.83
  L 218.74 144.29
  A 0.46 0.46 0.0 0 1 218.28 144.75
  L 216.19 144.75
  A 0.45 0.45 0.0 0 1 215.74 144.30
  L 215.74 131.63
  A 0.64 0.63 0.0 0 1 216.38 131.00
  Q 218.09 130.98 220.79 131.01
  C 224.47 131.04 226.81 134.01 224.71 137.43
  Q 224.47 137.83 223.92 138.11
  Q 223.45 138.34 223.46 138.82
  A 0.38 0.31 39.0 0 0 223.49 138.96
  L 225.76 144.13
  Z
  M 218.77 133.95
  L 218.77 136.11
  A 0.43 0.43 0.0 0 0 219.19 136.54
  L 219.96 136.55
  A 2.54 1.34 0.2 0 0 222.51 135.22
  L 222.51 134.88
  A 2.54 1.34 0.2 0 0 219.98 133.53
  L 219.21 133.52
  A 0.43 0.43 0.0 0 0 218.77 133.95
  Z"
/>
<path fill="#000000" d="
  M 235.39 135.21
  A 0.67 0.66 -12.5 0 1 234.58 134.70
  Q 234.44 134.04 233.77 133.51
  A 0.73 0.72 -55.5 0 0 232.70 133.71
  L 231.88 135.05
  A 0.48 0.48 0.0 0 0 232.13 135.75
  Q 234.24 136.52 235.81 137.15
  A 3.39 3.25 -81.5 0 1 237.86 140.04
  C 238.24 145.82 230.32 146.55 228.40 141.51
  A 0.56 0.55 -22.3 0 1 228.70 140.80
  Q 231.10 139.74 231.76 141.34
  A 1.72 1.63 -38.8 0 0 234.67 141.59
  Q 235.52 140.43 234.47 139.76
  Q 234.27 139.64 231.11 138.41
  C 224.13 135.66 233.62 125.79 237.47 133.82
  A 0.72 0.71 -19.6 0 1 236.99 134.82
  L 235.39 135.21
  Z"
/>
<rect fill="#000000" x="241.00" y="130.99" width="2.76" height="13.76" rx="0.46"/>
<path fill="#000000" d="
  M 251.33 131.00
  Q 253.66 131.01 255.59 131.04
  A 0.63 0.62 0.2 0 1 256.21 131.66
  L 256.21 132.96
  A 0.57 0.57 0.0 0 1 255.64 133.53
  L 253.35 133.53
  A 0.58 0.57 -0.0 0 0 252.77 134.10
  L 252.77 144.06
  A 0.66 0.66 0.0 0 1 252.16 144.72
  Q 251.76 144.75 251.22 144.74
  Q 250.69 144.74 250.29 144.71
  A 0.66 0.66 0.0 0 1 249.69 144.04
  L 249.84 134.08
  A 0.58 0.57 0.9 0 0 249.27 133.50
  L 246.98 133.46
  A 0.57 0.57 0.0 0 1 246.42 132.89
  L 246.44 131.59
  A 0.63 0.62 0.7 0 1 247.07 130.97
  Q 249.00 130.98 251.33 131.00
  Z"
/>
<path fill="#000000" d="
  M 263.48 136.27
  Q 263.54 136.27 263.58 136.26
  A 0.23 0.05 -8.8 0 0 263.76 136.19
  L 266.08 131.52
  A 0.97 0.96 -76.4 0 1 266.94 130.99
  L 268.81 130.99
  A 0.42 0.41 -75.2 0 1 269.17 131.61
  L 265.25 138.69
  A 2.09 2.04 -31.2 0 0 264.99 139.69
  L 264.99 143.98
  A 0.76 0.76 0.0 0 1 264.26 144.74
  Q 263.88 144.76 263.49 144.76
  Q 263.10 144.76 262.71 144.74
  A 0.76 0.76 0.0 0 1 261.98 143.98
  L 261.98 139.69
  A 2.09 2.04 31.1 0 0 261.72 138.69
  L 257.79 131.62
  A 0.42 0.41 75.2 0 1 258.15 131.00
  L 260.02 130.99
  A 0.97 0.96 76.3 0 1 260.88 131.52
  L 263.20 136.19
  A 0.23 0.05 8.7 0 0 263.38 136.26
  Q 263.42 136.27 263.48 136.27
  Z"
/>
<path fill="#000000" d="
  M 283.9200 130.7800
  A 7.08 5.71 -90.0 0 1 289.6300 137.8600
  A 7.08 5.71 -90.0 0 1 283.9200 144.9400
  A 7.08 5.71 -90.0 0 1 278.2100 137.8600
  A 7.08 5.71 -90.0 0 1 283.9200 130.7800
  Z
  M 283.8938 133.2200
  A 4.65 2.65 -90.2 0 0 281.2600 137.8793
  A 4.65 2.65 -90.2 0 0 283.9262 142.5200
  A 4.65 2.65 -90.2 0 0 286.5600 137.8607
  A 4.65 2.65 -90.2 0 0 283.8938 133.2200
  Z"
/>
<path fill="#000000" d="
  M 300.49 133.50
  L 296.02 133.50
  A 0.51 0.51 0.0 0 0 295.51 134.01
  L 295.51 135.98
  A 0.51 0.51 0.0 0 0 296.02 136.49
  L 299.26 136.49
  A 0.51 0.51 0.0 0 1 299.77 137.00
  L 299.77 138.47
  A 0.51 0.51 0.0 0 1 299.26 138.98
  L 296.01 138.98
  A 0.51 0.51 0.0 0 0 295.50 139.49
  L 295.50 144.25
  A 0.51 0.51 0.0 0 1 294.99 144.76
  L 293.00 144.76
  A 0.51 0.51 0.0 0 1 292.49 144.25
  L 292.49 131.51
  A 0.51 0.51 0.0 0 1 293.00 131.00
  L 300.49 131.00
  A 0.51 0.51 0.0 0 1 301.00 131.51
  L 301.00 132.99
  A 0.51 0.51 0.0 0 1 300.49 133.50
  Z"
/>
<path fill="#000000" d="
  M 205.41 159.61
  A 0.67 0.66 -12.7 0 1 204.59 159.10
  Q 204.46 158.45 203.78 157.91
  A 0.73 0.72 -55.6 0 0 202.72 158.12
  L 201.90 159.46
  A 0.48 0.48 0.0 0 0 202.15 160.16
  Q 204.27 160.92 205.83 161.55
  A 3.39 3.25 -81.7 0 1 207.89 164.44
  C 208.29 170.22 200.37 170.97 198.43 165.93
  A 0.56 0.55 -22.5 0 1 198.73 165.22
  Q 201.13 164.16 201.79 165.76
  A 1.72 1.63 -39.0 0 0 204.70 165.99
  Q 205.56 164.83 204.50 164.17
  Q 204.30 164.04 201.14 162.82
  C 194.15 160.09 203.61 150.19 207.49 158.21
  A 0.72 0.71 -19.8 0 1 207.01 159.22
  L 205.41 159.61
  Z"
/>
<path fill="#000000" d="
  M 213.71 162.25
  Q 213.72 163.59 214.19 165.17
  A 2.28 2.10 79.7 0 0 216.34 166.79
  Q 218.16 166.72 218.59 164.40
  A 0.29 0.28 10.7 0 1 218.93 164.17
  L 221.24 164.65
  A 0.21 0.20 -77.9 0 1 221.40 164.90
  Q 220.88 167.45 219.48 168.27
  C 214.39 171.22 210.71 167.32 210.70 162.26
  C 210.69 157.20 214.36 153.28 219.46 156.21
  Q 220.86 157.03 221.39 159.58
  A 0.21 0.20 77.7 0 1 221.23 159.83
  L 218.92 160.31
  A 0.29 0.28 -11.0 0 1 218.58 160.09
  Q 218.14 157.77 216.32 157.70
  A 2.28 2.10 -79.9 0 0 214.18 159.33
  Q 213.71 160.92 213.71 162.25
  Z"
/>
<path fill="#000000" d="
  M 256.51 162.26
  C 256.50 157.20 260.16 153.28 265.26 156.22
  Q 266.66 157.03 267.19 159.58
  A 0.21 0.20 77.7 0 1 267.03 159.83
  L 264.73 160.31
  A 0.29 0.28 -11.0 0 1 264.39 160.09
  Q 263.95 157.77 262.13 157.71
  A 2.28 2.10 -79.9 0 0 259.99 159.33
  Q 259.52 160.92 259.52 162.25
  Q 259.52 163.59 260.00 165.17
  A 2.28 2.10 79.7 0 0 262.15 166.79
  Q 263.97 166.72 264.40 164.40
  A 0.29 0.28 10.7 0 1 264.74 164.17
  L 267.04 164.65
  A 0.21 0.20 -77.9 0 1 267.20 164.90
  Q 266.69 167.45 265.29 168.26
  C 260.20 171.22 256.52 167.32 256.51 162.26
  Z"
/>
<path fill="#000000" d="
  M 288.24 159.14
  Q 288.11 158.48 287.44 157.94
  A 0.73 0.72 -55.0 0 0 286.37 158.13
  L 285.54 159.47
  A 0.48 0.48 0.0 0 0 285.78 160.17
  Q 287.89 160.96 289.45 161.60
  A 3.40 3.26 -81.0 0 1 291.48 164.52
  C 291.81 170.31 283.87 170.97 281.99 165.91
  A 0.56 0.55 -21.8 0 1 282.30 165.20
  Q 284.71 164.16 285.36 165.77
  A 1.72 1.64 -38.3 0 0 288.27 166.04
  Q 289.14 164.89 288.09 164.21
  Q 287.89 164.08 284.74 162.82
  C 277.77 160.01 287.36 150.20 291.15 158.28
  A 0.72 0.71 -19.1 0 1 290.66 159.28
  L 289.05 159.66
  A 0.67 0.66 -12.0 0 1 288.24 159.14
  Z"
/>
<path fill="#000000" d="
  M 115.95 155.53
  Q 116.70 155.53 117.29 155.46
  A 0.63 0.63 0.0 0 1 117.97 155.91
  L 121.56 168.35
  A 0.49 0.49 0.0 0 1 121.09 168.97
  L 119.33 168.98
  A 0.82 0.81 81.9 0 1 118.55 168.39
  L 117.96 166.37
  A 0.84 0.83 -7.6 0 0 117.16 165.77
  Q 116.84 165.77 115.97 165.77
  Q 115.09 165.77 114.77 165.77
  A 0.84 0.83 7.4 0 0 113.97 166.38
  L 113.39 168.40
  A 0.82 0.81 -82.1 0 1 112.61 168.99
  L 110.85 168.99
  A 0.49 0.49 0.0 0 1 110.38 168.37
  L 113.92 155.92
  A 0.63 0.63 0.0 0 1 114.60 155.47
  Q 115.19 155.53 115.95 155.53
  Z
  M 115.97 163.27
  Q 116.44 163.27 116.58 163.23
  A 0.60 0.60 0.0 0 0 117.00 162.52
  Q 116.21 159.09 115.96 159.09
  Q 115.70 159.09 114.94 162.53
  A 0.60 0.60 0.0 0 0 115.37 163.23
  Q 115.51 163.27 115.97 163.27
  Z"
/>
<path fill="#000000" d="
  M 126.83 168.43
  A 0.52 0.52 0.0 0 1 126.31 168.95
  L 124.48 168.95
  A 0.51 0.51 0.0 0 1 123.97 168.44
  L 123.97 156.20
  A 0.64 0.64 0.0 0 1 124.59 155.56
  C 128.19 155.45 133.74 154.59 133.66 159.94
  C 133.60 163.52 130.57 163.93 127.45 164.04
  A 0.64 0.64 0.0 0 0 126.83 164.68
  L 126.83 168.43
  Z
  M 126.70 158.51
  L 126.81 161.06
  A 0.50 0.50 0.0 0 0 127.33 161.54
  L 128.15 161.51
  A 2.62 1.66 -2.5 0 0 130.69 159.73
  L 130.68 159.49
  A 2.62 1.66 -2.5 0 0 127.99 157.95
  L 127.17 157.99
  A 0.50 0.50 0.0 0 0 126.70 158.51
  Z"
/>
<path fill="#000000" d="
  M 139.17 168.49
  A 0.52 0.52 0.0 0 1 138.65 169.02
  L 136.81 169.02
  A 0.51 0.51 0.0 0 1 136.29 168.51
  L 136.25 156.17
  A 0.65 0.65 0.0 0 1 136.88 155.52
  C 140.51 155.40 146.10 154.51 146.04 159.91
  C 145.99 163.52 142.93 163.94 139.79 164.06
  A 0.65 0.65 0.0 0 0 139.16 164.71
  L 139.17 168.49
  Z
  M 139.19 158.49
  L 139.29 161.05
  A 0.49 0.49 0.0 0 0 139.80 161.52
  L 140.89 161.48
  A 2.26 1.56 -2.1 0 0 143.09 159.84
  L 143.07 159.42
  A 2.26 1.56 -2.1 0 0 140.76 157.94
  L 139.67 157.98
  A 0.49 0.49 0.0 0 0 139.19 158.49
  Z"
/>
<path fill="#000000" d="
  M 156.84 166.44
  A 0.42 0.42 0.0 0 1 157.25 166.86
  L 157.23 168.62
  A 0.44 0.43 -89.5 0 1 156.80 169.05
  L 149.38 169.04
  A 0.61 0.61 0.0 0 1 148.77 168.43
  L 148.82 155.96
  A 0.50 0.49 -89.0 0 1 149.32 155.47
  L 151.22 155.49
  A 0.51 0.50 1.1 0 1 151.71 155.99
  L 151.66 165.92
  A 0.51 0.51 0.0 0 0 152.16 166.43
  L 156.84 166.44
  Z"
/>
<rect fill="#000000" x="-1.50" y="-6.75" transform="translate(161.50,162.25) rotate(0.1)" width="3.00" height="13.50" rx="0.41"/>
<path fill="#000000" d="
  M 166.27 162.33
  Q 166.18 157.02 166.17 156.30
  A 0.74 0.73 -1.0 0 1 166.90 155.55
  L 174.38 155.37
  A 0.47 0.46 -1.4 0 1 174.86 155.82
  L 174.90 157.45
  A 0.45 0.45 0.0 0 1 174.46 157.91
  L 169.69 158.03
  A 0.58 0.57 -1.4 0 0 169.12 158.62
  L 169.16 160.44
  A 0.59 0.59 0.0 0 0 169.77 161.02
  L 172.94 160.94
  A 0.79 0.78 -6.6 0 1 173.73 161.55
  Q 173.79 161.86 173.80 162.20
  Q 173.80 162.53 173.75 162.84
  A 0.79 0.78 4.6 0 1 172.98 163.49
  L 169.82 163.52
  A 0.59 0.59 0.0 0 0 169.23 164.12
  L 169.25 165.94
  A 0.58 0.57 -0.6 0 0 169.84 166.51
  L 174.62 166.46
  A 0.45 0.45 0.0 0 1 175.08 166.90
  L 175.09 168.53
  A 0.47 0.46 -0.6 0 1 174.63 169.00
  L 167.14 169.09
  A 0.74 0.73 -1.0 0 1 166.39 168.37
  Q 166.37 167.65 166.27 162.33
  Z"
/>
<path fill="#000000" d="
  M 178.27 155.92
  A 0.42 0.42 0.0 0 1 178.70 155.51
  L 182.76 155.53
  A 5.78 5.74 0.3 0 1 188.51 161.30
  L 188.49 163.34
  A 5.78 5.74 0.3 0 1 182.68 169.05
  L 178.62 169.03
  A 0.42 0.42 0.0 0 1 178.21 168.60
  L 178.27 155.92
  Z
  M 181.25 158.51
  L 181.25 165.97
  A 0.56 0.56 0.0 0 0 181.81 166.53
  L 182.28 166.53
  A 3.29 3.23 90.0 0 0 185.51 163.24
  L 185.51 161.24
  A 3.29 3.23 -90.0 0 0 182.28 157.95
  L 181.81 157.95
  A 0.56 0.56 0.0 0 0 181.25 158.51
  Z"
/>
<rect fill="#000000" x="224.49" y="155.51" width="2.76" height="13.46" rx="0.42"/>
<path fill="#000000" d="
  M 238.19 162.23
  Q 238.20 162.56 238.14 162.87
  A 0.78 0.78 0.0 0 1 237.37 163.50
  L 234.22 163.50
  A 0.59 0.59 0.0 0 0 233.63 164.09
  L 233.63 165.90
  A 0.58 0.57 -0.0 0 0 234.21 166.47
  L 238.96 166.47
  A 0.45 0.45 0.0 0 1 239.41 166.92
  L 239.41 168.54
  A 0.47 0.46 -0.0 0 1 238.94 169.00
  L 231.50 169.00
  A 0.74 0.73 -0.4 0 1 230.76 168.28
  Q 230.75 167.56 230.71 162.28
  Q 230.67 156.99 230.68 156.27
  A 0.74 0.73 -0.4 0 1 231.41 155.54
  L 238.85 155.44
  A 0.47 0.46 -0.8 0 1 239.32 155.90
  L 239.35 157.52
  A 0.45 0.45 0.0 0 1 238.90 157.97
  L 234.15 158.04
  A 0.58 0.57 -0.8 0 0 233.58 158.61
  L 233.61 160.42
  A 0.59 0.59 0.0 0 0 234.20 161.01
  L 237.35 160.96
  A 0.78 0.78 0.0 0 1 238.13 161.59
  Q 238.19 161.90 238.19 162.23
  Z"
/>
<path fill="#000000" d="
  M 250.45 162.61
  L 250.45 155.90
  A 0.46 0.45 90.0 0 1 250.90 155.44
  L 252.98 155.44
  A 0.47 0.47 0.0 0 1 253.45 155.91
  L 253.45 168.48
  A 0.61 0.60 90.0 0 1 252.85 169.09
  L 250.91 169.09
  A 0.90 0.89 77.5 0 1 250.10 168.57
  L 245.91 159.64
  A 0.19 0.19 0.0 0 0 245.55 159.72
  L 245.55 168.53
  A 0.52 0.52 0.0 0 1 245.03 169.05
  L 243.05 169.05
  A 0.50 0.50 0.0 0 1 242.55 168.55
  L 242.55 155.99
  A 0.58 0.58 0.0 0 1 243.13 155.41
  L 246.11 155.41
  A 0.90 0.89 77.5 0 1 246.92 155.93
  L 250.09 162.69
  A 0.19 0.19 0.0 0 0 250.45 162.61
  Z"
/>
<path fill="#000000" d="
  M 270.26 162.29
  Q 270.21 157.00 270.21 156.28
  A 0.74 0.73 -0.6 0 1 270.94 155.55
  L 278.39 155.42
  A 0.47 0.46 -0.9 0 1 278.87 155.88
  L 278.89 157.50
  A 0.45 0.45 0.0 0 1 278.45 157.95
  L 273.70 158.03
  A 0.58 0.57 -0.9 0 0 273.13 158.61
  L 273.16 160.42
  A 0.59 0.59 0.0 0 0 273.76 161.00
  L 276.91 160.95
  A 0.78 0.78 0.0 0 1 277.69 161.57
  Q 277.75 161.88 277.75 162.21
  Q 277.76 162.54 277.70 162.85
  A 0.78 0.78 0.0 0 1 276.93 163.49
  L 273.78 163.50
  A 0.59 0.59 0.0 0 0 273.19 164.09
  L 273.20 165.90
  A 0.58 0.57 -0.2 0 0 273.78 166.47
  L 278.53 166.46
  A 0.45 0.45 0.0 0 1 278.98 166.91
  L 278.99 168.53
  A 0.47 0.46 -0.2 0 1 278.52 168.99
  L 271.07 169.01
  A 0.74 0.73 -0.5 0 1 270.33 168.29
  Q 270.32 167.58 270.26 162.29
  Z"
/>
</svg>
