<svg xmlns="http://www.w3.org/2000/svg" xml:space="preserve" style="fill-rule:evenodd;clip-rule:evenodd;stroke-linejoin:round;stroke-miterlimit:2" viewBox="0 0 1638 614"><path d="M0 51.042h-12.945l-13.791-25.516v25.516H-39.68V0l12.944.074 13.791 25.452V0L0 .074z" style="fill:#5fc85c;fill-rule:nonzero" transform="translate(1630.4 3.9)scale(8.33333)"/><path d="M0 2.893c-3.183 4.039-6.853 7.662-10.621 11.149-2.265 2.096-4.686 4.212-7.663 5.022-6.355 1.729-10.649-3.094-14.727-7.069C-22.995 10.902-8.77-5.625-8.135-6.578c1.558-2.337-.991-6.443-4.791-3.8L-24.081.779c-2.888 3.217-5.862 5.034-10.117 5.239-6.607.319-11.646-5.031-11.646-11.646 0-6.614 5.032-11.316 11.646-11.316 4.039 0 7.175 1.651 9.426 4.524l-8.049 8.049c-.462.462-.936.942-1.223 1.523q-.06.122-.109.249c-.386 1.018-.063 2.259.758 2.973.822.714 2.083.864 3.057.378.534-.266.967-.692 1.391-1.112l9.439-9.341c2.88-2.849 5.983-5.824 9.94-6.691 5.194-1.139 10.616 1.824 12.663 6.697C5.044-5.057 2.874-.753 0 2.893M9.975-8.422c-1.037-5.186-3.835-9.97-8.727-12.2-4.532-2.066-10.518-2.281-15.262-.766-1.067.341-2.127 1.068-3.074 1.666-1.029.648-1.899 1.516-2.759 2.376l-.604.604c-3.241-4.003-8.195-6.563-13.747-6.563-9.763 0-17.678 7.914-17.678 17.677 0 5.238 2.279 9.884 5.898 13.099l-.055-.018c4.61 3.733 8.661 8.537 12.875 12.729 2.235 2.224 4.775 3.94 7.857 4.725 5.072 1.291 10.278.301 14.58-2.639 2.521-1.723 4.872-3.848 7.128-5.899a130 130 0 0 0 6.729-6.59c4.707-4.93 8.239-11.198 6.839-18.201" style="fill:#5fc85c;fill-rule:nonzero" transform="translate(434.385 194.041)scale(8.33333)"/><path d="M0 49.505V35.491q.945.17 1.587.253.642.084 1.115.084 1.822 0 2.853-.979 1.03-.98 1.03-2.701 0-1.925-1.756-4.728l-.304-.507q-.135-.202-.304-.472Q.777 20.835.777 16.107q0-6.821 5.031-11.92 5.032-5.1 11.988-5.099 1.723 0 3.563.371 1.84.372 3.968 1.148v14.251q-1.352-.574-2.279-.811a7.4 7.4 0 0 0-1.807-.236q-1.655 0-2.702 1.047t-1.046 2.701q0 1.554 1.722 4.424l.506.912q1.553 2.634 2.297 5.217.742 2.583.742 5.217 0 7.363-4.93 12.225-4.93 4.863-12.157 4.863-1.25 0-2.6-.22A30 30 0 0 1 0 49.505" style="fill:#5fc85c;fill-rule:nonzero" transform="translate(623.63 10.31)scale(8.33333)"/><path d="M0 49.303V0h17.222q4.424 0 7.598.591a29.6 29.6 0 0 1 6.248 1.908q6.753 2.769 10.671 8.746t3.917 13.44q0 7.464-3.883 13.423-3.884 5.961-10.638 8.831a30.7 30.7 0 0 1-5.791 1.773q-2.956.591-6.028.591h-2.364V34.58h2.567q5.199 0 8.307-2.719 3.107-2.718 3.107-7.243 0-4.93-3.394-7.413-3.395-2.482-10.013-2.482h-2.769v34.58z" style="fill:#5fc85c;fill-rule:nonzero" transform="translate(876.974 11.15)scale(8.33333)"/><path d="M0-8.444c.056-.178.111-.312.323-.312.178 0 .39.112.39.323a.6.6 0 0 1-.033.201L-1.771-.211c-.078.245-.167.523-.591.523-.456 0-.546-.278-.612-.512l-2.284-7.732L-7.553-.2c-.067.234-.156.512-.602.512-.434 0-.523-.267-.601-.512l-2.451-8.032a.5.5 0 0 1-.033-.19c0-.245.245-.334.389-.334.201 0 .268.123.323.312l2.373 7.976 2.329-7.853c.111-.379.312-.435.534-.435.268 0 .468.022.591.435l2.328 7.853z" style="fill:#5fc85c;fill-rule:nonzero;stroke:#5fc85c;stroke-width:.48px" transform="translate(136.468 583.355)scale(8.33333)"/><path d="M0 5.615c1.159 0 2.484-.78 2.484-2.808C2.484.769 1.136 0 0 0s-2.473.769-2.473 2.807c0 2.028 1.326 2.808 2.473 2.808M0-.624c1.782 0 3.186 1.337 3.186 3.431C3.197 4.913 1.782 6.239 0 6.239c-1.76 0-3.175-1.315-3.175-3.432C-3.175.702-1.76-.624 0-.624" style="fill:#5fc85c;fill-rule:nonzero;stroke:#5fc85c;stroke-width:.48px" transform="translate(176.668 533.968)scale(8.33333)"/><path d="M0-4.612a2.21 2.21 0 0 1 1.927-1.125c.212 0 .323.145.323.312 0 .256-.211.301-.278.312-.39.033-.401.033-.568.078C0-4.645 0-3.242 0-2.696V.791c0 .212-.134.334-.345.334-.156 0-.346-.089-.346-.334v-6.194c0-.212.145-.334.346-.334.122 0 .345.055.345.334z" style="fill:#5fc85c;fill-rule:nonzero;stroke:#5fc85c;stroke-width:.48px" transform="translate(221.694 576.58)scale(8.33333)"/><path d="M0-8.445c0-.29.223-.345.345-.345.212 0 .357.122.357.345v7.397c0 .424 0 .769.601.769h.234c.245 0 .301.2.301.312 0 .189-.111.312-.301.312h-.256C.044.345 0-.346 0-1.014z" style="fill:#5fc85c;fill-rule:nonzero;stroke:#5fc85c;stroke-width:.48px" transform="translate(253.35 581.599)scale(8.33333)"/><path d="M0-3.164c-1.203 0-2.306.836-2.306 2.807 0 2.028 1.147 2.808 2.306 2.808 1.181 0 2.25-.813 2.25-2.808 0-2.016-1.091-2.807-2.25-2.807m2.239 4.958c-.211.323-.835 1.281-2.317 1.281-1.571 0-2.919-1.181-2.919-3.432s1.348-3.431 2.919-3.431c1.393 0 2.05.88 2.317 1.281v-3.386c0-.223.134-.346.346-.346.156 0 .345.09.345.346V2.74c0 .212-.145.335-.345.335-.123 0-.346-.056-.346-.335z" style="fill:#5fc85c;fill-rule:nonzero;stroke:#5fc85c;stroke-width:.48px" transform="translate(299.395 560.334)scale(8.33333)"/><path d="M0 7.018a3.65 3.65 0 0 0 1.604.368c1.036 0 2.262-.446 2.262-1.794 0-1.237-.925-1.56-1.894-1.905C.936 3.33-.39 2.874-.39 1.336c0-1.27.958-2.361 2.573-2.361a4.2 4.2 0 0 1 1.638.356c.1.045.268.123.268.334A.344.344 0 0 1 3.754 0c-.067 0-.156-.034-.356-.123a3.3 3.3 0 0 0-1.226-.245C.958-.368.345.479.345 1.314c0 1.092.903 1.404 1.883 1.749 1.069.379 2.373.847 2.373 2.507 0 1.626-1.348 2.473-2.975 2.473-1.047 0-1.749-.335-2.016-.457-.156-.078-.312-.178-.312-.368 0-.178.134-.345.334-.345.056 0 .145.045.368.145" style="fill:#5fc85c;fill-rule:nonzero;stroke:#5fc85c;stroke-width:.48px" transform="translate(371.808 518.933)scale(8.33333)"/><path d="M0 5.615c1.159 0 2.484-.78 2.484-2.808C2.484.769 1.136 0 0 0s-2.473.769-2.473 2.807c0 2.028 1.326 2.808 2.473 2.808M0-.624c1.782 0 3.186 1.337 3.186 3.431C3.197 4.913 1.782 6.239 0 6.239c-1.76 0-3.175-1.315-3.175-3.432C-3.175.702-1.76-.624 0-.624" style="fill:#5fc85c;fill-rule:nonzero;stroke:#5fc85c;stroke-width:.48px" transform="translate(447.47 533.968)scale(8.33333)"/><path d="M0 0c0-1.905 1.248-3.431 3.286-3.431.758 0 1.393.234 1.671.39.09.056.212.122.212.301a.314.314 0 0 1-.312.323c-.056 0-.1-.022-.345-.134a2.8 2.8 0 0 0-1.203-.256c-1.426 0-2.607.958-2.607 2.796 0 1.571.847 2.819 2.662 2.819.691 0 1.114-.157 1.304-.235.089-.033.211-.089.301-.089.144 0 .3.123.3.312a.32.32 0 0 1-.189.301c-.368.178-1.103.334-1.771.334C1.036 3.431 0 1.749 0 0" style="fill:#5fc85c;fill-rule:nonzero;stroke:#5fc85c;stroke-width:.48px" transform="translate(483.861 557.363)scale(8.33333)"/><path d="M0-3.966c0-.29.234-.345.345-.345.212 0 .368.122.368.345v6.172c0 .256-.201.345-.357.345-.222 0-.356-.122-.356-.345zM.913-5.96a.55.55 0 0 1-.557.557.545.545 0 0 1-.557-.557.56.56 0 0 1 .557-.557c.301 0 .557.256.557.557" style="fill:#5fc85c;fill-rule:nonzero;stroke:#5fc85c;stroke-width:.48px" transform="translate(540.305 564.698)scale(8.33333)"/><path d="M0-.779c.145 0 .278 0 .278-.178 0-.446-.434-2.24-2.138-2.24-1.271 0-2.128 1.025-2.217 2.418zm-4.089.624c.023.523.112 2.573 2.607 2.573.479 0 .958-.067 1.415-.234.223-.078.245-.089.301-.089.145 0 .312.123.312.312s-.145.278-.223.312c-.29.134-1.014.323-1.827.323-2.707 0-3.275-2.105-3.275-3.387 0-1.893 1.08-3.476 2.93-3.476C.189-3.821.947-1.96.947-.835c0 .68-.457.68-.947.68z" style="fill:#5fc85c;fill-rule:nonzero;stroke:#5fc85c;stroke-width:.48px" transform="translate(599.998 560.608)scale(8.33333)"/><path d="M0 4.846c0 .791.033 1.315 1.159 1.315.089 0 .557-.023.568-.023.2 0 .312.156.312.312 0 .301-.279.334-.958.334-1.66 0-1.772-.924-1.772-1.96v-4.1H-1.86c-.301 0-.301-.278-.301-.312 0-.178.1-.312.301-.312h1.169v-1.693c0-.256.19-.345.335-.345.222 0 .356.122.356.345V.1h1.849c.257 0 .312.212.312.312 0 .19-.111.312-.312.312H0z" style="fill:#5fc85c;fill-rule:nonzero;stroke:#5fc85c;stroke-width:.48px" transform="translate(633.696 529.42)scale(8.33333)"/><path d="m0 2.852-2.262-5.693c-.055-.133-.066-.178-.066-.256 0-.167.189-.301.378-.301.201 0 .257.134.29.234L.357 1.95l2.027-5.103c.045-.122.089-.245.301-.245.189 0 .367.134.367.312 0 .067-.033.145-.066.234l-3.51 8.801c-.066.167-.122.301-.323.301-.122 0-.356-.067-.356-.301 0-.067.022-.089.067-.212z" style="fill:#5fc85c;fill-rule:nonzero;stroke:#5fc85c;stroke-width:.48px" transform="translate(676.774 557.084)scale(8.33333)"/><path d="M0 5.615c1.159 0 2.484-.78 2.484-2.808C2.484.769 1.136 0 0 0s-2.473.769-2.473 2.807c0 2.028 1.326 2.808 2.473 2.808M0-.624c1.782 0 3.186 1.337 3.186 3.431C3.197 4.913 1.782 6.239 0 6.239c-1.76 0-3.175-1.315-3.175-3.432C-3.175.702-1.76-.624 0-.624" style="fill:#5fc85c;fill-rule:nonzero;stroke:#5fc85c;stroke-width:.48px" transform="translate(767.195 533.968)scale(8.33333)"/><path d="M0-5.859c0-.557 0-1.727 1.526-1.727.156 0 .468 0 .468.323 0 .123-.078.312-.323.312-.947 0-.98.446-.98 1.103v.891h1.036c.256 0 .312.212.312.312 0 .19-.112.312-.312.312H.691v5.726c0 .279-.223.334-.335.334-.211 0-.356-.122-.356-.334v-5.726h-.936c-.301 0-.312-.278-.312-.312 0-.178.112-.312.312-.312H0z" style="fill:#5fc85c;fill-rule:nonzero;stroke:#5fc85c;stroke-width:.48px" transform="translate(811.757 571.562)scale(8.33333)"/><path d="M0 6.528c0 .356.134.434.446.434h1.96c1.359 0 2.05-.234 2.596-.623 1.259-.881 1.326-2.563 1.326-3.064 0-3.71-2.964-3.71-3.91-3.71H.446C.134-.435 0-.357 0 .011zm2.451-7.62c.523 0 1.348 0 2.239.334 2.061.78 2.362 2.952 2.362 4.022 0 .49-.022 2.54-1.615 3.631-.825.558-1.738.725-3.009.725H.267c-.991 0-.991-.758-.991-1.103V.011c0-.357 0-1.103.991-1.103z" style="fill:#5fc85c;fill-rule:nonzero;stroke:#5fc85c;stroke-width:.48px" transform="translate(876.464 520.974)scale(8.33333)"/><path d="M0-3.966c0-.29.234-.345.345-.345.212 0 .368.122.368.345v6.172c0 .256-.201.345-.357.345-.223 0-.356-.122-.356-.345zM.914-5.96a.55.55 0 0 1-.558.557.545.545 0 0 1-.557-.557.56.56 0 0 1 .557-.557c.301 0 .558.256.558.557" style="fill:#5fc85c;fill-rule:nonzero;stroke:#5fc85c;stroke-width:.48px" transform="translate(948.692 564.698)scale(8.33333)"/><path d="M0 5.214c.312.1.724.201 1.226.201.244 0 1.815 0 1.815-1.271 0-.846-.635-1.047-1.771-1.403C.446 2.485-.501 2.195-.501.992-.501-.167.501-.824 1.76-.824c.668 0 1.103.167 1.281.234.112.044.268.111.268.323 0 .2-.156.312-.301.312-.022 0-.334-.1-.39-.112A3.2 3.2 0 0 0 1.749-.2C.869-.2.189.179.189.958c0 .791.491.947 1.727 1.337.736.223 1.827.568 1.827 1.849 0 1.259-1.147 1.894-2.529 1.894-.211 0-.947-.011-1.726-.334-.112-.044-.279-.111-.279-.323 0-.178.134-.323.323-.323.045 0 .412.134.468.156" style="fill:#5fc85c;fill-rule:nonzero;stroke:#5fc85c;stroke-width:.48px" transform="translate(973.941 535.637)scale(8.33333)"/><path d="M0-.825c-.278.178-.434.212-1.805.412-1.002.156-2.016.301-2.016 1.515 0 .513.234 1.293 1.415 1.293 1.292 0 2.072-.914 2.406-1.671zM.691 1.67c0 .324.044.557.067.658.022.1.1.312.1.367 0 .212-.201.324-.368.324-.445 0-.49-.781-.49-1.304-.835 1.192-1.96 1.304-2.462 1.304-1.348 0-2.05-.87-2.05-1.895 0-.891.435-1.76 2.05-2.038.29-.056 1.604-.223 1.861-.29.234-.055.59-.144.59-.724 0-.913-.903-1.292-1.86-1.292-.669 0-1.148.145-1.438.29-.211.1-.267.122-.345.122-.178 0-.29-.145-.29-.301 0-.211.168-.289.413-.401a4.2 4.2 0 0 1 1.648-.334c.825 0 1.694.245 2.184.858.334.412.39.902.39 1.571z" style="fill:#5fc85c;fill-rule:nonzero;stroke:#5fc85c;stroke-width:.48px" transform="translate(1052.57 560.803)scale(8.33333)"/><path d="M0 5.214c.312.1.724.201 1.225.201.245 0 1.816 0 1.816-1.271 0-.846-.635-1.047-1.771-1.403C.446 2.485-.502 2.195-.502.992-.502-.167.501-.824 1.76-.824c.668 0 1.103.167 1.281.234.111.044.268.111.268.323 0 .2-.157.312-.301.312-.023 0-.334-.1-.39-.112A3.2 3.2 0 0 0 1.749-.2C.869-.2.189.179.189.958c0 .791.491.947 1.727 1.337.735.223 1.827.568 1.827 1.849 0 1.259-1.147 1.894-2.529 1.894-.211 0-.947-.011-1.726-.334-.112-.044-.279-.111-.279-.323 0-.178.134-.323.323-.323.045 0 .412.134.468.156" style="fill:#5fc85c;fill-rule:nonzero;stroke:#5fc85c;stroke-width:.48px" transform="translate(1076.81 535.637)scale(8.33333)"/><path d="M0 4.846c0 .791.034 1.315 1.159 1.315.089 0 .557-.023.568-.023.2 0 .312.156.312.312 0 .301-.279.334-.958.334-1.66 0-1.771-.924-1.771-1.96v-4.1h-1.17c-.301 0-.301-.278-.301-.312 0-.178.1-.312.301-.312h1.17v-1.693c0-.256.189-.345.334-.345.223 0 .356.122.356.345V.1h1.849c.257 0 .312.212.312.312 0 .19-.111.312-.312.312H0z" style="fill:#5fc85c;fill-rule:nonzero;stroke:#5fc85c;stroke-width:.48px" transform="translate(1133.71 529.42)scale(8.33333)"/><path d="M0-.779c.145 0 .278 0 .278-.178 0-.446-.434-2.24-2.139-2.24-1.27 0-2.127 1.025-2.216 2.418zm-4.089.624c.023.523.112 2.573 2.607 2.573.479 0 .958-.067 1.415-.234.223-.078.245-.089.301-.089.145 0 .312.123.312.312s-.145.278-.223.312c-.29.134-1.014.323-1.827.323-2.707 0-3.275-2.105-3.275-3.387 0-1.893 1.08-3.476 2.93-3.476C.189-3.821.947-1.96.947-.835c0 .68-.457.68-.947.68z" style="fill:#5fc85c;fill-rule:nonzero;stroke:#5fc85c;stroke-width:.48px" transform="translate(1199.44 560.608)scale(8.33333)"/><path d="M0-4.612a2.21 2.21 0 0 1 1.927-1.125c.212 0 .323.145.323.312 0 .256-.211.301-.278.312-.39.033-.401.033-.568.078C0-4.645 0-3.242 0-2.696V.791c0 .212-.133.334-.345.334-.156 0-.346-.089-.346-.334v-6.194c0-.212.145-.334.346-.334.122 0 .345.055.345.334z" style="fill:#5fc85c;fill-rule:nonzero;stroke:#5fc85c;stroke-width:.48px" transform="translate(1225.9 576.58)scale(8.33333)"/><path d="M0-8.356c0-.301.234-.356.356-.356.212 0 .368.133.368.356v7.843c0 .334 0 .869-.635.869-.379 0-.524-.179-.758-.513l-5.369-7.787v7.943c0 .301-.245.357-.357.357-.211 0-.367-.123-.367-.357v-7.843c0-.323 0-.868.635-.868.378 0 .523.178.757.523L0-.413z" style="fill:#5fc85c;fill-rule:nonzero;stroke:#5fc85c;stroke-width:.48px" transform="translate(1343.62 582.993)scale(8.33333)"/><path d="M0-6.194c0-.279.223-.334.345-.334.201 0 .346.122.346.334v3.487c0 1.092 0 2.418 1.626 2.418a2 2 0 0 0 1.727-.925c.301-.49.301-1.092.301-1.493v-3.487c0-.279.223-.334.345-.334.201 0 .345.122.345.334V0c0 .245-.189.334-.345.334-.211 0-.345-.122-.345-.334v-.791C3.576.334 2.596.334 2.25.334 1.181.334.557-.201.301-.668.034-1.17 0-1.627 0-2.629z" style="fill:#5fc85c;fill-rule:nonzero;stroke:#5fc85c;stroke-width:.48px" transform="translate(1365.34 583.172)scale(8.33333)"/><path d="M0-4.612a2.21 2.21 0 0 1 1.927-1.125c.212 0 .323.145.323.312 0 .256-.211.301-.278.312-.39.033-.401.033-.568.078C0-4.645 0-3.242 0-2.696V.791c0 .212-.134.334-.345.334-.156 0-.346-.089-.346-.334v-6.194c0-.212.145-.334.346-.334.122 0 .345.055.345.334z" style="fill:#5fc85c;fill-rule:nonzero;stroke:#5fc85c;stroke-width:.48px" transform="translate(1428.66 576.58)scale(8.33333)"/><path d="M0 5.214c.312.1.724.201 1.225.201.245 0 1.816 0 1.816-1.271 0-.846-.635-1.047-1.771-1.403C.446 2.485-.502 2.195-.502.992-.502-.167.501-.824 1.76-.824c.668 0 1.103.167 1.281.234.111.044.268.111.268.323 0 .2-.157.312-.301.312-.023 0-.334-.1-.39-.112A3.2 3.2 0 0 0 1.749-.2C.869-.2.189.179.189.958c0 .791.491.947 1.727 1.337.735.223 1.827.568 1.827 1.849 0 1.259-1.147 1.894-2.529 1.894-.211 0-.947-.011-1.726-.334-.112-.044-.279-.111-.279-.323 0-.178.134-.323.323-.323.045 0 .412.134.468.156" style="fill:#5fc85c;fill-rule:nonzero;stroke:#5fc85c;stroke-width:.48px" transform="translate(1461.52 535.637)scale(8.33333)"/><path d="M0-3.966c0-.29.234-.345.345-.345.212 0 .368.122.368.345v6.172c0 .256-.201.345-.356.345-.223 0-.357-.122-.357-.345zM.914-5.96a.55.55 0 0 1-.557.557A.544.544 0 0 1-.2-5.96c0-.312.256-.557.557-.557.3 0 .557.256.557.557" style="fill:#5fc85c;fill-rule:nonzero;stroke:#5fc85c;stroke-width:.48px" transform="translate(1506.73 564.698)scale(8.33333)"/><path d="M0 6.194c0 .279-.223.334-.345.334-.201 0-.346-.122-.346-.334V2.707c0-1.091 0-2.417-1.626-2.417a2 2 0 0 0-1.727.925c-.301.49-.301 1.091-.301 1.492v3.487c0 .279-.223.334-.345.334-.201 0-.345-.122-.345-.334V0c0-.245.189-.334.345-.334.211 0 .345.122.345.334v.791C-3.576-.334-2.596-.334-2.25-.334c1.069 0 1.693.535 1.949 1.003.267.501.301.958.301 1.96z" style="fill:#5fc85c;fill-rule:nonzero;stroke:#5fc85c;stroke-width:.48px" transform="translate(1571.44 531.553)scale(8.33333)"/><path d="M0-5.347C0-4.4.813-3.888 1.738-3.888c.992 0 1.771-.557 1.771-1.503 0-.936-.757-1.493-1.726-1.493C.68-6.884 0-6.216 0-5.347M1.37-1.27C-.379-1.27-.379.011-.379.145c0 1.393 1.872 1.393 2.195 1.393 1.805 0 2.273-.769 2.273-1.36 0-1.125-.858-1.448-2.719-1.448m3.242-6.227c.323 0 .39.212.39.323 0 .212-.156.312-.345.323a1.4 1.4 0 0 0-.813.301c.088.145.356.535.356 1.236 0 1.649-1.526 2.05-2.417 2.05-.323 0-.502-.044-.624-.067-.78.279-1.059.624-1.059.88 0 .368.491.468.602.49.212.034.579.067 1.816.145C4.2-1.704 4.779-.869 4.779.123c0 2.027-2.495 2.027-2.974 2.027-1.927 0-2.874-.79-2.874-1.96 0-.769.379-1.315 1.058-1.738-.223-.111-.579-.301-.579-.813 0-.446.334-.892.98-1.237C-.702-4.189-.702-5.213-.702-5.403c0-1.303 1.125-2.094 2.473-2.094.134 0 .947 0 1.593.457.58-.457 1.137-.457 1.248-.457" style="fill:#5fc85c;fill-rule:nonzero;stroke:#5fc85c;stroke-width:.48px" transform="translate(1592.23 591.246)scale(8.33333)"/></svg>